<svg width="17" height="15" viewBox="0 0 17 15" fill="none" xmlns="http://www.w3.org/2000/svg">
<path fill-rule="evenodd" clip-rule="evenodd" d="M2.64706 2.14706H11.7059V3.67647H13.3529V0.5H1V14.5H7.47059V12.8529H2.64706V2.14706ZM12.647 4.38236C14.0471 4.38236 15.1176 5.45289 15.1176 6.85295C15.1176 8.253 14.0471 9.32353 12.647 9.32353C11.247 9.32353 10.1764 8.253 10.1764 6.85295C10.1764 5.45289 11.247 4.38236 12.647 4.38236ZM11.8235 6.85295C11.8235 7.34709 12.1529 7.67647 12.647 7.67647C13.1412 7.67647 13.4706 7.34709 13.4706 6.85295C13.4706 6.3588 13.1412 6.02942 12.647 6.02942C12.1529 6.02942 11.8235 6.3588 11.8235 6.85295ZM8.52933 13.6765C8.52933 11.3707 10.3412 9.55887 12.647 9.55887C14.9528 9.55887 16.7646 11.3707 16.7646 13.6765V14.5H8.52933V13.6765ZM12.647 11.2059C11.5764 11.2059 10.6705 11.8647 10.3412 12.853H14.9528C14.6234 11.8647 13.7175 11.2059 12.647 11.2059ZM10.0589 3.79412H3.47062V5.44118H10.0589V3.79412ZM3.47062 7.08825H9.23533V8.73531H3.47062V7.08825ZM6.76474 10.3824H3.47062V12.0294H6.76474V10.3824Z" fill="#53B36E"/>
<path d="M11.7059 2.14706H11.9059V1.94706H11.7059V2.14706ZM2.64706 2.14706V1.94706H2.44706V2.14706H2.64706ZM11.7059 3.67647H11.5059V3.87647H11.7059V3.67647ZM13.3529 3.67647V3.87647H13.5529V3.67647H13.3529ZM13.3529 0.5H13.5529V0.3H13.3529V0.5ZM1 0.5V0.3H0.8V0.5H1ZM1 14.5H0.8V14.7H1V14.5ZM7.47059 14.5V14.7H7.67059V14.5H7.47059ZM7.47059 12.8529H7.67059V12.6529H7.47059V12.8529ZM2.64706 12.8529H2.44706V13.0529H2.64706V12.8529ZM16.7646 14.5V14.7H16.9646V14.5H16.7646ZM8.52933 14.5H8.32933V14.7H8.52933V14.5ZM10.3412 12.853L10.1514 12.7898L10.0637 13.053H10.3412V12.853ZM14.9528 12.853V13.053H15.2303L15.1425 12.7898L14.9528 12.853ZM3.47062 3.79412V3.59412H3.27062V3.79412H3.47062ZM10.0589 3.79412H10.2589V3.59412H10.0589V3.79412ZM3.47062 5.44118H3.27062V5.64118H3.47062V5.44118ZM10.0589 5.44118V5.64118H10.2589V5.44118H10.0589ZM9.23533 7.08825H9.43533V6.88825H9.23533V7.08825ZM3.47062 7.08825V6.88825H3.27062V7.08825H3.47062ZM9.23533 8.73531V8.93531H9.43533V8.73531H9.23533ZM3.47062 8.73531H3.27062V8.93531H3.47062V8.73531ZM3.47062 10.3824V10.1824H3.27062V10.3824H3.47062ZM6.76474 10.3824H6.96474V10.1824H6.76474V10.3824ZM3.47062 12.0294H3.27062V12.2294H3.47062V12.0294ZM6.76474 12.0294V12.2294H6.96474V12.0294H6.76474ZM11.7059 1.94706H2.64706V2.34706H11.7059V1.94706ZM11.9059 3.67647V2.14706H11.5059V3.67647H11.9059ZM13.3529 3.47647H11.7059V3.87647H13.3529V3.47647ZM13.1529 0.5V3.67647H13.5529V0.5H13.1529ZM1 0.7H13.3529V0.3H1V0.7ZM1.2 14.5V0.5H0.8V14.5H1.2ZM7.47059 14.3H1V14.7H7.47059V14.3ZM7.27059 12.8529V14.5H7.67059V12.8529H7.27059ZM2.64706 13.0529H7.47059V12.6529H2.64706V13.0529ZM2.44706 2.14706V12.8529H2.84706V2.14706H2.44706ZM15.3176 6.85295C15.3176 5.34243 14.1576 4.18236 12.647 4.18236V4.58236C13.9366 4.58236 14.9176 5.56334 14.9176 6.85295H15.3176ZM12.647 9.52353C14.1576 9.52353 15.3176 8.36346 15.3176 6.85295H14.9176C14.9176 8.14255 13.9366 9.12353 12.647 9.12353V9.52353ZM9.97645 6.85295C9.97645 8.36346 11.1365 9.52353 12.647 9.52353V9.12353C11.3574 9.12353 10.3764 8.14255 10.3764 6.85295H9.97645ZM12.647 4.18236C11.1365 4.18236 9.97645 5.34243 9.97645 6.85295H10.3764C10.3764 5.56334 11.3574 4.58236 12.647 4.58236V4.18236ZM12.647 7.47647C12.4454 7.47647 12.2929 7.41015 12.1914 7.30859C12.0898 7.20704 12.0235 7.05458 12.0235 6.85295H11.6235C11.6235 7.14546 11.7219 7.40476 11.9085 7.59144C12.0952 7.77811 12.3545 7.87647 12.647 7.87647V7.47647ZM13.2706 6.85295C13.2706 7.05458 13.2042 7.20704 13.1027 7.30859C13.0011 7.41015 12.8487 7.47647 12.647 7.47647V7.87647C12.9396 7.87647 13.1989 7.77811 13.3855 7.59144C13.5722 7.40476 13.6706 7.14546 13.6706 6.85295H13.2706ZM12.647 6.22942C12.8487 6.22942 13.0011 6.29574 13.1027 6.3973C13.2042 6.49885 13.2706 6.65131 13.2706 6.85295H13.6706C13.6706 6.56043 13.5722 6.30113 13.3855 6.11445C13.1989 5.92778 12.9396 5.82942 12.647 5.82942V6.22942ZM12.0235 6.85295C12.0235 6.65131 12.0898 6.49885 12.1914 6.3973C12.2929 6.29574 12.4454 6.22942 12.647 6.22942V5.82942C12.3545 5.82942 12.0952 5.92778 11.9085 6.11445C11.7219 6.30113 11.6235 6.56043 11.6235 6.85295H12.0235ZM12.647 9.35887C10.2307 9.35887 8.32933 11.2602 8.32933 13.6765H8.72933C8.72933 11.4812 10.4516 9.75887 12.647 9.75887V9.35887ZM16.9646 13.6765C16.9646 11.2602 15.0633 9.35887 12.647 9.35887V9.75887C14.8423 9.75887 16.5646 11.4812 16.5646 13.6765H16.9646ZM16.9646 14.5V13.6765H16.5646V14.5H16.9646ZM8.52933 14.7H16.7646V14.3H8.52933V14.7ZM8.32933 13.6765V14.5H8.72933V13.6765H8.32933ZM10.5309 12.9162C10.8329 12.0102 11.6619 11.4059 12.647 11.4059V11.0059C11.491 11.0059 10.5082 11.7192 10.1514 12.7898L10.5309 12.9162ZM14.9528 12.653H10.3412V13.053H14.9528V12.653ZM12.647 11.4059C13.632 11.4059 14.4611 12.0102 14.7631 12.9162L15.1425 12.7898C14.7857 11.7192 13.803 11.0059 12.647 11.0059V11.4059ZM3.47062 3.99412H10.0589V3.59412H3.47062V3.99412ZM3.67062 5.44118V3.79412H3.27062V5.44118H3.67062ZM10.0589 5.24118H3.47062V5.64118H10.0589V5.24118ZM9.85886 3.79412V5.44118H10.2589V3.79412H9.85886ZM9.23533 6.88825H3.47062V7.28825H9.23533V6.88825ZM9.43533 8.73531V7.08825H9.03533V8.73531H9.43533ZM3.47062 8.93531H9.23533V8.53531H3.47062V8.93531ZM3.27062 7.08825V8.73531H3.67062V7.08825H3.27062ZM3.47062 10.5824H6.76474V10.1824H3.47062V10.5824ZM3.67062 12.0294V10.3824H3.27062V12.0294H3.67062ZM6.76474 11.8294H3.47062V12.2294H6.76474V11.8294ZM6.56474 10.3824V12.0294H6.96474V10.3824H6.56474Z" fill="white"/>
</svg>
