<svg width="375" height="200" viewBox="0 0 375 200" fill="none" xmlns="http://www.w3.org/2000/svg">
<rect width="375" height="200" fill="#042B45"/>
<path opacity="0.3" d="M201.442 80C205.07 80 208 82.9302 208 86.5581V113.442C208 117.07 205.07 120 201.442 120H174.558C170.93 120 168 117.07 168 113.442V86.5581C168 82.9302 170.93 80 174.558 80H201.442ZM197.302 97.9112C197.163 97.9112 196.977 97.9112 196.791 98.0973L191.605 103.283L191.535 103.353L198.279 110.097C198.837 110.609 198.837 111.493 198.279 112.051C198 112.33 197.628 112.469 197.302 112.469C196.977 112.469 196.605 112.33 196.326 112.051L187.442 103.167L187.023 102.748L185.256 100.981C184.977 100.748 184.605 100.702 184.326 100.934L170.791 111.772V113.442C170.791 115.535 172.465 117.209 174.558 117.209H201.442C203.535 117.209 205.209 115.535 205.209 113.442V105.493L197.814 98.0973C197.628 97.9577 197.442 97.9112 197.302 97.9112ZM201.442 82.7907H174.558C172.465 82.7907 170.791 84.4651 170.791 86.5581V108.237L182.605 98.7949C184 97.7252 186 97.8182 187.256 99.074L189.442 101.26C189.488 101.307 189.628 101.307 189.674 101.26L194.837 96.0973C195.488 95.4461 196.372 95.074 197.302 95.074C198.233 95.074 199.116 95.4461 199.767 96.0973L205.209 101.539V86.5581C205.209 84.4651 203.535 82.7907 201.442 82.7907ZM177.091 86.186C179.091 86.186 180.727 87.8224 180.727 89.8224C180.727 91.8224 179.091 93.4588 177.091 93.4588C175.091 93.4588 173.455 91.8224 173.455 89.8224C173.455 87.8224 175.091 86.186 177.091 86.186Z" fill="white"/>
</svg>
