<svg width="127" height="122" viewBox="0 0 127 122" fill="none" xmlns="http://www.w3.org/2000/svg">
<path d="M54 88L55.1226 91.4549H58.7553L55.8164 93.5902L56.9389 97.0451L54 94.9098L51.0611 97.0451L52.1836 93.5902L49.2447 91.4549H52.8774L54 88Z" fill="#1677FF"/>
<circle cx="37" cy="43" r="4" fill="#F5222D"/>
<circle cx="64.5" cy="62.5" r="31.5" fill="#92E3A9"/>
<circle cx="65" cy="63" r="22" fill="#53B36E"/>
<path d="M75 56L61 70" stroke="white" stroke-width="3" stroke-linecap="round"/>
<path d="M55 64L61.0341 69.9657" stroke="white" stroke-width="3" stroke-linecap="round"/>
<circle cx="77.5" cy="25.5" r="2.5" fill="#8DC6BF"/>
<circle cx="106" cy="54" r="2" fill="#002C45"/>
<circle cx="10" cy="72" r="4" fill="#8DC6BF"/>
<circle cx="108" cy="31" r="4" fill="#FA8C16"/>
<circle cx="100" cy="93" r="4" fill="#52C41A"/>
<circle cx="55" cy="4" r="4" fill="#F5222D"/>
<circle cx="29" cy="102" r="4" fill="#92E3A9"/>
<path d="M30 14L31.1226 17.4549H34.7553L31.8164 19.5902L32.9389 23.0451L30 20.9098L27.0611 23.0451L28.1836 19.5902L25.2447 17.4549H28.8774L30 14Z" fill="#FFC857"/>
<path d="M68 112L69.1226 115.455H72.7553L69.8164 117.59L70.9389 121.045L68 118.91L65.0611 121.045L66.1836 117.59L63.2447 115.455H66.8774L68 112Z" fill="#92E3A9"/>
<path d="M122 60L123.123 63.4549H126.755L123.816 65.5902L124.939 69.0451L122 66.9098L119.061 69.0451L120.184 65.5902L117.245 63.4549H120.877L122 60Z" fill="#F5222D"/>
<path d="M5 46L6.12257 49.4549H9.75528L6.81636 51.5902L7.93893 55.0451L5 52.9098L2.06107 55.0451L3.18364 51.5902L0.244718 49.4549H3.87743L5 46Z" fill="#002C45"/>
</svg>
