<svg width="25" height="25" viewBox="0 0 25 25" fill="none" xmlns="http://www.w3.org/2000/svg">
<path fill-rule="evenodd" clip-rule="evenodd" d="M15 0H10C7.34784 0 4.8043 1.08058 2.92893 3.00403C1.05357 4.92748 0 7.53624 0 10.2564C0 18.5897 8.75 22.4359 15 25V20.5128C17.6522 20.5128 20.1957 19.4322 22.0711 17.5088C23.9464 15.5853 25 12.9766 25 10.2564C25 7.53624 23.9464 4.92748 22.0711 3.00403C20.1957 1.08058 17.6522 0 15 0ZM8.125 12.8205C9.16053 12.8205 10 11.9595 10 10.8974C10 9.83535 9.16053 8.97436 8.125 8.97436C7.08947 8.97436 6.25 9.83535 6.25 10.8974C6.25 11.9595 7.08947 12.8205 8.125 12.8205ZM15 10.8974C15 11.9595 14.1605 12.8205 13.125 12.8205C12.0895 12.8205 11.25 11.9595 11.25 10.8974C11.25 9.83535 12.0895 8.97436 13.125 8.97436C14.1605 8.97436 15 9.83535 15 10.8974ZM18.125 12.8205C19.1605 12.8205 20 11.9595 20 10.8974C20 9.83535 19.1605 8.97436 18.125 8.97436C17.0895 8.97436 16.25 9.83535 16.25 10.8974C16.25 11.9595 17.0895 12.8205 18.125 12.8205Z" fill="white"/>
</svg>
