<svg width="12" height="12" viewBox="0 0 12 12" fill="none" xmlns="http://www.w3.org/2000/svg">
<rect width="12" height="12" rx="4" fill="#8E8E93"/>
<path d="M6.00913 2.50002C6.70098 2.50182 7.37676 2.70863 7.95113 3.09431C8.5255 3.47999 8.97268 4.02724 9.23619 4.66694C9.4997 5.30664 9.56771 6.01008 9.43163 6.68841C9.29555 7.36674 8.96149 7.98953 8.47165 8.4781C7.9818 8.96667 7.35815 9.2991 6.67946 9.43341C6.00078 9.56772 5.29752 9.49788 4.65851 9.23271C4.0195 8.96753 3.47341 8.51893 3.08923 7.94355C2.70505 7.36818 2.5 6.69186 2.5 6.00001C2.49976 5.53955 2.59043 5.08357 2.7668 4.65822C2.94318 4.23288 3.2018 3.84654 3.52782 3.52137C3.85384 3.1962 4.24085 2.93859 4.66665 2.76332C5.09246 2.58805 5.54867 2.49857 6.00913 2.50002ZM6.00913 3.02429C5.42013 3.02212 4.84373 3.19479 4.35293 3.52045C3.86213 3.84611 3.47902 4.31009 3.25212 4.85364C3.02521 5.39719 2.96471 5.99585 3.07829 6.5738C3.19187 7.15176 3.47441 7.68301 3.89014 8.10027C4.30586 8.51753 4.83606 8.80203 5.41359 8.91774C5.99113 9.03345 6.59001 8.97516 7.13439 8.75026C7.67877 8.52536 8.14417 8.14396 8.47163 7.65437C8.7991 7.16478 8.9739 6.58902 8.9739 6.00001C8.97391 5.2127 8.6619 4.45747 8.10621 3.89972C7.55052 3.34198 6.79644 3.02719 6.00913 3.02429ZM5.96712 4.46193C6.11815 4.46091 6.24113 4.58307 6.24113 4.7341V5.93791H7.40566C7.55346 5.93791 7.67328 6.05772 7.67328 6.20552C7.67328 6.35332 7.55346 6.47313 7.40566 6.47313H6.02618C5.84425 6.47313 5.69676 6.32565 5.69676 6.14372V4.7341C5.69676 4.58449 5.81751 4.46293 5.96712 4.46193Z" fill="white" stroke="white" stroke-width="0.23"/>
</svg>
