<svg width="12" height="10" viewBox="0 0 12 10" fill="none" xmlns="http://www.w3.org/2000/svg">
<path d="M3.07368 3.9935L2.90297 4.16421H3.14439H5.9206C7.35894 4.16421 8.73837 4.73559 9.75543 5.75265C10.7725 6.76971 11.3439 8.14914 11.3439 9.58748V9.9H9.70278V9.58748C9.70278 8.58438 9.3043 7.62237 8.595 6.91307C7.88571 6.20378 6.9237 5.8053 5.9206 5.8053H3.14439H2.90297L3.07368 5.97601L5.7646 8.66694L4.60345 9.82809L0.340695 5.56533L0.340655 5.56529C0.264364 5.48908 0.203841 5.39859 0.162548 5.29897C0.121254 5.19936 0.1 5.09259 0.1 4.98475C0.1 4.87692 0.121254 4.77015 0.162548 4.67053C0.203841 4.57092 0.264364 4.48042 0.340655 4.40422L0.340695 4.40418L4.60345 0.141421L5.7646 1.30257L3.07368 3.9935Z" fill="#53B36E" stroke="white" stroke-width="0.2"/>
</svg>
