<svg xmlns="http://www.w3.org/2000/svg" viewBox="0 0 512 512" id="call"><path fill="none" d="M364.126 348.177c.706-.948.061-.706-1.412.101l-42.153 23.013c-7.059 3.812-21.843 11.799-34.993 4.699-7.22-3.893-11.032-10.871-13.826-15.953l-46.368-84.658-44.2-86.786c-2.632-5.163-6.242-12.242-5.385-20.401 1.573-14.975 16.458-22.589 23.607-26.25l42.768-21.863c.413-.212.756-.403 1.039-.555L209.2 44.98c-3.691-8.067-7.21-14.985-12.797-18.021-6.666-3.61-16.286-1.543-25.554.928-18.011 4.79-33.863 9.6-45.42 19.957-19.836 17.789-24.152 49.292-26.633 77.418-2.44 27.54 1.24 60.486 10.921 97.939 7.775 30.122 19.463 59.629 34.771 87.845.474.545.887 1.15 1.22 1.835a242.229 242.229 0 0 0 1.624 3.308c.575 1.029 1.16 2.057 1.755 3.086.373.666.645 1.331.827 2.017 14.673 28.559 32.462 54.859 52.963 78.275 25.503 29.103 50.654 50.704 74.755 64.217 24.616 13.775 53.074 28.014 78.971 21.621 15.086-3.711 27.974-14.078 42.072-26.26 7.261-6.272 14.421-13.029 15.167-20.572.645-6.353-3.086-13.15-7.664-20.733l-42.052-69.663z"></path><path d="m420.336 409.288-42.032-69.622c-1.311-2.178-3.731-6.212-8.572-8.108-6.454-2.461-12.384.807-14.925 2.198l-42.132 23.013c-6.898 3.731-14.562 7.2-19.281 4.659-2.682-1.432-4.74-4.921-7.16-9.338l-46.529-84.971-43.806-86.03c-2.198-4.316-3.993-8.128-3.671-11.173.555-5.355 7.745-9.711 14.693-13.261l42.768-21.873c2.592-1.321 8.642-4.427 10.236-11.083 1.18-4.941-.787-9.268-1.845-11.607l-33.853-73.989c-3.822-8.34-9.056-19.755-19.937-25.665-13.019-7.069-28.468-2.995-37.685-.524-20.108 5.355-37.917 10.831-52.207 23.628-24.315 21.812-29.297 56.996-32.06 88.268-2.602 29.416 1.23 64.247 11.385 103.526 8.572 33.208 21.681 65.679 38.996 96.578 15.752 31.645 35.154 60.748 57.733 86.544 27.127 30.959 53.003 53.104 79.112 67.727 22.377 12.545 47.749 25.332 73.586 25.332 5.788 0 11.597-.625 17.406-2.057 18.636-4.598 33.178-16.216 48.929-29.809 7.22-6.252 19.322-16.7 20.814-31.423 1.231-12.364-5.244-23.094-9.963-30.94zm-21.661 49.857c-14.098 12.182-26.986 22.549-42.072 26.26-25.897 6.393-54.355-7.846-78.971-21.621-24.102-13.513-49.252-35.114-74.755-64.217-20.502-23.416-38.29-49.716-52.963-78.275a8.626 8.626 0 0 0-.827-2.017 241.651 241.651 0 0 1-1.755-3.086 248.3 248.3 0 0 1-1.624-3.308 8.292 8.292 0 0 0-1.22-1.835c-15.308-28.216-26.996-57.723-34.771-87.845-9.681-37.453-13.362-70.399-10.921-97.939 2.481-28.125 6.797-59.629 26.633-77.418 11.557-10.357 27.409-15.167 45.42-19.957 9.268-2.471 18.888-4.538 25.554-.928 5.587 3.035 9.106 9.953 12.797 18.021l34.004 74.544c-.282.151-.625.343-1.039.555l-42.768 21.863c-7.15 3.661-22.034 11.274-23.607 26.25-.857 8.158 2.753 15.237 5.385 20.401l44.2 86.786 46.368 84.658c2.793 5.083 6.605 12.061 13.826 15.953 13.15 7.099 27.934-.887 34.993-4.699l42.153-23.013c1.472-.807 2.118-1.049 1.412-.101l42.052 69.663c4.578 7.583 8.31 14.38 7.664 20.733-.748 7.543-7.908 14.3-15.168 20.572z"></path></svg>