<svg width="20" height="19" viewBox="0 0 20 19" fill="none" xmlns="http://www.w3.org/2000/svg">
<path fill-rule="evenodd" clip-rule="evenodd" d="M5.87511 2.34616C6.96908 1.33635 8.45281 0.769043 9.9999 0.769043C11.547 0.769043 13.0307 1.33635 14.1247 2.34616C15.2187 3.35597 15.8332 4.72557 15.8332 6.15366C15.8332 8.73263 16.4308 10.3341 16.9815 11.2661C17.258 11.734 17.5272 12.041 17.7142 12.2232C17.808 12.3145 17.8816 12.3751 17.926 12.4092C17.9482 12.4262 17.963 12.4367 17.9694 12.4411C17.9704 12.4418 17.9712 12.4423 17.9718 12.4427C18.2706 12.6322 18.4028 12.9787 18.2975 13.2996C18.1911 13.6241 17.8671 13.846 17.4999 13.846H2.4999C2.13268 13.846 1.80874 13.6241 1.70233 13.2996C1.59704 12.9787 1.72924 12.6322 2.02798 12.4427C2.02856 12.4423 2.02936 12.4418 2.03036 12.4411C2.03677 12.4367 2.05165 12.4262 2.07384 12.4092C2.11818 12.3751 2.19184 12.3145 2.28557 12.2232C2.47259 12.041 2.74183 11.734 3.01832 11.2661C3.56901 10.3341 4.16657 8.73263 4.16657 6.15366C4.16657 4.72557 4.78115 3.35597 5.87511 2.34616ZM2.0364 12.4375C2.03647 12.4374 2.03653 12.4374 2.0366 12.4373C2.03659 12.4373 2.03659 12.4374 2.03659 12.4374L2.0364 12.4375ZM4.29101 12.3075H15.7088C15.6454 12.2116 15.5817 12.1101 15.5183 12.0028C14.819 10.8193 14.1666 8.95931 14.1666 6.15366C14.1666 5.1336 13.7276 4.15531 12.9462 3.43402C12.1648 2.71272 11.105 2.3075 9.9999 2.3075C8.89483 2.3075 7.83503 2.71272 7.05362 3.43402C6.27222 4.15531 5.83324 5.1336 5.83324 6.15366C5.83324 8.95931 5.18079 10.8193 4.48148 12.0028C4.41807 12.1101 4.35441 12.2116 4.29101 12.3075Z" fill="white"/>
<path fill-rule="evenodd" clip-rule="evenodd" d="M8.14043 15.4883C8.53853 15.2751 9.04847 15.4002 9.2794 15.7677C9.35266 15.8842 9.4578 15.981 9.58431 16.0482C9.71081 16.1155 9.85424 16.1509 10.0002 16.1509C10.1462 16.1509 10.2897 16.1155 10.4162 16.0482C10.5427 15.981 10.6478 15.8842 10.7211 15.7677C10.952 15.4002 11.4619 15.2751 11.86 15.4883C12.2581 15.7014 12.3937 16.1721 12.1627 16.5396C11.943 16.8893 11.6275 17.1796 11.248 17.3814C10.8685 17.5832 10.4382 17.6894 10.0002 17.6894C9.56226 17.6894 9.13197 17.5832 8.75245 17.3814C8.37293 17.1796 8.0575 16.8893 7.83774 16.5396C7.6068 16.1721 7.74232 15.7014 8.14043 15.4883Z" fill="white"/>
<circle cx="14" cy="2.46143" r="1.75" fill="#53B36E" stroke="white" stroke-width="0.5"/>
</svg>
