<svg width="25" height="27" viewBox="0 0 25 27" fill="none" xmlns="http://www.w3.org/2000/svg">
<path d="M22.8005 17.0692C22.8005 17.6215 22.3528 18.0692 21.8005 18.0692L2.42548 18.0692C1.87319 18.0692 1.42548 17.6215 1.42548 17.0692L1.42548 1.00498L22.8005 1.00497L22.8005 17.0692Z" fill="#EFAE1A"/>
<path d="M12.7339 25.6077C12.37 25.8961 11.8555 25.8961 11.4917 25.6077L1.83825 17.9578C1.46692 17.6635 1.675 17.0659 2.1488 17.0659L22.0768 17.0659C22.5506 17.0659 22.7587 17.6635 22.3873 17.9578L12.7339 25.6077Z" fill="#EFAE1A"/>
<path fill-rule="evenodd" clip-rule="evenodd" d="M24.225 0.767206C24.225 1.19096 23.8881 1.53448 23.4726 1.53448L0.75252 1.53448C0.336935 1.53448 3.9778e-05 1.19096 3.97786e-05 0.767206C3.97791e-05 0.34345 0.336935 -7.24831e-05 0.75252 -7.24841e-05L23.4726 -7.25371e-05C23.8881 -7.25381e-05 24.225 0.34345 24.225 0.767206Z" fill="#FFAA00"/>
</svg>
