<svg width="29" height="29" viewBox="0 0 29 29" fill="none" xmlns="http://www.w3.org/2000/svg">
<path fill-rule="evenodd" clip-rule="evenodd" d="M17.2327 3.357C15.4223 4.87608 15.1842 7.59804 16.7033 9.4084L18.7406 11.8363C20.2596 13.6467 22.9816 13.8848 24.792 12.3658L27.2199 10.3285C29.0303 8.80941 29.2684 6.08745 27.7493 4.27708L25.712 1.84915C24.193 0.0387795 21.471 -0.199361 19.6606 1.31972L17.2327 3.357ZM18.4282 7.96099C17.7063 7.10063 17.8197 5.80393 18.6801 5.08196L21.1081 3.04468C21.9684 2.32276 23.2651 2.43616 23.9871 3.29657L26.0244 5.7245C26.7463 6.58486 26.6329 7.88156 25.7725 8.60352L23.3445 10.6408C22.4842 11.3627 21.1875 11.2493 20.4655 10.3889L18.4282 7.96099ZM5.04533 0.962529C2.68207 0.962529 0.75 2.8946 0.75 5.25786V8.42731C0.75 10.7906 2.68207 12.7226 5.04533 12.7226H8.21478C10.578 12.7226 12.5101 10.7906 12.5101 8.42731V5.25786C12.5101 2.8946 10.578 0.962529 8.21478 0.962529H5.04533ZM3.0015 5.25786C3.0015 4.13474 3.92187 3.21431 5.04505 3.21431H8.2145C9.33762 3.21431 10.258 4.13469 10.258 5.25786V8.42731C10.258 9.55043 9.33767 10.4709 8.2145 10.4709H5.04505C3.92193 10.4709 3.0015 9.55048 3.0015 8.42731V5.25786ZM5.04533 16.5592C2.68207 16.5592 0.75 18.4913 0.75 20.8546V24.024C0.75 26.3873 2.68207 28.3193 5.04533 28.3193H8.21478C10.578 28.3193 12.5101 26.3873 12.5101 24.024V20.8546C12.5101 18.4916 10.5778 16.5592 8.21478 16.5592H5.04533ZM3.0015 20.8545C3.0015 19.7314 3.92187 18.8109 5.04505 18.8109H8.2145C9.33762 18.8109 10.258 19.7313 10.258 20.8545V24.0239C10.258 25.1471 9.33767 26.0675 8.2145 26.0675H5.04505C3.92193 26.0675 3.0015 25.1471 3.0015 24.0239V20.8545ZM20.642 16.5592C18.2788 16.5592 16.3467 18.4913 16.3467 20.8546V24.024C16.3467 26.3873 18.2788 28.3193 20.642 28.3193H23.8115C26.1747 28.3193 28.1068 26.3873 28.1068 24.024V20.8546C28.1068 18.4916 26.1748 16.5592 23.8115 16.5592H20.642ZM18.5985 20.8545C18.5985 19.7314 19.5189 18.8109 20.642 18.8109H23.8115C24.9346 18.8109 25.855 19.7313 25.855 20.8545V24.0239C25.855 25.1471 24.9347 26.0675 23.8115 26.0675H20.642C19.5189 26.0675 18.5985 25.1471 18.5985 24.0239V20.8545Z" fill="#4B4D53"/>
</svg>
