<svg width="25" height="25" viewBox="0 0 25 25" fill="none" xmlns="http://www.w3.org/2000/svg">
<rect opacity="0.5" width="25" height="25" rx="12.5" fill="black"/>
<path d="M11.5141 13.4859C11.7732 13.745 11.7732 14.1652 11.5141 14.4243L8.51557 17.4226L10.895 17.4229C11.2615 17.4229 11.5586 17.7199 11.5586 18.0864C11.5586 18.4529 11.2615 18.75 10.895 18.75H6.91357C6.54709 18.75 6.25 18.4529 6.25 18.0864V14.105C6.25 13.7385 6.54709 13.4414 6.91357 13.4414C7.28005 13.4414 7.57714 13.7385 7.57714 14.105L7.57699 16.484L10.5757 13.4859C10.8348 13.2268 11.255 13.2268 11.5141 13.4859ZM18.0864 6.25C18.4529 6.25 18.75 6.54709 18.75 6.91357V10.895C18.75 11.2615 18.4529 11.5586 18.0864 11.5586C17.7199 11.5586 17.4229 11.2615 17.4229 10.895L17.4226 8.51514L14.4243 11.5141C14.1652 11.7732 13.745 11.7732 13.4859 11.5141C13.2268 11.255 13.2268 10.8348 13.4859 10.5757L16.4844 7.57699L14.105 7.57714C13.7385 7.57714 13.4414 7.28005 13.4414 6.91357C13.4414 6.54709 13.7385 6.25 14.105 6.25H18.0864Z" fill="white"/>
</svg>
