<svg width="17" height="15" viewBox="0 0 17 15" fill="none" xmlns="http://www.w3.org/2000/svg">
<path fill-rule="evenodd" clip-rule="evenodd" d="M15.9979 6.92614C16.2212 7.03007 16.3636 7.25397 16.3637 7.49991L16.3635 7.49997C16.3634 7.74607 16.2207 7.96981 15.9977 8.07365L1.25776 14.9407C1.01672 15.0532 0.730984 15.0027 0.542846 14.8146L0.542578 14.8143C0.354447 14.6258 0.304307 14.34 0.416975 14.0989L3.2864 7.96095L6.92114 7.96086C7.22088 7.96085 7.46362 7.71814 7.46361 7.41839C7.4636 7.11865 7.22078 6.87583 6.92114 6.87592L3.20994 6.87574L0.416976 0.901123C0.304298 0.66001 0.354442 0.374002 0.54258 0.185686C0.730734 -0.00278829 1.01637 -0.0531187 1.25777 0.0592828L15.9979 6.92614Z" fill="#53B36E"/>
</svg>
