<svg width="148" height="177" viewBox="0 0 148 177" fill="none" xmlns="http://www.w3.org/2000/svg">
<path d="M41.651 0H1.34131V66.722H41.651V0Z" fill="#E0E0E0"/>
<path d="M40.3097 0H0V66.722H40.3097V0Z" fill="#EBEBEB"/>
<path d="M38.5925 1.35449H1.71729V65.3687H38.5925V1.35449Z" fill="#FAFAFA"/>
<path d="M31.4143 9.66895H8.73779V57.0484H31.4143V9.66895Z" fill="#EBEBEB"/>
<path d="M8.73787 40.2842C8.6847 35.8612 12.6647 31.5385 17.0464 30.9221C19.1358 30.6169 21.3591 31.0403 23.3107 30.2388C26.7964 28.811 27.9051 24.1792 31.4124 22.8066L31.572 57.0509H8.72803L8.73787 40.2842Z" fill="#E0E0E0"/>
<path d="M96.0294 52.1592H70.5758C69.7991 52.1592 69.1694 52.7888 69.1694 53.5655V90.5176C69.1694 91.2943 69.7991 91.9239 70.5758 91.9239H96.0294C96.8062 91.9239 97.4358 91.2943 97.4358 90.5176V53.5655C97.4358 52.7888 96.8062 52.1592 96.0294 52.1592Z" fill="white"/>
<path d="M96.0295 92.0901H70.5758C70.1579 92.0901 69.7571 91.924 69.4616 91.6285C69.166 91.333 69 90.9322 69 90.5143V53.5758C69 53.1579 69.166 52.7571 69.4616 52.4615C69.7571 52.166 70.1579 52 70.5758 52H96.0295C96.4474 52 96.8482 52.166 97.1437 52.4615C97.4392 52.7571 97.6053 53.1579 97.6053 53.5758V90.5143C97.6053 90.9322 97.4392 91.333 97.1437 91.6285C96.8482 91.924 96.4474 92.0901 96.0295 92.0901ZM70.5758 52.3287C70.4134 52.3287 70.2525 52.3607 70.1025 52.4229C69.9524 52.485 69.816 52.5761 69.7012 52.691C69.5863 52.8059 69.4952 52.9422 69.433 53.0923C69.3709 53.2424 69.3389 53.4032 69.3389 53.5656V90.5041C69.3398 90.8319 69.4704 91.146 69.7022 91.3777C69.9339 91.6095 70.248 91.7401 70.5758 91.741H96.0295C96.3572 91.7401 96.6713 91.6095 96.9031 91.3777C97.1349 91.146 97.2655 90.8319 97.2664 90.5041V53.5656C97.2664 53.2376 97.1361 52.923 96.9041 52.691C96.6721 52.459 96.3575 52.3287 96.0295 52.3287H70.5758Z" fill="#2F2E41"/>
<path d="M77.5535 59.9739H72.8091V55.2295H77.5535V59.9739ZM73.148 59.635H77.2146V55.5684H73.148V59.635Z" fill="#2F2E41"/>
<path d="M88.4384 63.21H72.9785V63.5488H88.4384V63.21Z" fill="#2F2E41"/>
<path d="M88.4384 73.7969H72.9785V74.1358H88.4384V73.7969Z" fill="#2F2E41"/>
<path d="M91.4912 86.1426H83.7612V86.4815H91.4912V86.1426Z" fill="#2F2E41"/>
<path d="M94.5892 66.7822H72.9785V67.1211H94.5892V66.7822Z" fill="#2F2E41"/>
<path d="M94.5892 70.3574H72.9785V70.6963H94.5892V70.3574Z" fill="#2F2E41"/>
<path d="M94.5892 77.2402H72.9785V77.5791H94.5892V77.2402Z" fill="#2F2E41"/>
<path d="M94.5892 80.8125H72.9785V81.1514H94.5892V80.8125Z" fill="#2F2E41"/>
<path d="M100.065 169.267H67.8203C67.1687 169.272 66.5393 169.031 66.0588 168.59C65.5784 168.15 65.2827 167.544 65.2312 166.895L59.8091 90.9473H108.009L102.607 166.861C102.565 167.509 102.28 168.117 101.808 168.563C101.337 169.009 100.714 169.261 100.065 169.267Z" fill="#D1D3D4"/>
<path d="M74.5913 127.577L74.2524 127.537C74.8252 122.792 79.0205 119.187 84.0157 119.187C88.7601 119.187 92.8437 122.45 93.6875 126.947L93.3486 127.008C92.5353 122.674 88.6042 119.525 84.0123 119.525C79.1968 119.525 75.1437 122.992 74.5913 127.577Z" fill="#53B36E"/>
<path d="M84.0193 138.083C79.6612 138.083 75.8861 135.392 74.6152 131.39L74.9372 131.288C76.1606 135.148 79.8103 137.727 84.0193 137.727C88.9026 137.727 93.054 134.074 93.4708 129.407L93.8097 129.438C93.3759 134.294 89.0754 138.083 84.0193 138.083Z" fill="#53B36E"/>
<ellipse cx="85" cy="171" rx="63" ry="6" fill="#D9D9D9" fill-opacity="0.4"/>
<path d="M74.3948 129.278L71.9243 126.526L72.1751 126.299L74.4524 128.837L77.3566 126.933L77.543 127.217L74.3948 129.278Z" fill="#53B36E"/>
<path d="M96.2156 130.874L93.9383 128.339L91.034 130.244L90.8477 129.959L93.9959 127.896L96.4664 130.651L96.2156 130.874Z" fill="#53B36E"/>
<path d="M135.927 18H108.039C106.921 18 106.037 18.5769 106 19.2739V36.1546C106 36.8615 106.911 37.4385 108.039 37.4518H118.312L122.317 41L125.798 37.4518H135.927C137.052 37.4518 137.983 36.9016 138 36.1979V19.2972C138.02 18.5936 137.122 18.0133 135.997 18H135.927Z" fill="#53B36E"/>
<path opacity="0.55" d="M135.927 18H108.039C106.921 18 106.037 18.5769 106 19.2739V36.1546C106 36.8615 106.911 37.4385 108.039 37.4518H118.312L122.317 41L125.798 37.4518H135.927C137.052 37.4518 137.983 36.9016 138 36.1979V19.2972C138.02 18.5936 137.122 18.0133 135.997 18H135.927Z" fill="#92E3A9"/>
<path d="M109.589 24.043H123.039" stroke="white" stroke-miterlimit="10"/>
<path d="M109.589 27.8789H129.498" stroke="white" stroke-miterlimit="10"/>
<path d="M109.589 31.7119H129.498" stroke="white" stroke-miterlimit="10"/>
<path d="M135.825 23.9915C136.093 24.2446 136.303 24.5529 136.441 24.8952C136.578 25.2375 136.64 25.6055 136.621 25.9739C136.646 26.3442 136.584 26.7152 136.44 27.0572C136.296 27.3991 136.074 27.7025 135.791 27.9429C135.158 28.4159 134.381 28.6553 133.591 28.6206L133.537 29.6373H132.256L132.192 27.604H132.619C133.278 27.6366 133.936 27.5208 134.544 27.2651C134.988 27.0414 135.222 26.6144 135.222 25.9841C135.233 25.7872 135.204 25.5899 135.137 25.4046C135.069 25.2192 134.964 25.0497 134.828 24.9065C134.681 24.7728 134.508 24.6698 134.32 24.6035C134.132 24.5372 133.933 24.5088 133.734 24.5201C133.332 24.4972 132.937 24.6322 132.632 24.8963C132.494 25.0319 132.387 25.1956 132.317 25.3762C132.248 25.5568 132.218 25.7502 132.229 25.9434H130.843C130.831 25.4595 130.948 24.9812 131.182 24.5574C131.419 24.1479 131.773 23.8186 132.199 23.6119C132.671 23.3787 133.193 23.2625 133.72 23.273C134.488 23.2361 135.24 23.493 135.825 23.9915ZM132.205 32.2162C132.072 32.0831 131.982 31.9134 131.945 31.7287C131.909 31.544 131.928 31.3526 132.001 31.1789C132.074 31.0053 132.196 30.8571 132.353 30.7534C132.511 30.6496 132.695 30.595 132.883 30.5963C133.006 30.5939 133.129 30.6171 133.242 30.6644C133.356 30.7116 133.459 30.7819 133.544 30.8708C133.723 31.0511 133.823 31.2947 133.823 31.5486C133.823 31.8025 133.723 32.0461 133.544 32.2264C133.459 32.3148 133.356 32.3846 133.242 32.4313C133.128 32.478 133.006 32.5005 132.883 32.4975C132.757 32.501 132.631 32.4777 132.514 32.4292C132.397 32.3808 132.292 32.3082 132.205 32.2162Z" fill="white"/>
<path d="M112.35 83H56.4168C56.1866 83 56 83.1866 56 83.4168V94.0002C56 94.2304 56.1866 94.417 56.4168 94.417H112.35C112.58 94.417 112.767 94.2304 112.767 94.0002V83.4168C112.767 83.1866 112.58 83 112.35 83Z" fill="#BCBEC0"/>
<mask id="mask0_320_716" style="mask-type:luminance" maskUnits="userSpaceOnUse" x="77" y="122" width="14" height="14">
<path d="M77.7227 122.992H90.6003V135.87H77.7227V122.992Z" fill="white"/>
</mask>
<g mask="url(#mask0_320_716)">
<path d="M88.5995 125.147H84.5759V124.477C84.5759 124.257 84.3935 124.074 84.1735 124.074C83.9536 124.074 83.7712 124.257 83.7712 124.477V125.147H79.7476C79.5276 125.147 79.3452 125.33 79.3452 125.55C79.3452 125.769 79.5276 125.952 79.7476 125.952H80.0587L80.8796 133.489C80.96 134.241 81.5931 134.804 82.3442 134.804H86.0029C86.7594 134.804 87.3871 134.241 87.4675 133.489L88.2884 125.952H88.5995C88.8195 125.952 89.0019 125.77 89.0019 125.55C89.0019 125.33 88.8195 125.147 88.5995 125.147H88.5995ZM86.6682 133.404C86.6306 133.742 86.3463 133.999 86.0029 133.999H82.3441C82.0008 133.999 81.7164 133.742 81.6789 133.404L81.0995 128.098H84.1735H87.2476L86.6682 133.404ZM87.3334 127.293H81.0137L80.8688 125.952H87.4836L87.3334 127.293H87.3334Z" fill="#53B36E"/>
<path d="M85.0949 129.442C84.8749 129.442 84.6925 129.625 84.6925 129.845V132.259C84.6925 132.479 84.8749 132.661 85.0949 132.661C85.3148 132.661 85.4972 132.479 85.4972 132.259V129.845C85.4972 129.625 85.3202 129.442 85.0949 129.442ZM83.2226 129.432C83.0026 129.432 82.8202 129.614 82.8202 129.834V132.248C82.8202 132.468 83.0026 132.651 83.2225 132.651C83.4425 132.651 83.6249 132.468 83.6249 132.248V129.834C83.6249 129.614 83.4425 129.432 83.2225 129.432H83.2226Z" fill="#53B36E"/>
</g>
</svg>
