<svg width="34" height="27" viewBox="0 0 34 27" fill="none" xmlns="http://www.w3.org/2000/svg">
<path d="M30.3004 11.4275C30.0255 11.217 29.6916 11.0816 29.3369 11.0368C28.9821 10.992 28.6208 11.0395 28.294 11.174L22.2148 13.6535L18.6826 7.81288C18.5138 7.5402 18.2691 7.31343 17.9737 7.15567C17.6782 6.99791 17.3424 6.91479 17.0006 6.91479C16.6587 6.91479 16.3229 6.99791 16.0275 7.15567C15.732 7.31343 15.4874 7.5402 15.3186 7.81288L11.7864 13.6535L5.70711 11.174C5.37972 11.0397 5.01791 10.9921 4.66256 11.0365C4.30722 11.081 3.97252 11.2157 3.69629 11.4255C3.42006 11.6353 3.21333 11.9118 3.09946 12.2238C2.9856 12.5357 2.96914 12.8706 3.05194 13.1907L6.10358 25.1255C6.16193 25.3565 6.27082 25.5743 6.42364 25.7656C6.57646 25.957 6.77004 26.1178 6.99264 26.2385C7.29401 26.404 7.63859 26.4916 7.98983 26.492C8.16057 26.4917 8.33043 26.4694 8.49443 26.4258C14.0568 25.0152 19.9323 25.0152 25.4947 26.4258C26.0026 26.5483 26.5427 26.4809 26.9965 26.2385C27.2205 26.1194 27.4151 25.959 27.5681 25.7674C27.7211 25.5758 27.8292 25.3573 27.8855 25.1255L30.9492 13.1907C31.0311 12.8705 31.0137 12.5358 30.8991 12.2242C30.7844 11.9126 30.5771 11.6366 30.3004 11.4275Z" fill="#EA5A02"/>
<ellipse cx="17" cy="3.95122" rx="4" ry="3.95122" fill="#EA5A02"/>
<ellipse cx="31.5" cy="10.3721" rx="2.5" ry="2.46951" fill="#EA5A02"/>
<ellipse cx="2.5" cy="10.3721" rx="2.5" ry="2.46951" fill="#EA5A02"/>
<ellipse cx="9.5" cy="19.2622" rx="1.5" ry="1.48171" fill="#B64B4B"/>
<ellipse cx="24.5" cy="19.2622" rx="1.5" ry="1.48171" fill="#B64B4B"/>
<path d="M15.996 19.1872L15.142 17.8432L17.522 15.7992H13.546V14.1332H19.972V15.6872L17.62 17.6472C18.992 17.7032 20.252 18.7532 20.252 20.4192C20.252 21.9872 18.964 23.4292 16.766 23.4292C14.652 23.4292 13.364 22.0572 13.252 20.5312L15.114 20.1672C15.156 21.0912 15.814 21.7632 16.766 21.7632C17.732 21.7632 18.306 21.1472 18.306 20.3912C18.306 19.5372 17.69 19.0472 16.822 19.0472C16.43 19.0472 16.192 19.1172 15.996 19.1872Z" fill="white"/>
</svg>
