<svg width="14" height="14" viewBox="0 0 14 14" fill="none" xmlns="http://www.w3.org/2000/svg">
<path d="M14 7C14 3.1323 10.8676 0 7 0C3.13239 0 0 3.13239 0 7C0 10.8676 3.13239 14 7 14C10.8676 14 14 10.8678 14 7ZM7 12.6654C6.64586 12.6654 5.96493 11.6031 5.63813 9.50579H8.36187C8.03508 11.6031 7.35413 12.6654 7 12.6654ZM5.5019 8.17111C5.47473 7.7898 5.44737 7.40846 5.44737 7C5.44737 6.59152 5.47454 6.18283 5.5019 5.82889H8.4981C8.52527 6.2102 8.55263 6.59154 8.55263 7C8.55263 7.40848 8.52546 7.81717 8.4981 8.17111H5.5019ZM1.33458 7C1.33458 6.59152 1.38911 6.21021 1.47081 5.82889H4.19454C4.16737 6.2102 4.16737 6.61868 4.16737 7C4.16737 7.38131 4.19454 7.78979 4.19454 8.17111H1.47081C1.36175 7.7898 1.33458 7.40846 1.33458 7ZM6.99995 1.33463C7.3541 1.33463 8.03502 2.39689 8.36182 4.49421H5.63808C5.96487 2.39689 6.64582 1.33463 6.99995 1.33463ZM9.83254 5.8287H12.5563C12.638 6.21001 12.6925 6.59134 12.6925 6.99981C12.6925 7.40829 12.638 7.78959 12.5563 8.17091H9.83254C9.85971 7.7896 9.85971 7.38113 9.85971 6.99981C9.8599 6.61868 9.8599 6.21002 9.83254 5.8287ZM12.0661 4.49416H9.6965C9.5331 3.43191 9.28802 2.45136 8.93385 1.68872C10.2957 2.17889 11.4123 3.18662 12.0661 4.49416H12.0661ZM5.0661 1.68872C4.71196 2.45136 4.46688 3.43191 4.30345 4.49416H1.93385C2.5876 3.18662 3.70418 2.17889 5.06605 1.68872H5.0661ZM1.9339 9.50584H4.3035C4.4669 10.5681 4.71198 11.5486 5.06615 12.3113C3.70428 11.8211 2.58769 10.8132 1.93395 9.50584H1.9339ZM8.9339 12.3113C9.28804 11.5486 9.53312 10.5681 9.69655 9.50584H12.0661C11.4124 10.8132 10.2958 11.8211 8.93395 12.3113H8.9339Z" fill="#53B36E"/>
</svg>
