<svg width="16" height="15" viewBox="0 0 16 15" fill="none" xmlns="http://www.w3.org/2000/svg">
<path d="M13.5624 8.27079C13.3974 8.27079 13.2249 8.21797 13.0599 8.18024C12.7258 8.10615 12.3974 8.0078 12.0774 7.88594C11.7295 7.75858 11.347 7.7652 11.0036 7.90451C10.6603 8.04382 10.3802 8.30598 10.2174 8.64055L10.0524 8.98013C9.3208 8.56949 8.64728 8.06188 8.04992 7.4709C7.46542 6.87017 6.96118 6.19541 6.54992 5.46363L6.87992 5.25234C7.21244 5.08853 7.473 4.80677 7.61146 4.46127C7.74992 4.11578 7.75649 3.73098 7.62992 3.3809C7.51083 3.05825 7.41312 2.72801 7.33742 2.39236C7.29992 2.2188 7.26992 2.05279 7.24742 1.87922C7.15634 1.34769 6.87963 0.86634 6.46713 0.521857C6.05463 0.177375 5.53344 -0.00760184 4.99742 0.000239441H2.74742C2.43035 -0.000178439 2.11678 0.0668325 1.82725 0.196879C1.53773 0.326926 1.27879 0.517072 1.06742 0.754852C0.852683 0.998212 0.692621 1.28529 0.598139 1.59652C0.503657 1.90776 0.476977 2.23583 0.519917 2.55838C0.91495 5.71797 2.3442 8.65533 4.58222 10.9071C6.82023 13.1589 9.73963 14.5969 12.8799 14.9944C12.9773 15.0019 13.0751 15.0019 13.1724 14.9944C13.7692 14.9944 14.3414 14.7559 14.7634 14.3313C15.1854 13.9068 15.4224 13.331 15.4224 12.7306V10.4667C15.4146 9.94016 15.2246 9.43281 14.8851 9.032C14.5456 8.6312 14.0779 8.36201 13.5624 8.27079ZM13.9299 12.7985C13.9311 12.9079 13.9087 13.0162 13.8642 13.116C13.8197 13.2158 13.7541 13.3047 13.6721 13.3764C13.5901 13.4482 13.4935 13.5012 13.3891 13.5317C13.2847 13.5622 13.1749 13.5695 13.0674 13.5531C10.267 13.1854 7.66524 11.8991 5.66492 9.89321C3.66617 7.86696 2.38985 5.2323 2.03492 2.39991C2.01862 2.28923 2.02699 2.1763 2.05942 2.06928C2.09185 1.96226 2.14753 1.86383 2.22242 1.78112C2.29186 1.70158 2.37716 1.63762 2.47278 1.59342C2.5684 1.54922 2.67219 1.52576 2.77742 1.52456H5.02742C5.20183 1.52065 5.37213 1.57804 5.50902 1.68685C5.64592 1.79566 5.74082 1.94908 5.77742 2.1207C5.80742 2.32696 5.84492 2.53071 5.88992 2.73194C5.97656 3.12973 6.09186 3.52064 6.23492 3.90159L5.18492 4.39208C5.09514 4.43353 5.01438 4.49241 4.94729 4.56534C4.88019 4.63827 4.82807 4.72382 4.79392 4.81708C4.75977 4.91033 4.74427 5.00946 4.7483 5.10876C4.75233 5.20806 4.77582 5.30558 4.81742 5.39572C5.89682 7.722 7.75535 9.59197 10.0674 10.678C10.25 10.7535 10.4548 10.7535 10.6374 10.678C10.8235 10.6083 10.9746 10.4672 11.0574 10.2856L11.5299 9.22915C11.9176 9.36866 12.3134 9.48458 12.7149 9.57627C12.9099 9.62155 13.1199 9.65928 13.3224 9.68946C13.4916 9.7278 13.6424 9.82394 13.749 9.96153C13.8557 10.0991 13.9117 10.2696 13.9074 10.4441L13.9299 12.7985Z" fill="#53B36E"/>
</svg>
