<svg width="30" height="30" viewBox="0 0 30 30" fill="none" xmlns="http://www.w3.org/2000/svg">
<rect x="0.5" y="0.5" width="29" height="29" rx="6.5" fill="#F3F5F8" stroke="#E3E5E9"/>
<path d="M14.037 8.34832C14.2623 8.1301 14.5703 8.00491 14.8934 8.00014C15.0566 7.99774 15.2187 8.02619 15.37 8.08379C15.5214 8.1414 15.6589 8.22699 15.7746 8.33553C15.8902 8.44406 15.9816 8.57333 16.0433 8.7157C16.105 8.85807 16.1359 9.01065 16.1339 9.16442V18.0561L19.2306 15.1387C19.3431 15.0282 19.4779 14.9401 19.6271 14.8793C19.7763 14.8186 19.9368 14.7865 20.0993 14.7849C20.2618 14.7834 20.423 14.8124 20.5735 14.8703C20.7239 14.9281 20.8606 15.0137 20.9755 15.122C21.0905 15.2302 21.1813 15.359 21.2427 15.5008C21.3041 15.6425 21.3349 15.7944 21.3333 15.9475C21.3316 16.1006 21.2976 16.2518 21.2331 16.3924C21.1686 16.5329 21.075 16.6599 20.9578 16.766L15.8906 21.54C15.7774 21.6821 15.6308 21.7975 15.4624 21.8773C15.2939 21.9571 15.1082 21.9991 14.9196 22C14.7311 22.0009 14.5449 21.9606 14.3756 21.8824C14.2063 21.8041 14.0585 21.69 13.9439 21.549L8.86715 16.766C8.69399 16.6063 8.57513 16.4018 8.5257 16.1783C8.47626 15.9548 8.49848 15.7225 8.58952 15.511C8.68056 15.2994 8.83632 15.1182 9.03698 14.9903C9.23765 14.8623 9.47416 14.7935 9.71645 14.7926C9.87993 14.792 10.0419 14.8223 10.1927 14.8818C10.3435 14.9412 10.4801 15.0286 10.5944 15.1387L13.691 18.0561V9.16442C13.6872 8.85998 13.8116 8.56653 14.037 8.34832Z" fill="#53B36E"/>
</svg>
