<svg width="36" height="28" viewBox="0 0 36 28" fill="none" xmlns="http://www.w3.org/2000/svg">
<path fill-rule="evenodd" clip-rule="evenodd" d="M2.60145 0C1.74709 0 1.05448 0.692602 1.05448 1.54697C1.05448 2.40134 1.74709 3.09394 2.60145 3.09394H33.5408C34.3952 3.09394 35.0878 2.40134 35.0878 1.54697C35.0878 0.692602 34.3952 0 33.5408 0H2.60145ZM21.1651 12.3758C20.3107 12.3758 19.6181 13.0684 19.6181 13.9227C19.6181 14.7771 20.3107 15.4697 21.1651 15.4697H33.5408C34.3952 15.4697 35.0878 14.7771 35.0878 13.9227C35.0878 13.0684 34.3952 12.3758 33.5408 12.3758H21.1651ZM22.7121 26.2985C22.7121 25.4441 23.4047 24.7515 24.259 24.7515H33.5408C34.3952 24.7515 35.0878 25.4441 35.0878 26.2985C35.0878 27.1529 34.3952 27.8455 33.5408 27.8455H24.259C23.4047 27.8455 22.7121 27.1529 22.7121 26.2985ZM3.38748 11.6125C4.99118 10.0097 7.13 9.12697 9.40704 9.12697C11.6841 9.12697 13.8229 10.0097 15.4266 11.6125C18.4393 14.6232 18.7439 19.3842 16.1848 22.7688L19.4196 25.9795C19.8891 26.4487 19.8941 27.2109 19.4169 27.6613L19.4135 27.6645C19.1854 27.867 18.8991 28 18.5804 28C18.2692 28 17.9776 27.8949 17.7408 27.6582L14.5281 24.4033C13.0583 25.5333 11.2434 26.1301 9.40704 26.1301C7.12996 26.1301 4.99122 25.2473 3.38748 23.6445C1.78374 22.0418 0.900391 19.9043 0.900391 17.6285C0.900391 15.3527 1.78374 13.2153 3.38748 11.6125ZM9.4072 11.4889C7.78255 11.4889 6.22453 12.1338 5.06679 13.2908C3.90883 14.4481 3.26381 15.9824 3.26381 17.6285C3.26381 19.2521 3.90901 20.8091 5.06679 21.9661C6.22457 23.1231 7.78256 23.768 9.4072 23.768C11.0319 23.768 12.5899 23.1232 13.7476 21.9661C14.9056 20.8088 15.5506 19.2746 15.5506 17.6285C15.5506 15.9823 14.9054 14.4479 13.7476 13.2909C12.5896 12.1336 11.0544 11.4889 9.4072 11.4889Z" fill="#53B36E"/>
</svg>
