<svg width="18" height="12" viewBox="0 0 18 12" fill="none" xmlns="http://www.w3.org/2000/svg">
<path d="M17.5571 1.03321C17.4321 0.960998 17.2904 0.92303 17.1461 0.92303C17.002 0.92303 16.8603 0.961001 16.7354 1.03321L12.7915 3.31114V2.46492C12.7915 1.81113 12.5318 1.18412 12.0695 0.721871C11.6072 0.259624 10.9802 0 10.3266 0H2.76497C2.11133 0 1.48431 0.259628 1.02207 0.721871C0.559819 1.18412 0.300049 1.8111 0.300049 2.46492V9.53508C0.300049 10.1889 0.559819 10.8159 1.02207 11.2781C1.48431 11.7404 2.11129 12 2.76497 12H10.3266C10.9802 12 11.6072 11.7404 12.0695 11.2781C12.5318 10.8159 12.7915 10.1889 12.7915 9.53508V8.68886L16.7354 10.9669C16.9895 11.1136 17.3025 11.1136 17.5567 10.967C17.8108 10.8205 17.9676 10.5495 17.9679 10.2561V1.74584C17.968 1.60141 17.9302 1.45956 17.8581 1.33432C17.7859 1.20923 17.6822 1.10543 17.5571 1.03321ZM11.1483 9.535C11.1483 9.75294 11.0617 9.962 10.9077 10.116C10.7535 10.27 10.5446 10.3567 10.3267 10.3567H2.7651C2.54731 10.3567 2.33825 10.27 2.18423 10.116C2.03006 9.96199 1.94351 9.75294 1.94351 9.535V2.46485C1.94351 2.24692 2.03006 2.03785 2.18423 1.88383C2.33825 1.7298 2.5473 1.64312 2.7651 1.64312H10.3267C10.5446 1.64312 10.7535 1.7298 10.9077 1.88383C11.0617 2.03786 11.1483 2.24691 11.1483 2.46485V9.535ZM16.3246 8.8325L12.7915 6.79274V5.20917L16.3246 3.16941V8.8325Z" fill="#53B36E"/>
</svg>
