<svg width="50" height="50" viewBox="0 0 50 50" fill="none" xmlns="http://www.w3.org/2000/svg">
<rect opacity="0.15" width="50" height="50" rx="25" fill="white"/>
<path fill-rule="evenodd" clip-rule="evenodd" d="M29.7727 29.9096C30.1739 29.4537 30.3971 28.8658 30.3971 28.2548V27.395L34.4046 29.7098C34.6629 29.8589 34.9809 29.8589 35.2392 29.7099C35.4975 29.561 35.6568 29.2857 35.6571 28.9875V20.3398C35.6572 20.1931 35.6188 20.0489 35.5455 19.9217C35.4722 19.7946 35.3667 19.6891 35.2396 19.6157C35.1127 19.5423 34.9687 19.5037 34.8221 19.5037C34.6756 19.5037 34.5316 19.5423 34.4046 19.6157L30.3971 21.9304V21.0705C30.3971 20.4062 30.1332 19.769 29.6634 19.2993C29.1937 18.8296 28.5566 18.5658 27.8923 18.5658H20.2502L21.6518 20.2354H27.8925C28.1139 20.2354 28.3262 20.3235 28.4829 20.48C28.6394 20.6366 28.7273 20.849 28.7273 21.0704V28.2548C28.7273 28.369 28.7039 28.4808 28.6598 28.5838L29.7727 29.9096ZM19.6618 20.2354H18.1765C17.9552 20.2354 17.7428 20.3235 17.5862 20.48C17.4296 20.6366 17.3416 20.849 17.3416 21.0704V28.2548C17.3416 28.4762 17.4296 28.6887 17.5862 28.8452C17.7427 29.0017 17.9552 29.0898 18.1765 29.0898H27.0945L28.4445 30.698C28.2647 30.7386 28.0796 30.7596 27.8923 30.7596H18.1764C17.5121 30.7596 16.875 30.4958 16.4053 30.026C15.9356 29.5563 15.6716 28.9192 15.6716 28.2548V21.0705C15.6716 20.4061 15.9356 19.769 16.4053 19.2993C16.875 18.8296 17.5122 18.5658 18.1764 18.5658H18.2602L19.6618 20.2354ZM30.3971 25.4682L33.9873 27.5409V21.7864L30.3971 23.8591V25.4682Z" fill="white"/>
<path d="M29.7727 29.9096L29.7344 29.9417L29.7718 29.9863L29.8102 29.9426L29.7727 29.9096ZM30.3971 27.395L30.4221 27.3517L30.3471 27.3083V27.395H30.3971ZM34.4046 29.7098L34.3796 29.7531L34.3796 29.7531L34.4046 29.7098ZM35.2392 29.7099L35.2642 29.7532V29.7532L35.2392 29.7099ZM35.6571 28.9875L35.7071 28.9875V28.9875H35.6571ZM35.6571 20.3398L35.6071 20.3398V20.3398H35.6571ZM35.5455 19.9217L35.5889 19.8967L35.5888 19.8967L35.5455 19.9217ZM35.2396 19.6157L35.2146 19.659L35.2146 19.659L35.2396 19.6157ZM34.4046 19.6157L34.4296 19.659L34.4297 19.659L34.4046 19.6157ZM30.3971 21.9304H30.3471V22.017L30.4221 21.9737L30.3971 21.9304ZM29.6634 19.2993L29.628 19.3347L29.628 19.3347L29.6634 19.2993ZM20.2502 18.5658V18.5158H20.143L20.2119 18.5979L20.2502 18.5658ZM21.6518 20.2354L21.6135 20.2676L21.6285 20.2854H21.6518V20.2354ZM28.4829 20.48L28.5182 20.4447L28.5182 20.4447L28.4829 20.48ZM28.6598 28.5838L28.6138 28.5641L28.6017 28.5924L28.6215 28.6159L28.6598 28.5838ZM19.6618 20.2354V20.2854H19.769L19.7 20.2033L19.6618 20.2354ZM17.5862 20.48L17.6216 20.5154L17.6216 20.5154L17.5862 20.48ZM17.5862 28.8452L17.6216 28.8098L17.6216 28.8098L17.5862 28.8452ZM27.0945 29.0898L27.1328 29.0576L27.1178 29.0398H27.0945V29.0898ZM28.4445 30.698L28.4555 30.7467L28.5355 30.7287L28.4828 30.6658L28.4445 30.698ZM16.4053 30.026L16.4407 29.9907L16.4053 30.026ZM16.4053 19.2993L16.37 19.264L16.37 19.264L16.4053 19.2993ZM18.2602 18.5658L18.2985 18.5336L18.2835 18.5158H18.2602V18.5658ZM33.9873 27.5409L33.9623 27.5842L34.0373 27.6275V27.5409H33.9873ZM30.3971 25.4682H30.3471V25.4971L30.3721 25.5115L30.3971 25.4682ZM33.9873 21.7864H34.0373V21.6998L33.9623 21.7431L33.9873 21.7864ZM30.3971 23.8591L30.3721 23.8158L30.3471 23.8302V23.8591H30.3971ZM29.8102 29.9426C30.2195 29.4776 30.4471 28.878 30.4471 28.2548H30.3471C30.3471 28.8536 30.1284 29.4298 29.7352 29.8765L29.8102 29.9426ZM30.4471 28.2548V27.395H30.3471V28.2548H30.4471ZM30.3721 27.4383L34.3796 29.7531L34.4296 29.6665L30.4221 27.3517L30.3721 27.4383ZM34.3796 29.7531C34.6534 29.9111 34.9904 29.9111 35.2642 29.7532L35.2142 29.6666C34.9714 29.8067 34.6725 29.8066 34.4296 29.6665L34.3796 29.7531ZM35.2642 29.7532C35.5379 29.5954 35.7068 29.3036 35.7071 28.9875L35.6071 28.9874C35.6068 29.2677 35.4571 29.5266 35.2142 29.6666L35.2642 29.7532ZM35.7071 28.9875V20.3398H35.6071V28.9875H35.7071ZM35.7071 20.3399C35.7072 20.1843 35.6665 20.0316 35.5889 19.8967L35.5022 19.9466C35.5711 20.0663 35.6072 20.2018 35.6071 20.3398L35.7071 20.3399ZM35.5888 19.8967C35.5111 19.762 35.3993 19.6502 35.2646 19.5724L35.2146 19.659C35.3341 19.728 35.4332 19.8271 35.5022 19.9467L35.5888 19.8967ZM35.2646 19.5724C35.1301 19.4946 34.9774 19.4537 34.8221 19.4537V19.5537C34.9599 19.5537 35.0953 19.59 35.2146 19.659L35.2646 19.5724ZM34.8221 19.4537C34.6668 19.4537 34.5142 19.4946 34.3796 19.5724L34.4297 19.659C34.549 19.59 34.6844 19.5537 34.8221 19.5537V19.4537ZM34.3796 19.5724L30.3721 21.8871L30.4221 21.9737L34.4296 19.659L34.3796 19.5724ZM30.4471 21.9304V21.0705H30.3471V21.9304H30.4471ZM30.4471 21.0705C30.4471 20.3929 30.178 19.7431 29.6987 19.264L29.628 19.3347C30.0885 19.795 30.3471 20.4194 30.3471 21.0705H30.4471ZM29.6987 19.264C29.2197 18.7849 28.5698 18.5158 27.8923 18.5158V18.6158C28.5433 18.6158 29.1677 18.8743 29.628 19.3347L29.6987 19.264ZM27.8923 18.5158H20.2502V18.6158H27.8923V18.5158ZM20.2119 18.5979L21.6135 20.2676L21.6901 20.2033L20.2885 18.5336L20.2119 18.5979ZM21.6518 20.2854H27.8925V20.1854H21.6518V20.2854ZM27.8925 20.2854C28.1006 20.2854 28.3002 20.3682 28.4475 20.5154L28.5182 20.4447C28.3522 20.2788 28.1272 20.1854 27.8925 20.1854V20.2854ZM28.4475 20.5154C28.5946 20.6625 28.6773 20.8622 28.6773 21.0704H28.7773C28.7773 20.8357 28.6841 20.6106 28.5182 20.4447L28.4475 20.5154ZM28.6773 21.0704V28.2548H28.7773V21.0704H28.6773ZM28.6773 28.2548C28.6773 28.3622 28.6553 28.4673 28.6138 28.5641L28.7058 28.6035C28.7525 28.4943 28.7773 28.3758 28.7773 28.2548H28.6773ZM28.6215 28.6159L29.7344 29.9417L29.811 29.8774L28.6981 28.5517L28.6215 28.6159ZM18.1765 20.2854H19.6618V20.1854H18.1765V20.2854ZM17.6216 20.5154C17.7687 20.3683 17.9685 20.2854 18.1765 20.2854V20.1854C17.9419 20.1854 17.7168 20.2788 17.5509 20.4447L17.6216 20.5154ZM17.3916 21.0704C17.3916 20.8622 17.4743 20.6625 17.6216 20.5154L17.5509 20.4447C17.3848 20.6106 17.2916 20.8357 17.2916 21.0704H17.3916ZM17.3916 28.2548V21.0704H17.2916V28.2548H17.3916ZM17.6216 28.8098C17.4743 28.6627 17.3916 28.463 17.3916 28.2548H17.2916C17.2916 28.4895 17.3848 28.7146 17.5509 28.8805L17.6216 28.8098ZM18.1765 29.0398C17.9685 29.0398 17.7687 28.957 17.6216 28.8098L17.5509 28.8805C17.7168 29.0464 17.9419 29.1398 18.1765 29.1398V29.0398ZM27.0945 29.0398H18.1765V29.1398H27.0945V29.0398ZM28.4828 30.6658L27.1328 29.0576L27.0562 29.1219L28.4062 30.7301L28.4828 30.6658ZM27.8923 30.8096C28.0833 30.8096 28.2721 30.7882 28.4555 30.7467L28.4334 30.6492C28.2572 30.689 28.0758 30.7096 27.8923 30.7096V30.8096ZM18.1764 30.8096H27.8923V30.7096H18.1764V30.8096ZM16.37 30.0614C16.849 30.5405 17.4989 30.8096 18.1764 30.8096V30.7096C17.5254 30.7096 16.901 30.451 16.4407 29.9907L16.37 30.0614ZM15.6216 28.2548C15.6216 28.9325 15.8909 29.5823 16.37 30.0614L16.4407 29.9907C15.9803 29.5304 15.7216 28.9059 15.7216 28.2548H15.6216ZM15.6216 21.0705V28.2548H15.7216V21.0705H15.6216ZM16.37 19.264C15.8909 19.7431 15.6216 20.3929 15.6216 21.0705H15.7216C15.7216 20.4194 15.9803 19.795 16.4407 19.3347L16.37 19.264ZM18.1764 18.5158C17.4989 18.5158 16.849 18.7849 16.37 19.264L16.4407 19.3347C16.901 18.8744 17.5254 18.6158 18.1764 18.6158V18.5158ZM18.2602 18.5158H18.1764V18.6158H18.2602V18.5158ZM19.7 20.2033L18.2985 18.5336L18.2219 18.5979L19.6235 20.2676L19.7 20.2033ZM34.0123 27.4976L30.4221 25.4249L30.3721 25.5115L33.9623 27.5842L34.0123 27.4976ZM33.9373 21.7864V27.5409H34.0373V21.7864H33.9373ZM30.4221 23.9024L34.0123 21.8297L33.9623 21.7431L30.3721 23.8158L30.4221 23.9024ZM30.4471 25.4682V23.8591H30.3471V25.4682H30.4471Z" fill="white"/>
<rect x="30.1968" y="32.6409" width="1.52422" height="22.3569" rx="0.762111" transform="rotate(139.988 30.1968 32.6409)" fill="white"/>
</svg>
