<svg width="22" height="20" viewBox="0 0 22 20" fill="none" xmlns="http://www.w3.org/2000/svg">
<path fill-rule="evenodd" clip-rule="evenodd" d="M10.8482 14.6366C12.0279 14.6366 12.9843 13.8119 12.9843 12.7947C12.9843 11.7774 12.0279 10.9527 10.8482 10.9527C9.66846 10.9527 8.7121 11.7774 8.7121 12.7947C8.7121 13.8119 9.66846 14.6366 10.8482 14.6366ZM10.8482 15.825C12.789 15.825 14.3624 14.4683 14.3624 12.7947C14.3624 11.1211 12.789 9.76434 10.8482 9.76434C8.90734 9.76434 7.33398 11.1211 7.33398 12.7947C7.33398 14.4683 8.90734 15.825 10.8482 15.825Z" fill="#ACACAC"/>
<path fill-rule="evenodd" clip-rule="evenodd" d="M12.8879 6.09983C16.4362 6.93083 19.2362 9.73615 20.7332 11.9947C20.929 12.2901 20.8176 12.6702 20.4846 12.8437C20.1515 13.0173 19.7228 12.9186 19.527 12.6232C18.108 10.4822 15.5573 8.00802 12.5306 7.29916C11.0457 6.95139 9.42521 7.02175 7.70978 7.7894C5.97904 8.5639 4.11106 10.0672 2.20054 12.6492C1.98861 12.9356 1.55494 13.0155 1.23191 12.8276C0.908876 12.6397 0.818807 12.2552 1.03073 11.9688C3.02674 9.27124 5.06181 7.58484 7.07938 6.68199C9.11225 5.77229 11.0853 5.67767 12.8879 6.09983Z" fill="#ACACAC"/>
<path fill-rule="evenodd" clip-rule="evenodd" d="M8.85819 19.523C5.30994 18.692 2.50986 15.8867 1.01285 13.6281C0.81711 13.3328 0.928452 12.9527 1.26154 12.7791C1.59463 12.6056 2.02333 12.7043 2.21907 12.9996C3.63814 15.1406 6.18878 17.6148 9.2155 18.3237C10.7004 18.6715 12.3209 18.6011 14.0363 17.8335C15.7671 17.059 17.635 15.5556 19.5456 12.9736C19.7575 12.6872 20.1912 12.6074 20.5142 12.7953C20.8372 12.9832 20.9273 13.3677 20.7154 13.6541C18.7194 16.3516 16.6843 18.038 14.6667 18.9409C12.6338 19.8506 10.6608 19.9452 8.85819 19.523Z" fill="#ACACAC"/>
<path fill-rule="evenodd" clip-rule="evenodd" d="M0.4953 4.00998C0.768645 3.77427 1.21182 3.77427 1.48517 4.00998L3.30502 5.57925C3.57836 5.81496 3.57836 6.19711 3.30502 6.43282C3.03168 6.66853 2.5885 6.66853 2.31515 6.43282L0.4953 4.86355C0.221955 4.62784 0.221955 4.24568 0.4953 4.00998Z" fill="#ACACAC"/>
<path fill-rule="evenodd" clip-rule="evenodd" d="M21.4707 3.85974C21.763 4.07784 21.795 4.459 21.542 4.71109L19.8629 6.38474C19.6099 6.63683 19.1679 6.66439 18.8756 6.44629C18.5832 6.22819 18.5513 5.84703 18.8042 5.59494L20.4834 3.92129C20.7363 3.6692 21.1783 3.64164 21.4707 3.85974Z" fill="#ACACAC"/>
<path fill-rule="evenodd" clip-rule="evenodd" d="M10.6682 0.97644C10.9917 0.97644 11.2539 1.25526 11.2539 1.5992L11.2539 3.88905C11.2539 4.23299 10.9917 4.51181 10.6682 4.51181C10.3447 4.51181 10.0825 4.23299 10.0825 3.88905L10.0825 1.5992C10.0825 1.25526 10.3447 0.97644 10.6682 0.97644Z" fill="#ACACAC"/>
</svg>
