<svg width="84" height="84" viewBox="0 0 84 84" fill="none" xmlns="http://www.w3.org/2000/svg">
<rect width="84" height="84" rx="42" fill="#F3F5F8"/>
<path d="M26.9131 57.7503C26.9131 56.0552 27.3324 54.485 28.1705 53.0391C29.0085 51.5932 30.1507 50.451 31.5972 49.6124C33.043 48.7744 34.6132 48.3545 36.3084 48.3545H47.3605C49.0557 48.3545 50.6259 48.7744 52.0717 49.6124C53.5176 50.451 54.6598 51.5932 55.4984 53.0391C56.3359 54.485 56.7558 56.0552 56.7558 57.7503V59.4078H53.4401V57.7503C53.4401 56.6451 53.1677 55.6272 52.6246 54.6972C52.0816 53.7672 51.3442 53.0304 50.4142 52.4868C49.4842 51.9443 48.4663 51.6719 47.3611 51.6719H36.3089C35.2037 51.6719 34.1853 51.9443 33.2553 52.4868C32.3253 53.0304 31.5879 53.7672 31.0448 54.6972C30.5018 55.6272 30.23 56.6451 30.23 57.7503V59.4078H26.9131V57.7503ZM36.8474 43.1465C35.3275 42.2535 34.1205 41.0465 33.2269 39.5272C32.3334 38.0068 31.8875 36.3452 31.8875 34.539C31.8875 32.734 32.3334 31.0712 33.2269 29.5519C34.1205 28.032 35.3275 26.8256 36.8474 25.9315C38.3667 25.0385 40.0294 24.592 41.8345 24.592C43.64 24.592 45.3022 25.0385 46.8221 25.9315C48.342 26.8256 49.5484 28.032 50.442 29.5519C51.3355 31.0712 51.782 32.734 51.782 34.539C51.782 36.3452 51.3355 38.0068 50.442 39.5272C49.5484 41.0465 48.342 42.2535 46.8221 43.1465C45.3022 44.0406 43.64 44.4871 41.8345 44.4871C40.0294 44.4871 38.3667 44.0406 36.8474 43.1465ZM45.1646 40.2872C46.1871 39.6978 46.9921 38.8916 47.5826 37.8691C48.172 36.8466 48.4663 35.7368 48.4663 34.539C48.4663 33.3418 48.1714 32.2326 47.5826 31.2095C46.9921 30.187 46.1871 29.3813 45.1646 28.7914C44.142 28.2015 43.0316 27.9071 41.8345 27.9071C40.6373 27.9071 39.5274 28.2021 38.5049 28.7914C37.4824 29.3807 36.6768 30.187 36.0869 31.2095C35.4969 32.2326 35.2031 33.3418 35.2031 34.539C35.2031 35.7368 35.4975 36.8466 36.0869 37.8691C36.6762 38.8916 37.4824 39.6978 38.5049 40.2872C39.5274 40.8771 40.6373 41.1709 41.8345 41.1709C43.0316 41.1709 44.142 40.8765 45.1646 40.2872Z" fill="#DADADA" stroke="#DADADA" stroke-width="0.3"/>
</svg>
