<svg width="12" height="12" viewBox="0 0 12 12" fill="none" xmlns="http://www.w3.org/2000/svg">
<path fill-rule="evenodd" clip-rule="evenodd" d="M6 0C5.46957 0 4.96086 0.210714 4.58579 0.585786C4.21071 0.960859 4 1.46957 4 2V6C4 6.53043 4.21071 7.03914 4.58579 7.41421C4.96086 7.78929 5.46957 8 6 8C6.53043 8 7.03914 7.78929 7.41421 7.41421C7.78929 7.03914 8 6.53043 8 6V2C8 1.46957 7.78929 0.960859 7.41421 0.585786C7.03914 0.210714 6.53043 0 6 0ZM5.29289 1.29289C5.48043 1.10536 5.73478 1 6 1C6.26522 1 6.51957 1.10536 6.70711 1.29289C6.89464 1.48043 7 1.73478 7 2V6C7 6.26522 6.89464 6.51957 6.70711 6.70711C6.51957 6.89464 6.26522 7 6 7C5.73478 7 5.48043 6.89464 5.29289 6.70711C5.10536 6.51957 5 6.26522 5 6V2C5 1.73478 5.10536 1.48043 5.29289 1.29289ZM3 5C3 4.72386 2.77614 4.5 2.5 4.5C2.22386 4.5 2 4.72386 2 5V6C2 7.06087 2.42143 8.07828 3.17157 8.82843C3.80289 9.45974 4.6235 9.85823 5.5 9.96864V11H4C3.72386 11 3.5 11.2239 3.5 11.5C3.5 11.7761 3.72386 12 4 12H6H8C8.27614 12 8.5 11.7761 8.5 11.5C8.5 11.2239 8.27614 11 8 11H6.5V9.96864C7.3765 9.85823 8.19711 9.45974 8.82843 8.82843C9.57857 8.07828 10 7.06087 10 6V5C10 4.72386 9.77614 4.5 9.5 4.5C9.22386 4.5 9 4.72386 9 5V6C9 6.79565 8.68393 7.55871 8.12132 8.12132C7.55871 8.68393 6.79565 9 6 9C5.20435 9 4.44129 8.68393 3.87868 8.12132C3.31607 7.55871 3 6.79565 3 6V5Z" fill="#53B36E"/>
</svg>
