<?xml version="1.0" encoding="UTF-8"?>
<svg width="19px" height="19px" viewBox="0 0 19 19" version="1.1" xmlns="http://www.w3.org/2000/svg" xmlns:xlink="http://www.w3.org/1999/xlink">
    <title>block icon</title>
    <g id="Page-1" stroke="none" stroke-width="1" fill="none" fill-rule="evenodd">
        <g id="Manage-screen" transform="translate(-19.000000, -409.000000)" fill="#4B4D53" fill-rule="nonzero" stroke="#FFFFFF" stroke-width="0.7">
            <g id="Group" transform="translate(20.000000, 407.000000)">
                <path d="M0,11.5 C0,16.2010204 3.79897959,20 8.5,20 C13.2010204,20 17,16.2010204 17,11.5 C17,6.79897959 13.2010204,3 8.5,3 C3.79897959,3 0,6.79897959 0,11.5 Z M14.8836735,11.5 C14.8836735,12.7142857 14.5367347,13.8591837 13.9469388,14.8132653 L5.18673469,6.05306122 C6.15816327,5.46326531 7.28571429,5.11632653 8.5,5.11632653 C12.0214286,5.13367347 14.8836735,7.97857143 14.8836735,11.5 Z M2.13367347,11.5 C2.13367347,10.2857143 2.48061224,9.14081633 3.07040816,8.18673469 L11.8306122,16.9469388 C10.8591837,17.5367347 9.71428571,17.8836735 8.5,17.8836735 C4.97857143,17.8836735 2.13367347,15.0214286 2.13367347,11.5 Z" id="block-icon"></path>
            </g>
        </g>
    </g>
</svg>