<svg width="17" height="18" viewBox="0 0 17 18" fill="none" xmlns="http://www.w3.org/2000/svg">
<path d="M15.2039 11.0478C15.2039 11.6001 14.7562 12.0478 14.2039 12.0478L1.95055 12.0478C1.39826 12.0478 0.950544 11.6001 0.950544 11.0478L0.950544 0.670071L15.2039 0.67007L15.2039 11.0478Z" fill="#EFAE1A"/>
<path d="M8.69815 16.9102C8.3343 17.1985 7.8199 17.1985 7.45606 16.9102L1.6009 12.2707C1.22954 11.9765 1.43762 11.3788 1.91142 11.3788L14.2428 11.3788C14.7166 11.3788 14.9247 11.9765 14.5533 12.2707L8.69815 16.9102Z" fill="#EFAE1A"/>
<path fill-rule="evenodd" clip-rule="evenodd" d="M16.1539 0.511543C16.1539 0.794086 15.9292 1.02313 15.6521 1.02313L0.501813 1.02313C0.22469 1.02313 4.00621e-05 0.794087 4.00718e-05 0.511544C4.00814e-05 0.229001 0.22469 -4.58375e-05 0.501813 -4.58489e-05L15.6521 -4.6471e-05C15.9292 -4.64824e-05 16.1539 0.229 16.1539 0.511543Z" fill="#FFAA00"/>
</svg>
