<svg width="30" height="23" viewBox="0 0 30 23" fill="none" xmlns="http://www.w3.org/2000/svg">
<path d="M26.7359 9.68863C26.4933 9.51017 26.1987 9.39539 25.8857 9.35739C25.5727 9.3194 25.2538 9.35971 24.9656 9.47374L19.6016 11.5759L16.4849 6.62419C16.336 6.39301 16.1201 6.20075 15.8594 6.067C15.5987 5.93326 15.3025 5.86279 15.0008 5.86279C14.6992 5.86279 14.4029 5.93326 14.1422 6.067C13.8815 6.20075 13.6657 6.39301 13.5167 6.62419L10.4001 11.5759L5.03607 9.47374C4.7472 9.35988 4.42795 9.31951 4.11442 9.35719C3.80088 9.39487 3.50556 9.50911 3.26183 9.68698C3.0181 9.86485 2.83569 10.0993 2.73522 10.3637C2.63475 10.6282 2.62023 10.9121 2.69329 11.1835L5.38589 21.3017C5.43738 21.4976 5.53345 21.6823 5.66829 21.8445C5.80314 22.0067 5.97394 22.1431 6.17035 22.2454C6.43627 22.3857 6.7403 22.4599 7.05022 22.4602C7.20087 22.46 7.35074 22.4411 7.49545 22.4042C12.4034 21.2083 17.5876 21.2083 22.4956 22.4042C22.9437 22.508 23.4203 22.4509 23.8207 22.2454C24.0183 22.1444 24.19 22.0084 24.325 21.846C24.46 21.6835 24.5554 21.4982 24.6051 21.3017L27.3083 11.1835C27.3806 10.9121 27.3653 10.6282 27.2641 10.3641C27.1629 10.0999 26.98 9.86596 26.7359 9.68863V9.68863Z" fill="#FFAA00"/>
<ellipse cx="15.0006" cy="3.34983" rx="3.52938" ry="3.34983" fill="#FFAA00"/>
<ellipse cx="27.7942" cy="8.79335" rx="2.20587" ry="2.09364" fill="#FFAA00"/>
<ellipse cx="2.20587" cy="8.79335" rx="2.20587" ry="2.09364" fill="#FFAA00"/>
<ellipse cx="8.3826" cy="16.3309" rx="1.32352" ry="1.25619" fill="#BE9502"/>
<ellipse cx="21.6175" cy="16.3309" rx="1.32352" ry="1.25619" fill="#BE9502"/>
</svg>
