<?xml version="1.0" encoding="UTF-8"?>
<svg width="18px" height="18px" viewBox="0 0 18 18" version="1.1" xmlns="http://www.w3.org/2000/svg" xmlns:xlink="http://www.w3.org/1999/xlink">
    <title>pending Posts</title>
    <g id="Page-1" stroke="none" stroke-width="1" fill="none" fill-rule="evenodd">
        <g id="Manage-screen" transform="translate(-20.000000, -198.000000)" fill="#4B4D53" fill-rule="nonzero" stroke="#4B4D53">
            <g id="Group" transform="translate(20.000000, 195.000000)">
                <g id="pending-Posts" transform="translate(1.000000, 4.000000)">
                    <path d="M6.386,7.33333333 L0.947333333,7.33333333 C0.425333333,7.33333333 0,6.908 0,6.386 L0,0.947333333 C0,0.425333333 0.425333333,0 0.947333333,0 L6.38533333,0 C6.908,0 7.33333333,0.425333333 7.33333333,0.947333333 L7.33333333,6.38533333 C7.33333333,6.908 6.908,7.33333333 6.386,7.33333333 Z M0.947333333,0.666666667 C0.792666667,0.666666667 0.666666667,0.792666667 0.666666667,0.947333333 L0.666666667,6.38533333 C0.666666667,6.54066667 0.792666667,6.66666667 0.947333333,6.66666667 L6.38533333,6.66666667 C6.54066667,6.66666667 6.66666667,6.54066667 6.66666667,6.386 L6.66666667,0.947333333 C6.66666667,0.792666667 6.54066667,0.666666667 6.386,0.666666667 L0.947333333,0.666666667 Z" id="Shape"></path>
                    <path d="M15.62,0.666666667 L9.62,0.666666667 C9.436,0.666666667 9.28666667,0.517333333 9.28666667,0.333333333 C9.28666667,0.149333333 9.436,0 9.62,0 L15.62,0 C15.804,0 15.9533333,0.149333333 15.9533333,0.333333333 C15.9533333,0.517333333 15.8046667,0.666666667 15.62,0.666666667 Z" id="Path"></path>
                    <path d="M15.62,3.73333333 L9.62,3.73333333 C9.436,3.73333333 9.28666667,3.584 9.28666667,3.4 C9.28666667,3.216 9.436,3.06666667 9.62,3.06666667 L15.62,3.06666667 C15.804,3.06666667 15.9533333,3.216 15.9533333,3.4 C15.9533333,3.584 15.8046667,3.73333333 15.62,3.73333333 Z" id="Path"></path>
                    <path d="M15.62,6.8 L9.62,6.8 C9.436,6.8 9.28666667,6.65066667 9.28666667,6.46666667 C9.28666667,6.28266667 9.436,6.13333333 9.62,6.13333333 L15.62,6.13333333 C15.804,6.13333333 15.9533333,6.28266667 15.9533333,6.46666667 C15.9533333,6.65066667 15.8046667,6.8 15.62,6.8 Z" id="Path"></path>
                    <path d="M15.6666667,9.86666667 L0.333333333,9.86666667 C0.149333333,9.86666667 0,9.71733333 0,9.53333333 C0,9.34933333 0.149333333,9.2 0.333333333,9.2 L15.6666667,9.2 C15.8506667,9.2 16,9.34933333 16,9.53333333 C16,9.71733333 15.8506667,9.86666667 15.6666667,9.86666667 Z" id="Path"></path>
                    <path d="M15.6666667,12.9333333 L0.333333333,12.9333333 C0.149333333,12.9333333 0,12.784 0,12.6 C0,12.416 0.149333333,12.2666667 0.333333333,12.2666667 L15.6666667,12.2666667 C15.8506667,12.2666667 16,12.416 16,12.6 C16,12.784 15.8506667,12.9333333 15.6666667,12.9333333 Z" id="Path"></path>
                    <path d="M15.6666667,16 L0.333333333,16 C0.149333333,16 0,15.8506667 0,15.6666667 C0,15.4826667 0.149333333,15.3333333 0.333333333,15.3333333 L15.6666667,15.3333333 C15.8506667,15.3333333 16,15.4826667 16,15.6666667 C16,15.8506667 15.8506667,16 15.6666667,16 Z" id="Path"></path>
                </g>
            </g>
        </g>
    </g>
</svg>