<svg width="119" height="100" viewBox="0 0 119 100" fill="none" xmlns="http://www.w3.org/2000/svg">
<path d="M18.1835 42.9917C12.0258 44.7578 5.95216 46.9256 0 49.4952C0 37.0676 0 24.64 0 12.2124C5.95216 9.64283 12.0258 7.47501 18.1835 5.70898V13.7168C14.6702 14.726 11.1848 15.8566 7.73687 17.1274C7.73687 19.3419 7.73687 21.5658 7.73687 23.7804C11.1848 22.5096 14.6702 21.3696 18.1835 20.3698V28.3496C14.6702 29.3588 11.1848 30.4894 7.73687 31.7602C7.73687 33.9747 7.73687 36.1986 7.73687 38.4132C11.1848 37.1424 14.6702 36.0024 18.1835 35.0026V42.9824V42.9917Z" fill="#002C45"/>
<path d="M44.2161 32.6762C42.4127 34.6384 40.5999 36.6287 38.8058 38.647C33.405 39.3945 28.0228 40.4317 22.7061 41.7773V4.49451C28.0228 3.14897 33.3956 2.11178 38.8058 1.36426C40.6093 2.89668 42.4127 4.45714 44.2161 6.04563V32.6668V32.6762ZM36.0867 31.069V9.7739C34.2927 10.0542 32.508 10.3626 30.7326 10.7083V32.0034C32.5173 31.6577 34.302 31.3493 36.0867 31.069Z" fill="#002C45"/>
<path d="M69.9681 0.373762C67.249 6.7464 64.5205 13.1845 61.792 19.7066V37.2828C59.0729 37.236 56.3538 37.2547 53.644 37.3575V19.7814C50.9249 13.3153 48.2151 6.9146 45.5054 0.598019C48.2151 0.34573 50.9249 0.177537 53.644 0.0747524C55.0083 3.49467 56.3725 6.92394 57.7274 10.3812C59.0823 6.90525 60.4372 3.43861 61.792 0C64.5205 0.0467202 67.2396 0.177537 69.9681 0.373762Z" fill="#002C45"/>
<path d="M92.8238 35.7971C91.0484 37.1613 89.2637 38.5536 87.4697 39.9832C83.8909 39.2918 80.2934 38.7311 76.6866 38.3013C74.8832 36.311 73.0705 34.3488 71.2671 32.4239V5.80271C73.0798 4.17684 74.8832 2.57901 76.6866 1.01855C80.2934 1.44838 83.8909 2.00902 87.4697 2.70048C89.2544 4.82158 91.0391 6.98006 92.8238 9.17591V35.7971ZM84.7692 31.5082V10.2131C82.9845 9.90474 81.1905 9.62442 79.3964 9.37213V30.6672C81.1905 30.9102 82.9752 31.1905 84.7692 31.5082Z" fill="#002C45"/>
<path d="M118.212 44.1694C116.511 45.2066 114.801 46.2812 113.082 47.3931C109.643 46.0569 106.167 44.8515 102.654 43.777C100.897 41.4596 99.1405 39.1797 97.3745 36.9371C97.3745 26.2849 97.3745 15.6327 97.3745 4.98047C100.028 5.69062 102.673 6.46617 105.298 7.32583V36.6288C107.036 37.1987 108.765 37.7968 110.484 38.4322V9.11988C113.082 10.073 115.661 11.1102 118.212 12.2128V44.1694Z" fill="#002C45"/>
<path d="M49.9722 75.1258L50.5422 65.3519L46.9073 65.165L46.3373 74.8922C46.1131 78.4523 47.3278 81.8348 49.7666 84.4325C52.112 86.9367 55.2703 88.357 58.6902 88.4598V84.8343C56.2888 84.7315 54.0742 83.7223 52.4203 81.9563C50.6823 80.0968 49.804 77.6674 49.9722 75.1165V75.1258Z" fill="#002C45"/>
<path d="M87.0772 74.154C86.9651 73.6588 86.7875 73.1916 86.5446 72.7524C85.8157 71.4255 85.3205 70.0239 85.1243 68.5195C84.9467 67.1553 85.0121 65.8004 85.2925 64.4549C85.8344 61.7918 84.6571 59.2035 82.293 57.886C81.2558 57.3067 79.7608 57.017 78.9479 56.2041C77.7892 55.0361 77.4061 53.186 76.7894 51.6255C75.9484 49.4951 74.3973 48.2056 72.1454 47.7571C71.5474 47.6356 70.9494 47.673 70.3513 47.701C67.4734 47.8318 64.8944 47.0189 62.5771 45.3183C61.6987 44.6735 60.7083 44.3184 59.6337 44.197C59.5963 44.197 59.559 44.1783 59.5216 44.1689H58.4377C58.1574 44.2157 57.8864 44.2624 57.6154 44.3184C56.8025 44.5053 56.083 44.8791 55.4195 45.3837C53.9619 46.505 52.2799 47.1497 50.5139 47.5608C49.4674 47.8038 48.4022 47.8505 47.3276 47.7757C44.6646 47.5982 42.2725 49.168 41.3194 51.6909C40.712 53.3074 39.8243 54.7464 38.6096 55.9798C37.806 56.7928 36.8996 57.4562 35.9092 58.0168C34.1805 58.9979 33.1433 60.465 32.807 62.4179C32.6761 63.1561 32.7322 63.8942 32.8817 64.6231C33.5078 67.5758 33.0873 70.379 31.6576 73.0327C31.2839 73.7335 31.069 74.481 31.0129 75.2659C31.0129 75.3127 30.9942 75.35 30.9849 75.3968V76.1443C31.0129 76.3592 31.0503 76.5741 31.0783 76.789C31.2932 78.0505 31.8539 79.1344 32.7602 80.0501C34.5169 81.8255 35.6475 83.9466 36.1334 86.3947C36.2362 86.8993 36.2456 87.4132 36.311 87.9271C36.5819 89.9641 37.6285 91.4872 39.4132 92.5057C40.0392 92.8608 40.7214 93.029 41.4128 93.1972C44.1319 93.8793 46.3558 95.3463 48.0564 97.5702C49.1403 98.9811 50.5606 99.7754 52.3173 99.9716C52.3454 99.9716 52.364 99.9903 52.3921 99.9996H53.448C53.7283 99.9436 54.0179 99.9155 54.2889 99.8408C54.8682 99.6726 55.4382 99.4577 56.0176 99.2988C58.3255 98.6447 60.6148 98.7288 62.9041 99.4016C63.6143 99.6072 64.3338 99.7847 65.0439 99.9716C65.0626 99.9716 65.0813 99.9903 65.1 99.9996H65.4737C65.7821 99.9529 66.0998 99.9155 66.4081 99.8595C67.9779 99.5978 69.2861 98.869 70.2672 97.5982C71.1362 96.4676 72.1267 95.4678 73.3134 94.6735C74.5655 93.8419 75.9204 93.2813 77.3874 92.9636C79.7608 92.4496 81.7137 90.3472 82.0314 87.9458C82.1248 87.2637 82.1716 86.5722 82.293 85.8995C82.7042 83.7036 83.7227 81.7974 85.2364 80.1716C85.713 79.6576 86.1895 79.1437 86.5259 78.5177C86.909 77.7982 87.1426 77.0413 87.2267 76.2284C87.2267 76.2003 87.2454 76.1723 87.2547 76.1349V75.051C87.1987 74.752 87.1519 74.453 87.0865 74.154H87.0772ZM69.8374 85.7593C67.0249 88.7587 63.2125 90.4033 59.1011 90.4033C54.9897 90.4033 51.1773 88.7494 48.3648 85.7593C45.5616 82.7692 44.16 78.8634 44.4216 74.78L45.085 63.5578L45.3373 59.3904C45.3373 59.2502 45.3467 58.755 45.7204 58.3532C46.0101 58.0449 46.4212 57.886 46.9538 57.886C47.0473 57.886 47.1501 57.886 47.2529 57.9047C48.7666 58.0542 51.2988 58.1383 51.3175 58.1383C51.3642 58.1383 51.8782 58.157 52.2986 58.5868C52.6631 58.9699 52.8312 59.5306 52.7939 60.2594L52.5696 63.5952V63.941L51.8875 75.2472C51.7567 77.2562 52.4481 79.1718 53.8217 80.6388C55.2046 82.1058 57.0734 82.9187 59.0918 82.9187C61.1101 82.9187 62.9882 82.1058 64.3618 80.6388C65.7354 79.1718 66.4268 77.2562 66.296 75.2472L65.6887 65.763L65.6419 65.3612L65.2682 59.2689C65.2308 58.7363 65.6419 58.2785 66.1745 58.2411L71.7436 57.886H71.7903C72.2949 57.886 72.7247 58.2785 72.7528 58.7924L73.0705 64.0064L73.1078 64.3801L73.7713 74.7707C74.0329 78.8634 72.6313 82.7599 69.8281 85.7593H69.8374Z" fill="#002C45"/>
<path d="M44.8232 62.7822L53.1675 63.3055" stroke="#002C45" stroke-width="2" stroke-miterlimit="10"/>
<path d="M73.5098 62.7822L65.1655 63.3055" stroke="#002C45" stroke-width="2" stroke-miterlimit="10"/>
</svg>
