<svg width="204" height="173" viewBox="0 0 204 173" fill="none" xmlns="http://www.w3.org/2000/svg">
<path d="M180.283 158.399C182.209 158.399 186.451 141.846 186.937 140.103C191.296 124.63 193.061 108.541 192.161 92.4903C190.981 72.5815 188.791 50.9249 177.409 35.5371C154.346 4.32329 111.447 8.25691 89.6413 39.047C83.1944 48.142 76.4538 57.4681 67.7873 63.4768C57.9412 70.333 46.3522 69.4038 35.7839 73.6503C19.7268 80.1021 7.25671 102.582 7.68041 123.487C8.02225 140.416 18.5135 157.542 32.9336 158.779C46.7518 159.964 180.225 158.399 180.283 158.399Z" fill="#149F84"/>
<path opacity="0.7" d="M180.283 158.399C182.209 158.399 186.451 141.846 186.937 140.103C191.296 124.63 193.061 108.541 192.161 92.4903C190.981 72.5815 188.791 50.9249 177.409 35.5371C154.346 4.32329 111.447 8.25691 89.6413 39.047C83.1944 48.142 76.4538 57.4681 67.7873 63.4768C57.9412 70.333 46.3522 69.4038 35.7839 73.6503C19.7268 80.1021 7.25671 102.582 7.68041 123.487C8.02225 140.416 18.5135 157.542 32.9336 158.779C46.7518 159.964 180.225 158.399 180.283 158.399Z" fill="white"/>
<path d="M159.002 30.9333C157.076 29.8933 156.228 30.76 155.535 29.8933C154.842 29.0267 157.461 26.7734 152.242 24.5153C152.242 24.5153 151.895 19.6621 144.784 19.4888C137.673 19.3154 139.584 24.342 137.677 25.5553C135.771 26.7686 135.27 24.862 133.344 26.0801C131.418 27.2982 132.304 29.72 130.744 30.0667C129.184 30.4133 127.099 28.5067 125.193 29.72C123.286 30.9333 123.267 31.9733 122.42 31.9733C121.572 31.9733 119.82 31.28 118.78 31.9733C117.74 32.6666 116.526 33.5333 116.526 33.5333H160.388C160.388 33.5333 160.908 31.9733 159.002 30.9333Z" fill="white"/>
<path d="M76.2945 31.9139C75.0956 31.2591 74.5467 31.8031 74.1134 31.2591C73.6801 30.715 75.3123 29.2995 72.0383 27.8888C72.0383 27.8888 71.8216 24.8362 67.3536 24.7255C62.8855 24.6148 64.0796 27.778 62.8807 28.5436C61.6818 29.3091 61.3544 28.1054 60.1556 28.871C58.9567 29.6365 59.5008 31.1628 58.5186 31.3794C57.5364 31.5961 56.2316 30.4165 55.0327 31.1628C53.8338 31.909 53.829 32.5783 53.285 32.5783C52.7409 32.5783 51.648 32.1401 50.998 32.5783L49.5776 33.5412H77.1659C77.1659 33.5412 77.4933 32.5687 76.2945 31.9139Z" fill="#149F84"/>
<path d="M76.2945 31.9139C75.0956 31.2591 74.5467 31.8031 74.1134 31.2591C73.6801 30.715 75.3123 29.2995 72.0383 27.8888C72.0383 27.8888 71.8216 24.8362 67.3536 24.7255C62.8855 24.6148 64.0796 27.778 62.8807 28.5436C61.6818 29.3091 61.3544 28.1054 60.1556 28.871C58.9567 29.6365 59.5008 31.1628 58.5186 31.3794C57.5364 31.5961 56.2316 30.4165 55.0327 31.1628C53.8338 31.909 53.829 32.5783 53.285 32.5783C52.7409 32.5783 51.648 32.1401 50.998 32.5783L49.5776 33.5412H77.1659C77.1659 33.5412 77.4933 32.5687 76.2945 31.9139Z" fill="#149F84"/>
<path opacity="0.7" d="M76.2945 31.9139C75.0956 31.2591 74.5467 31.8031 74.1134 31.2591C73.6801 30.715 75.3123 29.2995 72.0383 27.8888C72.0383 27.8888 71.8216 24.8362 67.3536 24.7255C62.8855 24.6148 64.0796 27.778 62.8807 28.5436C61.6818 29.3091 61.3544 28.1054 60.1556 28.871C58.9567 29.6365 59.5008 31.1628 58.5186 31.3794C57.5364 31.5961 56.2316 30.4165 55.0327 31.1628C53.8338 31.909 53.829 32.5783 53.285 32.5783C52.7409 32.5783 51.648 32.1401 50.998 32.5783L49.5776 33.5412H77.1659C77.1659 33.5412 77.4933 32.5687 76.2945 31.9139Z" fill="white"/>
<path d="M200.981 156.863H10.9731V159.94H200.981V156.863Z" fill="#263238"/>
<path d="M145.738 58.9701L144.462 55.1472L141.776 51.4688L140.235 55.7587L143.754 60.3856L145.738 58.9701Z" fill="white"/>
<path d="M143.706 60.7164L139.965 55.8006L141.698 50.957L144.693 55.0736L146.022 59.065L143.706 60.7164ZM140.49 55.7188L143.793 60.052L145.439 58.8772L144.231 55.2614L141.823 51.9729L140.49 55.7188Z" fill="#263238"/>
<path d="M164.756 70.8515L154.048 71.227C153.652 71.2423 153.261 71.1438 152.919 70.9433C152.578 70.7427 152.301 70.4485 152.122 70.0956L145.738 58.9688C145.738 58.9688 143.898 59.9606 143.754 60.3843C143.61 60.808 148.02 71.5063 149.912 76.2728C150.07 76.6743 150.351 77.0161 150.713 77.2501C151.076 77.4842 151.503 77.5987 151.934 77.5776L163.908 77.0961" fill="#149F84"/>
<path d="M151.848 77.8305C151.385 77.8328 150.932 77.6964 150.548 77.439C150.163 77.1815 149.865 76.8148 149.691 76.3861C149.305 75.4232 148.819 74.2002 148.285 72.8762C144.11 62.462 143.436 60.6083 143.528 60.329C143.682 59.8476 145.044 59.0917 145.622 58.7787L145.829 58.668L152.329 69.997C152.488 70.3107 152.734 70.5724 153.036 70.7515C153.339 70.9306 153.687 71.0196 154.038 71.0081L164.746 70.6325V71.114L154.038 71.4896C153.597 71.5037 153.161 71.3927 152.78 71.1695C152.399 70.9463 152.089 70.6199 151.886 70.2281L145.627 59.318C145.026 59.6167 144.471 60.0011 143.98 60.459C144.11 61.215 146.869 68.1096 148.713 72.698C149.243 74.0221 149.734 75.2402 150.119 76.208C150.259 76.5632 150.506 76.8657 150.826 77.073C151.147 77.2803 151.524 77.3819 151.905 77.3635L163.879 76.882V77.3635L151.905 77.845L151.848 77.8305Z" fill="#263238"/>
<path d="M146.458 60.797L144.781 61.4922L144.92 61.8258L146.596 61.1305L146.458 60.797Z" fill="#263238"/>
<path d="M150.495 79.707H49.2412V156.247H150.495V79.707Z" fill="#149F84"/>
<path d="M150.495 156.473H49.2412C49.1774 156.473 49.1161 156.448 49.071 156.402C49.0259 156.357 49.0005 156.296 49.0005 156.232V79.6782C49.0005 79.6144 49.0259 79.5532 49.071 79.508C49.1161 79.4629 49.1774 79.4375 49.2412 79.4375H150.495C150.558 79.4399 150.618 79.466 150.662 79.5107C150.707 79.5553 150.733 79.6151 150.735 79.6782V156.232C150.735 156.296 150.71 156.357 150.665 156.402C150.62 156.448 150.558 156.473 150.495 156.473ZM49.4916 155.991H150.264V79.919H49.4916V155.991Z" fill="#263238"/>
<path d="M49.2412 79.7084L94.1432 35.856C95.5093 34.6988 97.238 34.0573 99.0282 34.0432C100.819 34.0291 102.557 34.6434 103.941 35.779L150.495 79.7084H49.2412Z" fill="#149F84"/>
<path d="M150.494 79.9469H49.2409C49.1932 79.9474 49.1465 79.9333 49.107 79.9067C49.0675 79.88 49.0369 79.842 49.0194 79.7977C49.0014 79.7532 48.9968 79.7044 49.0062 79.6574C49.0156 79.6103 49.0386 79.567 49.0724 79.5329L93.9744 35.6853C95.3818 34.4881 97.1647 33.8226 99.0124 33.805C100.86 33.7874 102.655 34.4188 104.085 35.589L150.648 79.5329C150.684 79.5657 150.709 79.6088 150.719 79.6562C150.729 79.7036 150.725 79.753 150.706 79.7977C150.689 79.8402 150.66 79.8768 150.622 79.9033C150.584 79.9297 150.54 79.9449 150.494 79.9469ZM49.8331 79.4655H149.888L103.777 35.9501C102.437 34.8536 100.754 34.2622 99.0229 34.2789C97.2914 34.2956 95.6206 34.9194 94.3018 36.0416L49.8331 79.4655Z" fill="#263238"/>
<path d="M142.098 43.1719H57.6382V114.449H142.098V43.1719Z" fill="white"/>
<path d="M142.097 114.685H57.6377C57.5739 114.685 57.5126 114.659 57.4675 114.614C57.4223 114.569 57.397 114.508 57.397 114.444V43.186C57.397 43.1222 57.4223 43.061 57.4675 43.0158C57.5126 42.9707 57.5739 42.9453 57.6377 42.9453H142.097C142.161 42.9453 142.222 42.9707 142.268 43.0158C142.313 43.061 142.338 43.1222 142.338 43.186V114.444C142.338 114.508 142.313 114.569 142.268 114.614C142.222 114.659 142.161 114.685 142.097 114.685ZM57.8784 114.203H141.857V43.4268H57.8784V114.203Z" fill="#263238"/>
<path d="M138.395 110.113H61.3597C61.3112 110.113 61.2647 110.093 61.2303 110.059C61.196 110.025 61.1768 109.978 61.1768 109.93V47.6899C61.178 47.6422 61.1978 47.5969 61.232 47.5636C61.2662 47.5303 61.312 47.5117 61.3597 47.5117H138.395C138.442 47.514 138.486 47.5336 138.518 47.5665C138.551 47.5994 138.571 47.6434 138.573 47.6899V109.93C138.573 109.977 138.555 110.023 138.521 110.057C138.488 110.092 138.443 110.111 138.395 110.113ZM61.5282 109.771H138.212V47.8728H61.5282V109.771Z" fill="#149F84"/>
<path d="M135.935 108.424H63.8013C63.6736 108.424 63.5511 108.373 63.4608 108.283C63.3706 108.193 63.3198 108.07 63.3198 107.943V49.6846C63.3198 49.5569 63.3706 49.4344 63.4608 49.3441C63.5511 49.2539 63.6736 49.2031 63.8013 49.2031H135.935C136.063 49.2031 136.185 49.2539 136.276 49.3441C136.366 49.4344 136.417 49.5569 136.417 49.6846V107.943C136.417 108.07 136.366 108.193 136.276 108.283C136.185 108.373 136.063 108.424 135.935 108.424ZM64.2828 107.461H135.454V50.1661H64.2828V107.461Z" fill="#149F84"/>
<path d="M97.0653 70.0972C97.4216 70.6605 97.7923 70.9446 98.1775 70.9446V70.9879C97.9271 70.9879 97.5997 71.2094 97.2146 71.6524C97.2146 71.7727 97.1712 71.8305 97.0798 71.8305C97.0798 71.6042 96.9353 71.4116 96.6368 71.2527C96.3458 71.1146 96.0242 71.0533 95.7028 71.0746H85.7796L84.8456 71.4309L84.7108 71.5657H84.6385C84.5613 71.5164 84.4946 71.4522 84.4425 71.3768C84.3904 71.3014 84.3538 71.2164 84.335 71.1267C84.3162 71.037 84.3154 70.9445 84.3328 70.8545C84.3502 70.7645 84.3854 70.679 84.4363 70.6028C84.4885 70.5217 84.5574 70.4527 84.6385 70.4005H84.7252C85.0097 70.6086 85.3399 70.7457 85.6881 70.8002L85.7796 70.8916H96.0013C96.709 70.7664 97.0653 70.5209 97.0653 70.0972ZM98.6686 69.7891C99.0586 69.7891 99.3716 70.0683 99.5979 70.6316V70.7231H99.4679C98.8419 70.5209 98.5338 70.285 98.5338 70.0105V69.9191L98.6686 69.7891ZM99.4197 71.2335H99.5112L99.5979 71.325C99.5979 71.5705 99.3475 71.8498 98.8419 72.1675H98.7986C98.6445 72.1675 98.5531 72.1242 98.5338 72.0375V71.8594C98.7444 71.5541 99.0596 71.3366 99.4197 71.2479V71.2335ZM101.11 69.7891L101.201 69.9191V70.0105C101.201 70.2176 100.932 70.4535 100.402 70.7231H100.132V70.6316C100.132 70.3861 100.368 70.1213 100.845 69.8324L101.11 69.7891ZM100.224 71.2335C100.435 71.2468 100.637 71.3259 100.802 71.4598C101.066 71.6138 101.201 71.7775 101.201 71.9412V72.0327C101.172 72.1194 101.081 72.1627 100.932 72.1627H100.888C100.613 72.022 100.383 71.8068 100.224 71.5416L100.132 71.4068V71.3201L100.224 71.2335ZM102.665 70.0779C102.665 70.5016 103.021 70.7665 103.734 70.882H113.955C114.148 70.7386 114.38 70.6595 114.62 70.6557L115.019 70.3909H115.111C115.206 70.4541 115.284 70.54 115.339 70.6408C115.393 70.7416 115.421 70.8543 115.421 70.9687C115.421 71.0831 115.393 71.1957 115.339 71.2965C115.284 71.3973 115.206 71.4832 115.111 71.5464H115.019C114.67 71.31 114.277 71.1462 113.864 71.065H104.042C103.32 71.065 102.857 71.2768 102.665 71.6909V71.8209C102.294 71.3394 101.986 71.065 101.731 71.065C101.731 71.0072 101.673 70.9783 101.557 70.9783C101.557 70.9205 101.659 70.8916 101.866 70.8916C102.214 70.7342 102.486 70.4451 102.622 70.0876L102.665 70.0779Z" fill="#149F84"/>
<path d="M49.2412 80.1445L99.8679 118.412L150.49 80.1445V156.679H49.2412V80.1445Z" fill="#149F84"/>
<path d="M150.495 156.917H49.2412C49.1774 156.917 49.1161 156.891 49.071 156.846C49.0259 156.801 49.0005 156.74 49.0005 156.676V80.1221C49.0031 80.0783 49.0169 80.0358 49.0403 79.9988C49.0638 79.9617 49.0963 79.9312 49.1347 79.91C49.1732 79.8889 49.2163 79.8778 49.2602 79.8778C49.3041 79.8779 49.3473 79.889 49.3857 79.9102L99.8679 118.067L150.345 79.915C150.395 79.8757 150.459 79.8576 150.522 79.8648C150.585 79.8721 150.643 79.9039 150.682 79.9535C150.716 79.9961 150.735 80.0486 150.735 80.1028V156.657C150.739 156.688 150.736 156.72 150.727 156.751C150.717 156.781 150.702 156.81 150.682 156.834C150.662 156.859 150.637 156.879 150.609 156.894C150.581 156.909 150.55 156.919 150.519 156.922L150.495 156.917ZM49.482 156.435H150.254V80.6228L100.012 118.601C99.9704 118.632 99.9198 118.648 99.8679 118.648C99.816 118.648 99.7655 118.632 99.7235 118.601L49.4916 80.6228L49.482 156.435Z" fill="#263238"/>
<path d="M49.2412 156.681L92.8288 113.094H106.902L150.49 156.681H49.2412Z" fill="#149F84"/>
<path d="M150.495 156.917H49.2412C49.1944 156.916 49.1486 156.902 49.1094 156.877C49.0701 156.851 49.039 156.815 49.0197 156.772C49.0004 156.728 48.9951 156.679 49.0046 156.632C49.0141 156.584 49.0378 156.541 49.0727 156.507L92.6603 112.92C92.6818 112.897 92.7079 112.878 92.7369 112.866C92.7659 112.854 92.7972 112.847 92.8288 112.848H106.902C106.934 112.847 106.965 112.854 106.994 112.866C107.023 112.878 107.049 112.897 107.071 112.92L150.663 156.507C150.696 156.542 150.718 156.586 150.728 156.632C150.737 156.679 150.733 156.728 150.716 156.772C150.697 156.815 150.666 156.851 150.626 156.877C150.587 156.902 150.541 156.916 150.495 156.917ZM49.8238 156.435H149.912L106.787 113.329H92.9299L49.8238 156.435Z" fill="#263238"/>
<path d="M161.915 65.504L161.775 69.5628L166.614 68.7925L166.783 61.7148L161.915 65.504Z" fill="white"/>
<path d="M161.525 69.8437L161.674 65.3805L167.038 61.2109L166.85 68.9963L161.525 69.8437ZM162.151 65.6212L162.026 69.2756L166.359 68.5823L166.508 62.2124L162.151 65.6212Z" fill="#263238"/>
<path d="M157.823 155.706C157.722 155.423 157.64 155.133 157.577 154.839L157.303 152.803L153.74 152.234L150.769 154.348L148.882 155.388H148.843C148.379 155.576 147.935 155.812 147.519 156.091C147.206 156.365 147.36 156.674 148.299 156.674H157.63C157.63 156.674 158.083 156.409 157.823 155.706Z" fill="white"/>
<path d="M157.678 156.921H148.284C147.635 156.921 147.249 156.776 147.143 156.492C147.11 156.387 147.112 156.274 147.148 156.17C147.185 156.065 147.254 155.976 147.346 155.914C147.781 155.618 148.248 155.369 148.737 155.173H148.79L150.639 154.157L153.667 152L157.519 152.616L157.813 154.826C157.877 155.102 157.956 155.373 158.049 155.64C158.16 155.852 158.191 156.098 158.137 156.331C158.082 156.565 157.945 156.771 157.75 156.911L157.678 156.921ZM147.601 156.348C147.821 156.419 148.053 156.45 148.284 156.439H157.534C157.606 156.367 157.731 156.174 157.587 155.794C157.48 155.5 157.393 155.199 157.327 154.894L157.076 153.016L153.788 152.486L150.899 154.547L148.91 155.625C148.475 155.799 148.059 156.016 147.668 156.275C147.642 156.295 147.621 156.319 147.606 156.348H147.601Z" fill="#263238"/>
<path d="M157.88 155.992H147.663C147.606 156.027 147.553 156.067 147.504 156.113C147.191 156.387 147.346 156.695 148.284 156.695H157.615C157.723 156.617 157.806 156.508 157.853 156.383C157.9 156.258 157.909 156.122 157.88 155.992Z" fill="white"/>
<path d="M157.678 156.919H148.284C147.635 156.919 147.249 156.774 147.143 156.49C147.11 156.385 147.112 156.272 147.148 156.168C147.185 156.064 147.254 155.974 147.346 155.913C147.404 155.862 147.467 155.817 147.533 155.778L147.591 155.734H158.087L158.121 155.941C158.16 156.122 158.145 156.31 158.076 156.482C158.007 156.654 157.889 156.801 157.736 156.904L157.678 156.919ZM147.601 156.346C147.821 156.417 148.053 156.448 148.284 156.437H157.529C157.587 156.376 157.625 156.299 157.639 156.216H147.736L147.663 156.274C147.638 156.293 147.616 156.318 147.601 156.346Z" fill="#263238"/>
<path d="M173.543 155.706C173.443 155.422 173.359 155.133 173.292 154.839L173.023 152.803L169.46 152.234L166.489 154.348L164.602 155.388H164.563C164.097 155.576 163.652 155.812 163.234 156.091C162.922 156.365 163.08 156.674 164.014 156.674H173.345C173.345 156.674 173.812 156.409 173.543 155.706Z" fill="white"/>
<path d="M173.413 156.921H164.014C163.364 156.921 162.984 156.776 162.873 156.492C162.84 156.387 162.842 156.274 162.878 156.17C162.915 156.065 162.984 155.976 163.076 155.914C163.511 155.618 163.978 155.369 164.467 155.173H164.525L166.369 154.157L169.402 152L173.254 152.616L173.548 154.826C173.61 155.101 173.687 155.373 173.779 155.64C173.892 155.852 173.925 156.098 173.87 156.332C173.815 156.566 173.676 156.772 173.48 156.911L173.413 156.921ZM163.336 156.348C163.554 156.421 163.784 156.453 164.014 156.439H173.264C173.336 156.367 173.466 156.174 173.316 155.794C173.215 155.499 173.129 155.198 173.061 154.894L172.806 153.016L169.518 152.486L166.629 154.547L164.64 155.625C164.205 155.799 163.789 156.016 163.398 156.275C163.374 156.296 163.353 156.321 163.336 156.348Z" fill="#263238"/>
<path d="M173.615 155.992H163.398C163.341 156.028 163.286 156.068 163.234 156.113C162.922 156.387 163.08 156.695 164.014 156.695H173.345C173.454 156.617 173.537 156.509 173.585 156.384C173.633 156.259 173.643 156.123 173.615 155.992Z" fill="white"/>
<path d="M173.413 156.919H164.014C163.364 156.919 162.984 156.774 162.873 156.49C162.84 156.385 162.842 156.272 162.878 156.168C162.915 156.064 162.984 155.974 163.076 155.913C163.134 155.862 163.197 155.817 163.263 155.778L163.326 155.734H173.822L173.851 155.941C173.892 156.122 173.877 156.31 173.809 156.481C173.741 156.653 173.623 156.801 173.471 156.904L173.413 156.919ZM163.336 156.346C163.554 156.42 163.784 156.451 164.014 156.437H173.264C173.321 156.376 173.359 156.299 173.374 156.216H163.47L163.393 156.274C163.369 156.294 163.348 156.319 163.331 156.346H163.336Z" fill="#263238"/>
<path d="M156.513 96.0586L156.085 101.355C156.085 101.355 153.123 122.424 153.263 124.846C153.403 127.268 153.745 152.256 153.745 152.256L157.307 152.824L161.313 125.106L166.937 96.9397L156.513 96.0586Z" fill="#149F84"/>
<path d="M157.495 153.101L153.489 152.436V152.234C153.489 151.984 153.171 127.231 153.031 124.838C152.892 122.445 155.732 102.161 155.853 101.299L156.296 95.8008L167.211 96.6963L167.158 96.9611L161.529 125.132L157.495 153.101ZM153.97 152.027L157.09 152.508L161.057 125.031L166.633 97.1056L156.739 96.2871L156.329 101.318C156.301 101.545 153.373 122.407 153.508 124.776C153.643 127.145 153.932 149.639 153.97 152.027Z" fill="#263238"/>
<path d="M156.229 151.711L155.896 151.658C155.896 151.581 157.437 143.737 157.437 139.515C157.437 135.292 157.437 131.258 158.468 127.29C159.483 123.4 160.875 115.379 160.875 115.297L161.231 115.359C161.231 115.441 159.845 123.472 158.824 127.396C157.803 131.32 157.822 135.288 157.822 139.529C157.822 143.771 156.243 151.658 156.229 151.711Z" fill="#263238"/>
<path d="M163.744 94.7616C166.099 93.5339 168.627 92.7106 169.339 94.3524C170.784 97.6312 169.055 102.619 169.055 102.619L170.341 125.605L172.897 152.817L168.877 152.779C168.877 152.779 163.682 129.36 162.83 127.935C161.977 126.51 160.624 106.466 160.624 106.466L157.928 103.991" fill="#149F84"/>
<path d="M173.181 153.058L168.703 153.015L168.66 152.827C166.869 144.743 163.301 129.158 162.641 128.055C161.794 126.644 160.576 109.047 160.412 106.577L157.764 104.169L158.087 103.813L160.879 106.341V106.437C161.419 114.473 162.444 126.789 163.051 127.8C163.884 129.191 168.554 150.155 169.084 152.528L172.646 152.562L170.114 125.6L168.804 102.547V102.499C168.804 102.45 170.465 97.5587 169.093 94.4099C169.031 94.252 168.935 94.1097 168.812 93.9931C168.689 93.8766 168.542 93.7888 168.381 93.7358C167.504 93.4229 165.93 93.8418 163.831 94.9347L163.609 94.5062C165.858 93.3314 167.519 92.9222 168.544 93.2833C168.767 93.358 168.971 93.4803 169.143 93.6415C169.314 93.8028 169.448 93.9992 169.536 94.2173C170.923 97.4143 169.454 102.07 169.271 102.609L170.576 125.551L173.181 153.058Z" fill="#263238"/>
<path d="M171.14 151.518C171.14 151.422 170.095 141.672 168.569 134.729C167.413 129.467 167.5 129.149 167.606 128.672C167.669 128.453 167.697 128.226 167.688 127.998V127.035C167.717 125.398 167.76 122.923 167.341 121.542C166.701 119.399 166.378 116.342 166.292 112.191H166.653C166.715 116.308 167.057 119.332 167.688 121.445C168.121 122.89 168.078 125.389 168.049 127.045V128.008C168.057 128.268 168.026 128.527 167.957 128.778C167.851 129.173 167.765 129.481 168.92 134.662C170.451 141.624 171.487 151.393 171.501 151.513L171.14 151.518Z" fill="#263238"/>
<path d="M166.677 109.532H166.316V108.27C166.46 101.457 166.359 100.701 166.316 100.62L166.48 100.557L166.316 100.475L166.523 100.379C166.706 100.422 166.826 100.451 166.658 108.28C166.687 108.708 166.682 109.127 166.677 109.532Z" fill="#263238"/>
<path d="M158.785 104.275C158.759 104.274 158.733 104.269 158.709 104.258C158.685 104.247 158.664 104.232 158.646 104.212L157.813 103.249C157.791 103.227 157.777 103.198 157.771 103.168C157.765 103.137 157.768 103.105 157.779 103.076L158.328 101.425L158.439 99.0174C158.439 98.9935 158.445 98.9701 158.455 98.9484C158.464 98.9267 158.478 98.9071 158.496 98.891C158.513 98.8748 158.534 98.8624 158.556 98.8543C158.579 98.8462 158.603 98.8427 158.627 98.844C158.673 98.8465 158.717 98.8668 158.75 98.9009C158.782 98.9349 158.8 98.9801 158.8 99.027L158.684 101.434C158.689 101.452 158.689 101.47 158.684 101.487L158.159 103.062L158.93 103.962C158.963 103.995 158.981 104.04 158.981 104.087C158.981 104.134 158.963 104.179 158.93 104.212C158.912 104.233 158.89 104.249 158.865 104.26C158.84 104.271 158.813 104.276 158.785 104.275Z" fill="#263238"/>
<path d="M161.226 101.702C158.535 101.702 157.442 100.643 157.375 100.59C157.359 100.574 157.346 100.555 157.337 100.534C157.328 100.513 157.324 100.49 157.324 100.467C157.324 100.444 157.328 100.422 157.337 100.401C157.346 100.38 157.359 100.36 157.375 100.344C157.408 100.311 157.453 100.293 157.5 100.293C157.547 100.293 157.592 100.311 157.625 100.344C157.625 100.344 159.021 101.673 162.502 101.269C162.525 101.265 162.548 101.267 162.571 101.272C162.593 101.278 162.614 101.288 162.632 101.302C162.651 101.316 162.666 101.333 162.678 101.353C162.689 101.373 162.697 101.395 162.7 101.418C162.707 101.465 162.695 101.512 162.667 101.55C162.639 101.588 162.597 101.613 162.551 101.62C162.111 101.674 161.669 101.702 161.226 101.702Z" fill="#263238"/>
<path d="M166.084 99.2604C168.8 98.7308 168.973 97.9652 169.902 97.3345C169.912 96.3106 169.72 95.2949 169.339 94.3446C168.627 92.7028 166.099 93.5261 163.744 94.7538L162.637 96.5594L156.537 96.0779L156.344 98.4852C159.48 99.5298 162.823 99.7958 166.084 99.2604Z" fill="#263238"/>
<path d="M157.119 97.7188L157.062 98.6721L158.612 99.0284L158.727 97.7813L157.119 97.7188Z" fill="white"/>
<path d="M158.785 99.2549L156.888 98.8168L156.965 97.5312L158.939 97.6083L158.785 99.2549ZM157.264 98.5327L158.463 98.8072L158.544 97.9549L157.307 97.9068L157.264 98.5327Z" fill="#263238"/>
<path d="M167.928 99.1288L167.664 96.7648L168.453 96.5L168.848 98.604" fill="#149F84"/>
<path d="M167.688 99.1591L167.404 96.5977L168.636 96.1836L169.084 98.5621L168.612 98.6487L168.266 96.8191L167.924 96.9299L168.165 99.1061L167.688 99.1591Z" fill="#263238"/>
<path d="M161.876 99.9238L161.347 97.1602H162.661L163.191 99.529" fill="#149F84"/>
<path d="M161.636 99.9696L161.058 96.9219H162.859L163.427 99.4785L162.955 99.5796L162.469 97.4033H161.641L162.113 99.8781L161.636 99.9696Z" fill="#263238"/>
<path d="M160.423 69.5786C160.423 69.5786 157.866 72.4674 156.845 73.6663C155.825 74.8651 155.825 87.6289 155.825 89.5115C155.825 91.394 154.804 96.488 156.508 97.5087C158.213 98.5294 168.603 98.1924 169.624 96.488C170.644 94.7836 171.323 74.3403 171.155 72.477C170.986 70.6137 169.445 69.1067 168.266 68.5579C167.086 68.009 160.423 69.5786 160.423 69.5786Z" fill="white"/>
<path d="M161.135 98.3235C159.089 98.3235 157.11 98.1502 156.383 97.7169C154.938 96.855 155.247 93.6195 155.463 91.2555C155.526 90.5478 155.584 89.9411 155.584 89.5126C155.584 84.0046 155.723 74.587 156.662 73.5133C157.673 72.3337 160.215 69.4497 160.244 69.4208L160.292 69.363H160.369C161.058 69.1993 167.11 67.7886 168.357 68.3568C169.739 68.9923 171.222 70.6052 171.395 72.4685C171.568 74.3318 170.88 94.881 169.83 96.6239C169.118 97.818 165.049 98.1743 163.335 98.2754C162.637 98.3043 161.876 98.3235 161.135 98.3235ZM160.552 69.806C160.186 70.22 157.957 72.7526 157.028 73.8359C156.436 74.5292 156.065 80.538 156.065 89.5222C156.065 89.9748 156.007 90.5911 155.945 91.3085C155.752 93.4173 155.463 96.6047 156.633 97.3124C157.38 97.7602 160.249 97.9672 163.306 97.7939C166.566 97.6061 169.021 97.038 169.416 96.3784C170.379 94.751 171.082 74.3607 170.914 72.5118C170.745 70.663 169.171 69.2571 168.155 68.7901C167.351 68.4049 163.196 69.1801 160.552 69.806Z" fill="#263238"/>
<mask id="mask0_148_4185" style="mask-type:luminance" maskUnits="userSpaceOnUse" x="155" y="68" width="17" height="31">
<mask id="mask1_148_4185" style="mask-type:luminance" maskUnits="userSpaceOnUse" x="155" y="68" width="17" height="31">
<path d="M160.423 69.5786C160.423 69.5786 157.867 72.4674 156.846 73.6663C155.825 74.8651 155.825 87.6289 155.825 89.5115C155.825 91.394 154.804 96.488 156.509 97.5087C158.213 98.5294 168.603 98.1924 169.624 96.488C170.645 94.7836 171.324 74.3403 171.155 72.477C170.987 70.6137 169.446 69.1067 168.266 68.5579C167.087 68.009 160.423 69.5786 160.423 69.5786Z" fill="white"/>
</mask>
<g mask="url(#mask1_148_4185)">
<path d="M161.135 98.3235C159.089 98.3235 157.11 98.1502 156.383 97.7169C154.939 96.855 155.247 93.6195 155.464 91.2555C155.526 90.5478 155.584 89.9411 155.584 89.5126C155.584 84.0046 155.724 74.587 156.663 73.5133C157.674 72.3337 160.216 69.4497 160.245 69.4208L160.293 69.363H160.37C161.058 69.1993 167.111 67.7886 168.358 68.3568C169.739 68.9923 171.222 70.6052 171.396 72.4685C171.569 74.3318 170.88 94.881 169.831 96.6239C169.118 97.818 165.05 98.1743 163.336 98.2754C162.638 98.3043 161.877 98.3235 161.135 98.3235ZM160.553 69.806C160.187 70.22 157.958 72.7526 157.029 73.8359C156.436 74.5292 156.066 80.538 156.066 89.5222C156.066 89.9748 156.008 90.5911 155.945 91.3085C155.753 93.4173 155.464 96.6047 156.634 97.3124C157.38 97.7602 160.25 97.9672 163.307 97.7939C166.566 97.6061 169.022 97.038 169.417 96.3784C170.38 94.751 171.083 74.3607 170.914 72.5118C170.746 70.663 169.171 69.2571 168.155 68.7901C167.351 68.4049 163.196 69.1801 160.553 69.806Z" fill="white"/>
</g>
</mask>
<g mask="url(#mask0_148_4185)">
<path d="M168.256 68.5611C168.115 68.5026 167.965 68.4699 167.813 68.4648L167.076 68.85C167.076 68.85 169.117 70.4292 169.483 72.8414C169.826 75.1198 169.796 77.4388 169.392 79.7072C169.021 82.2157 163.08 79.7072 164.197 80.6364C165.314 81.5657 169.493 83.1449 169.671 83.9778C169.849 84.8108 167.63 86.2071 166.782 86.2985C165.935 86.39 167.341 88.2485 168.179 89.8277C169.016 91.4069 168.732 93.6313 166.782 95.1239C164.832 96.6165 160.369 97.3676 158.434 97.4446C157.803 97.4687 157.408 97.6083 157.297 97.7961C160.268 98.4557 168.694 98.0272 169.609 96.5009C170.634 94.7965 171.308 74.3532 171.14 72.4899C170.971 70.6267 169.445 69.11 168.256 68.5611Z" fill="#149F84"/>
</g>
<path d="M165.656 82.5447C162.911 81.6877 160.514 79.2852 160.514 79.2852C161.12 82.1282 162.773 84.6392 165.145 86.3195" fill="white"/>
<path d="M165.146 86.5026C165.108 86.5041 165.07 86.4922 165.04 86.4689C162.638 84.753 160.961 82.2041 160.336 79.3191C160.329 79.2816 160.335 79.2428 160.352 79.2089C160.37 79.1749 160.398 79.1477 160.432 79.1313C160.465 79.1129 160.503 79.1058 160.54 79.111C160.578 79.1163 160.612 79.1335 160.639 79.1602C160.639 79.1843 163.047 81.5676 165.714 82.3764C165.759 82.3918 165.796 82.424 165.817 82.4662C165.839 82.5085 165.843 82.5574 165.829 82.6027C165.823 82.6255 165.813 82.6469 165.798 82.6654C165.784 82.684 165.765 82.6994 165.745 82.7107C165.724 82.7219 165.701 82.7288 165.678 82.731C165.654 82.7331 165.63 82.7304 165.608 82.7231C163.839 82.0866 162.213 81.1046 160.827 79.8343C161.528 82.3944 163.088 84.6352 165.247 86.1801C165.266 86.1931 165.283 86.2098 165.295 86.2293C165.308 86.2489 165.317 86.2707 165.321 86.2936C165.325 86.3165 165.324 86.34 165.319 86.3627C165.314 86.3854 165.304 86.4068 165.29 86.4256C165.274 86.4493 165.253 86.4688 165.228 86.4823C165.202 86.4957 165.174 86.5027 165.146 86.5026Z" fill="#263238"/>
<path d="M167.745 66.6875L159.57 68.5604L159.06 70.9437L168.256 68.5604L167.745 66.6875Z" fill="white"/>
<path d="M158.742 71.2718L159.368 68.3541L167.933 66.3945L168.569 68.7297L158.742 71.2718ZM159.773 68.7586L159.378 70.6122L167.962 68.383L167.577 66.9675L159.773 68.7586Z" fill="#263238"/>
<path d="M144.182 55.8453L141.982 54.5742C141.982 54.5742 141.13 54.4635 141.501 55.4216L143.696 57.1164" fill="white"/>
<path d="M143.691 57.3622C143.639 57.3633 143.588 57.3463 143.547 57.314L141.347 55.6144C141.312 55.5888 141.285 55.5537 141.27 55.5133C141.194 55.3709 141.157 55.211 141.162 55.0497C141.167 54.8883 141.214 54.7311 141.299 54.5937C141.389 54.4983 141.501 54.4254 141.624 54.3811C141.748 54.3367 141.881 54.3222 142.011 54.3385C142.043 54.343 142.074 54.3528 142.103 54.3674L144.303 55.6433C144.334 55.655 144.362 55.6728 144.385 55.6956C144.409 55.7185 144.428 55.746 144.44 55.7763C144.453 55.8067 144.459 55.8393 144.458 55.8722C144.458 55.905 144.451 55.9374 144.437 55.9674C144.424 55.9974 144.404 56.0242 144.38 56.0464C144.356 56.0685 144.327 56.0855 144.296 56.0962C144.265 56.1068 144.232 56.111 144.199 56.1085C144.167 56.106 144.135 56.0968 144.106 56.0815L144.062 56.0574L141.934 54.8152C141.847 54.8068 141.761 54.8328 141.693 54.8874C141.645 54.95 141.655 55.0945 141.717 55.2774L143.86 56.9337C143.885 56.9522 143.906 56.9755 143.922 57.0023C143.938 57.0291 143.949 57.0588 143.953 57.0897C143.958 57.1206 143.956 57.1521 143.948 57.1824C143.941 57.2126 143.927 57.241 143.908 57.2659C143.883 57.2983 143.849 57.324 143.812 57.3407C143.774 57.3575 143.733 57.3649 143.691 57.3622Z" fill="#263238"/>
<path d="M143.86 59.1615C143.759 58.8983 143.606 58.6578 143.412 58.4538L143.003 58.0108L140.769 55.2424C140.769 55.2424 140.075 54.7609 140.229 55.7816L141.616 58.473L139.151 56.1668C139.151 56.1668 138.669 55.7816 138.669 56.316C138.669 56.8505 140.903 59.2434 140.903 59.2434L138.438 58.0879C138.438 58.0879 137.899 58.473 138.284 58.8582C138.669 59.2434 140.749 60.0137 140.749 60.0137L138.9 59.9367C138.9 59.9367 138.361 60.4182 138.746 60.553C139.132 60.6878 141.289 61.1693 141.289 61.1693C141.563 61.4008 141.876 61.5833 142.213 61.7085L142.752 62.71L144.823 61.67L143.86 59.1615Z" fill="white"/>
<path d="M142.777 62.9324C142.734 62.932 142.691 62.9202 142.654 62.8983C142.617 62.8763 142.586 62.8449 142.565 62.8072L142.084 61.8828C141.764 61.7613 141.467 61.5889 141.203 61.3724C140.769 61.2761 139.065 60.891 138.699 60.761C138.627 60.7353 138.564 60.6917 138.514 60.6344C138.464 60.5771 138.43 60.5079 138.415 60.4336C138.367 60.1254 138.689 59.8221 138.786 59.7354C138.833 59.6973 138.893 59.6769 138.954 59.6777H139.407C138.961 59.5084 138.542 59.2784 138.16 58.994C138.088 58.9288 138.032 58.8481 137.996 58.758C137.96 58.6679 137.945 58.5707 137.953 58.474C137.997 58.2254 138.137 58.004 138.343 57.8577C138.377 57.8318 138.417 57.8159 138.46 57.8116C138.502 57.8074 138.545 57.815 138.583 57.8336L139.965 58.4836C139.257 57.6699 138.473 56.6829 138.473 56.2785C138.461 56.1829 138.478 56.0859 138.521 56C138.565 55.9142 138.634 55.8435 138.718 55.797C138.825 55.7672 138.937 55.7658 139.044 55.7928C139.152 55.8199 139.25 55.8744 139.33 55.9511L140.774 57.3184L140.023 55.874C140.018 55.8502 140.018 55.8256 140.023 55.8018C140.023 55.6429 139.927 55.1518 140.24 54.9496C140.352 54.8976 140.476 54.8772 140.599 54.8908C140.722 54.9044 140.839 54.9514 140.938 55.0266C140.958 55.0401 140.975 55.0563 140.991 55.0748L143.225 57.8481C143.24 57.8688 143.253 57.8915 143.263 57.9155L143.615 58.2958C143.823 58.5234 143.986 58.788 144.096 59.0758L145.083 61.565C145.106 61.6208 145.107 61.6833 145.086 61.7397C145.064 61.7961 145.022 61.8422 144.968 61.8683L142.897 62.9131C142.859 62.9269 142.818 62.9335 142.777 62.9324ZM138.891 60.3228C139.291 60.4625 140.793 60.8043 141.361 60.915C141.423 60.9276 141.476 60.964 141.511 61.0161C141.755 61.2111 142.03 61.364 142.324 61.4687C142.377 61.4886 142.421 61.526 142.45 61.5746L142.878 62.3739L144.544 61.5361L143.634 59.2491C143.538 59.0173 143.403 58.8038 143.234 58.6184L142.82 58.1755C142.796 58.1473 142.778 58.1146 142.767 58.0792L140.61 55.407C140.563 55.3823 140.513 55.3644 140.461 55.354C140.442 55.4639 140.442 55.5764 140.461 55.6863L141.828 58.3488C141.854 58.3984 141.862 58.4558 141.85 58.5105C141.837 58.5652 141.806 58.6137 141.761 58.6473C141.718 58.6842 141.663 58.7046 141.607 58.7046C141.55 58.7046 141.496 58.6842 141.453 58.6473L138.988 56.3362L138.93 56.2977C138.93 56.5962 140.071 57.9636 141.097 59.0614C141.119 59.0837 141.137 59.1104 141.149 59.1397C141.161 59.169 141.168 59.2005 141.168 59.2323C141.168 59.2641 141.161 59.2955 141.149 59.3249C141.137 59.3542 141.119 59.3808 141.097 59.4032C141.062 59.4371 141.019 59.4595 140.971 59.4672C140.924 59.475 140.875 59.4678 140.832 59.4465L138.511 58.3584C138.463 58.4074 138.429 58.4692 138.415 58.5366C138.42 58.5881 138.444 58.636 138.482 58.6714C139.231 59.1251 140.029 59.4934 140.861 59.7691C140.914 59.7896 140.959 59.8283 140.987 59.8784C141.016 59.9286 141.025 59.987 141.015 60.0436C141.003 60.0996 140.972 60.1497 140.927 60.185C140.882 60.2203 140.826 60.2384 140.769 60.2362L139.021 60.1639C138.971 60.2108 138.927 60.2643 138.891 60.3228Z" fill="#263238"/>
<path d="M167.62 77.5111L151.842 81.2762C151.21 81.3867 150.559 81.2749 150 80.9598C149.441 80.6447 149.008 80.1457 148.775 79.5477L142.776 62.6962L144.847 61.6562L151.664 72.7782C151.862 73.1404 152.171 73.4294 152.545 73.6028C152.92 73.7762 153.34 73.8247 153.744 73.7412L163.186 71.069" fill="white"/>
<path d="M151.376 81.5309C150.766 81.5311 150.171 81.3474 149.667 81.0038C149.164 80.6602 148.776 80.1727 148.554 79.6051L142.478 62.585L144.934 61.3477L151.872 72.6622C152.041 72.985 152.31 73.2441 152.639 73.4004C152.968 73.5567 153.339 73.6018 153.696 73.5289L163.119 70.8519L163.249 71.3334L153.807 74.0055C153.349 74.1 152.872 74.0442 152.448 73.8465C152.024 73.6487 151.675 73.3196 151.453 72.9078L144.755 61.9832L143.075 62.8306L149.002 79.4365C149.215 79.9812 149.61 80.4354 150.12 80.7223C150.63 81.0092 151.223 81.1112 151.799 81.0109L167.563 77.2458L167.673 77.7273L151.9 81.4972C151.727 81.5228 151.551 81.5341 151.376 81.5309Z" fill="#263238"/>
<mask id="mask2_148_4185" style="mask-type:luminance" maskUnits="userSpaceOnUse" x="142" y="61" width="26" height="21">
<mask id="mask3_148_4185" style="mask-type:luminance" maskUnits="userSpaceOnUse" x="142" y="61" width="26" height="21">
<path d="M167.621 77.5111L151.843 81.2762C151.211 81.3867 150.56 81.2749 150.001 80.9598C149.442 80.6447 149.009 80.1457 148.776 79.5477L142.777 62.6962L144.848 61.6562L151.665 72.7782C151.863 73.1404 152.172 73.4294 152.546 73.6028C152.921 73.7762 153.341 73.8247 153.745 73.7412L163.187 71.069" fill="white"/>
</mask>
<g mask="url(#mask3_148_4185)">
<path d="M151.376 81.5309C150.767 81.5311 150.171 81.3474 149.668 81.0038C149.165 80.6602 148.777 80.1727 148.555 79.6051L142.479 62.585L144.934 61.3477L151.872 72.6622C152.041 72.985 152.31 73.2441 152.64 73.4004C152.969 73.5567 153.34 73.6018 153.697 73.5289L163.119 70.8519L163.249 71.3334L153.808 74.0055C153.349 74.1 152.873 74.0442 152.449 73.8465C152.024 73.6487 151.675 73.3196 151.453 72.9078L144.756 61.9832L143.076 62.8306L149.002 79.4365C149.216 79.9812 149.611 80.4354 150.121 80.7223C150.63 81.0092 151.223 81.1112 151.8 81.0109L167.563 77.2458L167.674 77.7273L151.901 81.4972C151.727 81.5228 151.552 81.5341 151.376 81.5309Z" fill="white"/>
</g>
</mask>
<g mask="url(#mask2_148_4185)">
<path d="M144.991 69.4062C144.991 69.4062 149.907 78.6842 151.766 79.3342C153.624 79.9842 157.519 78.5927 157.519 78.5927C157.519 78.5927 152.136 78.1112 153.99 77.9427C155.844 77.7742 157.981 78.222 161.51 77.389C165.04 76.5561 166.807 74.9817 165.873 76.5513C164.939 78.1209 159.743 79.1512 157.89 79.8012C156.036 80.4512 151.948 81.4719 150.745 81.2841C150.364 81.2003 150.008 81.0316 149.702 80.7906C149.396 80.5497 149.149 80.2427 148.978 79.8927L144.991 69.4062Z" fill="#149F84"/>
</g>
<path d="M145.928 63.5353L143.525 64.7383L143.687 65.0612L146.089 63.8582L145.928 63.5353Z" fill="#263238"/>
<path d="M169.291 58.8106C169.515 58.7741 169.744 58.8111 169.945 58.9162C170.145 59.0213 170.306 59.1887 170.404 59.3932C170.536 59.663 170.599 59.9616 170.586 60.2618C170.573 60.562 170.486 60.8543 170.331 61.112C169.58 62.4313 167.794 62.8983 167.794 62.8983C167.794 62.8983 166.099 65.3442 164.424 66.0038C162.748 66.6634 160.023 66.8127 159.248 63.3701C158.911 61.8583 159.907 55.6666 159.907 55.6666C159.937 55.2152 160.057 54.7742 160.258 54.3692C160.46 53.9643 160.74 53.6033 161.082 53.3074C162.199 52.4552 164.799 52.2963 166.287 52.773C167.775 53.2496 168.694 54.6314 169.104 55.6955C169.367 56.4807 169.475 57.3099 169.421 58.1365L169.262 58.8299L169.291 58.8106Z" fill="white"/>
<path d="M162.522 66.6181C161.946 66.6278 161.377 66.4937 160.865 66.2281C159.931 65.7467 159.301 64.7837 158.997 63.4212C158.651 61.8805 159.609 55.8717 159.652 55.6165C159.683 55.1339 159.811 54.6624 160.028 54.2305C160.246 53.7986 160.549 53.4151 160.918 53.1032C162.122 52.1884 164.823 52.044 166.345 52.5351C168.145 53.1129 169.017 54.8654 169.306 55.5924C169.586 56.4124 169.7 57.2797 169.643 58.1442L169.551 58.5631C169.778 58.5776 169.997 58.6527 170.185 58.7806C170.373 58.9085 170.523 59.0844 170.62 59.2901C170.767 59.5926 170.837 59.9267 170.824 60.2628C170.81 60.5988 170.714 60.9263 170.543 61.216C169.835 62.4486 168.323 62.9734 167.938 63.0938C167.64 63.5126 166.089 65.5926 164.491 66.2137C163.864 66.4654 163.197 66.6024 162.522 66.6181ZM164.284 52.7373C163.114 52.7373 161.877 52.978 161.212 53.4836C160.576 54.0382 160.186 54.8228 160.129 55.6647C160.129 55.7513 159.137 61.866 159.464 63.3152C159.739 64.5382 160.288 65.3759 161.092 65.8044C162.295 66.4448 163.749 66.0018 164.318 65.7804C165.921 65.1545 167.577 62.7856 167.596 62.7615L167.645 62.6893L167.731 62.6652C167.731 62.6652 169.431 62.1838 170.139 60.9897C170.276 60.7663 170.354 60.5113 170.365 60.2492C170.376 59.9871 170.319 59.7265 170.201 59.4924C170.124 59.3359 169.999 59.2084 169.843 59.1286C169.688 59.0488 169.511 59.0211 169.339 59.0494L168.945 59.112L169.185 58.072C169.225 57.294 169.121 56.5153 168.877 55.7754C168.607 55.111 167.818 53.5077 166.21 52.9925C165.585 52.8094 164.935 52.7233 164.284 52.7373Z" fill="#263238"/>
<path d="M163.711 58.808C163.653 59.0535 163.711 59.2894 163.826 59.2894C163.942 59.2894 164.096 59.145 164.154 58.8994C164.211 58.6539 164.154 58.418 164.038 58.418C163.922 58.418 163.768 58.5624 163.711 58.808Z" fill="#263238"/>
<path d="M161.097 58.3149C161.039 58.5556 161.097 58.7963 161.212 58.7963C161.328 58.7963 161.482 58.6519 161.54 58.4112C161.598 58.1704 161.54 57.9297 161.424 57.9297C161.309 57.9297 161.155 58.0693 161.097 58.3149Z" fill="#263238"/>
<path d="M165.348 57.9331C165.31 57.9331 165.273 57.9223 165.24 57.9018C165.208 57.8814 165.182 57.8521 165.166 57.8175C165.035 57.5948 164.852 57.4079 164.632 57.2734C164.412 57.139 164.162 57.0613 163.904 57.0472C163.877 57.0453 163.85 57.0381 163.826 57.026C163.801 57.0139 163.78 56.997 163.762 56.9764C163.744 56.9559 163.73 56.9319 163.722 56.9061C163.713 56.8802 163.71 56.8529 163.711 56.8257C163.718 56.7708 163.744 56.7203 163.786 56.6845C163.828 56.6487 163.883 56.6303 163.938 56.6331C164.267 56.6525 164.586 56.7544 164.865 56.9294C165.144 57.1044 165.375 57.3469 165.536 57.6346C165.549 57.6579 165.557 57.6836 165.56 57.7101C165.562 57.7365 165.56 57.7633 165.552 57.7888C165.545 57.8143 165.532 57.838 165.515 57.8586C165.499 57.8793 165.478 57.8964 165.454 57.909C165.422 57.9268 165.385 57.9351 165.348 57.9331Z" fill="#263238"/>
<path d="M160.446 57.3746C160.39 57.3743 160.336 57.3518 160.297 57.312C160.278 57.2927 160.262 57.2699 160.252 57.2447C160.241 57.2195 160.236 57.1924 160.236 57.1651C160.236 57.1378 160.241 57.1108 160.252 57.0856C160.262 57.0604 160.278 57.0375 160.297 57.0183C160.511 56.7979 160.787 56.6491 161.089 56.5922C161.391 56.5353 161.703 56.5731 161.982 56.7005C162.006 56.714 162.027 56.7321 162.044 56.7537C162.06 56.7753 162.073 56.8 162.08 56.8265C162.087 56.8529 162.089 56.8805 162.085 56.9076C162.082 56.9347 162.073 56.9609 162.059 56.9846C162.035 57.029 161.994 57.0626 161.946 57.0787C161.898 57.0947 161.845 57.0921 161.799 57.0712C161.595 56.9836 161.369 56.9602 161.152 57.0041C160.934 57.0479 160.735 57.157 160.581 57.3168C160.545 57.3522 160.497 57.3729 160.446 57.3746Z" fill="#263238"/>
<path d="M162.204 60.8918C162.025 60.8874 161.852 60.8282 161.708 60.7223C161.565 60.6164 161.457 60.4688 161.4 60.2996C161.318 59.977 161.534 59.7507 161.727 59.5533C161.88 59.4273 161.993 59.2603 162.054 59.0719C162.156 58.5904 162.281 57.7045 162.281 57.6997C162.285 57.6725 162.294 57.6463 162.308 57.6227C162.321 57.599 162.34 57.5783 162.362 57.5618C162.384 57.5452 162.409 57.5331 162.435 57.5262C162.462 57.5193 162.489 57.5177 162.517 57.5215C162.544 57.5253 162.57 57.5344 162.594 57.5484C162.617 57.5623 162.638 57.5807 162.655 57.6026C162.671 57.6245 162.683 57.6495 162.69 57.676C162.697 57.7026 162.699 57.7303 162.695 57.7575C162.695 57.796 162.565 58.6434 162.459 59.1537C162.387 59.4217 162.236 59.6618 162.026 59.8422C161.857 60.0156 161.78 60.1022 161.799 60.1889C161.862 60.4344 162.233 60.4681 162.233 60.473C162.26 60.4748 162.286 60.482 162.311 60.4941C162.335 60.5063 162.357 60.5231 162.375 60.5437C162.393 60.5642 162.406 60.5882 162.415 60.614C162.424 60.6399 162.427 60.6672 162.425 60.6944C162.424 60.7216 162.417 60.7483 162.406 60.773C162.394 60.7976 162.378 60.8197 162.358 60.8381C162.338 60.8564 162.314 60.8706 162.288 60.8798C162.263 60.889 162.236 60.8931 162.208 60.8918H162.204Z" fill="#263238"/>
<path d="M163.263 62.583C163.063 62.5833 162.863 62.5541 162.671 62.4964C162.645 62.4882 162.621 62.4749 162.6 62.4574C162.579 62.4399 162.562 62.4185 162.55 62.3943C162.537 62.3702 162.529 62.3438 162.527 62.3167C162.525 62.2896 162.528 62.2623 162.536 62.2364C162.554 62.1837 162.591 62.14 162.641 62.1148C162.69 62.0895 162.748 62.0848 162.801 62.1016C162.986 62.161 163.182 62.1802 163.376 62.1578C163.569 62.1354 163.756 62.0719 163.923 61.9716C163.945 61.9551 163.969 61.9432 163.996 61.9363C164.022 61.9295 164.05 61.9279 164.077 61.9317C164.104 61.9355 164.13 61.9446 164.153 61.9585C164.177 61.9723 164.198 61.9907 164.214 62.0125C164.23 62.0343 164.242 62.0591 164.249 62.0856C164.256 62.112 164.258 62.1396 164.254 62.1666C164.25 62.1937 164.241 62.2197 164.227 62.2432C164.213 62.2668 164.195 62.2874 164.173 62.3038C163.907 62.4912 163.588 62.589 163.263 62.583Z" fill="#263238"/>
<path d="M167.606 51.3301C167.606 51.3301 165.535 49.5391 163.557 49.5391C161.578 49.5391 159.984 50.6705 158.742 50.762C157.5 50.8535 156.672 49.7268 155.916 51.2435C155.16 52.7601 157.986 55.2878 159.868 55.6682C161.751 56.0486 164.385 55.4804 165.141 55.3841C165.86 55.3312 166.583 55.3312 167.302 55.3841C167.302 55.3841 166.739 57.1704 167.302 57.7385C167.502 57.8959 167.665 58.0952 167.779 58.3223C167.893 58.5495 167.955 58.7989 167.962 59.0529C167.996 59.4645 168.059 59.8731 168.15 60.2759L168.713 60.4636L168.997 59.4285C169.76 58.6149 170.28 57.6043 170.499 56.5108C170.783 54.8208 169.373 53.1405 169.373 53.1405L167.606 51.3301Z" fill="#263238"/>
<path d="M161.867 55.165C161.128 55.1651 160.391 55.1072 159.662 54.9917C159.636 54.987 159.613 54.9723 159.597 54.9506C159.582 54.929 159.576 54.9023 159.58 54.8762C159.581 54.863 159.585 54.8503 159.591 54.8387C159.597 54.8271 159.606 54.8169 159.616 54.8088C159.627 54.8007 159.639 54.7948 159.652 54.7914C159.664 54.7881 159.678 54.7875 159.691 54.7895C159.72 54.7895 162.907 55.3817 165.367 54.361C166.036 54.0865 166.417 53.7158 166.503 53.2536C166.672 52.3677 165.695 51.4144 165.685 51.4047C165.675 51.3953 165.666 51.3837 165.661 51.3709C165.655 51.358 165.652 51.3442 165.652 51.3301C165.652 51.3161 165.655 51.3022 165.661 51.2893C165.666 51.2765 165.675 51.265 165.685 51.2555C165.705 51.2369 165.732 51.2266 165.76 51.2266C165.787 51.2266 165.814 51.2369 165.834 51.2555C165.878 51.294 166.903 52.2955 166.71 53.2921C166.628 53.5933 166.469 53.8679 166.249 54.089C166.029 54.3102 165.755 54.4703 165.454 54.5536C164.308 54.9829 163.09 55.1904 161.867 55.165Z" fill="white"/>
<path d="M166.971 55.4274C166.945 55.4276 166.92 55.4184 166.9 55.4016C166.881 55.3848 166.868 55.3614 166.865 55.3359C166.862 55.3085 166.87 55.2812 166.887 55.2596C166.904 55.238 166.929 55.2239 166.956 55.2203C166.99 55.2203 167.77 55.1192 168.174 53.9878C168.224 53.788 168.229 53.5794 168.187 53.3776C168.146 53.1759 168.059 52.9861 167.934 52.8226C167.519 52.1704 166.948 51.6324 166.272 51.2578C166.244 51.2578 166.217 51.2467 166.198 51.2268C166.178 51.2069 166.167 51.18 166.167 51.1519C166.167 51.1251 166.177 51.0994 166.196 51.0804C166.215 51.0614 166.241 51.0508 166.268 51.0508C166.489 51.0508 167.428 51.7345 167.986 52.5289C168.17 52.733 168.3 52.9787 168.366 53.2448C168.433 53.5108 168.433 53.789 168.367 54.0552C167.914 55.3214 167.014 55.4274 166.975 55.4274H166.971Z" fill="white"/>
<path d="M78.9076 65.5078H79.3033V60.0761H78.9076V65.5078ZM85.2233 60.0761V64.7939L81.5297 60.0761H81.1961V65.5078H81.5918V60.79L85.2931 65.5078H85.619V60.0761H85.2233ZM91.374 60.0761L89.178 64.9957L86.9821 60.0761H86.5476L88.9685 65.5078H89.3643L91.7853 60.0761H91.374ZM92.6611 65.5078H93.0568V60.0761H92.6611V65.5078Z" fill="#263238"/>
<path d="M95.8068 65.5078H96.2025V60.4331H98.1579V60.0761H93.8514V60.4331H95.8068V65.5078ZM102.925 65.5078H103.352L100.853 60.0761H100.457L97.9586 65.5078H98.3854L99.076 63.9792H102.226L102.925 65.5078ZM99.2312 63.6455L100.651 60.5107L102.079 63.6455H99.2312Z" fill="#263238"/>
<path d="M104.685 65.5078H105.081V60.4331H107.036V60.0761H102.73V60.4331H104.685V65.5078ZM108.018 65.5078H108.413V60.0761H108.018V65.5078ZM112.611 65.5466C114.225 65.5466 115.435 64.3749 115.435 62.792C115.435 61.209 114.225 60.0373 112.611 60.0373C110.989 60.0373 109.786 61.2168 109.786 62.792C109.786 64.3672 110.989 65.5466 112.611 65.5466ZM112.611 65.1819C111.222 65.1819 110.182 64.1654 110.182 62.792C110.182 61.4185 111.222 60.402 112.611 60.402C113.992 60.402 115.032 61.4185 115.032 62.792C115.032 64.1654 113.992 65.1819 112.611 65.1819ZM120.835 60.0761V64.7939L117.142 60.0761H116.808V65.5078H117.204V60.79L120.905 65.5078H121.231V60.0761H120.835Z" fill="#263238"/>
</svg>
