<svg width="50" height="50" viewBox="0 0 50 50" fill="none" xmlns="http://www.w3.org/2000/svg">
<circle cx="25" cy="25" r="25" fill="#042B45"/>
<path opacity="0.3" d="M32.393 14C34.3884 14 36 15.6116 36 17.607V32.393C36 34.3884 34.3884 36 32.393 36H17.607C15.6116 36 14 34.3884 14 32.393V17.607C14 15.6116 15.6116 14 17.607 14H32.393ZM30.1163 23.8512C30.0395 23.8512 29.9372 23.8512 29.8349 23.9535L26.9826 26.8058L26.9442 26.8442L30.6535 30.5535C30.9605 30.8349 30.9605 31.3209 30.6535 31.6279C30.5 31.7814 30.2954 31.8581 30.1163 31.8581C29.9372 31.8581 29.7326 31.7814 29.5791 31.6279L24.693 26.7419L24.4628 26.5116L23.4907 25.5395C23.3372 25.4116 23.1326 25.386 22.9791 25.514L15.5349 31.4744V32.393C15.5349 33.5442 16.4558 34.4651 17.607 34.4651H32.393C33.5442 34.4651 34.4651 33.5442 34.4651 32.393V28.0209L30.3977 23.9535C30.2953 23.8767 30.193 23.8512 30.1163 23.8512ZM32.393 15.5349H17.607C16.4558 15.5349 15.5349 16.4558 15.5349 17.607V29.5302L22.0326 24.3372C22.8 23.7488 23.9 23.8 24.5907 24.4907L25.793 25.693C25.8186 25.7186 25.8954 25.7186 25.9209 25.693L28.7605 22.8535C29.1186 22.4953 29.6047 22.2907 30.1163 22.2907C30.6279 22.2907 31.114 22.4953 31.4721 22.8535L34.4651 25.8465V17.607C34.4651 16.4558 33.5442 15.5349 32.393 15.5349ZM19 17.4023C20.1 17.4023 21 18.3023 21 19.4023C21 20.5023 20.1 21.4023 19 21.4023C17.9 21.4023 17 20.5023 17 19.4023C17 18.3023 17.9 17.4023 19 17.4023Z" fill="white"/>
</svg>
