<svg width="29" height="25" viewBox="0 0 29 25" fill="none" xmlns="http://www.w3.org/2000/svg">
<path opacity="0.7" fill-rule="evenodd" clip-rule="evenodd" d="M0 19.5455C0 22.2919 2.25359 24.5455 5 24.5455H23.1818C25.9282 24.5455 28.1818 22.2919 28.1818 19.5455V8.63636C28.1818 5.88995 25.9282 3.63636 23.1818 3.63636H20.9375L19.9148 0.894909C19.7183 0.358185 19.2079 0.000935942 18.6364 0H9.54545C8.97389 0.000935942 8.46355 0.358185 8.26705 0.894909L7.24432 3.63636H5C2.25359 3.63636 0 5.88995 0 8.63636V19.5455ZM5 21.8182C3.71741 21.8182 2.72727 20.828 2.72727 19.5455V8.63636C2.72727 7.35377 3.71741 6.36364 5 6.36364H8.18182C8.74976 6.36491 9.25904 6.01407 9.46023 5.48295L10.4972 2.72727H17.6846L18.7216 5.48295C18.9228 6.01407 19.4321 6.36491 20 6.36364H23.1818C24.4644 6.36364 25.4545 7.35377 25.4545 8.63636V19.5455C25.4545 20.828 24.4644 21.8182 23.1818 21.8182H5ZM14.0909 20.4545C10.5925 20.4545 7.72727 17.5893 7.72727 14.0909C7.72727 10.5925 10.5925 7.72727 14.0909 7.72727C17.5893 7.72727 20.4545 10.5925 20.4545 14.0909C20.4545 17.5893 17.5893 20.4545 14.0909 20.4545ZM17.7273 14.0909C17.7273 16.1154 16.1154 17.7273 14.0909 17.7273C12.0665 17.7273 10.4545 16.1154 10.4545 14.0909C10.4545 12.0665 12.0665 10.4545 14.0909 10.4545C16.1154 10.4545 17.7273 12.0665 17.7273 14.0909Z" fill="white"/>
</svg>
