<svg width="50" height="50" viewBox="0 0 50 50" fill="none" xmlns="http://www.w3.org/2000/svg">
<rect width="50" height="50" rx="25" fill="white"/>
<path fill-rule="evenodd" clip-rule="evenodd" d="M26.1027 17.147V32.8549L26.0999 32.8521C26.0999 33.0355 26.0344 33.2127 25.915 33.3521C25.7957 33.4912 25.6306 33.5832 25.4493 33.6112C25.2682 33.6393 25.083 33.6016 24.927 33.5051L18.313 29.3925H14.5612C14.3574 29.3925 14.1622 29.3116 14.018 29.1676C13.8739 29.0234 13.793 28.8282 13.793 28.6244V21.3775C13.793 21.1736 13.8739 20.9782 14.018 20.8341C14.1622 20.6901 14.3574 20.6092 14.5612 20.6092H18.313L24.9298 16.4941C25.0856 16.3974 25.2708 16.3599 25.4521 16.388C25.6332 16.416 25.7985 16.508 25.9178 16.6472C26.0369 16.7865 26.1027 16.9637 26.1027 17.147ZM17.7647 22.1455H15.3292V27.8559H17.7647V22.1455ZM19.3089 28.2015L24.5662 31.4716V18.5296L19.3089 21.7997V28.2015ZM31.596 30.0995L32.6331 31.2315L32.6333 31.2313C33.789 30.1728 34.6274 28.8138 35.0553 27.306C35.4829 25.7983 35.4829 24.2014 35.0553 22.6935C34.6275 21.1857 33.789 19.8266 32.6333 18.768L31.5962 19.9H31.596C33.0259 21.2097 33.84 23.0595 33.84 24.9986C33.84 26.9376 33.0259 28.7874 31.596 30.0973V30.0995ZM28.7737 20.5832L27.7495 21.7355V21.7357C28.6866 22.562 29.2233 23.7511 29.2233 25.0005C29.2233 26.25 28.6866 27.4391 27.7495 28.2654L28.7737 29.4177V29.4179C30.0416 28.2997 30.7679 26.6908 30.7679 25.0005C30.7679 23.3102 30.0416 21.7013 28.7737 20.5831V20.5832Z" fill="#060709"/>
<path d="M26.1027 32.8549L25.9955 32.9598L26.2527 33.2226V32.8549H26.1027ZM26.0999 32.8521L26.2071 32.7472L25.9499 32.4843V32.8521H26.0999ZM25.915 33.3521L26.0289 33.4497L26.029 33.4496L25.915 33.3521ZM25.4493 33.6112L25.4264 33.463L25.4264 33.463L25.4493 33.6112ZM24.927 33.5051L24.8478 33.6325L24.8481 33.6327L24.927 33.5051ZM18.313 29.3925L18.3922 29.2651L18.3558 29.2425H18.313V29.3925ZM14.018 29.1676L13.912 29.2737L13.912 29.2737L14.018 29.1676ZM14.018 20.8341L13.912 20.728L13.912 20.728L14.018 20.8341ZM18.313 20.6092V20.7592H18.3558L18.3922 20.7366L18.313 20.6092ZM24.9298 16.4941L24.8507 16.3666L24.8506 16.3667L24.9298 16.4941ZM25.4521 16.388L25.475 16.2397L25.475 16.2397L25.4521 16.388ZM25.9178 16.6472L26.0318 16.5497L26.0316 16.5495L25.9178 16.6472ZM15.3292 22.1455V21.9955H15.1792V22.1455H15.3292ZM17.7647 22.1455H17.9147V21.9955H17.7647V22.1455ZM15.3292 27.8559H15.1792V28.0059H15.3292V27.8559ZM17.7647 27.8559V28.0059H17.9147V27.8559H17.7647ZM24.5662 31.4716L24.487 31.599L24.7162 31.7416V31.4716H24.5662ZM19.3089 28.2015H19.1589V28.2849L19.2297 28.3289L19.3089 28.2015ZM24.5662 18.5296H24.7162V18.2596L24.487 18.4022L24.5662 18.5296ZM19.3089 21.7997L19.2297 21.6723L19.1589 21.7163V21.7997H19.3089ZM32.6331 31.2315L32.5225 31.3328L32.6281 31.448L32.7389 31.3378L32.6331 31.2315ZM31.596 30.0995H31.446V30.1579L31.4854 30.2009L31.596 30.0995ZM32.6333 31.2313L32.5319 31.1206L32.5275 31.125L32.6333 31.2313ZM35.0553 27.306L35.1996 27.347L35.1996 27.347L35.0553 27.306ZM35.0553 22.6935L35.1996 22.6526L35.1996 22.6525L35.0553 22.6935ZM32.6333 18.768L32.7346 18.6574L32.624 18.5561L32.5227 18.6667L32.6333 18.768ZM31.5962 19.9V20.05H31.6622L31.7068 20.0013L31.5962 19.9ZM31.596 19.9V19.75H31.2102L31.4947 20.0106L31.596 19.9ZM31.596 30.0973L31.4947 29.9866L31.446 30.0312V30.0973H31.596ZM27.7495 21.7355L27.6374 21.6358L27.5995 21.6785V21.7355H27.7495ZM28.7737 20.5832L28.8859 20.6828L28.9237 20.6402V20.5832H28.7737ZM27.7495 21.7357H27.5995V21.8034L27.6503 21.8482L27.7495 21.7357ZM27.7495 28.2654L27.6503 28.1529L27.5374 28.2525L27.6374 28.365L27.7495 28.2654ZM28.7737 29.4177H28.9237V29.3607L28.8859 29.318L28.7737 29.4177ZM28.7737 29.4179H28.6237V29.7502L28.873 29.5304L28.7737 29.4179ZM28.7737 20.5831L28.873 20.4706L28.6237 20.2508V20.5831H28.7737ZM26.2527 32.8549V17.147H25.9527V32.8549H26.2527ZM25.9927 32.957L25.9955 32.9598L26.2099 32.75L26.2071 32.7472L25.9927 32.957ZM26.029 33.4496C26.1715 33.2831 26.2499 33.0713 26.2499 32.8521H25.9499C25.9499 32.9997 25.8972 33.1423 25.8011 33.2545L26.029 33.4496ZM25.4723 33.7595C25.689 33.726 25.8863 33.616 26.0289 33.4497L25.8012 33.2544C25.7051 33.3664 25.5723 33.4404 25.4264 33.463L25.4723 33.7595ZM24.8481 33.6327C25.0344 33.7479 25.2558 33.793 25.4723 33.7595L25.4264 33.463C25.2807 33.4856 25.1315 33.4553 25.006 33.3776L24.8481 33.6327ZM18.2338 29.5199L24.8478 33.6325L25.0063 33.3778L18.3922 29.2651L18.2338 29.5199ZM14.5612 29.5425H18.313V29.2425H14.5612V29.5425ZM13.912 29.2737C14.0843 29.4457 14.3176 29.5425 14.5612 29.5425V29.2425C14.3972 29.2425 14.2401 29.1774 14.124 29.0615L13.912 29.2737ZM13.643 28.6244C13.643 28.868 13.7397 29.1014 13.912 29.2737L14.1241 29.0615C14.0081 28.9455 13.943 28.7884 13.943 28.6244H13.643ZM13.643 21.3775V28.6244H13.943V21.3775H13.643ZM13.912 20.728C13.7397 20.9003 13.643 21.1339 13.643 21.3775H13.943C13.943 21.2134 14.0081 21.0562 14.1241 20.9402L13.912 20.728ZM14.5612 20.4592C14.3176 20.4592 14.0843 20.5559 13.912 20.728L14.124 20.9402C14.2401 20.8243 14.3972 20.7592 14.5612 20.7592V20.4592ZM18.313 20.4592H14.5612V20.7592H18.313V20.4592ZM24.8506 16.3667L18.2338 20.4818L18.3922 20.7366L25.009 16.6214L24.8506 16.3667ZM25.475 16.2397C25.2585 16.2062 25.037 16.251 24.8507 16.3666L25.0089 16.6215C25.1341 16.5439 25.2831 16.5136 25.4292 16.5362L25.475 16.2397ZM26.0316 16.5495C25.889 16.3832 25.6916 16.2733 25.475 16.2397L25.4291 16.5362C25.5749 16.5588 25.7079 16.6328 25.8039 16.7448L26.0316 16.5495ZM26.2527 17.147C26.2527 16.9278 26.174 16.716 26.0318 16.5497L25.8038 16.7446C25.8998 16.8569 25.9527 16.9996 25.9527 17.147H26.2527ZM15.3292 22.2955H17.7647V21.9955H15.3292V22.2955ZM15.4792 27.8559V22.1455H15.1792V27.8559H15.4792ZM17.7647 27.7059H15.3292V28.0059H17.7647V27.7059ZM17.6147 22.1455V27.8559H17.9147V22.1455H17.6147ZM24.6454 31.3442L19.3881 28.0742L19.2297 28.3289L24.487 31.599L24.6454 31.3442ZM24.4162 18.5296V31.4716H24.7162V18.5296H24.4162ZM19.3881 21.927L24.6454 18.6569L24.487 18.4022L19.2297 21.6723L19.3881 21.927ZM19.4589 28.2015V21.7997H19.1589V28.2015H19.4589ZM32.7437 31.1301L31.7066 29.9982L31.4854 30.2009L32.5225 31.3328L32.7437 31.1301ZM32.5275 31.125L32.5273 31.1251L32.7389 31.3378L32.7391 31.3376L32.5275 31.125ZM34.911 27.2651C34.4907 28.7461 33.6671 30.081 32.532 31.1207L32.7346 31.3419C33.9108 30.2646 34.7641 28.8815 35.1996 27.347L34.911 27.2651ZM34.9109 22.7344C35.331 24.2155 35.331 25.7841 34.9109 27.2651L35.1996 27.347C35.6348 25.8124 35.6348 24.1872 35.1996 22.6526L34.9109 22.7344ZM32.532 18.8786C33.6672 19.9184 34.4907 21.2534 34.911 22.7344L35.1996 22.6525C34.7642 21.118 33.9108 19.7348 32.7346 18.6574L32.532 18.8786ZM31.7068 20.0013L32.7439 18.8694L32.5227 18.6667L31.4856 19.7986L31.7068 20.0013ZM31.596 20.05H31.5962V19.75H31.596V20.05ZM33.99 24.9986C33.99 23.0174 33.1582 21.1275 31.6973 19.7894L31.4947 20.0106C32.8936 21.2919 33.69 23.1015 33.69 24.9986H33.99ZM31.6973 30.2079C33.1582 28.8696 33.99 26.9796 33.99 24.9986H33.69C33.69 26.8955 32.8935 28.7052 31.4947 29.9866L31.6973 30.2079ZM31.746 30.0995V30.0973H31.446V30.0995H31.746ZM27.8616 21.8351L28.8859 20.6828L28.6616 20.4835L27.6374 21.6358L27.8616 21.8351ZM27.8995 21.7357V21.7355H27.5995V21.7357H27.8995ZM29.3733 25.0005C29.3733 23.708 28.8181 22.4779 27.8487 21.6232L27.6503 21.8482C28.5551 22.646 29.0733 23.7941 29.0733 25.0005H29.3733ZM27.8487 28.3779C28.8181 27.5231 29.3733 26.293 29.3733 25.0005H29.0733C29.0733 26.2069 28.5551 27.3551 27.6503 28.1529L27.8487 28.3779ZM28.8859 29.318L27.8616 28.1657L27.6374 28.365L28.6616 29.5173L28.8859 29.318ZM28.9237 29.4179V29.4177H28.6237V29.4179H28.9237ZM30.6179 25.0005C30.6179 26.6478 29.9101 28.2157 28.6745 29.3054L28.873 29.5304C30.1731 28.3837 30.9179 26.7339 30.9179 25.0005H30.6179ZM28.6745 20.6956C29.9101 21.7853 30.6179 23.3532 30.6179 25.0005H30.9179C30.9179 23.2671 30.1731 21.6173 28.873 20.4706L28.6745 20.6956ZM28.9237 20.5832V20.5831H28.6237V20.5832H28.9237Z" fill="#060709"/>
</svg>
