<?xml version="1.0" standalone="no"?>
<!DOCTYPE svg PUBLIC "-//W3C//DTD SVG 20010904//EN"
 "http://www.w3.org/TR/2001/REC-SVG-20010904/DTD/svg10.dtd">
<svg version="1.0" xmlns="http://www.w3.org/2000/svg"
 width="1368.000000pt" height="1252.000000pt" viewBox="0 0 1368.000000 1252.000000"
 preserveAspectRatio="xMidYMid meet">

<g transform="translate(0.000000,1252.000000) scale(0.100000,-0.100000)"
fill="#000000" stroke="none">
<path d="M7800 9794 c-112 -20 -217 -84 -254 -154 -8 -14 -27 -50 -44 -80 -55
-99 -93 -280 -59 -280 21 0 81 63 111 115 14 26 31 77 38 113 10 55 16 67 42
83 54 33 132 20 261 -44 133 -66 250 -81 378 -49 42 11 80 16 82 12 3 -4 9
-36 14 -71 13 -86 59 -297 67 -310 8 -13 41 58 60 129 33 126 5 216 -87 270
-25 15 -39 33 -47 60 -29 96 -150 178 -307 206 -105 19 -153 19 -255 0z"/>
<path d="M2213 9788 c-23 -11 -37 -44 -22 -54 5 -3 21 4 35 15 24 19 28 19 55
6 35 -19 49 -19 49 -1 0 36 -70 57 -117 34z"/>
<path d="M1756 9719 c-27 -21 -36 -59 -13 -59 7 0 18 9 25 20 13 21 72 29 72
10 0 -5 7 -10 15 -10 22 0 18 27 -7 44 -31 22 -60 20 -92 -5z"/>
<path d="M2237 9642 c-24 -26 -21 -77 4 -100 56 -53 104 40 51 101 -19 22 -35
22 -55 -1z"/>
<path d="M1789 9563 c-18 -48 4 -95 46 -95 33 0 45 16 45 63 0 42 -15 59 -52
59 -22 0 -31 -6 -39 -27z"/>
<path d="M2036 9450 c-25 -62 -22 -74 15 -66 17 3 42 6 55 6 13 0 24 6 24 13
0 15 -58 87 -70 87 -4 0 -15 -18 -24 -40z"/>
<path d="M7685 9351 c-52 -22 -52 -61 0 -41 38 15 53 12 72 -10 22 -25 33 -26
33 -2 0 43 -59 73 -105 53z"/>
<path d="M2145 9274 c-17 -8 -56 -13 -90 -12 -47 1 -61 -2 -63 -14 -5 -27 71
-37 140 -18 41 12 71 36 63 51 -8 11 -13 11 -50 -7z"/>
<path d="M8128 9269 c-10 -5 -18 -17 -18 -26 0 -15 12 -15 51 1 10 5 28 -3 47
-18 36 -31 42 -32 42 -6 0 47 -74 77 -122 49z"/>
<path d="M7576 9243 c-20 -10 -26 -24 -32 -70 -19 -137 13 -197 117 -221 94
-22 183 34 198 125 7 36 9 38 41 36 79 -6 82 -9 76 -61 -7 -62 10 -108 56
-145 31 -25 46 -29 101 -31 103 -2 149 42 168 163 12 71 11 75 -9 91 -11 10
-48 20 -81 24 -33 4 -91 13 -128 21 -38 8 -71 15 -75 15 -3 0 -11 -14 -17 -31
-10 -30 -12 -31 -53 -24 -52 9 -67 20 -61 44 3 10 0 22 -7 26 -6 4 -69 17
-140 29 -109 18 -133 20 -154 9z m178 -39 l98 -17 -6 -49 c-15 -114 -62 -168
-145 -168 -52 0 -93 20 -121 61 -20 27 -22 40 -18 100 6 82 20 103 62 95 17
-2 75 -12 130 -22z m428 -70 c107 -21 113 -27 99 -96 -15 -71 -41 -111 -86
-132 -32 -16 -43 -16 -82 -5 -58 16 -100 51 -108 90 -4 17 -4 60 0 95 l7 64
44 0 c24 0 81 -7 126 -16z"/>
<path d="M7681 9141 c-25 -25 -26 -40 -7 -67 20 -26 50 -8 54 33 4 43 -20 61
-47 34z"/>
<path d="M8111 9061 c-25 -45 -1 -82 43 -65 27 10 18 78 -11 82 -14 2 -26 -4
-32 -17z"/>
<path d="M6301 9009 c-29 -5 -65 -15 -80 -23 -74 -40 -132 -66 -146 -66 -8 0
-15 -4 -15 -10 0 -5 -5 -10 -10 -10 -6 0 -52 -20 -103 -44 -263 -125 -349
-165 -477 -222 -30 -14 -62 -29 -70 -35 -8 -5 -22 -12 -30 -16 -8 -3 -39 -17
-68 -29 -29 -13 -57 -24 -62 -24 -6 0 -10 -4 -10 -10 0 -5 -4 -10 -10 -10 -10
0 -70 -27 -225 -100 -44 -21 -116 -55 -160 -75 -82 -38 -190 -89 -330 -155
-44 -21 -109 -51 -145 -68 -36 -16 -95 -44 -131 -61 -36 -17 -71 -31 -77 -31
-7 0 -12 -4 -12 -10 0 -5 -4 -10 -10 -10 -9 0 -62 -24 -245 -110 -44 -21 -111
-52 -150 -70 -38 -18 -100 -47 -137 -65 -36 -18 -77 -36 -90 -40 -13 -4 -59
-24 -103 -45 -44 -20 -100 -46 -125 -58 -128 -57 -158 -74 -192 -109 -64 -66
-72 -77 -98 -132 -22 -48 -25 -68 -25 -168 0 -83 4 -116 13 -122 16 -9 74 -6
237 15 209 27 198 23 169 55 -8 9 -22 41 -29 71 -12 43 -12 61 -2 94 24 81 46
98 271 208 277 135 300 146 314 146 7 0 12 5 12 10 0 6 5 10 11 10 6 0 48 17
92 39 139 66 229 108 312 146 44 20 109 51 145 67 36 17 106 50 157 74 50 24
97 44 105 44 7 0 30 -18 52 -40 97 -98 259 -65 282 57 4 21 2 57 -5 82 -11 42
-11 46 11 63 13 10 26 18 30 18 4 0 45 17 90 39 126 58 215 100 298 138 41 19
107 50 145 68 156 74 382 179 470 219 33 15 69 32 80 38 32 18 117 38 161 38
75 0 180 -45 234 -101 28 -29 158 -172 188 -207 20 -22 124 -139 165 -185 31
-33 145 -162 169 -189 11 -13 32 -36 47 -53 15 -16 67 -75 116 -130 50 -55
106 -117 125 -139 19 -21 44 -48 55 -61 11 -13 45 -51 75 -86 30 -34 62 -70
70 -79 8 -8 57 -63 109 -120 51 -58 114 -127 140 -155 25 -27 58 -64 73 -83
15 -18 67 -77 116 -130 49 -53 102 -112 117 -130 16 -19 44 -51 64 -72 20 -22
61 -67 91 -101 70 -80 159 -180 219 -245 25 -28 71 -80 101 -114 109 -126 154
-175 167 -183 7 -4 13 -12 13 -16 0 -5 24 -34 53 -65 103 -110 131 -142 211
-241 44 -55 119 -143 166 -195 47 -52 99 -110 115 -129 17 -19 41 -46 55 -61
14 -15 52 -58 85 -95 33 -38 69 -79 80 -91 11 -12 45 -50 75 -84 30 -35 60
-68 65 -74 6 -6 71 -78 144 -161 145 -163 247 -276 327 -364 28 -31 66 -74 85
-96 19 -21 41 -47 49 -55 8 -9 47 -52 86 -96 180 -200 191 -217 179 -280 -8
-45 -72 -116 -170 -190 -38 -29 -151 -113 -250 -188 -99 -74 -189 -142 -200
-150 -11 -8 -82 -61 -157 -118 -75 -57 -146 -110 -158 -118 -12 -8 -57 -42
-100 -75 -43 -33 -104 -78 -135 -100 -30 -22 -61 -45 -68 -50 -7 -6 -79 -60
-162 -120 -82 -60 -171 -125 -197 -145 -26 -19 -72 -53 -102 -75 -71 -50 -109
-78 -276 -201 -74 -55 -146 -107 -160 -117 -14 -9 -65 -46 -115 -81 -49 -36
-142 -100 -205 -144 -63 -43 -151 -104 -195 -134 -115 -80 -238 -141 -327
-163 -90 -22 -138 -15 -245 37 -107 52 -265 224 -548 598 -75 98 -198 257
-385 497 -44 56 -117 150 -162 210 -45 59 -122 160 -170 223 -48 63 -188 248
-311 410 -123 162 -273 360 -333 440 -61 80 -149 197 -197 260 -48 63 -90 120
-95 125 -4 6 -75 100 -157 210 -148 199 -247 328 -286 374 -19 23 -23 23 -97
16 -42 -4 -95 -9 -117 -10 -148 -8 -257 -19 -261 -27 -3 -5 10 -28 29 -51 19
-23 77 -98 129 -167 125 -165 526 -698 550 -730 10 -14 53 -70 96 -125 42 -55
85 -112 94 -126 9 -14 23 -32 30 -40 7 -8 128 -167 268 -354 140 -187 258
-344 263 -350 4 -5 37 -48 72 -95 36 -47 69 -90 75 -97 5 -6 159 -211 342
-455 183 -243 337 -448 343 -454 5 -6 17 -21 25 -34 14 -21 118 -158 143 -190
7 -8 95 -125 196 -260 101 -135 200 -262 220 -283 52 -56 146 -121 216 -150
140 -57 161 -61 325 -62 136 0 164 3 230 24 101 32 130 47 251 137 57 43 181
135 274 204 94 70 312 232 485 361 173 129 421 314 549 410 281 208 1048 781
1076 803 11 9 47 36 80 60 33 25 69 52 80 60 73 56 136 103 155 116 13 8 28
21 34 28 6 7 19 21 29 30 9 9 17 20 17 25 0 5 8 21 18 35 44 64 61 237 33 342
-12 47 -51 141 -62 150 -3 3 -12 17 -20 32 -8 14 -53 68 -100 120 -47 51 -121
134 -165 183 -43 50 -81 92 -84 95 -3 3 -43 48 -90 100 -46 52 -86 97 -89 100
-8 7 -149 165 -187 209 -16 19 -40 46 -54 61 -14 15 -56 62 -95 106 -38 43
-77 85 -85 94 -8 9 -46 52 -85 96 -38 43 -76 86 -85 95 -8 9 -29 31 -45 50
-17 19 -53 59 -80 89 -28 31 -77 86 -110 124 -33 38 -76 85 -96 106 -20 21
-48 53 -64 72 -45 54 -163 182 -267 291 -54 56 -98 105 -98 109 0 4 -25 31
-55 61 -30 29 -55 57 -55 61 0 4 -19 27 -42 50 -24 24 -61 64 -83 90 -22 27
-51 60 -65 75 -70 76 -140 154 -185 206 -27 31 -60 69 -73 83 -26 30 -89 100
-163 182 -66 73 -190 212 -333 374 -33 38 -85 95 -113 126 -29 31 -53 59 -53
62 0 3 -24 31 -52 61 -29 30 -78 83 -108 117 -30 34 -77 87 -105 117 -27 30
-57 64 -65 75 -8 10 -35 41 -60 67 -25 26 -72 79 -106 117 -150 170 -140 161
-193 167 -58 7 -148 43 -174 69 -10 10 -21 18 -25 18 -15 0 -85 109 -103 161
-11 29 -19 80 -19 112 0 56 -2 61 -42 101 -24 23 -69 72 -100 108 -32 36 -76
78 -97 93 -75 51 -172 71 -270 54z"/>
<path d="M7861 8923 c-17 -21 -27 -40 -23 -44 9 -9 102 -18 102 -10 0 13 -35
91 -42 91 -3 0 -20 -17 -37 -37z"/>
<path d="M7763 8763 c-41 -14 74 -73 140 -73 33 1 76 25 64 37 -4 3 -34 5 -68
4 -44 -2 -69 3 -92 17 -18 10 -38 17 -44 15z"/>
<path d="M2790 6795 c-8 -2 -51 -9 -95 -15 -226 -34 -386 -195 -457 -460 -20
-75 -23 -108 -23 -275 1 -207 11 -259 72 -365 79 -136 237 -220 396 -211 14 1
17 11 17 70 l0 69 -38 15 c-38 15 -136 87 -159 116 -20 25 -73 140 -80 172 -3
16 -8 29 -12 30 -3 0 -22 2 -41 4 -38 3 -76 39 -86 82 -10 40 23 95 64 109 30
9 36 18 57 81 37 109 103 197 191 253 l48 30 71 -73 c85 -89 157 -143 252
-192 84 -42 96 -55 54 -55 -24 0 -32 -5 -37 -25 -16 -64 32 -109 68 -65 11 13
18 33 17 44 -3 48 -4 48 94 41 66 -5 96 -12 105 -23 20 -25 15 -160 -8 -236
-33 -105 -71 -163 -157 -238 -26 -23 -46 -46 -44 -52 2 -6 12 -33 21 -61 17
-50 18 -50 59 -48 49 2 147 52 200 102 49 47 85 104 113 183 30 85 33 303 5
418 -78 318 -262 517 -522 564 -86 15 -112 17 -145 11z"/>
<path d="M2593 6269 c-19 -7 -43 -37 -43 -53 0 -13 31 -5 36 8 9 23 35 28 61
10 28 -18 42 -11 27 13 -13 22 -53 32 -81 22z"/>
<path d="M2585 6121 c7 -14 17 -39 22 -56 16 -57 76 -37 76 26 0 40 -15 53
-67 54 l-43 2 12 -26z"/>
<path d="M2832 5985 c-16 -35 -16 -35 12 -35 33 0 38 11 17 38 l-17 23 -12
-26z"/>
<path d="M2890 5863 c-26 -8 -61 -11 -82 -7 -30 4 -38 2 -38 -9 0 -34 134 -31
165 3 23 25 8 29 -45 13z"/>
</g>
</svg>
