<svg width="20" height="17" viewBox="0 0 20 17" fill="none" xmlns="http://www.w3.org/2000/svg">
<path d="M0 16.1906C0 15.3629 0.204738 14.5962 0.613931 13.8902C1.02312 13.1843 1.58086 12.6265 2.28713 12.217C2.99312 11.8079 3.75983 11.6028 4.58753 11.6028H9.98414C10.8118 11.6028 11.5785 11.8079 12.2845 12.217C12.9905 12.6265 13.5483 13.1843 13.9577 13.8902C14.3667 14.5962 14.5717 15.3629 14.5717 16.1906C14.5717 16.6376 14.2092 17 13.7622 17C13.3152 17 12.9527 16.6376 12.9527 16.1906C12.9527 15.651 12.8197 15.154 12.5545 14.6999C12.2893 14.2458 11.9293 13.886 11.4752 13.6206C11.0211 13.3557 10.5241 13.2227 9.98442 13.2227H4.58782C4.04816 13.2227 3.55086 13.3557 3.09676 13.6206C2.64267 13.886 2.28261 14.2458 2.01744 14.6999C1.75227 15.154 1.61954 15.651 1.61954 16.1906C1.61954 16.6376 1.25676 17 0.809772 17C0.36278 17 0 16.6376 0 16.1906ZM4.85073 9.05985C4.10859 8.62383 3.51923 8.03447 3.08293 7.29261C2.64662 6.55019 2.42889 5.73886 2.42889 4.85694C2.42889 3.97558 2.64662 3.16369 3.08293 2.42183C3.51923 1.6797 4.10859 1.09062 4.85073 0.654031C5.59258 0.21801 6.40447 0 7.28583 0C8.16748 0 8.97909 0.21801 9.72123 0.654031C10.4634 1.09062 11.0524 1.6797 11.4887 2.42183C11.925 3.16369 12.1431 3.97558 12.1431 4.85694C12.1431 5.73886 11.925 6.55019 11.4887 7.29261C11.0524 8.03447 10.4634 8.62383 9.72123 9.05985C8.97909 9.49644 8.16748 9.71445 7.28583 9.71445C6.40447 9.71445 5.59258 9.49644 4.85073 9.05985ZM8.91188 7.66368C9.41115 7.37592 9.80425 6.98226 10.0926 6.48298C10.3803 5.9837 10.5241 5.44178 10.5241 4.85694C10.5241 4.27238 10.3801 3.73074 10.0926 3.23118C9.80425 2.73191 9.41115 2.33853 8.91188 2.05048C8.4126 1.76244 7.8704 1.6187 7.28583 1.6187C6.70127 1.6187 6.15935 1.76272 5.66008 2.05048C5.1608 2.33824 4.76742 2.73191 4.47938 3.23118C4.19133 3.73074 4.04787 4.27238 4.04787 4.85694C4.04787 5.44178 4.19161 5.9837 4.47938 6.48298C4.76714 6.98226 5.1608 7.37592 5.66008 7.66368C6.15935 7.95173 6.70127 8.09518 7.28583 8.09518C7.8704 8.09518 8.4126 7.95144 8.91188 7.66368ZM14.1602 9.27617C13.7061 9.011 13.3461 8.65066 13.0809 8.19685C12.8157 7.74247 12.683 7.24545 12.683 6.70579C12.683 6.16613 12.8157 5.66911 13.0809 5.21502C13.3461 4.76093 13.7061 4.40115 14.1602 4.1357C14.6143 3.87081 15.1116 3.7378 15.6513 3.7378C16.1909 3.7378 16.6877 3.87081 17.142 4.1357C17.5959 4.40115 17.9559 4.76093 18.2214 5.21502C18.4863 5.66911 18.6193 6.16613 18.6193 6.70579C18.6193 7.24545 18.4863 7.74247 18.2214 8.19685C17.9559 8.65066 17.5959 9.011 17.142 9.27617C16.6877 9.54134 16.1909 9.67378 15.6513 9.67378C15.1116 9.67378 14.6143 9.54134 14.1602 9.27617ZM17.8102 16.1906C17.8102 15.651 17.6772 15.154 17.412 14.6999C17.1468 14.2458 16.7868 13.886 16.3327 13.6206C15.8786 13.3557 15.3816 13.2227 14.8419 13.2227H14.0323V11.6034H14.8416C15.6693 11.6034 16.4361 11.8084 17.142 12.2176C17.848 12.6271 18.4058 13.1848 18.815 13.8908C19.2242 14.5968 19.4289 15.3629 19.4289 16.1906C19.4289 16.6376 19.0665 17 18.6195 17C18.1726 17 17.8102 16.6376 17.8102 16.1906ZM16.6024 7.65662C16.8673 7.39145 17.0003 7.07432 17.0003 6.70551C17.0003 6.32794 16.8673 6.00855 16.6024 5.74762C16.3369 5.48669 16.0201 5.35594 15.6513 5.35594C15.2822 5.35594 14.965 5.48669 14.6999 5.74762C14.4347 6.00855 14.302 6.32794 14.302 6.70551C14.302 7.0746 14.4347 7.39145 14.6999 7.65662C14.965 7.92207 15.2822 8.0548 15.6513 8.0548C16.0201 8.0548 16.3369 7.92236 16.6024 7.65662Z" fill="#4B4D53"/>
</svg>
