<svg width="40" height="40" viewBox="0 0 40 40" fill="none" xmlns="http://www.w3.org/2000/svg">
<rect width="40" height="40" rx="20" fill="#F3F5F8"/>
<path fill-rule="evenodd" clip-rule="evenodd" d="M18.0586 12.3C18.0586 11.582 18.6406 11 19.3586 11H22.288C23.006 11 23.588 11.582 23.588 12.3V26.7C23.588 27.418 23.006 28 22.288 28H19.3586C18.6406 28 18.0586 27.418 18.0586 26.7V12.3ZM20.0586 13V26H21.588V13H20.0586ZM11 16.7063C11 15.9883 11.582 15.4062 12.3 15.4062H15.2294C15.9474 15.4062 16.5294 15.9883 16.5294 16.7063V26.6945C16.5294 27.4125 15.9474 27.9945 15.2294 27.9945H12.3C11.582 27.9945 11 27.4125 11 26.6945V16.7063ZM13 17.4062V25.9945H14.5294V17.4062H13ZM26.4172 19.8281C25.6992 19.8281 25.1172 20.4102 25.1172 21.1281V26.7046C25.1172 27.4226 25.6992 28.0046 26.4172 28.0046H29.3466C30.0646 28.0046 30.6466 27.4226 30.6466 26.7046V21.1281C30.6466 20.4102 30.0646 19.8281 29.3466 19.8281H26.4172ZM27.1172 26.0046V21.8281H28.6466V26.0046H27.1172Z" fill="#68A7AD"/>
</svg>
