<svg width="25" height="25" viewBox="0 0 25 25" fill="none" xmlns="http://www.w3.org/2000/svg">
<rect opacity="0.5" width="25" height="25" rx="12.5" fill="black"/>
<path d="M12.5716 10.4286C11.1535 10.4286 10.0002 11.582 10.0002 13.0001C10.0002 14.4181 11.1539 15.5715 12.5716 15.5715C13.9895 15.5715 15.143 14.4181 15.143 13.0001C15.1432 11.582 13.9897 10.4286 12.5716 10.4286ZM12.5716 14.4287C11.7839 14.4287 11.143 13.7877 11.143 13.0001C11.143 12.2124 11.7839 11.5714 12.5716 11.5714C13.3589 11.5714 14.0002 12.2124 14.0002 13.0001C14.0002 13.7879 13.3591 14.4287 12.5716 14.4287ZM18.0004 8.1427H12.5716C12.2559 8.1427 12.0002 8.39881 12.0002 8.71411C12.0002 9.02961 12.2563 9.28551 12.5716 9.28551H18.0004V16.7144H16.5225L16.69 16.547C16.9132 16.3238 16.9132 15.962 16.69 15.739C16.4667 15.5158 16.1046 15.5158 15.882 15.739L14.7392 16.8818C14.5159 17.105 14.5159 17.4668 14.7392 17.6898L15.882 18.8326C15.9938 18.9444 16.1397 19 16.286 19C16.4322 19 16.5783 18.9442 16.69 18.8326C16.9132 18.6094 16.9132 18.2476 16.69 18.0246L16.5225 17.8572H18.0004C18.6304 17.8572 19.1432 17.3446 19.1432 16.7144V9.28549C19.1432 8.65526 18.6304 8.14268 18.0004 8.14268V8.1427ZM12.5716 16.7145H7.1428V9.28561H8.62067L8.45326 9.45302C8.23003 9.67625 8.23003 10.038 8.45326 10.261C8.56467 10.3728 8.71096 10.4284 8.85725 10.4284C9.00355 10.4284 9.14984 10.3726 9.26125 10.261L10.4041 9.11822C10.6273 8.89499 10.6273 8.53324 10.4041 8.31022L9.26125 7.16742C9.03842 6.94419 8.67607 6.94419 8.45326 7.16742C8.23003 7.39064 8.23003 7.75239 8.45326 7.97541L8.62067 8.14283H7.1428C6.51242 8.14283 6 8.65545 6 9.28563V16.7145C6 17.3449 6.51262 17.8573 7.1428 17.8573H12.5716C12.8867 17.8573 13.143 17.6012 13.143 17.2859C13.143 16.9706 12.8871 16.7145 12.5716 16.7145V16.7145Z" fill="white"/>
</svg>
