<svg width="18" height="18" viewBox="0 0 18 18" fill="none" xmlns="http://www.w3.org/2000/svg">
<path d="M16.2342 6.61603L9.08277 3.06631C8.99372 3.02268 8.89587 3 8.79671 3C8.69755 3 8.5997 3.02268 8.51066 3.06631L1.35922 6.61603C1.25522 6.66807 1.16708 6.74705 1.10399 6.84474C1.0409 6.94243 1.00517 7.05526 1.00052 7.17146C0.995872 7.28765 1.02248 7.40297 1.07756 7.50539C1.13265 7.60781 1.2142 7.69358 1.31371 7.75376L1.64527 7.9553V12.1031H2.94554V8.72895L3.59567 9.11253V12.6427C3.59569 12.7556 3.62507 12.8664 3.68092 12.9645C3.73678 13.0625 3.81718 13.1443 3.91423 13.2019L8.46515 15.9129C8.56398 15.97 8.67609 16 8.79021 16C8.90433 16 9.01644 15.97 9.11528 15.9129L13.6662 13.2019C13.7632 13.1443 13.8436 13.0625 13.8995 12.9645C13.9554 12.8664 13.9847 12.7556 13.9848 12.6427V9.11253L16.2667 7.75376C16.3662 7.69358 16.4478 7.60781 16.5029 7.50539C16.5579 7.40297 16.5846 7.28765 16.5799 7.17146C16.5753 7.05526 16.5395 6.94243 16.4764 6.84474C16.4133 6.74705 16.3252 6.66807 16.2212 6.61603H16.2342ZM12.6975 12.2722L8.79671 14.5996L4.89593 12.2722V9.88619L8.46515 12.0121C8.56398 12.0692 8.67609 12.0992 8.79021 12.0992C8.90433 12.0992 9.01644 12.0692 9.11528 12.0121L12.6975 9.88619V12.2722ZM8.79671 10.6989L3.00405 7.24666L8.79671 4.37958L14.5894 7.24666L8.79671 10.6989Z" fill="#4B4D53"/>
</svg>
