<svg width="20" height="20" viewBox="0 0 20 20" fill="none" xmlns="http://www.w3.org/2000/svg">
<circle cx="10" cy="10" r="10" fill="#53B36E"/>
<path d="M13.8487 6.41566L13.8488 6.41567L13.85 6.41428C14.0233 6.22743 14.2626 6.11547 14.517 6.10216C14.7146 6.09244 14.9104 6.14276 15.0788 6.24651C15.2472 6.35027 15.3803 6.50261 15.4605 6.68347C15.5406 6.86433 15.5641 7.06524 15.5279 7.25972C15.4917 7.4542 15.3974 7.63315 15.2574 7.77299L15.2561 7.77436L9.64421 13.6021C9.47383 13.7784 9.24349 13.8845 8.99872 13.8992C8.75394 13.9139 8.51254 13.8363 8.32224 13.6817L8.32225 13.6816L8.32065 13.6804L5.26218 11.2965C5.06048 11.1326 4.93204 10.8953 4.9051 10.6367C4.87811 10.3778 4.95508 10.1188 5.11905 9.91672C5.28302 9.71459 5.52057 9.58589 5.77944 9.5589C6.03831 9.53192 6.2973 9.60888 6.49942 9.77285L6.4994 9.77288L6.5014 9.77442L8.79173 11.5384L8.86267 11.593L8.92478 11.5285L13.8487 6.41566Z" fill="white" stroke="#53B36E" stroke-width="0.2"/>
</svg>
