<svg width="13" height="12" viewBox="0 0 13 12" fill="none" xmlns="http://www.w3.org/2000/svg">
<path fill-rule="evenodd" clip-rule="evenodd" d="M5.99221 12C2.68001 11.9958 0 9.31322 0 6C0 2.68418 2.68418 0 6 0C9.31579 0 11.9473 2.68418 11.9473 6C11.9473 8.05422 10.9171 9.86601 9.35724 10.9473H12.1052C12.4209 10.9473 12.6315 11.1578 12.6315 11.4737C12.6315 11.7894 12.4211 12 12.1052 12H6.00002C5.99741 12 5.9948 12 5.99221 12ZM1.05254 5.99972C1.05254 3.26301 3.26318 1.05254 6 1.05254H5.99972C8.68398 1.05254 10.8945 3.26301 10.8945 5.99972C10.8945 8.73643 8.73643 10.9469 5.99972 10.9469C3.26301 10.9469 1.05254 8.73643 1.05254 5.99972ZM4.36835 3.2106C4.36835 4.10536 5.10518 4.78955 5.94729 4.78955C6.84205 4.78955 7.52624 4.10536 7.52624 3.2106C7.52624 2.31584 6.78941 1.63165 5.94729 1.63165C5.05254 1.63165 4.36835 2.31584 4.36835 3.2106ZM5.42094 3.26324C5.42094 2.94736 5.68417 2.73689 5.94729 2.73689C6.26306 2.73689 6.47365 2.94748 6.47365 3.26324C6.47365 3.57912 6.21041 3.78959 5.94729 3.78959C5.63141 3.78959 5.42094 3.579 5.42094 3.26324ZM5.94729 10.3159C5.10518 10.3159 4.36835 9.63166 4.36835 8.73691C4.36835 7.84215 5.05254 7.15796 5.94729 7.15796C6.78941 7.15796 7.52624 7.84215 7.52624 8.73691C7.52624 9.63166 6.84205 10.3159 5.94729 10.3159ZM5.94729 8.26319C5.68417 8.26319 5.42094 8.47367 5.42094 8.78955C5.42094 9.10531 5.63141 9.3159 5.94729 9.3159C6.21041 9.3159 6.47365 9.10543 6.47365 8.78955C6.47365 8.47379 6.26306 8.26319 5.94729 8.26319ZM7.158 6.00003C7.158 6.89478 7.89484 7.57897 8.73695 7.57897C9.63171 7.57897 10.3159 6.84214 10.3159 6.00003C10.3159 5.10527 9.57907 4.42108 8.73695 4.42108C7.8422 4.42108 7.158 5.15791 7.158 6.00003ZM8.2106 6.00003C8.2106 5.68415 8.47383 5.47368 8.73695 5.47368C9.05272 5.47368 9.2633 5.73691 9.2633 6.00003C9.2633 6.31591 9.00007 6.52638 8.73695 6.52638C8.42107 6.52638 8.2106 6.26315 8.2106 6.00003ZM3.2106 7.57897C2.36849 7.57897 1.63165 6.89478 1.63165 6.00003C1.63165 5.15791 2.31584 4.42108 3.2106 4.42108C4.05271 4.42108 4.78955 5.10527 4.78955 6.00003C4.78955 6.84214 4.05271 7.57897 3.2106 7.57897ZM3.2106 5.47368C2.94748 5.47368 2.68425 5.68415 2.68425 6.00003C2.68425 6.26315 2.89472 6.52638 3.2106 6.52638C3.47372 6.52638 3.73695 6.31591 3.73695 6.00003C3.73695 5.73691 3.47372 5.47368 3.2106 5.47368Z" fill="white"/>
</svg>
