<svg width="29" height="28" viewBox="0 0 29 28" fill="none" xmlns="http://www.w3.org/2000/svg">
<path fill-rule="evenodd" clip-rule="evenodd" d="M15.1492 0.0274532C14.5602 -0.00906632 13.9694 -0.00915084 13.3804 0.0271995C12.6255 0.0665092 11.8735 0.148285 11.1278 0.27214L11.1277 0.272029L11.1119 0.274891C9.49333 0.566969 7.93593 1.13099 6.50569 1.94303C4.56084 2.99966 2.92343 4.54302 1.75358 6.42219C0.193012 8.87824 -0.289725 11.8679 0.418547 14.6904C0.988389 17.0137 2.27472 19.0988 4.09528 20.6502C6.32257 22.5989 9.09034 23.8232 12.0305 24.1601L12.0648 24.164L12.0994 24.1659C12.1035 24.1661 12.1074 24.168 12.1101 24.1713C12.1128 24.1745 12.1141 24.1788 12.1136 24.183L12.1052 24.2521V24.3216C12.1052 24.5247 12.0805 24.6798 12.0449 24.9022L12.0449 24.9022L12.0449 24.9023C12.0246 25.0295 12.0007 25.1787 11.976 25.3715C11.8784 25.7928 11.8572 26.2282 11.9137 26.6572C11.9502 27.044 12.1374 27.4021 12.4364 27.6531C12.7534 27.9192 13.1671 28.0406 13.5776 27.988L13.5785 27.9879C13.9393 27.9413 14.2928 27.8494 14.6305 27.7143L14.6591 27.7029L14.687 27.6899C15.8516 27.1504 16.9566 26.4905 17.9839 25.721C20.1681 24.1759 22.231 22.4659 24.1545 20.6061C24.864 19.9531 25.5069 19.2313 26.0737 18.4513L26.0738 18.4513L26.0827 18.4387C27.3738 16.6109 28.075 14.4318 28.0921 12.1939L28.0922 12.1866C28.0935 11.1915 27.957 10.201 27.6866 9.24332L27.6866 9.24331L27.6838 9.23365C27.0186 6.95397 25.6794 4.92896 23.8421 3.42479C22.3332 2.15943 20.5795 1.21897 18.6907 0.662208C17.5395 0.311378 16.3506 0.0983042 15.1492 0.0274532ZM13.5178 2.33505C14.0139 2.30422 14.5115 2.30422 15.0077 2.33505L15.0115 2.33528C16.0326 2.39537 17.0431 2.57659 18.0215 2.87515L18.0214 2.8752L18.0324 2.87844C19.62 3.3457 21.0938 4.1362 22.3614 5.20032L22.3613 5.2004L22.3729 5.20987C23.8503 6.41781 24.9275 8.04466 25.463 9.87648C25.6742 10.626 25.7809 11.4011 25.7803 12.1798C25.766 13.9422 25.2143 15.6583 24.1988 17.0986C23.7206 17.7558 23.1782 18.3638 22.5795 18.9136L22.5685 18.9237L22.5577 18.9342C20.7123 20.7195 18.7326 22.3604 16.636 23.8426L16.6226 23.8521L16.6095 23.862C15.8894 24.4024 15.1255 24.8811 14.326 25.2934C14.3667 25.0214 14.4107 24.6869 14.4165 24.3867C14.471 23.772 14.2791 23.1595 13.8812 22.6852C13.4762 22.2025 12.8932 21.9052 12.2658 21.86C9.80038 21.5717 7.48019 20.5417 5.6124 18.9057L5.61247 18.9056L5.59987 18.8948C4.14529 17.6571 3.11773 15.9923 2.66327 14.137L2.66329 14.137L2.66161 14.1303C2.10641 11.9208 2.48463 9.5802 3.70741 7.65814L3.70746 7.65818L3.7137 7.64813C4.67401 6.10398 6.0195 4.83637 7.61791 3.96987L7.62828 3.96424L7.63855 3.95841C8.8419 3.27391 10.1524 2.79822 11.5146 2.55149C12.1738 2.44231 12.8386 2.37028 13.5059 2.33573L13.5059 2.33579L13.5178 2.33505ZM10.5942 12.2481C10.5942 13.2154 9.81031 13.9995 8.84329 13.9995C7.87626 13.9995 7.09233 13.2154 7.09233 12.2481C7.09233 11.2808 7.87626 10.4966 8.84329 10.4966C9.81031 10.4966 10.5942 11.2808 10.5942 12.2481ZM14.0961 13.9996C15.0632 13.9996 15.8471 13.2154 15.8471 12.2481C15.8471 11.2808 15.0632 10.4966 14.0961 10.4966C13.1291 10.4966 12.3452 11.2808 12.3452 12.2481C12.3452 13.2154 13.1291 13.9996 14.0961 13.9996ZM21.1 12.2481C21.1 13.2154 20.316 13.9996 19.349 13.9996C18.382 13.9996 17.598 13.2154 17.598 12.2481C17.598 11.2808 18.382 10.4966 19.349 10.4966C20.316 10.4966 21.1 11.2808 21.1 12.2481Z" fill="#4B4D53"/>
</svg>
