<svg width="32" height="32" viewBox="0 0 32 32" fill="none" xmlns="http://www.w3.org/2000/svg">
<circle opacity="0.2" cx="16" cy="16" r="16" fill="white"/>
<path fill-rule="evenodd" clip-rule="evenodd" d="M11.6667 12.6666C11.6667 11.562 12.5621 10.6666 13.6667 10.6666C14.7712 10.6666 15.6667 11.562 15.6667 12.6666C15.6667 13.7712 14.7712 14.6666 13.6667 14.6666C12.5621 14.6666 11.6667 13.7712 11.6667 12.6666ZM13.6667 9.33325C11.8257 9.33325 10.3333 10.8256 10.3333 12.6666C10.3333 14.5075 11.8257 15.9999 13.6667 15.9999C15.5076 15.9999 17 14.5075 17 12.6666C17 10.8256 15.5076 9.33325 13.6667 9.33325ZM11.3333 17.3333C10.4493 17.3333 9.60143 17.6844 8.97631 18.3096C8.35119 18.9347 8 19.7825 8 20.6666V21.9999C8 22.3681 8.29848 22.6666 8.66667 22.6666C9.03486 22.6666 9.33333 22.3681 9.33333 21.9999V20.6666C9.33333 20.1362 9.54405 19.6274 9.91912 19.2524C10.2942 18.8773 10.8029 18.6666 11.3333 18.6666H16C16.5304 18.6666 17.0391 18.8773 17.4142 19.2524C17.7893 19.6274 18 20.1362 18 20.6666V21.9999C18 22.3681 18.2985 22.6666 18.6667 22.6666C19.0349 22.6666 19.3333 22.3681 19.3333 21.9999V20.6666C19.3333 19.7825 18.9821 18.9347 18.357 18.3096C17.7319 17.6844 16.8841 17.3333 16 17.3333H11.3333ZM21.3333 12.6666C21.7015 12.6666 22 12.9651 22 13.3333V14.6666H23.3333C23.7015 14.6666 24 14.9651 24 15.3333C24 15.7014 23.7015 15.9999 23.3333 15.9999H22V17.3333C22 17.7014 21.7015 17.9999 21.3333 17.9999C20.9651 17.9999 20.6667 17.7014 20.6667 17.3333V15.9999H19.3333C18.9651 15.9999 18.6667 15.7014 18.6667 15.3333C18.6667 14.9651 18.9651 14.6666 19.3333 14.6666H20.6667V13.3333C20.6667 12.9651 20.9651 12.6666 21.3333 12.6666Z" fill="white"/>
</svg>
