<svg width="23" height="18" viewBox="0 0 23 18" fill="none" xmlns="http://www.w3.org/2000/svg">
<path fill-rule="evenodd" clip-rule="evenodd" d="M11.8606 5.03025C11.8606 7.80401 9.60372 10.0605 6.83032 10.0605C4.05656 10.0605 1.80007 7.80366 1.80007 5.03025C1.80007 2.25649 4.05656 0 6.83032 0C9.60408 0 11.8606 2.25649 11.8606 5.03025ZM10.1777 5.03025C10.1777 3.18429 8.67592 1.68246 6.83032 1.68246C4.98436 1.68246 3.48253 3.18429 3.48253 5.03025C3.48253 6.87586 4.98436 8.37768 6.83032 8.37768C8.67592 8.37768 10.1777 6.87586 10.1777 5.03025ZM16.6222 11.769C18.8273 11.769 20.6212 9.97514 20.6212 7.77005C20.6212 5.56497 18.8273 3.77148 16.6222 3.77148C14.4171 3.77148 12.6233 5.56497 12.6233 7.77005C12.6233 9.97514 14.4175 11.769 16.6222 11.769ZM16.6222 5.45395C17.8995 5.45395 18.9383 6.49277 18.9383 7.77005C18.9383 9.04734 17.8992 10.0862 16.6222 10.0862C15.3453 10.0862 14.3061 9.04698 14.3061 7.77005C14.3061 6.49312 15.3453 5.45395 16.6222 5.45395ZM1.68211 18H0V15.9284C0 14.7625 0.38233 13.657 1.10593 12.7313C2.10335 11.4554 3.59732 10.7236 5.20482 10.7236H8.45301C9.4647 10.7236 10.4485 11.0181 11.2982 11.5754C12.7757 12.5442 13.6578 14.1717 13.6578 15.9284V18H11.975V15.9284C11.975 13.9865 10.3946 12.4065 8.45265 12.4065H5.20446C3.26211 12.4065 1.68211 13.9865 1.68211 15.9284V18ZM15.1489 12.8555H18.0944C20.7403 12.8555 22.8929 15.0081 22.8929 17.654V18H21.2101V17.654C21.2101 15.9359 19.8125 14.5383 18.0944 14.5383H15.1489C15.0914 14.5383 15.0343 14.5397 14.9775 14.5433C14.7477 14.5565 14.5267 14.4769 14.3578 14.318C14.19 14.1599 14.094 13.9368 14.094 13.7054C14.094 13.2574 14.4496 12.8872 14.9033 12.8623C14.9847 12.858 15.0664 12.8555 15.1489 12.8555Z" fill="#042B45"/>
</svg>
