<svg width="15" height="15" viewBox="0 0 15 15" fill="none" xmlns="http://www.w3.org/2000/svg">
<path fill-rule="evenodd" clip-rule="evenodd" d="M5.625 1.25C5.41603 1.25 5.22088 1.35444 5.10497 1.52831L4.04051 3.125H1.875C1.37772 3.125 0.900806 3.32254 0.549175 3.67417C0.197544 4.02581 0 4.50272 0 5V11.875C0 12.3723 0.197544 12.8492 0.549175 13.2008C0.900805 13.5525 1.37772 13.75 1.875 13.75H13.125C13.6223 13.75 14.0992 13.5525 14.4508 13.2008C14.8025 12.8492 15 12.3723 15 11.875V5C15 4.50272 14.8025 4.02581 14.4508 3.67417C14.0992 3.32254 13.6223 3.125 13.125 3.125H10.9595L9.89503 1.52831C9.77912 1.35444 9.58397 1.25 9.375 1.25H5.625ZM4.89503 4.09669L5.95949 2.5H9.04051L10.105 4.09669C10.2209 4.27056 10.416 4.375 10.625 4.375H13.125C13.2908 4.375 13.4497 4.44085 13.5669 4.55806C13.6842 4.67527 13.75 4.83424 13.75 5V11.875C13.75 12.0408 13.6842 12.1997 13.5669 12.3169C13.4497 12.4342 13.2908 12.5 13.125 12.5H1.875C1.70924 12.5 1.55027 12.4342 1.43306 12.3169C1.31585 12.1997 1.25 12.0408 1.25 11.875V5C1.25 4.83424 1.31585 4.67527 1.43306 4.55806C1.55027 4.44085 1.70924 4.375 1.875 4.375H4.375C4.58397 4.375 4.77912 4.27056 4.89503 4.09669ZM5.625 8.125C5.625 7.08947 6.46447 6.25 7.5 6.25C8.53553 6.25 9.375 7.08947 9.375 8.125C9.375 9.16053 8.53553 10 7.5 10C6.46447 10 5.625 9.16053 5.625 8.125ZM7.5 5C5.77411 5 4.375 6.39911 4.375 8.125C4.375 9.85089 5.77411 11.25 7.5 11.25C9.22589 11.25 10.625 9.85089 10.625 8.125C10.625 6.39911 9.22589 5 7.5 5Z" fill="#53B36E"/>
</svg>
