<svg width="20" height="18" viewBox="0 0 20 18" fill="none" xmlns="http://www.w3.org/2000/svg">
<path fill-rule="evenodd" clip-rule="evenodd" d="M1.55114 1C1.27284 1.00022 1.04758 1.22571 1.04714 1.50378V3.6062L1.04714 3.61028L1.04714 3.61233C1.04714 4.44984 1.38986 5.20679 1.94584 5.77367V15.9917H1.50377C1.22571 15.9919 1.00022 16.2174 1 16.4954C1.00022 16.7737 1.22571 16.9992 1.50377 16.9994H2.4156C2.42684 17.0002 2.43818 17.0006 2.44961 17.0006H18.0448C18.0563 17.0006 18.0676 17.0002 18.0788 16.9994H18.9876C19.2657 16.9992 19.4911 16.7737 19.4914 16.4954C19.4911 16.2174 19.2657 15.9919 18.9876 15.9917H18.5486V5.77206C19.1032 5.20532 19.4448 4.44898 19.4448 3.61233H19.445C19.445 3.60484 19.4448 3.5974 19.4445 3.58999V1.50378C19.444 1.22571 19.2188 1.00022 18.9405 1H1.55114ZM17.5384 15.9917V6.48259C17.0854 6.692 16.5775 6.80924 16.0443 6.80924C14.8373 6.80924 13.7515 6.20854 13.1455 5.28763C12.5398 6.20964 11.4533 6.81118 10.2455 6.81118C9.03756 6.81118 7.95212 6.20954 7.34718 5.28738C6.742 6.20843 5.65723 6.80924 4.45012 6.80924C3.91596 6.80924 3.40711 6.69166 2.95333 6.48168V15.9917H7.37135V11.0246C7.37158 10.7465 7.59706 10.5211 7.87513 10.5208H12.6185C12.8966 10.5211 13.1221 10.7465 13.1223 11.0246V15.9917H17.5384ZM12.1148 15.9917V11.5284H8.37913V15.9917H12.1148ZM18.4371 3.63165C18.4369 3.62484 18.4367 3.61799 18.4367 3.61111V2.00778H2.05491V3.6062L2.0549 3.6109L2.05491 3.61235C2.05491 4.20595 2.31401 4.74995 2.74025 5.14687C2.76373 5.16347 2.78591 5.18215 2.8065 5.20279C2.81233 5.20864 2.818 5.21462 2.82351 5.22073C3.24704 5.57864 3.8153 5.79903 4.45012 5.79903C5.72969 5.79903 6.75152 4.89415 6.83797 3.76362C6.85936 3.48622 7.10156 3.27834 7.37896 3.29951C7.39097 3.30043 7.40285 3.30177 7.41458 3.30351C7.64894 3.33131 7.83879 3.52143 7.85762 3.76557H7.8574C7.94404 4.89615 8.96585 5.80098 10.2452 5.80098C11.5248 5.80098 12.5467 4.8961 12.6331 3.76557C12.6523 3.51968 12.8446 3.32859 13.0814 3.30293C13.0918 3.30147 13.1023 3.30033 13.113 3.29951C13.3906 3.27834 13.6328 3.48622 13.6542 3.76362C13.7408 4.89421 14.7651 5.79903 16.0445 5.79903C16.6758 5.79903 17.2408 5.58106 17.663 5.22662C17.6704 5.21815 17.6781 5.2099 17.6861 5.20189C17.7084 5.17959 17.7326 5.1596 17.7582 5.14207C18.1762 4.74989 18.4316 4.21535 18.4371 3.63165Z" fill="#4B4D53"/>
<path d="M1.04714 1.50378L0.747138 1.5033V1.50378H1.04714ZM1.55114 1V0.7L1.55089 0.7L1.55114 1ZM1.04714 3.6062H0.747138L0.747138 3.60642L1.04714 3.6062ZM1.04714 3.61028L1.34714 3.61112L1.34714 3.61007L1.04714 3.61028ZM1.04714 3.61233L0.747135 3.61149V3.61233H1.04714ZM1.94584 5.77367H2.24584V5.6511L2.16002 5.5636L1.94584 5.77367ZM1.94584 15.9917V16.2917H2.24584V15.9917H1.94584ZM1.50377 15.9917V15.6917H1.50353L1.50377 15.9917ZM1 16.4954L0.7 16.4952L0.7 16.4957L1 16.4954ZM1.50377 16.9994L1.50354 17.2994H1.50377V16.9994ZM2.4156 16.9994L2.43602 16.7001L2.42582 16.6994H2.4156V16.9994ZM2.44961 17.0006L2.44911 17.3006H2.44961V17.0006ZM18.0448 17.0006V17.3006L18.0453 17.3006L18.0448 17.0006ZM18.0788 16.9994V16.6994H18.0686L18.0584 16.7001L18.0788 16.9994ZM18.9876 16.9994V17.2994H18.9878L18.9876 16.9994ZM19.4914 16.4954L19.7914 16.4957L19.7914 16.4952L19.4914 16.4954ZM18.9876 15.9917L18.9878 15.6917H18.9876V15.9917ZM18.5486 15.9917H18.2486V16.2917H18.5486V15.9917ZM18.5486 5.77206L18.3342 5.56224L18.2486 5.64969V5.77206H18.5486ZM19.4448 3.61233V3.31233H19.1448V3.61233H19.4448ZM19.445 3.61233V3.91233H19.7455L19.745 3.61187L19.445 3.61233ZM19.4445 3.58999H19.1442L19.1448 3.6035L19.4445 3.58999ZM19.4445 1.50378H19.7445L19.7445 1.50329L19.4445 1.50378ZM18.9405 1L18.9407 0.7H18.9405V1ZM17.5384 6.48259H17.8384V6.01339L17.4125 6.21028L17.5384 6.48259ZM17.5384 15.9917V16.2917H17.8384V15.9917H17.5384ZM13.1455 5.28763L13.3961 5.12273L13.1453 4.74154L12.8948 5.12292L13.1455 5.28763ZM7.34718 5.28738L7.59802 5.12283L7.34737 4.74076L7.09645 5.12265L7.34718 5.28738ZM2.95333 6.48168L3.07932 6.20942L2.65333 6.01229V6.48168H2.95333ZM2.95333 15.9917H2.65333V16.2917H2.95333V15.9917ZM7.37135 15.9917V16.2917H7.67135V15.9917H7.37135ZM7.37135 11.0246L7.07135 11.0244V11.0246H7.37135ZM7.87513 10.5208V10.2208H7.87489L7.87513 10.5208ZM12.6185 10.5208L12.6188 10.2208H12.6185V10.5208ZM13.1223 11.0246H13.4223V11.0244L13.1223 11.0246ZM13.1223 15.9917H12.8223V16.2917H13.1223V15.9917ZM12.1148 15.9917V16.2917H12.4148V15.9917H12.1148ZM12.1148 11.5284H12.4148V11.2284H12.1148V11.5284ZM8.37913 11.5284V11.2284H8.07913V11.5284H8.37913ZM8.37913 15.9917H8.07913V16.2917H8.37913V15.9917ZM18.4367 3.61111H18.1367V3.61136L18.4367 3.61111ZM18.4371 3.63165L18.7371 3.63448L18.7372 3.62694L18.7369 3.6194L18.4371 3.63165ZM18.4367 2.00778H18.7367V1.70778H18.4367V2.00778ZM2.05491 2.00778V1.70778H1.75491V2.00778H2.05491ZM2.05491 3.6062L2.35491 3.6066V3.6062H2.05491ZM2.0549 3.6109L1.7549 3.6105L1.7549 3.61156L2.0549 3.6109ZM2.05491 3.61235H2.35491L2.35491 3.61169L2.05491 3.61235ZM2.74025 5.14687L2.5358 5.36642L2.55059 5.38019L2.5671 5.39186L2.74025 5.14687ZM2.8065 5.20279L3.01913 4.99115L3.01888 4.9909L2.8065 5.20279ZM2.82351 5.22073L2.60074 5.42167L2.61435 5.43675L2.62987 5.44987L2.82351 5.22073ZM6.83797 3.76362L6.53886 3.74056L6.53885 3.74075L6.83797 3.76362ZM7.37896 3.29951L7.402 3.00039L7.40179 3.00038L7.37896 3.29951ZM7.41458 3.30351L7.37065 3.6004L7.37923 3.60142L7.41458 3.30351ZM7.85762 3.76557V4.06557H8.18164L8.15673 3.74251L7.85762 3.76557ZM7.8574 3.76557V3.46557H7.53353L7.55827 3.78849L7.8574 3.76557ZM12.6331 3.76557L12.334 3.74227L12.334 3.7427L12.6331 3.76557ZM13.0814 3.30293L13.1137 3.60133L13.123 3.60004L13.0814 3.30293ZM13.113 3.29951L13.0902 3.00038L13.0899 3.0004L13.113 3.29951ZM13.6542 3.76362L13.9533 3.7407L13.9533 3.74056L13.6542 3.76362ZM17.663 5.22662L17.8559 5.45639L17.8736 5.44149L17.8889 5.42406L17.663 5.22662ZM17.6861 5.20189L17.474 4.98976L17.474 4.98977L17.6861 5.20189ZM17.7582 5.14207L17.9274 5.3898L17.9466 5.37672L17.9635 5.36085L17.7582 5.14207ZM1.34714 1.50425C1.34732 1.39136 1.43871 1.30009 1.55138 1.3L1.55089 0.7C1.10697 0.700355 0.747848 1.06005 0.747139 1.5033L1.34714 1.50425ZM1.34714 3.6062V1.50378H0.747138V3.6062H1.34714ZM1.34714 3.61007L1.34714 3.60599L0.747138 3.60642L0.747141 3.6105L1.34714 3.61007ZM1.34713 3.61317L1.34714 3.61112L0.747142 3.60945L0.747137 3.61149L1.34713 3.61317ZM2.16002 5.5636C1.65462 5.04831 1.34714 4.36519 1.34714 3.61233H0.747135C0.747135 4.53449 1.12509 5.36528 1.73166 5.98373L2.16002 5.5636ZM2.24584 15.9917V5.77367H1.64584V15.9917H2.24584ZM1.94584 15.6917H1.50377V16.2917H1.94584V15.6917ZM1.50353 15.6917C1.05997 15.692 0.700355 16.0516 0.7 16.4952L1.3 16.4957C1.30009 16.3831 1.39144 16.2918 1.50402 16.2917L1.50353 15.6917ZM0.7 16.4957C0.700355 16.9394 1.05988 17.2991 1.50354 17.2994L1.50401 16.6994C1.39153 16.6993 1.30009 16.6081 1.3 16.4952L0.7 16.4957ZM1.50377 17.2994H2.4156V16.6994H1.50377V17.2994ZM2.45011 16.7006C2.44529 16.7006 2.4406 16.7004 2.43602 16.7001L2.39518 17.2987C2.41308 17.3 2.43107 17.3006 2.44911 17.3006L2.45011 16.7006ZM18.0448 16.7006H2.44961V17.3006H18.0448V16.7006ZM18.0584 16.7001C18.0539 16.7004 18.0492 16.7006 18.0443 16.7006L18.0453 17.3006C18.0634 17.3006 18.0814 17.3 18.0993 17.2987L18.0584 16.7001ZM18.0788 17.2994H18.9876V16.6994H18.0788V17.2994ZM18.9878 17.2994C19.4315 17.2991 19.791 16.9394 19.7914 16.4957L19.1914 16.4952C19.1913 16.6081 19.0998 16.6993 18.9873 16.6994L18.9878 17.2994ZM19.7914 16.4952C19.791 16.0516 19.4314 15.692 18.9878 15.6917L18.9873 16.2917C19.0999 16.2918 19.1913 16.3831 19.1914 16.4957L19.7914 16.4952ZM18.9876 15.6917H18.5486V16.2917H18.9876V15.6917ZM18.2486 5.77206V15.9917H18.8486V5.77206H18.2486ZM19.1448 3.61233C19.1448 4.36454 18.8382 5.04712 18.3342 5.56224L18.763 5.98187C19.3681 5.36352 19.7448 4.53343 19.7448 3.61233H19.1448ZM19.445 3.31233H19.4448V3.91233H19.445V3.31233ZM19.1448 3.6035C19.1449 3.60659 19.145 3.60969 19.145 3.61279L19.745 3.61187C19.745 3.6 19.7447 3.5882 19.7442 3.57648L19.1448 3.6035ZM19.1445 1.50378V3.58999H19.7445V1.50378H19.1445ZM18.9403 1.3C19.0529 1.30009 19.1443 1.39136 19.1445 1.50426L19.7445 1.50329C19.7438 1.06005 19.3847 0.700355 18.9407 0.7L18.9403 1.3ZM1.55114 1.3H18.9405V0.7H1.55114V1.3ZM17.2384 6.48259V15.9917H17.8384V6.48259H17.2384ZM16.0443 7.10924C16.6217 7.10924 17.1725 6.98226 17.6643 6.7549L17.4125 6.21028C16.9984 6.40173 16.5334 6.50923 16.0443 6.50923V7.10924ZM12.8949 5.45253C13.5576 6.45966 14.7386 7.10924 16.0443 7.10924V6.50923C14.936 6.50923 13.9454 5.95742 13.3961 5.12273L12.8949 5.45253ZM10.2455 7.11118C11.552 7.11118 12.7339 6.4607 13.3963 5.45235L12.8948 5.12292C12.3458 5.95859 11.3546 6.51118 10.2455 6.51118V7.11118ZM7.09633 5.45194C7.75797 6.46051 8.93875 7.11118 10.2455 7.11118V6.51118C9.13638 6.51118 8.14627 5.95856 7.59802 5.12283L7.09633 5.45194ZM4.45012 7.10924C5.75597 7.10924 6.93601 6.45948 7.5979 5.45212L7.09645 5.12265C6.54798 5.95739 5.55848 6.50924 4.45012 6.50924V7.10924ZM2.82735 6.75394C3.31997 6.9819 3.87175 7.10924 4.45012 7.10924V6.50924C3.96016 6.50924 3.49424 6.40142 3.07932 6.20942L2.82735 6.75394ZM3.25333 15.9917V6.48168H2.65333V15.9917H3.25333ZM7.37135 15.6917H2.95333V16.2917H7.37135V15.6917ZM7.07135 11.0246V15.9917H7.67135V11.0246H7.07135ZM7.87489 10.2208C7.43132 10.2212 7.07171 10.5808 7.07135 11.0244L7.67135 11.0248C7.67144 10.9123 7.7628 10.8209 7.87537 10.8208L7.87489 10.2208ZM12.6185 10.2208H7.87513V10.8208H12.6185V10.2208ZM13.4223 11.0244C13.422 10.5808 13.0624 10.2212 12.6188 10.2208L12.6183 10.8208C12.7309 10.8209 12.8222 10.9123 12.8223 11.0248L13.4223 11.0244ZM13.4223 15.9917V11.0246H12.8223V15.9917H13.4223ZM17.5384 15.6917H13.1223V16.2917H17.5384V15.6917ZM12.4148 15.9917V11.5284H11.8148V15.9917H12.4148ZM12.1148 11.2284H8.37913V11.8284H12.1148V11.2284ZM8.07913 11.5284V15.9917H8.67913V11.5284H8.07913ZM12.1148 15.6917H8.37913V16.2917H12.1148V15.6917ZM18.1367 3.61136C18.1367 3.62223 18.137 3.63308 18.1374 3.6439L18.7369 3.6194C18.7368 3.61659 18.7367 3.61375 18.7367 3.61086L18.1367 3.61136ZM18.1367 2.00778V3.61111H18.7367V2.00778H18.1367ZM2.05491 2.30778H18.4367V1.70778H2.05491V2.30778ZM2.35491 3.6062V2.00778H1.75491V3.6062H2.35491ZM2.3549 3.61129L2.35491 3.6066L1.75491 3.60581L1.7549 3.6105L2.3549 3.61129ZM2.35491 3.61169L2.3549 3.61023L1.7549 3.61156L1.75491 3.61302L2.35491 3.61169ZM2.9447 4.92732C2.5742 4.58231 2.35491 4.11583 2.35491 3.61235H1.75491C1.75491 4.29607 2.05382 4.91759 2.5358 5.36642L2.9447 4.92732ZM3.01888 4.9909C2.98613 4.95807 2.95082 4.92833 2.9134 4.90189L2.5671 5.39186C2.57665 5.39861 2.5857 5.40623 2.59412 5.41467L3.01888 4.9909ZM3.04627 5.01979C3.03748 5.01005 3.02843 5.0005 3.01913 4.99115L2.59388 5.41442C2.59623 5.41679 2.59852 5.4192 2.60074 5.42167L3.04627 5.01979ZM4.45012 5.49903C3.88541 5.49903 3.38594 5.30325 3.01714 4.99159L2.62987 5.44987C3.10814 5.85404 3.74518 6.09903 4.45012 6.09903V5.49903ZM6.53885 3.74075C6.46581 4.69593 5.59268 5.49903 4.45012 5.49903V6.09903C5.86671 6.09903 7.03724 5.09237 7.1371 3.7865L6.53885 3.74075ZM7.40179 3.00038C6.95911 2.9666 6.57297 3.29822 6.53886 3.74056L7.13709 3.78669C7.14576 3.67422 7.24401 3.59008 7.35614 3.59864L7.40179 3.00038ZM7.4585 3.00674C7.43984 3.00398 7.421 3.00186 7.402 3.00039L7.35592 3.59862C7.36094 3.59901 7.36585 3.59956 7.37066 3.60028L7.4585 3.00674ZM8.15673 3.74251C8.12667 3.35266 7.82369 3.04994 7.44993 3.0056L7.37923 3.60142C7.47419 3.61268 7.55092 3.6902 7.55851 3.78863L8.15673 3.74251ZM7.8574 4.06557H7.85762V3.46557H7.8574V4.06557ZM10.2452 5.50098C9.10289 5.50098 8.22973 4.69794 8.15652 3.74265L7.55827 3.78849C7.65835 5.09437 8.82881 6.10098 10.2452 6.10098V5.50098ZM12.334 3.7427C12.2609 4.69787 11.3878 5.50098 10.2452 5.50098V6.10098C11.6618 6.10098 12.8324 5.09432 12.9322 3.78844L12.334 3.7427ZM13.049 3.00468C12.6713 3.04561 12.3646 3.34996 12.334 3.74227L12.9322 3.78887C12.9399 3.68941 13.0178 3.61157 13.1137 3.60119L13.049 3.00468ZM13.0899 3.0004C13.0731 3.00169 13.0563 3.00351 13.0398 3.00583L13.123 3.60004C13.1272 3.59944 13.1316 3.59896 13.136 3.59862L13.0899 3.0004ZM13.9533 3.74056C13.9192 3.29813 13.533 2.96661 13.0902 3.00038L13.1358 3.59864C13.2482 3.59007 13.3464 3.67431 13.3551 3.78669L13.9533 3.74056ZM16.0445 5.49903C14.9017 5.49903 14.0265 4.69562 13.9533 3.7407L13.3551 3.78655C13.4552 5.09279 14.6284 6.09903 16.0445 6.09903V5.49903ZM17.4701 4.99685C17.1025 5.30542 16.6061 5.49903 16.0445 5.49903V6.09903C16.7456 6.09903 17.379 5.8567 17.8559 5.45639L17.4701 4.99685ZM17.474 4.98977C17.4612 5.00252 17.4489 5.01567 17.4371 5.02918L17.8889 5.42406C17.8919 5.42062 17.895 5.41727 17.8983 5.41402L17.474 4.98977ZM17.589 4.89435C17.5481 4.92232 17.5095 4.95421 17.474 4.98976L17.8982 5.41403C17.9073 5.40497 17.9171 5.39688 17.9274 5.3898L17.589 4.89435ZM18.1372 3.62882C18.1325 4.12411 17.9161 4.58253 17.553 4.9233L17.9635 5.36085C18.4363 4.91724 18.7308 4.30658 18.7371 3.63448L18.1372 3.62882Z" fill="#4B4D53"/>
</svg>
