<svg width="13" height="16" viewBox="0 0 13 16" fill="none" xmlns="http://www.w3.org/2000/svg">
<path d="M11.7408 14.9992C11.5745 14.9978 11.4102 14.9633 11.2574 14.8977L6.96709 12.9882L2.6768 14.8977C2.30744 15.0613 1.88053 15.0271 1.5421 14.8066C1.20378 14.5862 0.999727 14.2096 1 13.8057V3.38691C1 2.75383 1.25148 2.1467 1.69916 1.69916C2.1467 1.25148 2.75383 1 3.38691 1H10.5476C11.1807 1 11.7878 1.25148 12.2354 1.69916C12.6831 2.1467 12.9345 2.75383 12.9345 3.38691V13.8057C12.9352 14.2103 12.7307 14.5878 12.3915 14.8082C12.1977 14.9334 11.9718 14.9997 11.7411 14.9992L11.7408 14.9992ZM11.7408 13.8058V3.38692C11.7408 3.07045 11.615 2.76687 11.3913 2.54298C11.1674 2.31921 10.8638 2.19347 10.5473 2.19347H3.3866C3.07012 2.19347 2.76655 2.31921 2.54266 2.54298C2.31888 2.76689 2.19315 3.07045 2.19315 3.38692V13.8058L6.48344 11.9022C6.79126 11.7658 7.14236 11.7658 7.4502 11.9022L11.7408 13.8058Z" fill="#4B4D53" stroke="#4B4D53" stroke-width="0.1"/>
</svg>
