<svg width="22" height="15" viewBox="0 0 22 15" fill="none" xmlns="http://www.w3.org/2000/svg">
<path d="M0 14.2859C0 13.5555 0.180651 12.879 0.541953 12.2561C0.902756 11.6332 1.39487 11.141 2.01806 10.7797C2.64099 10.4187 3.31775 10.2378 4.04782 10.2378H4.76196V11.6666H4.04782C3.57165 11.6666 3.13286 11.7839 2.73244 12.0176C2.33152 12.2519 2.01382 12.5693 1.7801 12.97C1.54587 13.3707 1.42876 13.8092 1.42876 14.2854C1.42876 14.6798 1.10853 14.9995 0.714131 14.9995C0.320003 14.9995 0 14.68 0 14.2859ZM2.01806 8.18485C1.61739 7.95088 1.29969 7.63293 1.06572 7.23251C0.831741 6.83159 0.71463 6.39305 0.71463 5.91688C0.71463 5.4407 0.831741 5.00216 1.06572 4.60149C1.29969 4.20082 1.61739 3.88337 2.01806 3.64915C2.41873 3.41542 2.85727 3.29806 3.33344 3.29806C3.80961 3.29806 4.24816 3.41542 4.64883 3.64915C5.0495 3.88337 5.3672 4.20082 5.60117 4.60149C5.83515 5.00216 5.95251 5.4407 5.95251 5.91688C5.95251 6.39305 5.83515 6.83159 5.60117 7.23251C5.3672 7.63293 5.0495 7.95088 4.64883 8.18485C4.24816 8.41883 3.80961 8.53569 3.33344 8.53569C2.85727 8.53569 2.41873 8.41883 2.01806 8.18485ZM4.17266 6.75584C4.40663 6.52187 4.524 6.24205 4.524 5.91663C4.524 5.58348 4.40663 5.30167 4.17266 5.07143C3.93869 4.84119 3.65886 4.72583 3.33344 4.72583C3.00802 4.72583 2.7282 4.84119 2.49423 5.07143C2.26025 5.30167 2.14314 5.58348 2.14314 5.91663C2.14314 6.2423 2.26025 6.52187 2.49423 6.75584C2.7282 6.99007 3.00802 7.10718 3.33344 7.10718C3.65886 7.10718 3.93869 6.99031 4.17266 6.75584ZM4.28579 14.2859C4.28579 13.5555 4.46644 12.879 4.82749 12.2561C5.18854 11.6332 5.68066 11.141 6.30384 10.7797C6.92678 10.4187 7.60328 10.2378 8.33361 10.2378H13.0953C13.8256 10.2378 14.5021 10.4187 15.1251 10.7797C15.748 11.141 16.2401 11.6332 16.6014 12.2561C16.9622 12.879 17.1431 13.5555 17.1431 14.2859C17.1431 14.6803 16.8233 15 16.4289 15C16.0345 15 15.7146 14.6803 15.7146 14.2859C15.7146 13.8097 15.5973 13.3712 15.3633 12.9705C15.1293 12.5698 14.8116 12.2524 14.411 12.0181C14.0103 11.7844 13.5717 11.6671 13.0956 11.6671H8.33386C7.85769 11.6671 7.41889 11.7844 7.01822 12.0181C6.61755 12.2524 6.29986 12.5698 6.06588 12.9705C5.83191 13.3712 5.7148 13.8097 5.7148 14.2859C5.7148 14.6803 5.39469 15 5.00029 15C4.60589 15 4.28579 14.6803 4.28579 14.2859ZM8.56584 7.99399C7.91101 7.60926 7.39099 7.08924 7.00601 6.43466C6.62104 5.77958 6.42893 5.0637 6.42893 4.28554C6.42893 3.50787 6.62104 2.79149 7.00601 2.13691C7.39099 1.48208 7.91101 0.962308 8.56584 0.577086C9.22042 0.192362 9.93679 0 10.7145 0C11.4924 0 12.2085 0.192362 12.8633 0.577086C13.5182 0.962308 14.0379 1.48208 14.4229 2.13691C14.8079 2.79149 15.0002 3.50787 15.0002 4.28554C15.0002 5.0637 14.8079 5.77958 14.4229 6.43466C14.0379 7.08924 13.5182 7.60926 12.8633 7.99399C12.2085 8.37921 11.4924 8.57157 10.7145 8.57157C9.93679 8.57157 9.22042 8.37921 8.56584 7.99399ZM12.1492 6.76207C12.5897 6.50816 12.9366 6.16082 13.191 5.72028C13.4449 5.27974 13.5717 4.80157 13.5717 4.28554C13.5717 3.76975 13.4447 3.29183 13.191 2.85104C12.9366 2.4105 12.5897 2.06341 12.1492 1.80925C11.7087 1.55509 11.2303 1.42826 10.7145 1.42826C10.1987 1.42826 9.72051 1.55534 9.27997 1.80925C8.83943 2.06316 8.49233 2.4105 8.23818 2.85104C7.98402 3.29183 7.85744 3.76975 7.85744 4.28554C7.85744 4.80157 7.98427 5.27974 8.23818 5.72028C8.49208 6.16082 8.83943 6.50816 9.27997 6.76207C9.72051 7.01623 10.1987 7.14281 10.7145 7.14281C11.2303 7.14281 11.7087 7.01598 12.1492 6.76207ZM16.7801 8.18485C16.3794 7.95088 16.0617 7.63293 15.8278 7.23251C15.5938 6.83159 15.4767 6.39305 15.4767 5.91688C15.4767 5.4407 15.5938 5.00216 15.8278 4.60149C16.0617 4.20082 16.3794 3.88337 16.7801 3.64915C17.1808 3.41542 17.6196 3.29806 18.0957 3.29806C18.5719 3.29806 19.0102 3.41542 19.4111 3.64915C19.8115 3.88337 20.1292 4.20082 20.3635 4.60149C20.5972 5.00216 20.7145 5.4407 20.7145 5.91688C20.7145 6.39305 20.5972 6.83159 20.3635 7.23251C20.1292 7.63293 19.8115 7.95088 19.4111 8.18485C19.0102 8.41883 18.5719 8.53569 18.0957 8.53569C17.6196 8.53569 17.1808 8.41883 16.7801 8.18485ZM20.0007 14.2859C20.0007 13.8097 19.8833 13.3712 19.6493 12.9705C19.4154 12.5698 19.0977 12.2524 18.697 12.0181C18.2963 11.7844 17.8578 11.6671 17.3816 11.6671H16.6672V10.2383H17.3813C18.1117 10.2383 18.7882 10.4192 19.4111 10.7802C20.0341 11.1415 20.5262 11.6337 20.8872 12.2566C21.2483 12.8795 21.4289 13.5555 21.4289 14.2859C21.4289 14.6803 21.1092 15 20.7148 15C20.3204 15 20.0007 14.6803 20.0007 14.2859ZM18.9349 6.75584C19.1687 6.52187 19.286 6.24205 19.286 5.91663C19.286 5.58348 19.1687 5.30167 18.9349 5.07143C18.7007 4.84119 18.4212 4.72583 18.0957 4.72583C17.7701 4.72583 17.4902 4.84119 17.2563 5.07143C17.0223 5.30167 16.9052 5.58348 16.9052 5.91663C16.9052 6.2423 17.0223 6.52187 17.2563 6.75584C17.4902 6.99007 17.7701 7.10718 18.0957 7.10718C18.4212 7.10718 18.7007 6.99031 18.9349 6.75584Z" fill="#4B4D53"/>
</svg>
