<svg width="15" height="15" viewBox="0 0 15 15" fill="none" xmlns="http://www.w3.org/2000/svg">
<path fill-rule="evenodd" clip-rule="evenodd" d="M7.5 15C11.6421 15 15 11.6421 15 7.5C15 3.35786 11.6421 0 7.5 0C3.35786 0 0 3.35786 0 7.5C0 11.6421 3.35786 15 7.5 15ZM7.5 13.1944C10.645 13.1944 13.1944 10.645 13.1944 7.5C13.1944 4.35505 10.645 1.80556 7.5 1.80556C4.35505 1.80556 1.80556 4.35505 1.80556 7.5C1.80556 10.645 4.35505 13.1944 7.5 13.1944Z" fill="#E36302"/>
<mask id="mask0_27_559" style="mask-type:alpha" maskUnits="userSpaceOnUse" x="0" y="0" width="15" height="15">
<path fill-rule="evenodd" clip-rule="evenodd" d="M7.5 15C11.6421 15 15 11.6421 15 7.5C15 3.35786 11.6421 0 7.5 0C3.35786 0 0 3.35786 0 7.5C0 11.6421 3.35786 15 7.5 15ZM7.5 13.1944C10.645 13.1944 13.1944 10.645 13.1944 7.5C13.1944 4.35505 10.645 1.80556 7.5 1.80556C4.35505 1.80556 1.80556 4.35505 1.80556 7.5C1.80556 10.645 4.35505 13.1944 7.5 13.1944Z" fill="#6C7E92"/>
</mask>
<g mask="url(#mask0_27_559)">
<g filter="url(#filter0_f_27_559)">
<path d="M6.56009 3.92816C4.68585 5.96978 2.28856 6.81889 1.20559 5.82471C0.122621 4.83052 0.764076 2.36952 2.63832 0.3279C4.51256 -1.71372 6.90986 -2.56283 7.99282 -1.56864C9.07579 -0.574458 8.43434 1.88655 6.56009 3.92816Z" fill="#FBEB93"/>
</g>
<g filter="url(#filter1_f_27_559)">
<path d="M10.5115 2.92379C9.18071 0.618718 8.76603 -1.63337 9.58533 -2.10639C10.4046 -2.57941 12.1477 -1.09425 13.4785 1.21082C14.8093 3.51589 15.224 5.76798 14.4047 6.241C13.5854 6.71402 11.8424 5.22886 10.5115 2.92379Z" fill="#F9C94D"/>
</g>
<g filter="url(#filter2_f_27_559)">
<path d="M10.4645 11.3905C11.8205 10.0345 13.462 9.47752 14.131 10.1465C14.7999 10.8154 14.243 12.457 12.887 13.813C11.531 15.1689 9.88947 15.7259 9.22051 15.0569C8.55156 14.388 9.10851 12.7464 10.4645 11.3905Z" fill="#FEDB78"/>
</g>
<g filter="url(#filter3_f_27_559)">
<path d="M4.18328 10.7423C5.53927 12.0983 6.09622 13.7399 5.42727 14.4088C4.75832 15.0778 3.11678 14.5208 1.76079 13.1648C0.404802 11.8088 -0.152149 10.1673 0.516805 9.49835C1.18576 8.82939 2.8273 9.38634 4.18328 10.7423Z" fill="#FBE515"/>
</g>
</g>
<path d="M13.1944 7.49999C13.1944 10.6449 10.645 13.1944 7.5 13.1944C4.35505 13.1944 1.80556 10.6449 1.80556 7.49999C1.80556 4.35503 4.35505 1.80554 7.5 1.80554C10.645 1.80554 13.1944 4.35503 13.1944 7.49999Z" fill="url(#paint0_linear_27_559)"/>
<path fill-rule="evenodd" clip-rule="evenodd" d="M7.5 13.6111C10.8751 13.6111 13.6111 10.8751 13.6111 7.50003C13.6111 4.12495 10.8751 1.38892 7.5 1.38892C4.12492 1.38892 1.38889 4.12495 1.38889 7.50003C1.38889 10.8751 4.12492 13.6111 7.5 13.6111ZM7.5 13.1945C10.645 13.1945 13.1944 10.645 13.1944 7.50003C13.1944 4.35507 10.645 1.80558 7.5 1.80558C4.35504 1.80558 1.80555 4.35507 1.80555 7.50003C1.80555 10.645 4.35504 13.1945 7.5 13.1945Z" fill="url(#paint1_linear_27_559)"/>
<path fill-rule="evenodd" clip-rule="evenodd" d="M4.4738 6.38441L6.45426 7.83838L7.48929 5.92077L8.52433 7.83838L10.5047 6.38442L10.5049 6.38383L8.52432 7.8379L7.48929 5.92029L6.45425 7.8379L4.47365 6.38383L4.4738 6.38441ZM10.7193 6.0661L8.56753 7.64584L7.48929 5.64819L6.41105 7.64585L4.25926 6.0661L5.10087 9.36671H9.87768L10.7193 6.0661Z" fill="#470068"/>
<mask id="mask1_27_559" style="mask-type:alpha" maskUnits="userSpaceOnUse" x="4" y="5" width="7" height="5">
<path d="M8.53099 7.85014L7.48928 5.91882L6.44758 7.85014L4.45422 6.38568L5.18655 9.25973H9.79199L10.5243 6.38568L8.53099 7.85014Z" fill="black"/>
</mask>
<g mask="url(#mask1_27_559)">
<path d="M7.72279 2.76502L8.91143 5.19107C8.95444 5.27835 9.01779 5.35384 9.09607 5.41108C9.17435 5.46833 9.26523 5.50563 9.36093 5.51979L12.0184 5.90913C12.1287 5.92527 12.2322 5.97217 12.3174 6.0445C12.4026 6.11684 12.466 6.21174 12.5004 6.31847C12.5349 6.4252 12.539 6.53951 12.5123 6.64847C12.4856 6.75744 12.4292 6.85671 12.3494 6.93506L10.4264 8.82305C10.3572 8.89117 10.3054 8.97523 10.2756 9.06797C10.2458 9.16071 10.2388 9.25936 10.2552 9.35543L10.7085 12.0221C10.7276 12.1327 10.7155 12.2466 10.6736 12.3506C10.6317 12.4547 10.5617 12.5448 10.4715 12.6108C10.3813 12.6768 10.2745 12.716 10.1633 12.724C10.0521 12.732 9.94095 12.7083 9.8424 12.6559L7.46983 11.3978C7.38406 11.3521 7.28851 11.3282 7.19148 11.3282C7.09445 11.3282 6.99889 11.3521 6.91313 11.3978L4.53303 12.6559C4.43448 12.7083 4.3233 12.732 4.2121 12.724C4.10091 12.716 3.99415 12.6768 3.90396 12.6108C3.81376 12.5448 3.74374 12.4547 3.70185 12.3506C3.65995 12.2466 3.64786 12.1327 3.66695 12.0221L4.12021 9.35543C4.13664 9.25936 4.12965 9.16071 4.09983 9.06797C4.07002 8.97523 4.01827 8.89117 3.94906 8.82305L2.02599 6.93506C1.94623 6.85671 1.88982 6.75744 1.86314 6.64847C1.83646 6.53951 1.84057 6.4252 1.87501 6.31847C1.90944 6.21174 1.97283 6.11684 2.05801 6.0445C2.14319 5.97217 2.24675 5.92527 2.357 5.90913L5.01451 5.51979C5.11021 5.50563 5.20109 5.46833 5.27936 5.41108C5.35764 5.35384 5.421 5.27835 5.46401 5.19107L6.65264 2.76502C6.70178 2.66428 6.77796 2.57944 6.87254 2.52011C6.96711 2.46077 7.0763 2.42932 7.18772 2.42932C7.29913 2.42932 7.40832 2.46077 7.5029 2.52011C7.59747 2.57944 7.67365 2.66428 7.72279 2.76502Z" fill="url(#paint2_linear_27_559)"/>
</g>
<path fill-rule="evenodd" clip-rule="evenodd" d="M7.5 12.9629C10.5171 12.9629 12.963 10.5171 12.963 7.49999C12.963 4.48288 10.5171 2.03702 7.5 2.03702C4.48289 2.03702 2.03704 4.48288 2.03704 7.49999C2.03704 10.5171 4.48289 12.9629 7.5 12.9629ZM7.5 13.1944C10.645 13.1944 13.1944 10.6449 13.1944 7.49999C13.1944 4.35503 10.645 1.80554 7.5 1.80554C4.35505 1.80554 1.80556 4.35503 1.80556 7.49999C1.80556 10.6449 4.35505 13.1944 7.5 13.1944Z" fill="url(#paint3_linear_27_559)"/>
<path opacity="0.15" d="M13.3796 2.84722C13.0272 3.269 12.7066 3.59468 12.3155 3.97332C12.2866 4.00208 12.2576 4.03083 12.2286 4.05959C12.2093 4.07876 12.1949 4.09314 12.1755 4.11231C12.1031 4.17941 12.0307 4.25131 11.9535 4.31841C11.9245 4.34237 11.9004 4.36634 11.8714 4.39509C11.8521 4.40947 11.8328 4.42864 11.8183 4.44302C11.7942 4.46699 11.77 4.48616 11.7459 4.50533C9.17752 6.76279 5.91397 8.13835 2.46697 8.38758C2.43318 8.38758 2.40421 8.39238 2.37042 8.39238C2.34628 8.39238 2.32214 8.39717 2.298 8.39717C2.25938 8.39717 2.22558 8.40196 2.18696 8.40196C2.06144 8.40676 1.93592 8.41634 1.8104 8.41634C1.77178 8.41634 1.72833 8.42113 1.68971 8.42113C1.59315 8.42593 1.4966 8.42593 1.40487 8.42593C0.955891 8.42593 0.506912 8.41155 0.0531051 8.3732C0.0193109 8.09042 0 7.79806 0 7.50569C0 3.35983 3.38424 0 7.5554 0C9.43339 0 11.1078 0.720726 12.4306 1.85185C12.7733 2.14422 13.09 2.49734 13.3796 2.84722Z" fill="url(#paint4_linear_27_559)"/>
<defs>
<filter id="filter0_f_27_559" x="-58.3208" y="-60.9846" width="125.84" height="126.225" filterUnits="userSpaceOnUse" color-interpolation-filters="sRGB">
<feFlood flood-opacity="0" result="BackgroundImageFix"/>
<feBlend mode="normal" in="SourceGraphic" in2="BackgroundImageFix" result="shape"/>
<feGaussianBlur stdDeviation="29.5" result="effect1_foregroundBlur_27_559"/>
</filter>
<filter id="filter1_f_27_559" x="-49.8351" y="-61.1942" width="123.66" height="126.523" filterUnits="userSpaceOnUse" color-interpolation-filters="sRGB">
<feFlood flood-opacity="0" result="BackgroundImageFix"/>
<feBlend mode="normal" in="SourceGraphic" in2="BackgroundImageFix" result="shape"/>
<feGaussianBlur stdDeviation="29.5" result="effect1_foregroundBlur_27_559"/>
</filter>
<filter id="filter2_f_27_559" x="-50.0626" y="-49.1366" width="123.477" height="123.477" filterUnits="userSpaceOnUse" color-interpolation-filters="sRGB">
<feFlood flood-opacity="0" result="BackgroundImageFix"/>
<feBlend mode="normal" in="SourceGraphic" in2="BackgroundImageFix" result="shape"/>
<feGaussianBlur stdDeviation="29.5" result="effect1_foregroundBlur_27_559"/>
</filter>
<filter id="filter3_f_27_559" x="-58.7663" y="-49.7848" width="123.477" height="123.477" filterUnits="userSpaceOnUse" color-interpolation-filters="sRGB">
<feFlood flood-opacity="0" result="BackgroundImageFix"/>
<feBlend mode="normal" in="SourceGraphic" in2="BackgroundImageFix" result="shape"/>
<feGaussianBlur stdDeviation="29.5" result="effect1_foregroundBlur_27_559"/>
</filter>
<linearGradient id="paint0_linear_27_559" x1="7.5" y1="1.80554" x2="7.5" y2="13.1944" gradientUnits="userSpaceOnUse">
<stop stop-color="#BD49D0"/>
<stop offset="0.5" stop-color="#9703B9"/>
<stop offset="1" stop-color="#852878"/>
</linearGradient>
<linearGradient id="paint1_linear_27_559" x1="7.5" y1="1.32478" x2="7.5" y2="13.605" gradientUnits="userSpaceOnUse">
<stop stop-color="#FFEE02"/>
<stop offset="0.5" stop-color="#D27003"/>
<stop offset="1" stop-color="#FBA400"/>
</linearGradient>
<linearGradient id="paint2_linear_27_559" x1="7.18934" y1="2.53094" x2="7.18934" y2="11.4873" gradientUnits="userSpaceOnUse">
<stop offset="0.0820804" stop-color="#F7E547"/>
<stop offset="0.2263" stop-color="#FEFCAF"/>
<stop offset="0.3883" stop-color="#F8DC20"/>
<stop offset="0.5895" stop-color="#E67A0B"/>
<stop offset="1" stop-color="#F8DC20"/>
</linearGradient>
<linearGradient id="paint3_linear_27_559" x1="7.5" y1="1.80554" x2="7.5" y2="13.1944" gradientUnits="userSpaceOnUse">
<stop stop-color="#AB2EBE"/>
<stop offset="1" stop-color="#340354"/>
</linearGradient>
<linearGradient id="paint4_linear_27_559" x1="3.53532" y1="1.15621" x2="7.77213" y2="7.0865" gradientUnits="userSpaceOnUse">
<stop offset="0.5084" stop-color="white" stop-opacity="0"/>
<stop offset="1" stop-color="white"/>
</linearGradient>
</defs>
</svg>
