<svg width="25" height="25" viewBox="0 0 25 25" fill="none" xmlns="http://www.w3.org/2000/svg">
<path opacity="0.7" fill-rule="evenodd" clip-rule="evenodd" d="M4.09884 0H20.9012C23.1686 0 25 1.8314 25 4.09884V20.9012C25 23.1686 23.1686 25 20.9012 25H4.09884C1.8314 25 0 23.1686 0 20.9012V4.09884C0 1.8314 1.8314 0 4.09884 0ZM20.9012 1.74419H4.09884C2.7907 1.74419 1.74419 2.7907 1.74419 4.09884V17.648L9.12791 11.7468C10 11.0782 11.25 11.1364 12.0349 11.9212L13.1395 13.0259L13.4012 13.2875C13.4302 13.3166 13.5174 13.3166 13.5465 13.2875L16.7733 10.0608C17.1802 9.65381 17.7326 9.42125 18.314 9.42125C18.8953 9.42125 19.4477 9.65381 19.8547 10.0608L23.2558 13.4619V4.09884C23.2558 2.7907 22.2093 1.74419 20.9012 1.74419ZM20.9012 23.2558H4.09884C2.7907 23.2558 1.74419 22.2093 1.74419 20.9012V19.8573L10.2035 13.084C10.3779 12.9387 10.6105 12.9678 10.7849 13.1131L11.8895 14.2178L12.1512 14.4794L17.7035 20.0317C17.8779 20.2061 18.1105 20.2933 18.314 20.2933C18.5174 20.2933 18.75 20.2061 18.9244 20.0317C19.2733 19.6829 19.2733 19.1305 18.9244 18.8108L14.7093 14.5957L14.7965 14.5085L17.9942 11.3108C18.1105 11.1945 18.2267 11.1945 18.314 11.1945C18.4012 11.1945 18.5174 11.2236 18.6337 11.3108L23.2558 15.9329V20.9012C23.2558 22.2093 22.2093 23.2558 20.9012 23.2558ZM7.95455 6.13901C7.95455 7.38901 6.93182 8.41173 5.68182 8.41173C4.43182 8.41173 3.40909 7.38901 3.40909 6.13901C3.40909 4.88901 4.43182 3.86628 5.68182 3.86628C6.93182 3.86628 7.95455 4.88901 7.95455 6.13901Z" fill="white"/>
</svg>
