<svg width="29" height="28" viewBox="0 0 29 28" fill="none" xmlns="http://www.w3.org/2000/svg">
<path fill-rule="evenodd" clip-rule="evenodd" d="M13.3804 0.0271995C13.9694 -0.00915084 14.5602 -0.00906632 15.1492 0.0274532C16.3506 0.0983042 17.5395 0.311378 18.6907 0.662208C20.5795 1.21897 22.3332 2.15943 23.8421 3.42479C25.6794 4.92896 27.0186 6.95397 27.6838 9.23365L27.6866 9.24331L27.6866 9.24332C27.957 10.201 28.0935 11.1915 28.0922 12.1866L28.0921 12.1939C28.075 14.4318 27.3738 16.6109 26.0827 18.4387L26.0738 18.4513L26.0737 18.4513C25.5069 19.2313 24.864 19.9531 24.1545 20.6061C22.231 22.4659 20.1682 24.1759 17.9839 25.721C16.9566 26.4905 15.8516 27.1504 14.687 27.6899L14.6591 27.7029L14.6305 27.7143C14.2928 27.8494 13.9393 27.9413 13.5785 27.9879L13.5776 27.988C13.1672 28.0406 12.7534 27.9192 12.4364 27.6531C12.1374 27.4021 11.9502 27.044 11.9137 26.6572C11.8572 26.2282 11.8784 25.7928 11.976 25.3715C12.0007 25.1787 12.0246 25.0295 12.0449 24.9023L12.0449 24.9022L12.0449 24.9022C12.0805 24.6798 12.1052 24.5247 12.1052 24.3216V24.2521L12.1136 24.183C12.1141 24.1788 12.1128 24.1745 12.1101 24.1713C12.1074 24.168 12.1035 24.1661 12.0994 24.1659L12.0648 24.164L12.0305 24.1601C9.09034 23.8232 6.32257 22.5989 4.09528 20.6502C2.27472 19.0988 0.988389 17.0137 0.418548 14.6904C-0.289725 11.8679 0.193012 8.87824 1.75358 6.42219C2.92343 4.54302 4.56085 2.99966 6.50569 1.94303C7.93593 1.13099 9.49333 0.566969 11.1119 0.274891L11.1277 0.272029L11.1278 0.27214C11.8735 0.148285 12.6255 0.0665092 13.3804 0.0271995ZM10.5942 12.2481C10.5942 13.2154 9.81031 13.9995 8.84329 13.9995C7.87626 13.9995 7.09233 13.2154 7.09233 12.2481C7.09233 11.2808 7.87626 10.4966 8.84329 10.4966C9.81031 10.4966 10.5942 11.2808 10.5942 12.2481ZM14.0961 13.9996C15.0632 13.9996 15.8471 13.2154 15.8471 12.2481C15.8471 11.2808 15.0632 10.4966 14.0961 10.4966C13.1291 10.4966 12.3452 11.2808 12.3452 12.2481C12.3452 13.2154 13.1291 13.9996 14.0961 13.9996ZM21.1 12.2481C21.1 13.2154 20.316 13.9996 19.349 13.9996C18.382 13.9996 17.5981 13.2154 17.5981 12.2481C17.5981 11.2808 18.382 10.4966 19.349 10.4966C20.316 10.4966 21.1 11.2808 21.1 12.2481Z" fill="#53B36E"/>
</svg>
