<svg width="36" height="32" viewBox="0 0 36 32" fill="none" xmlns="http://www.w3.org/2000/svg">
<path fill-rule="evenodd" clip-rule="evenodd" d="M21.1905 1.95218C19.4402 0.549145 16.9508 0.549145 15.2005 1.95218L2.03189 12.5001C0.73342 13.5409 0.521409 15.4361 1.55757 16.7382L2.62785 18.0789C3.12298 18.7207 3.87302 19.1155 4.68284 19.16C5.14959 19.1856 5.60935 19.0934 6.0228 18.8989V27.5866C6.0228 29.5267 7.59513 31.0999 9.53537 31.0999H26.8355C28.7757 31.0999 30.348 29.5267 30.348 27.5866V18.8585C30.7664 19.0318 31.2229 19.1084 31.6832 19.0768C32.4703 19.0227 33.2032 18.6565 33.7191 18.0597C33.7311 18.0459 33.7427 18.0318 33.7539 18.0174L34.753 16.7382L34.7564 16.7339C35.7882 15.4326 35.5759 13.5416 34.2805 12.5016L34.2786 12.5001L21.1927 1.95398L21.1905 1.95218ZM16.5765 3.66876C17.5223 2.91058 18.8673 2.91028 19.8134 3.66788L19.8122 3.66694L20.5025 2.81047L19.8145 3.66876L32.9004 14.2149L32.9027 14.2167C33.2554 14.4994 33.313 15.0144 33.0315 15.3683L32.0407 16.6369C31.9091 16.7807 31.7272 16.8686 31.5324 16.8819C31.3305 16.8958 31.1314 16.8285 30.9792 16.6949C30.9376 16.6583 30.8933 16.625 30.8467 16.5951C30.3181 16.2564 29.6488 16.2262 29.0918 16.5159C28.5349 16.8056 28.1754 17.3709 28.149 17.9979C28.1484 18.0133 28.148 18.0288 28.148 18.0442V27.5866C28.148 28.3122 27.5601 28.8999 26.8355 28.8999H9.53537C8.81076 28.8999 8.2228 28.3122 8.2228 27.5866V18.0579V18.0542H7.1228L8.22276 18.0638L8.2228 18.0579C8.2264 17.381 7.8401 16.7622 7.22974 16.4684C6.61755 16.1738 5.89032 16.2594 5.36325 16.688C5.32739 16.7171 5.29341 16.7485 5.26151 16.782C5.14261 16.9065 4.97524 16.9728 4.80348 16.9633C4.63171 16.9539 4.47257 16.8697 4.368 16.7329L4.35358 16.7144L3.27866 15.3678C2.99759 15.0141 3.05559 14.4994 3.40785 14.2167L16.5765 3.66876ZM32.0407 16.6369L32.0549 16.6209L32.887 17.3403L32.0201 16.6632L32.0407 16.6369ZM15.8886 15.2979C15.0381 15.2979 14.3486 15.9873 14.3486 16.8379C14.3486 17.6884 15.0381 18.3779 15.8886 18.3779H20.4926C21.3431 18.3779 22.0326 17.6884 22.0326 16.8379C22.0326 15.9873 21.3431 15.2979 20.4926 15.2979H15.8886Z" fill="#4B4D53"/>
</svg>
