<svg width="20" height="20" viewBox="0 0 20 20" fill="none" xmlns="http://www.w3.org/2000/svg">
<path d="M11.1549 19C11.9086 19.002 12.6318 18.7022 13.1629 18.1677L18.1676 13.1631C18.7001 12.6305 18.9993 11.9081 18.9993 11.1551C18.9993 10.4018 18.7001 9.67962 18.1676 9.14686L10.8512 1.83052C10.2531 1.2334 9.42038 0.933393 8.57893 1.01246L4.02029 1.45547C3.36352 1.51848 2.7493 1.80793 2.28293 2.2745C1.81655 2.74088 1.5269 3.35508 1.46391 4.01185L1.01238 8.57902C0.933332 9.42046 1.2333 10.2532 1.83045 10.8513L9.14678 18.1676C9.67817 18.7022 10.4013 19.0019 11.155 19L11.1549 19ZM8.84283 2.13413C9.29475 2.13453 9.72784 2.31423 10.0472 2.634L17.3636 9.95033C17.6835 10.2701 17.8634 10.7038 17.8634 11.1561C17.8634 11.6084 17.6835 12.0421 17.3636 12.3619L12.3589 17.3635C12.0394 17.6835 11.6056 17.8634 11.1533 17.8634C10.701 17.8634 10.2671 17.6835 9.94756 17.3635L2.63376 10.0472C2.27357 9.68716 2.0935 9.18492 2.14241 8.67813L2.58542 4.11649C2.62366 3.72341 2.79722 3.3559 3.07657 3.07674C3.35573 2.79738 3.72325 2.62382 4.11633 2.58559L8.67796 2.14258L8.84283 2.13413Z" fill="#4B4D53" stroke="#4B4D53" stroke-width="0.1"/>
<path d="M7.52241 9.9139C8.26521 9.90934 8.96357 9.55985 9.41274 8.96807C9.86169 8.37648 10.0103 7.60975 9.81493 6.89312C9.61938 6.1765 9.10207 5.59145 8.41481 5.3097C7.72771 5.02777 6.9485 5.08146 6.30619 5.45453C5.66408 5.8276 5.23154 6.47806 5.13608 7.21466C5.04039 7.95127 5.2926 8.69051 5.81821 9.2151C6.26993 9.66682 6.88373 9.91843 7.5225 9.91387L7.52241 9.9139ZM7.52241 6.25573V6.25553C7.94125 6.25652 8.33216 6.46614 8.56455 6.81482C8.79676 7.16332 8.83995 7.60473 8.67947 7.99167C8.51918 8.37861 8.17623 8.66016 7.76549 8.74217C7.35458 8.824 6.92999 8.69581 6.63343 8.40001C6.39727 8.16444 6.26452 7.84488 6.26432 7.51125C6.26432 7.1778 6.39687 6.85803 6.63283 6.62248C6.8688 6.38694 7.18898 6.25496 7.52241 6.25556L7.52241 6.25573Z" fill="#4B4D53" stroke="#4B4D53" stroke-width="0.1"/>
</svg>
