<svg width="18" height="18" viewBox="0 0 18 18" fill="none" xmlns="http://www.w3.org/2000/svg">
<path fill-rule="evenodd" clip-rule="evenodd" d="M2.32993 4.16548C2.45396 3.9202 2.70902 3.75 3 3.75H15C15.291 3.75 15.5461 3.92023 15.6701 4.16554L9.00006 8.83457L2.32993 4.16548ZM2.25 5.94051V13.5C2.25 13.9108 2.58921 14.25 3 14.25H15C15.4108 14.25 15.75 13.9108 15.75 13.5V5.9406L9.43016 10.3645C9.17192 10.5453 8.82821 10.5453 8.56997 10.3645L2.25 5.94051ZM17.25 4.51338V13.5C17.25 14.7392 16.2392 15.75 15 15.75H3C1.76079 15.75 0.75 14.7392 0.75 13.5V4.5C0.75 3.26079 1.76079 2.25 3 2.25H15C16.2332 2.25 17.2402 3.25104 17.2499 4.48204C17.2502 4.49249 17.2502 4.50295 17.25 4.51338Z" fill="#4B4D53"/>
</svg>
