<svg width="35" height="28" viewBox="0 0 35 28" fill="none" xmlns="http://www.w3.org/2000/svg">
<path d="M30.7887 12.3908C30.5138 12.1762 30.1799 12.0382 29.8251 11.9926C29.4704 11.9469 29.109 11.9953 28.7823 12.1324L22.7031 14.6595L19.1709 8.70682C19.002 8.4289 18.7574 8.19778 18.462 8.037C18.1665 7.87621 17.8307 7.7915 17.4889 7.7915C17.147 7.7915 16.8112 7.87621 16.5157 8.037C16.2203 8.19778 15.9757 8.4289 15.8068 8.70682L12.2746 14.6595L6.19539 12.1324C5.868 11.9955 5.50619 11.947 5.15084 11.9923C4.7955 12.0376 4.4608 12.1749 4.18457 12.3888C3.90835 12.6026 3.70161 12.8844 3.58775 13.2023C3.47388 13.5202 3.45742 13.8616 3.54022 14.1878L6.59186 26.3515C6.65021 26.587 6.7591 26.809 6.91192 27.004C7.06474 27.199 7.25832 27.3629 7.48092 27.4859C7.78229 27.6545 8.12687 27.7438 8.47811 27.7442C8.64885 27.7439 8.81871 27.7212 8.98271 27.6768C14.5451 26.2392 20.4206 26.2392 25.983 27.6768C26.4909 27.8017 27.031 27.733 27.4848 27.4859C27.7087 27.3645 27.9034 27.201 28.0564 27.0058C28.2094 26.8105 28.3175 26.5878 28.3738 26.3515L31.4375 14.1878C31.5194 13.8615 31.502 13.5203 31.3873 13.2027C31.2727 12.8852 31.0653 12.6039 30.7887 12.3908V12.3908Z" fill="#FFAA00"/>
<ellipse cx="17.4885" cy="4.77116" rx="4" ry="4.02702" fill="#FFAA00"/>
<ellipse cx="31.9883" cy="11.3152" rx="2.5" ry="2.51689" fill="#FFAA00"/>
<ellipse cx="2.98828" cy="11.3152" rx="2.5" ry="2.51689" fill="#FFAA00"/>
<ellipse cx="9.98853" cy="20.3759" rx="1.5" ry="1.51013" fill="#BE9502"/>
<ellipse cx="24.9883" cy="20.3759" rx="1.5" ry="1.51013" fill="#BE9502"/>
<path d="M19.0245 23.7441H17.1065V17.6681H14.9225V16.3661C16.2525 16.3521 17.1765 15.6101 17.3585 14.6581H19.0245V23.7441Z" fill="white"/>
</svg>
