<svg width="20" height="20" viewBox="0 0 20 20" fill="none" xmlns="http://www.w3.org/2000/svg">
<path fill-rule="evenodd" clip-rule="evenodd" d="M7.74391 2.74424C7.9002 2.58796 8.11216 2.50016 8.33317 2.50016H11.6665C11.8875 2.50016 12.0995 2.58796 12.2558 2.74424C12.412 2.90052 12.4998 3.11248 12.4998 3.3335V4.16683H7.49984V3.3335C7.49984 3.11248 7.58763 2.90052 7.74391 2.74424ZM5.83317 4.16683V3.3335C5.83317 2.67045 6.09656 2.03457 6.5654 1.56573C7.03424 1.09689 7.67013 0.833496 8.33317 0.833496H11.6665C12.3295 0.833496 12.9654 1.09689 13.4343 1.56573C13.9031 2.03457 14.1665 2.67045 14.1665 3.3335V4.16683H15.8325L15.8332 4.16683L15.8338 4.16683H17.4998C17.9601 4.16683 18.3332 4.53993 18.3332 5.00016C18.3332 5.4604 17.9601 5.8335 17.4998 5.8335H16.6665V16.6668C16.6665 17.3299 16.4031 17.9658 15.9343 18.4346C15.4654 18.9034 14.8295 19.1668 14.1665 19.1668H5.83317C5.17013 19.1668 4.53424 18.9034 4.0654 18.4346C3.59656 17.9658 3.33317 17.3299 3.33317 16.6668V5.8335H2.49984C2.0396 5.8335 1.6665 5.4604 1.6665 5.00016C1.6665 4.53993 2.0396 4.16683 2.49984 4.16683H4.16587L4.1665 4.16683L4.16714 4.16683H5.83317ZM6.6665 5.8335H13.3332L14.9998 5.8335V16.6668C14.9998 16.8878 14.912 17.0998 14.7558 17.2561C14.5995 17.4124 14.3875 17.5002 14.1665 17.5002H5.83317C5.61216 17.5002 5.4002 17.4124 5.24391 17.2561C5.08763 17.0998 4.99984 16.8878 4.99984 16.6668V5.8335L6.6665 5.8335ZM8.33317 8.3335C8.79341 8.3335 9.1665 8.70659 9.1665 9.16683V14.1668C9.1665 14.6271 8.79341 15.0002 8.33317 15.0002C7.87293 15.0002 7.49984 14.6271 7.49984 14.1668V9.16683C7.49984 8.70659 7.87293 8.3335 8.33317 8.3335ZM12.4998 14.1668V9.16683C12.4998 8.70659 12.1267 8.3335 11.6665 8.3335C11.2063 8.3335 10.8332 8.70659 10.8332 9.16683V14.1668C10.8332 14.6271 11.2063 15.0002 11.6665 15.0002C12.1267 15.0002 12.4998 14.6271 12.4998 14.1668Z" fill="white"/>
</svg>
