<svg width="33" height="35" viewBox="0 0 33 35" fill="none" xmlns="http://www.w3.org/2000/svg">
<path d="M30.4006 23.0923C30.4006 23.6446 29.9529 24.0923 29.4006 24.0923L2.90064 24.0923C2.34835 24.0923 1.90064 23.6446 1.90064 23.0923L1.90063 1.33997L30.4006 1.33997L30.4006 23.0923Z" fill="#EFAE1A"/>
<path d="M16.7714 34.3077C16.4076 34.5961 15.8931 34.5961 15.5293 34.3077L2.07586 23.6465C1.70452 23.3522 1.91261 22.7546 2.3864 22.7546L29.9144 22.7546C30.3882 22.7546 30.5963 23.3522 30.2249 23.6465L16.7714 34.3077Z" fill="#EFAE1A"/>
<path fill-rule="evenodd" clip-rule="evenodd" d="M32.3 1.02292C32.3 1.58793 31.8508 2.04596 31.2967 2.04596L1.00335 2.04596C0.449236 2.04596 4.25452e-05 1.58793 4.25366e-05 1.02292C4.25281e-05 0.457912 0.449236 -0.000118164 1.00335 -0.000118144L31.2967 -0.00011704C31.8508 -0.00011702 32.3 0.457913 32.3 1.02292Z" fill="#FFAA00"/>
</svg>
