<svg width="40" height="40" viewBox="0 0 40 40" fill="none" xmlns="http://www.w3.org/2000/svg">
<rect width="40" height="40" rx="20" fill="#F3F5F8"/>
<path fill-rule="evenodd" clip-rule="evenodd" d="M21.2094 12.6682V26.3341L21.207 26.3317C21.207 26.4913 21.15 26.6454 21.0462 26.7666C20.9424 26.8877 20.7988 26.9677 20.641 26.9921C20.4835 27.0165 20.3223 26.9837 20.1866 26.8998L14.4324 23.3218H11.1684C10.9911 23.3218 10.8212 23.2514 10.6958 23.1262C10.5704 23.0007 10.5 22.8309 10.5 22.6536V16.3487C10.5 16.1714 10.5704 16.0014 10.6958 15.876C10.8212 15.7507 10.9911 15.6804 11.1684 15.6804H14.4324L20.189 12.1002C20.3245 12.0161 20.4857 11.9835 20.6434 12.0079C20.801 12.0323 20.9448 12.1123 21.0486 12.2334C21.1522 12.3546 21.2094 12.5088 21.2094 12.6682ZM13.9554 17.0169H11.8365V21.985H13.9554V17.0169ZM15.2989 22.2857L19.8727 25.1307V13.8711L15.2989 16.7161V22.2857ZM25.9882 23.9372L26.8905 24.922L26.8906 24.9218C27.896 24.0009 28.6255 22.8186 28.9977 21.5068C29.3698 20.195 29.3698 18.8057 28.9977 17.4939C28.6255 16.1821 27.8961 14.9997 26.8906 14.0788L25.9883 15.0635H25.9882C27.2322 16.203 27.9405 17.8123 27.9405 19.4994C27.9405 21.1862 27.2322 22.7956 25.9882 23.9352V23.9372ZM23.5332 15.6583L22.6421 16.6608V16.661C23.4573 17.3798 23.9243 18.4144 23.9243 19.5014C23.9243 20.5884 23.4573 21.6229 22.6421 22.3418L23.5332 23.3443V23.3445C24.6362 22.3717 25.2681 20.9719 25.2681 19.5013C25.2681 18.0308 24.6362 16.6311 23.5332 15.6582V15.6583Z" fill="#4B4D53"/>
<path d="M21.2094 26.3341L21.1022 26.439L21.3594 26.7018V26.3341H21.2094ZM21.207 26.3317L21.3142 26.2267L21.057 25.964V26.3317H21.207ZM21.0462 26.7666L21.1601 26.8643L21.1601 26.8642L21.0462 26.7666ZM20.641 26.9921L20.6181 26.8439L20.6181 26.8439L20.641 26.9921ZM20.1866 26.8998L20.1074 27.0272L20.1077 27.0274L20.1866 26.8998ZM14.4324 23.3218L14.5116 23.1944L14.4753 23.1718H14.4324V23.3218ZM10.6958 23.1262L10.5897 23.2322L10.5898 23.2323L10.6958 23.1262ZM10.6958 15.876L10.5898 15.7699L10.5897 15.7699L10.6958 15.876ZM14.4324 15.6804V15.8304H14.4753L14.5116 15.8077L14.4324 15.6804ZM20.189 12.1002L20.11 11.9727L20.1098 11.9728L20.189 12.1002ZM20.6434 12.0079L20.6664 11.8596L20.6664 11.8596L20.6434 12.0079ZM21.0486 12.2334L21.1626 12.1359L21.1625 12.1357L21.0486 12.2334ZM11.8365 17.0169V16.8669H11.6865V17.0169H11.8365ZM13.9554 17.0169H14.1054V16.8669H13.9554V17.0169ZM11.8365 21.985H11.6865V22.135H11.8365V21.985ZM13.9554 21.985V22.135H14.1054V21.985H13.9554ZM19.8727 25.1307L19.7935 25.258L20.0227 25.4006V25.1307H19.8727ZM15.2989 22.2857H15.1489V22.369L15.2196 22.4131L15.2989 22.2857ZM19.8727 13.8711H20.0227V13.6011L19.7935 13.7437L19.8727 13.8711ZM15.2989 16.7161L15.2196 16.5887L15.1489 16.6327V16.7161H15.2989ZM26.8905 24.922L26.7799 25.0233L26.886 25.1392L26.9968 25.0277L26.8905 24.922ZM25.9882 23.9372H25.8382V23.9955L25.8776 24.0385L25.9882 23.9372ZM26.8906 24.9218L26.7892 24.8111L26.7842 24.8161L26.8906 24.9218ZM28.9977 21.5068L29.142 21.5478L29.142 21.5477L28.9977 21.5068ZM28.9977 17.4939L29.142 17.453L29.142 17.453L28.9977 17.4939ZM26.8906 14.0788L26.9919 13.9681L26.8813 13.8668L26.78 13.9774L26.8906 14.0788ZM25.9883 15.0635V15.2135H26.0543L26.0989 15.1649L25.9883 15.0635ZM25.9882 15.0635V14.9135H25.6023L25.8869 15.1742L25.9882 15.0635ZM25.9882 23.9352L25.8869 23.8246L25.8382 23.8692V23.9352H25.9882ZM22.6421 16.6608L22.53 16.5611L22.4921 16.6038V16.6608H22.6421ZM23.5332 15.6583L23.6453 15.758L23.6832 15.7153V15.6583H23.5332ZM22.6421 16.661H22.4921V16.7287L22.5429 16.7735L22.6421 16.661ZM22.6421 22.3418L22.5429 22.2293L22.4299 22.3289L22.53 22.4415L22.6421 22.3418ZM23.5332 23.3443H23.6832V23.2873L23.6453 23.2447L23.5332 23.3443ZM23.5332 23.3445H23.3832V23.6768L23.6324 23.457L23.5332 23.3445ZM23.5332 15.6582L23.6324 15.5457L23.3832 15.3259V15.6582H23.5332ZM21.3594 26.3341V12.6682H21.0594V26.3341H21.3594ZM21.0999 26.4366L21.1022 26.439L21.3166 26.2292L21.3142 26.2267L21.0999 26.4366ZM21.1601 26.8642C21.2872 26.7158 21.357 26.5271 21.357 26.3317H21.057C21.057 26.4555 21.0128 26.575 20.9323 26.6691L21.1601 26.8642ZM20.664 27.1404C20.8572 27.1105 21.033 27.0125 21.1601 26.8643L20.9323 26.669C20.8518 26.7629 20.7404 26.825 20.6181 26.8439L20.664 27.1404ZM20.1077 27.0274C20.2738 27.1301 20.471 27.1702 20.664 27.1404L20.6181 26.8439C20.4959 26.8628 20.3709 26.8374 20.2656 26.7723L20.1077 27.0274ZM14.3532 23.4492L20.1074 27.0272L20.2659 26.7724L14.5116 23.1944L14.3532 23.4492ZM11.1684 23.4718H14.4324V23.1718H11.1684V23.4718ZM10.5898 23.2323C10.7433 23.3856 10.9513 23.4718 11.1684 23.4718V23.1718C11.0309 23.1718 10.8991 23.1172 10.8018 23.02L10.5898 23.2323ZM10.35 22.6536C10.35 22.8707 10.4362 23.0787 10.5897 23.2322L10.8019 23.0201C10.7046 22.9228 10.65 22.7911 10.65 22.6536H10.35ZM10.35 16.3487V22.6536H10.65V16.3487H10.35ZM10.5897 15.7699C10.4362 15.9235 10.35 16.1317 10.35 16.3487H10.65C10.65 16.2112 10.7046 16.0793 10.8019 15.9821L10.5897 15.7699ZM11.1684 15.5304C10.9513 15.5304 10.7433 15.6166 10.5898 15.7699L10.8018 15.9821C10.8991 15.8849 11.0309 15.8304 11.1684 15.8304V15.5304ZM14.4324 15.5304H11.1684V15.8304H14.4324V15.5304ZM20.1098 11.9728L14.3532 15.553L14.5116 15.8077L20.2683 12.2276L20.1098 11.9728ZM20.6664 11.8596C20.4734 11.8298 20.276 11.8697 20.11 11.9727L20.2681 12.2277C20.3731 12.1625 20.498 12.1372 20.6205 12.1561L20.6664 11.8596ZM21.1625 12.1357C21.0354 11.9875 20.8594 11.8895 20.6664 11.8596L20.6205 12.1561C20.7427 12.175 20.8542 12.2371 20.9347 12.331L21.1625 12.1357ZM21.3594 12.6682C21.3594 12.4728 21.2894 12.2842 21.1626 12.1359L20.9346 12.3309C21.0151 12.425 21.0594 12.5447 21.0594 12.6682H21.3594ZM11.8365 17.1669H13.9554V16.8669H11.8365V17.1669ZM11.9865 21.985V17.0169H11.6865V21.985H11.9865ZM13.9554 21.835H11.8365V22.135H13.9554V21.835ZM13.8054 17.0169V21.985H14.1054V17.0169H13.8054ZM19.9519 25.0033L15.3781 22.1583L15.2196 22.4131L19.7935 25.258L19.9519 25.0033ZM19.7227 13.8711V25.1307H20.0227V13.8711H19.7227ZM15.3781 16.8434L19.9519 13.9985L19.7935 13.7437L15.2196 16.5887L15.3781 16.8434ZM15.4489 22.2857V16.7161H15.1489V22.2857H15.4489ZM27.0011 24.8206L26.0988 23.8358L25.8776 24.0385L26.7799 25.0233L27.0011 24.8206ZM26.7842 24.8161L26.7841 24.8162L26.9968 25.0277L26.997 25.0275L26.7842 24.8161ZM28.8534 21.4659C28.4888 22.7509 27.7742 23.9091 26.7893 24.8112L26.9919 25.0324C28.0179 24.0927 28.7622 22.8863 29.142 21.5478L28.8534 21.4659ZM28.8534 17.5348C29.2179 18.8199 29.2179 20.1809 28.8534 21.4659L29.142 21.5477C29.5217 20.2092 29.5217 18.7916 29.142 17.453L28.8534 17.5348ZM26.7893 14.1894C27.7743 15.0915 28.4888 16.2498 28.8534 17.5348L29.142 17.453C28.7622 16.1144 28.0179 14.9079 26.9919 13.9681L26.7893 14.1894ZM26.0989 15.1649L27.0012 14.1801L26.78 13.9774L25.8777 14.9622L26.0989 15.1649ZM25.9882 15.2135H25.9883V14.9135H25.9882V15.2135ZM28.0905 19.4994C28.0905 17.7703 27.3645 16.1208 26.0895 14.9529L25.8869 15.1742C27.0999 16.2852 27.7905 17.8544 27.7905 19.4994H28.0905ZM26.0895 24.0458C27.3645 22.8778 28.0905 21.2283 28.0905 19.4994H27.7905C27.7905 21.1442 27.0998 22.7134 25.8869 23.8246L26.0895 24.0458ZM26.1382 23.9372V23.9352H25.8382V23.9372H26.1382ZM22.7542 16.7604L23.6453 15.758L23.421 15.5586L22.53 16.5611L22.7542 16.7604ZM22.7921 16.661V16.6608H22.4921V16.661H22.7921ZM24.0743 19.5014C24.0743 18.3713 23.5888 17.2958 22.7413 16.5484L22.5429 16.7735C23.3258 17.4639 23.7743 18.4574 23.7743 19.5014H24.0743ZM22.7413 22.4543C23.5888 21.707 24.0743 20.6315 24.0743 19.5014H23.7743C23.7743 20.5454 23.3258 21.5389 22.5429 22.2293L22.7413 22.4543ZM23.6453 23.2447L22.7542 22.2422L22.53 22.4415L23.421 23.444L23.6453 23.2447ZM23.6832 23.3445V23.3443H23.3832V23.3445H23.6832ZM25.1181 19.5013C25.1181 20.9289 24.5047 22.2876 23.4339 23.232L23.6324 23.457C24.7677 22.4557 25.4181 21.015 25.4181 19.5013H25.1181ZM23.4339 15.7707C24.5047 16.7151 25.1181 18.0738 25.1181 19.5013H25.4181C25.4181 17.9877 24.7677 16.547 23.6324 15.5457L23.4339 15.7707ZM23.6832 15.6583V15.6582H23.3832V15.6583H23.6832Z" fill="#4B4D53"/>
</svg>
