<svg width="28" height="28" viewBox="0 0 28 28" fill="none" xmlns="http://www.w3.org/2000/svg">
<g clip-path="url(#clip0_139_509)">
<path d="M20.8623 9.99089C21.2854 10.0089 21.7022 9.7911 21.9159 9.3933C22.0586 9.12753 22.09 8.81594 22.003 8.52706C21.916 8.23819 21.7178 7.9957 21.4521 7.85294C21.1863 7.71018 20.8747 7.67884 20.5858 7.76581C20.297 7.85279 20.0545 8.05096 19.9117 8.31673C19.6951 8.72004 19.7476 9.19345 20.0046 9.53723C18.4547 11.4716 16.9878 12.7429 14.5402 11.8679C14.5402 11.8679 13.5122 15.2444 16.3642 16.7764C19.2163 18.3085 21.1269 15.4451 21.1269 15.4451C18.7494 14.3206 20.1163 11.3071 20.8623 9.99089Z" fill="#F19534"/>
<path d="M12.6335 5.57068C12.3849 5.22785 12.3364 4.76014 12.5501 4.36234C12.6929 4.09657 12.9353 3.8984 13.2242 3.81143C13.5131 3.72445 13.8247 3.75579 14.0905 3.89855C14.3562 4.04131 14.5544 4.2838 14.6414 4.57267C14.7283 4.86155 14.697 5.17314 14.5542 5.43891C14.3376 5.84222 13.9139 6.0598 13.4854 6.03536C12.7283 8.39561 12.4783 10.3205 14.5592 11.8782C14.5592 11.8782 12.3117 14.5995 9.45961 13.0675C6.60755 11.5355 7.94063 8.36369 7.94063 8.36369C10.1903 9.72289 11.9481 6.91938 12.6335 5.57068Z" fill="#F19534"/>
<path d="M16.3255 16.7558C16.3379 16.7624 16.3496 16.7705 16.362 16.7771C17.1479 17.1993 17.8619 17.2867 18.4833 17.193L16.3255 16.7558Z" fill="#FFCA28"/>
<path d="M24.6308 11.1372C24.2057 10.8291 23.5336 11.0303 23.1328 11.5848C22.8829 11.9312 22.7963 12.3334 22.8699 12.662L21.8038 13.8542C21.8038 13.8542 19.5603 16.8189 16.6653 16.0868C14.351 15.5017 15.6178 11.3702 16.0585 10.1206C16.5502 10.1364 17.033 9.8814 17.2822 9.41753C17.6319 8.76646 17.3879 7.95608 16.7369 7.60634C16.0858 7.2566 15.2754 7.5006 14.9257 8.15168C14.675 8.61831 14.7309 9.16801 15.0239 9.57018C14.2707 10.6324 11.7063 13.9072 9.70652 12.347C7.67741 10.7622 8.72375 6.47326 9.04812 5.3279C9.43484 5.25184 9.79338 4.94427 9.96236 4.49762C10.2042 3.85597 9.96135 3.17216 9.42133 2.96898C8.88131 2.76581 8.24872 3.12128 8.00765 3.76156C7.83182 4.22758 7.91326 4.71652 8.1775 5.02696L4.08491 16.8458C4.08491 16.8458 4.96435 18.8737 9.40349 21.2583C13.8426 23.6428 16.019 23.2564 16.019 23.2564L23.633 13.2919C23.9964 13.2956 24.3991 13.0809 24.6745 12.7002C25.0773 12.1451 25.0573 11.4461 24.6308 11.1372Z" fill="#FFCA28"/>
<path d="M10.947 18.5172C11.6875 18.9149 12.6721 18.5219 13.1462 17.6393C13.6203 16.7567 13.4044 15.7187 12.6639 15.321C11.9235 14.9233 10.9389 15.3163 10.4648 16.1989C9.99069 17.0815 10.2066 18.1194 10.947 18.5172Z" fill="#1B3A4B"/>
<path d="M12.4517 15.7159C12.4729 15.8018 12.4628 15.9329 12.2528 16.0861C12.0428 16.2394 11.3586 16.2319 11.2305 16.2358C11.1018 16.2412 11.0511 16.1803 11.0334 16.1406C10.951 15.9473 11.1465 15.7154 11.3259 15.606C11.7125 15.3684 12.3293 15.2404 12.4517 15.7159Z" fill="#006466"/>
<path d="M11.3863 17.4618C11.1957 17.4534 10.5798 17.4081 10.6024 17.759C10.6152 17.9663 10.7793 18.1396 10.9579 18.2462C11.1365 18.3528 11.3479 18.3918 11.5554 18.3951C12.5407 18.41 13.166 17.3944 13.0589 17.234C12.9491 17.0686 12.7299 17.2257 12.6012 17.2737C12.2124 17.4152 11.7997 17.4791 11.3863 17.4618Z" fill="#144552"/>
<path d="M19.8928 19.5783C20.7457 18.5057 20.107 17.7796 20.107 17.7796C20.107 17.7796 19.6425 17.4094 18.6823 18.6159C17.7228 19.8209 18.1873 20.191 18.1873 20.191C18.1873 20.191 19.0386 20.6501 19.8928 19.5783Z" fill="#1B3A4B"/>
<path d="M20.1173 18.3084C20.1699 18.6595 19.7494 18.9107 19.2578 18.9641C19.1126 18.9801 18.987 18.8772 18.9989 18.8055C19.0342 18.601 19.1647 18.4175 19.3313 18.2924C19.8282 17.9154 20.0903 18.1307 20.1173 18.3084Z" fill="#006466"/>
<path d="M4.96212 11.6042C5.38337 10.3016 6.34355 10.4325 6.34355 10.4325C6.34355 10.4325 6.90864 10.6154 6.43294 12.0821C5.95798 13.5474 5.3929 13.3645 5.3929 13.3645C5.3929 13.3645 4.53874 12.9074 4.96212 11.6042Z" fill="#1B3A4B"/>
<path d="M6.37195 10.9673C6.48246 11.204 6.30989 11.3437 6.10359 11.3943C5.86765 11.4538 5.66149 11.547 5.43861 11.6383C5.40465 11.652 5.36646 11.667 5.32973 11.6561C5.25902 11.6359 5.24284 11.5438 5.25547 11.4708C5.28944 11.2655 5.40989 11.0677 5.58375 10.9554C6.07901 10.6343 6.32921 10.8752 6.37195 10.9673Z" fill="#006466"/>
<path d="M16.7832 19.3907C16.3977 19.8807 15.7622 20.0235 15.3618 19.7091C14.9613 19.3947 15.1485 18.901 15.534 18.4111C15.9196 17.9212 16.3555 17.6214 16.7546 17.9351C17.155 18.2496 17.1681 18.9022 16.7832 19.3907Z" fill="#4D194D"/>
<path d="M7.20847 14.2474C7.01286 14.8394 7.24459 15.4481 7.72785 15.6084C8.21111 15.7686 8.51937 15.34 8.71498 14.7481C8.91058 14.1561 8.91979 13.6272 8.43791 13.4676C7.95603 13.3081 7.40471 13.6576 7.20847 14.2474Z" fill="#4D194D"/>
<path d="M8.0422 14.2305C7.88108 14.2894 7.51407 14.3849 7.52052 14.1649C7.52932 13.8646 7.88536 13.5947 8.13615 13.5768C8.38694 13.559 8.48945 13.7347 8.45867 13.8547C8.41787 14.0066 8.18639 14.1767 8.0422 14.2305Z" fill="#FFA8A4" fill-opacity="0.1"/>
<path d="M15.6888 18.7831C15.5636 18.6893 15.8006 18.2118 16.3649 18.0396C16.6343 17.9573 16.7725 18.3011 16.5576 18.5492C16.3528 18.7851 15.9172 18.9555 15.6888 18.7831Z" fill="#FFA8A4" fill-opacity="0.1"/>
<path d="M17.2269 21.5889C16.1806 21.5589 13.6985 21.6428 10.2064 19.7669C6.71427 17.8911 5.41377 15.7753 4.81108 14.9195C4.81108 14.9195 4.43011 14.9188 4.34138 15.084L3.66039 16.3517C3.56944 16.521 3.57536 16.7246 3.67469 16.8897C4.11481 17.6157 5.59557 19.5675 9.25838 21.5351C12.9212 23.5026 15.3661 23.6595 16.2144 23.6256C16.3087 23.6219 16.4004 23.5936 16.4805 23.5436C16.5605 23.4936 16.6261 23.4236 16.6709 23.3405L17.3519 22.0728C17.4378 21.9061 17.2269 21.5889 17.2269 21.5889Z" fill="#FFCA28"/>
<path d="M6.71967 18.1849C7.06442 18.4676 7.16368 18.5635 7.02218 18.7642C6.7415 19.1579 5.91866 18.5865 5.47292 18.1714C4.55222 17.3133 4.49445 16.8991 4.63716 16.6335C4.76803 16.3898 4.97076 16.4615 5.2051 16.7186C5.48479 17.0267 5.90796 17.5201 6.71967 18.1849Z" fill="#FFF59D"/>
<path d="M17.0777 21.8669C17.0777 21.8669 14.1033 21.9328 10.1762 19.8233C6.24913 17.7138 4.66187 15.1975 4.66187 15.1975" stroke="#F19534" stroke-width="4" stroke-miterlimit="10" stroke-linecap="round"/>
<path d="M9.51156 8.81735C10.5248 8.68765 11.422 7.96173 12.2579 6.48812C12.3332 6.3547 12.3931 6.33549 12.4705 6.36642C12.5942 6.41688 12.5565 6.53322 12.5145 6.60818C11.6163 8.20092 10.8708 9.09695 9.754 9.22782C9.69929 9.2339 9.32119 9.25428 9.26439 9.06946C9.19528 8.85143 9.44701 8.82524 9.51156 8.81735Z" fill="#FFCA28"/>
<path d="M12.698 4.49332C12.8084 4.23161 13.1072 3.81393 13.8705 3.96143C14.0936 4.00501 14.1617 4.1622 14.1446 4.24699C14.102 4.45826 13.9039 4.44406 13.8184 4.42828C13.2287 4.32082 13.0694 4.55803 12.8804 4.66225C12.6914 4.76646 12.6655 4.57346 12.698 4.49332Z" fill="#FFCA28"/>
<path d="M16.7435 12.2763C17.7213 12.0442 18.5131 11.6235 19.6051 10.284C19.7023 10.1659 19.76 10.1508 19.8301 10.192C19.9456 10.2576 19.8927 10.3693 19.8404 10.4369C18.7392 11.8993 18.2626 12.2286 16.9605 12.6945C16.8136 12.7468 16.5397 12.7185 16.47 12.5445C16.4067 12.3881 16.621 12.3063 16.7435 12.2763Z" fill="#FFCA28"/>
<path d="M20.05 8.45841C20.1604 8.19669 20.4593 7.77902 21.2226 7.92651C21.4457 7.9701 21.5138 8.12729 21.4966 8.21207C21.4541 8.42334 21.2559 8.40915 21.1704 8.39336C20.5808 8.28591 20.4214 8.52312 20.2324 8.62733C20.0448 8.73229 20.0176 8.53855 20.05 8.45841Z" fill="#FFCA28"/>
<path d="M8.51696 12.1942C7.30715 10.6096 7.85307 8.46406 8.04397 7.50773C8.06935 7.38125 8.14132 7.28688 8.26781 7.31226C8.3943 7.33764 8.42128 7.44259 8.39728 7.56982C8.25882 8.26343 7.89578 10.6331 9.04958 11.9819C9.13338 12.0801 9.24458 12.2693 9.06269 12.3933C8.94361 12.473 8.71151 12.4495 8.51696 12.1942Z" fill="#FFF59D"/>
<path d="M9.38857 4.32784C9.39725 4.12676 9.44693 3.95834 9.12101 3.55801C9.03868 3.45703 9.02097 3.32159 9.10903 3.227C9.19709 3.13241 9.35157 3.10897 9.49646 3.22227C9.96733 3.5905 9.79701 4.17832 9.72069 4.37322C9.6467 4.5605 9.38125 4.52966 9.38857 4.32784Z" fill="#FFF59D"/>
<path d="M17.5027 17.0209C19.4919 17.1547 20.9793 15.5149 21.6712 14.8277C21.7627 14.7367 21.8016 14.6246 21.7106 14.5332C21.6196 14.4417 21.5172 14.4772 21.4244 14.5674C20.9226 15.0658 19.1472 16.6769 17.3857 16.4596C17.2575 16.444 17.0383 16.4557 17.0354 16.6759C17.0347 16.8191 17.1825 16.9996 17.5027 17.0209Z" fill="#FFF59D"/>
<path d="M23.5802 11.951C23.743 11.8327 23.856 11.6983 24.3697 11.749C24.4994 11.7619 24.6221 11.7019 24.6523 11.5762C24.6826 11.4506 24.6168 11.3088 24.4424 11.2506C23.8754 11.0613 23.4793 11.5279 23.3589 11.6991C23.2437 11.8642 23.4173 12.0692 23.5802 11.951Z" fill="#FFF59D"/>
<path d="M15.4531 8.45813C15.6294 8.33117 15.9032 8.17491 16.4368 8.33386C16.6419 8.39439 16.7385 8.3434 16.7871 8.21339C16.8893 7.94375 16.5659 7.79306 16.3751 7.74203C15.7398 7.57102 15.3454 8.00477 15.2155 8.19042C15.0908 8.36643 15.278 8.58583 15.4531 8.45813Z" fill="#FFF59D"/>
</g>
<defs>
<clipPath id="clip0_139_509">
<rect width="20" height="20" fill="white" transform="translate(9.46436) rotate(28.2433)"/>
</clipPath>
</defs>
</svg>
