<svg width="16" height="16" viewBox="0 0 16 16" fill="none" xmlns="http://www.w3.org/2000/svg">
<path fill-rule="evenodd" clip-rule="evenodd" d="M2 7.25C2 4.3505 4.3505 2 7.25 2C10.1495 2 12.5 4.3505 12.5 7.25C12.5 8.66216 11.9425 9.94409 11.0355 10.8877C11.0082 10.9083 10.982 10.9311 10.9571 10.956C10.9322 10.9809 10.9093 11.0072 10.8887 11.0345C9.94498 11.9421 8.66264 12.5 7.25 12.5C4.3505 12.5 2 10.1495 2 7.25ZM11.4639 12.5234C10.309 13.4475 8.84404 14 7.25 14C3.52208 14 0.5 10.9779 0.5 7.25C0.5 3.52208 3.52208 0.5 7.25 0.5C10.9779 0.5 14 3.52208 14 7.25C14 8.84348 13.4478 10.308 12.5244 11.4627L15.2803 14.2185C15.5732 14.5114 15.5732 14.9863 15.2803 15.2792C14.9874 15.5721 14.5125 15.5721 14.2196 15.2792L11.4639 12.5234Z" fill="#4B4D53"/>
</svg>
