<svg width="16" height="15" viewBox="0 0 16 15" fill="none" xmlns="http://www.w3.org/2000/svg">
<path d="M14.9803 13.5811L12.29 10.9091C14.3907 8.21878 14.1696 4.3858 11.7555 1.97181C10.484 0.700277 8.78869 0 6.9828 0C5.17694 0 3.48158 0.700277 2.21009 1.97181C0.938558 3.24333 0.238281 4.93863 0.238281 6.74452C0.238281 8.55041 0.938558 10.2457 2.21009 11.5172C3.48162 12.7888 5.17691 13.489 6.9828 13.489C8.47539 13.489 9.94963 12.9915 11.129 12.0517L13.8009 14.7604C13.9668 14.9262 14.1694 15 14.3907 15C14.6118 15 14.8145 14.9078 14.9804 14.7604C15.3121 14.4472 15.3121 13.9128 14.9803 13.581L14.9803 13.5811ZM12.0689 6.74449C12.0689 8.10815 11.5346 9.37955 10.5763 10.3378C9.61803 11.2961 8.32814 11.8304 6.98293 11.8304C5.63773 11.8304 4.34787 11.2961 3.38958 10.3378C2.43128 9.37958 1.89698 8.08969 1.89698 6.74449C1.89698 5.38082 2.43131 4.10942 3.38958 3.15113C4.34784 2.19284 5.63773 1.65854 6.98293 1.65854C8.3466 1.65854 9.618 2.19287 10.5763 3.15113C11.5344 4.10926 12.0689 5.38079 12.0689 6.74449Z" fill="#4B4D53"/>
</svg>
