<svg width="20" height="20" viewBox="0 0 20 20" fill="none" xmlns="http://www.w3.org/2000/svg">
<path fill-rule="evenodd" clip-rule="evenodd" d="M10 20C15.5229 20 20 15.5228 20 10C20 4.47717 15.5229 0 10 0C4.47705 0 0 4.47717 0 10C0 15.5228 4.47705 20 10 20ZM8.9375 6.95789C8.9375 8.04138 8.05811 8.91589 6.96875 8.91589C5.87939 8.91589 5 8.04138 5 6.95789C5 5.87451 5.87939 5 6.96875 5C8.05811 5 8.9375 5.87451 8.9375 6.95789ZM15.5 6.95789C15.5 8.04138 14.6206 8.91589 13.5312 8.91589C12.4419 8.91589 11.5625 8.04138 11.5625 6.95789C11.5625 5.87451 12.4419 5 13.5312 5C14.6206 5 15.5 5.87451 15.5 6.95789ZM15.5 11.8528C15.5 13.2234 14.0168 16.095 10.25 16.095C6.53564 16.095 5 13.2755 5 11.8528C5 11.3307 5.40698 10.8738 5.98438 10.8738H14.5156C15.093 10.8738 15.5 11.3307 15.5 11.8528Z" fill="white"/>
</svg>
