<svg width="76" height="76" viewBox="0 0 76 76" fill="none" xmlns="http://www.w3.org/2000/svg">
<path d="M0 0H76V76H0V0Z" fill="#D8D7D7"/>
<path d="M25.8333 53.0833C25.8333 49.9892 27.0625 47.0217 29.2504 44.8338C31.4384 42.6458 34.4058 41.4167 37.5 41.4167C40.5942 41.4167 43.5617 42.6458 45.7496 44.8338C47.9375 47.0217 49.1667 49.9892 49.1667 53.0833H46.25C46.25 50.7627 45.3281 48.5371 43.6872 46.8962C42.0463 45.2552 39.8207 44.3333 37.5 44.3333C35.1794 44.3333 32.9538 45.2552 31.3128 46.8962C29.6719 48.5371 28.75 50.7627 28.75 53.0833H25.8333ZM37.5 39.9583C32.6656 39.9583 28.75 36.0427 28.75 31.2083C28.75 26.374 32.6656 22.4583 37.5 22.4583C42.3344 22.4583 46.25 26.374 46.25 31.2083C46.25 36.0427 42.3344 39.9583 37.5 39.9583ZM37.5 37.0417C40.7229 37.0417 43.3333 34.4313 43.3333 31.2083C43.3333 27.9854 40.7229 25.375 37.5 25.375C34.2771 25.375 31.6667 27.9854 31.6667 31.2083C31.6667 34.4313 34.2771 37.0417 37.5 37.0417Z" fill="#AAAEBA"/>
</svg>
