<svg width="18" height="18" viewBox="0 0 18 18" fill="none" xmlns="http://www.w3.org/2000/svg">
<path fill-rule="evenodd" clip-rule="evenodd" d="M6.75 5.25C6.75 4.00736 7.75736 3 9 3C10.2426 3 11.25 4.00736 11.25 5.25C11.25 6.49264 10.2426 7.5 9 7.5C7.75736 7.5 6.75 6.49264 6.75 5.25ZM9 1.5C6.92893 1.5 5.25 3.17893 5.25 5.25C5.25 7.32107 6.92893 9 9 9C11.0711 9 12.75 7.32107 12.75 5.25C12.75 3.17893 11.0711 1.5 9 1.5ZM6 10.5C5.00544 10.5 4.05161 10.8951 3.34835 11.5984C2.64509 12.3016 2.25 13.2554 2.25 14.25V15.75C2.25 16.1642 2.58579 16.5 3 16.5C3.41421 16.5 3.75 16.1642 3.75 15.75V14.25C3.75 13.6533 3.98705 13.081 4.40901 12.659C4.83097 12.2371 5.40326 12 6 12H12C12.5967 12 13.169 12.2371 13.591 12.659C14.0129 13.081 14.25 13.6533 14.25 14.25V15.75C14.25 16.1642 14.5858 16.5 15 16.5C15.4142 16.5 15.75 16.1642 15.75 15.75V14.25C15.75 13.2554 15.3549 12.3016 14.6517 11.5984C13.9484 10.8951 12.9946 10.5 12 10.5H6Z" fill="#4B4D53"/>
</svg>
