<svg width="15" height="16" viewBox="0 0 15 16" fill="none" xmlns="http://www.w3.org/2000/svg">
<path d="M12.4317 1H3.10383C2.5474 1.00499 2.01518 1.22825 1.62171 1.62171C1.22825 2.01518 1.00499 2.5474 1 3.10383V12.8962C1.00499 13.4526 1.22825 13.9848 1.62171 14.3783C2.01518 14.7718 2.5474 14.995 3.10383 15H12.4317C12.9881 14.995 13.5203 14.7718 13.9138 14.3783C14.3073 13.9848 14.5305 13.4526 14.5355 12.8962V3.10383C14.5305 2.5474 14.3073 2.01518 13.9138 1.62171C13.5203 1.22825 12.9881 1.00499 12.4317 1ZM13.388 12.8962C13.3831 13.1483 13.2808 13.3887 13.1025 13.567C12.9242 13.7452 12.6838 13.8476 12.4317 13.8525H3.10383C2.85174 13.8476 2.61134 13.7452 2.43305 13.567C2.25476 13.3887 2.15244 13.1483 2.14754 12.8962V7.17122H13.388V12.8962ZM2.14754 6.02368V3.10383C2.15244 2.85174 2.25476 2.61134 2.43305 2.43305C2.61134 2.25476 2.85174 2.15244 3.10383 2.14754H12.4317C12.6838 2.15244 12.9242 2.25476 13.1025 2.43305C13.2808 2.61134 13.3831 2.85174 13.388 3.10383V6.02368H2.14754Z" fill="#53B36E" stroke="#53B36E" stroke-width="0.2"/>
<path d="M10.8059 3.56641H4.72939C4.57721 3.56641 4.43127 3.62686 4.32367 3.73446C4.21607 3.84206 4.15562 3.988 4.15562 4.14018C4.15294 4.21625 4.16596 4.29205 4.19385 4.36287C4.22174 4.43369 4.2639 4.49802 4.31773 4.55184C4.37155 4.60566 4.43587 4.64783 4.50669 4.67572C4.57751 4.70361 4.65332 4.71662 4.72939 4.71395H10.8059C10.882 4.71662 10.9578 4.70361 11.0286 4.67572C11.0994 4.64783 11.1637 4.60566 11.2175 4.55184C11.2714 4.49802 11.3135 4.43369 11.3414 4.36287C11.3693 4.29205 11.3823 4.21625 11.3797 4.14018C11.3797 3.988 11.3192 3.84206 11.2116 3.73446C11.104 3.62686 10.9581 3.56641 10.8059 3.56641Z" fill="#53B36E" stroke="#53B36E" stroke-width="0.2"/>
</svg>
