<svg width="22" height="22" viewBox="0 0 22 22" fill="none" xmlns="http://www.w3.org/2000/svg">
<path d="M18.0278 7.75723C18.4922 7.75723 18.9444 7.37534 18.9444 6.86217V4.77368H21.0833C21.5478 4.77368 22 4.39179 22 3.87862C22 3.37738 21.5967 2.98355 21.0833 2.98355H18.9444V0.895065C18.9444 0.393828 18.5411 0 18.0278 0C17.5144 0 17.1111 0.393828 17.1111 0.895065V2.98355H14.9722C14.4589 2.98355 14.0556 3.37738 14.0556 3.87862C14.0556 4.36792 14.4589 4.77368 14.9722 4.77368H17.1111V6.86217C17.1111 7.35147 17.5144 7.75723 18.0278 7.75723ZM9.77778 21.4816C15.18 21.4816 19.5556 17.2091 19.5556 11.9342C19.5556 11.3972 19.5067 10.8363 19.4089 10.2753C19.3356 9.86958 18.9444 9.54736 18.5044 9.54736C18.0033 9.54736 17.5878 9.95312 17.5878 10.4424C17.5878 10.6453 17.7222 11.1823 17.7222 11.9342C17.7222 16.2186 14.1656 19.6914 9.77778 19.6914C5.39 19.6914 1.83333 16.2186 1.83333 11.9342C1.83333 7.64982 5.39 4.17697 9.77778 4.17697C10.4011 4.17697 11.1589 4.30825 11.3056 4.30825C11.8067 4.30825 12.2222 3.90248 12.2222 3.41318C12.2222 2.97162 11.88 2.63746 11.4644 2.53005C11.1711 2.45844 10.5967 2.38684 9.77778 2.38684C4.37556 2.38684 0 6.65928 0 11.9342C0 17.2091 4.37556 21.4816 9.77778 21.4816ZM6.72222 11.3375C7.73667 11.3375 8.55556 10.5379 8.55556 9.54736C8.55556 8.55682 7.73667 7.75723 6.72222 7.75723C5.70778 7.75723 4.88889 8.55682 4.88889 9.54736C4.88889 10.5379 5.70778 11.3375 6.72222 11.3375ZM12.8333 11.3375C13.8478 11.3375 14.6667 10.5379 14.6667 9.54736C14.6667 8.55682 13.8478 7.75723 12.8333 7.75723C11.8189 7.75723 11 8.55682 11 9.54736C11 10.5379 11.8189 11.3375 12.8333 11.3375ZM9.77778 17.9013C13.2856 17.9013 14.6667 15.2758 14.6667 14.0227C14.6667 13.5453 14.2878 13.1276 13.75 13.1276H5.80556C5.26778 13.1276 4.88889 13.5453 4.88889 14.0227C4.88889 15.3235 6.31889 17.9013 9.77778 17.9013Z" fill="#ACACAC"/>
</svg>
