<svg width="19" height="18" viewBox="0 0 19 18" fill="none" xmlns="http://www.w3.org/2000/svg">
<path d="M15.0025 5.99998C13.348 5.99998 12.0026 4.6545 12.0026 2.99999C12.0026 1.34548 13.348 0 15.0025 0C16.6571 0 18.0025 1.34548 18.0025 2.99999C18.0025 4.6545 16.6571 5.99998 15.0025 5.99998ZM15.0025 1.49993C14.1752 1.49993 13.5025 2.17269 13.5025 2.99999C13.5025 3.82729 14.1752 4.50005 15.0025 4.50005C15.8298 4.50005 16.5026 3.82729 16.5026 2.99999C16.5026 2.17269 15.8298 1.49993 15.0025 1.49993ZM13.384 18H3.12097C1.40118 18 0.00244141 16.6013 0.00244141 14.8815V4.61846C0.00244141 2.89867 1.40118 1.49993 3.12097 1.49993H10.5027C10.9174 1.49993 11.2526 1.83592 11.2526 2.2499C11.2526 2.66387 10.9174 2.99986 10.5027 2.99986H3.12097C2.22849 2.99986 1.5025 3.72585 1.5025 4.61834V14.8813C1.5025 15.7738 2.22849 16.4998 3.12097 16.4998H13.384C14.2765 16.4998 15.0025 15.7738 15.0025 14.8813V7.49965C15.0025 7.08568 15.3377 6.74969 15.7524 6.74969C16.1671 6.74969 16.5024 7.08568 16.5024 7.49965V14.8813C16.5024 16.6011 15.1036 17.9999 13.3838 17.9999L13.384 18Z" fill="#4B4D53"/>
</svg>
