<svg width="34" height="27" viewBox="0 0 34 27" fill="none" xmlns="http://www.w3.org/2000/svg">
<path d="M30.3004 11.3554C30.0255 11.1462 29.6916 11.0117 29.3369 10.9671C28.9821 10.9226 28.6208 10.9698 28.294 11.1035L22.2148 13.5674L18.6826 7.76353C18.5138 7.49256 18.2691 7.26722 17.9737 7.11045C17.6782 6.95368 17.3424 6.87109 17.0006 6.87109C16.6587 6.87109 16.3229 6.95368 16.0275 7.11045C15.732 7.26722 15.4874 7.49256 15.3186 7.76353L11.7864 13.5674L5.70711 11.1035C5.37972 10.97 5.01791 10.9227 4.66256 10.9669C4.30722 11.0111 3.97252 11.1449 3.69629 11.3534C3.42006 11.5619 3.21333 11.8367 3.09946 12.1466C2.9856 12.4566 2.96914 12.7894 3.05194 13.1075L6.10358 24.9671C6.16193 25.1967 6.27082 25.4131 6.42364 25.6032C6.57646 25.7934 6.77004 25.9532 6.99264 26.0731C7.29401 26.2376 7.63859 26.3246 7.98983 26.325C8.16057 26.3247 8.33043 26.3026 8.49443 26.2593C14.0568 24.8576 19.9323 24.8576 25.4947 26.2593C26.0026 26.381 26.5427 26.314 26.9965 26.0731C27.2205 25.9547 27.4151 25.7953 27.5681 25.605C27.7211 25.4146 27.8292 25.1974 27.8855 24.9671L30.9492 13.1075C31.0311 12.7893 31.0137 12.4567 30.8991 12.1471C30.7844 11.8374 30.5771 11.5632 30.3004 11.3554Z" fill="#7A7D86"/>
<ellipse cx="17" cy="3.92634" rx="4" ry="3.92634" fill="#7A7D86"/>
<ellipse cx="31.5" cy="10.3067" rx="2.5" ry="2.45396" fill="#7A7D86"/>
<ellipse cx="2.5" cy="10.3067" rx="2.5" ry="2.45396" fill="#7A7D86"/>
<ellipse cx="9.5" cy="19.1408" rx="1.5" ry="1.47238" fill="#4B4D53"/>
<ellipse cx="24.5" cy="19.1408" rx="1.5" ry="1.47238" fill="#4B4D53"/>
<path d="M15.422 17.2029L13.588 17.1469C13.56 17.0209 13.518 16.7409 13.518 16.5169C13.518 14.9209 14.722 13.4789 16.836 13.4789C18.866 13.4789 20.112 14.8229 20.112 16.4049C20.112 17.5809 19.468 18.5329 18.348 19.2189L16.598 20.2829C16.248 20.5069 15.954 20.7589 15.814 21.1089H20.168V22.7749H13.448C13.462 21.1789 13.966 19.8769 15.59 18.8969L17.088 18.0009C17.858 17.5389 18.166 17.0629 18.166 16.4329C18.166 15.7749 17.704 15.1869 16.794 15.1869C15.828 15.1869 15.352 15.8449 15.352 16.6989C15.352 16.8669 15.38 17.0489 15.422 17.2029Z" fill="white"/>
</svg>
