<svg width="12" height="13" viewBox="0 0 12 13" fill="none" xmlns="http://www.w3.org/2000/svg">
<path fill-rule="evenodd" clip-rule="evenodd" d="M1.93934 1.43934C2.22064 1.15804 2.60218 1 3 1H7C7.13261 1 7.25979 1.05268 7.35355 1.14645L10.3536 4.14645C10.4473 4.24021 10.5 4.36739 10.5 4.5V10.5C10.5 10.8978 10.342 11.2794 10.0607 11.5607C9.77936 11.842 9.39783 12 9 12H3C2.60217 12 2.22064 11.842 1.93934 11.5607C1.65804 11.2794 1.5 10.8978 1.5 10.5V2.5C1.5 2.10218 1.65804 1.72064 1.93934 1.43934ZM3 2C2.86739 2 2.74021 2.05268 2.64645 2.14645C2.55268 2.24021 2.5 2.36739 2.5 2.5V10.5C2.5 10.6326 2.55268 10.7598 2.64645 10.8536C2.74021 10.9473 2.86739 11 3 11H9C9.13261 11 9.25978 10.9473 9.35355 10.8536C9.44732 10.7598 9.5 10.6326 9.5 10.5V4.70711L6.79289 2H3Z" fill="#53B36E"/>
<path fill-rule="evenodd" clip-rule="evenodd" d="M7 1C7.27614 1 7.5 1.22386 7.5 1.5V4H10C10.2761 4 10.5 4.22386 10.5 4.5C10.5 4.77614 10.2761 5 10 5H7C6.72386 5 6.5 4.77614 6.5 4.5V1.5C6.5 1.22386 6.72386 1 7 1Z" fill="#53B36E"/>
<path fill-rule="evenodd" clip-rule="evenodd" d="M4 8C4 7.72386 4.22386 7.5 4.5 7.5H7.5C7.77614 7.5 8 7.72386 8 8C8 8.27614 7.77614 8.5 7.5 8.5H4.5C4.22386 8.5 4 8.27614 4 8Z" fill="#53B36E"/>
</svg>
