<svg width="27" height="27" viewBox="0 0 27 27" fill="none" xmlns="http://www.w3.org/2000/svg">
<rect opacity="0.15" width="27" height="27" rx="13.5" fill="white"/>
<path fill-rule="evenodd" clip-rule="evenodd" d="M11 9C11 8.44772 10.5523 8 10 8C9.44772 8 9 8.44772 9 9V18C9 18.5523 9.44772 19 10 19C10.5523 19 11 18.5523 11 18V9ZM17.75 9C17.75 8.44772 17.3023 8 16.75 8C16.1977 8 15.75 8.44772 15.75 9V18C15.75 18.5523 16.1977 19 16.75 19C17.3023 19 17.75 18.5523 17.75 18V9Z" fill="white"/>
</svg>
