<?xml version="1.0" encoding="UTF-8"?>
<svg width="18px" height="19px" viewBox="0 0 18 19" version="1.1" xmlns="http://www.w3.org/2000/svg" xmlns:xlink="http://www.w3.org/1999/xlink">
    <title>delete icon</title>
    <g id="Page-1" stroke="none" stroke-width="1" fill="none" fill-rule="evenodd">
        <g id="Manage-screen" transform="translate(-20.000000, -567.000000)" fill="#4B4D53" fill-rule="nonzero" stroke="#4B4D53" stroke-width="0.3">
            <g id="Group" transform="translate(20.000000, 566.000000)">
                <path d="M16.2999151,5.39985648 C16.6128748,5.39985648 16.8665787,5.65356038 16.8665787,5.96652001 C16.8665787,6.27947963 16.6128748,6.53318353 16.2999151,6.53318353 L16.2999151,6.53318353 L15.1416549,6.53318353 L14.6503576,17.3768567 C14.6091234,18.28551 13.859955,19.0007162 12.9503671,18.999782 L12.9503671,18.999782 L4.9179116,18.999782 C4.00853322,19.0007298 3.25944884,18.2858536 3.21792103,17.3774234 L3.21792103,17.3774234 L2.72492377,6.53318353 L1.56666352,6.53318353 C1.2537039,6.53318353 1,6.27947963 1,5.96652001 C1,5.65356038 1.2537039,5.39985648 1.56666352,5.39985648 L1.56666352,5.39985648 Z M14.0066279,6.53318353 L3.85995081,6.53318353 L4.34954809,17.3252903 C4.3631949,17.6282491 4.61294576,17.8667612 4.91621161,17.8664543 L4.91621161,17.8664543 L12.9498004,17.8664543 C13.2530662,17.8667612 13.5028171,17.6282491 13.5164639,17.3252903 L13.5164639,17.3252903 L14.0066279,6.53318353 Z M8.93328933,9.36650115 C9.24624896,9.36650115 9.49995286,9.62020505 9.49995286,9.93316467 L9.49995286,9.93316467 L9.49995286,15.0331364 C9.49995286,15.346096 9.24624896,15.5997999 8.93328933,15.5997999 C8.62032971,15.5997999 8.36662581,15.346096 8.36662581,15.0331364 L8.36662581,15.0331364 L8.36662581,9.93316467 C8.36662581,9.62020505 8.62032971,9.36650115 8.93328933,9.36650115 Z M11.766607,10.4998282 C12.0795666,10.4998282 12.3332705,10.7535321 12.3332705,11.0664917 L12.3332705,11.0664917 L12.3332705,13.8998093 C12.3332705,14.212769 12.0795666,14.4664729 11.766607,14.4664729 C11.4536473,14.4664729 11.1999434,14.212769 11.1999434,13.8998093 L11.1999434,13.8998093 L11.1999434,11.0664917 C11.1999434,10.7535321 11.4536473,10.4998282 11.766607,10.4998282 Z M6.09997172,10.4998282 C6.41293134,10.4998282 6.66663524,10.7535321 6.66663524,11.0664917 L6.66663524,11.0664917 L6.66663524,13.8998093 C6.66663524,14.212769 6.41293134,14.4664729 6.09997172,14.4664729 C5.78701209,14.4664729 5.53330819,14.212769 5.53330819,13.8998093 L5.53330819,13.8998093 L5.53330819,11.0664917 C5.53330819,10.7535321 5.78701209,10.4998282 6.09997172,10.4998282 Z M8.93328933,2 C9.9454848,2 10.8808001,2.53997288 11.3869424,3.41653415 C11.5436053,3.68726149 11.4512829,4.03372414 11.1806769,4.19059652 C10.9091049,4.34280155 10.565707,4.25079306 10.4066145,3.98319767 C10.1032269,3.4561534 9.54141734,3.13131141 8.93328933,3.13131141 C8.32516133,3.13131141 7.76335173,3.4561534 7.45996417,3.98319767 C7.36348242,4.1676344 7.173651,4.28432975 6.96552196,4.28714686 C6.75739291,4.28996397 6.56447258,4.17844933 6.46303423,3.99669153 C6.36159589,3.81493373 6.36796992,3.59219365 6.47963628,3.41653415 C6.98577854,2.53997288 7.92109387,2 8.93328933,2 Z" id="delete-icon"></path>
            </g>
        </g>
    </g>
</svg>