<svg width="118" height="105" viewBox="0 0 118 105" fill="none" xmlns="http://www.w3.org/2000/svg">
<path d="M49.896 80.4957L50.4633 70.8672L46.8459 70.6831L46.2786 80.2655C46.0554 83.7726 47.2643 87.1049 49.6914 89.6639C52.0256 92.1308 55.1687 93.53 58.5722 93.6312V90.0597C56.1823 89.9584 53.9784 88.9643 52.3324 87.2245C50.6028 85.3927 49.7286 82.9994 49.896 80.4865V80.4957Z" fill="white"/>
<path d="M86.8233 79.5389C86.7117 79.051 86.535 78.5908 86.2933 78.1582C85.5679 76.851 85.0751 75.4703 84.8798 73.9883C84.7031 72.6444 84.7682 71.3096 85.0472 69.9841C85.5865 67.3607 84.4148 64.8109 82.0621 63.513C81.0299 62.9423 79.542 62.6569 78.733 61.8561C77.5799 60.7054 77.1986 58.8828 76.5849 57.3456C75.7479 55.2469 74.2043 53.9766 71.9631 53.5347C71.368 53.4151 70.7728 53.4519 70.1777 53.4795C67.3135 53.6084 64.7469 52.8075 62.4407 51.1322C61.5666 50.4971 60.5809 50.1473 59.5115 50.0276C59.4743 50.0276 59.4371 50.0092 59.3999 50H58.3212C58.0422 50.046 57.7725 50.0921 57.5028 50.1473C56.6938 50.3314 55.9777 50.6996 55.3175 51.1967C53.8668 52.3013 52.193 52.9364 50.4354 53.3414C49.3939 53.5808 48.3338 53.6268 47.2644 53.5531C44.6141 53.3782 42.2335 54.9247 41.285 57.41C40.6805 59.0025 39.7971 60.4201 38.5882 61.6351C37.7884 62.436 36.8864 63.0895 35.9007 63.6418C34.1803 64.6084 33.1481 66.0536 32.8134 67.9774C32.6832 68.7046 32.739 69.4318 32.8877 70.1498C33.5108 73.0586 33.0923 75.8201 31.6695 78.4343C31.2976 79.1247 31.0837 79.8611 31.0279 80.6343C31.0279 80.6803 31.0093 80.7172 31 80.7632V81.4996C31.0279 81.7113 31.0651 81.923 31.093 82.1347C31.3069 83.3774 31.8648 84.4452 32.7669 85.3473C34.5151 87.0962 35.6403 89.1858 36.1239 91.5975C36.2262 92.0946 36.2355 92.6008 36.3006 93.1071C36.5702 95.1138 37.6118 96.6142 39.3879 97.6176C40.011 97.9674 40.6898 98.1331 41.3779 98.2987C44.084 98.9707 46.2972 100.416 47.9897 102.607C49.0684 103.997 50.4819 104.779 52.2302 104.972C52.2581 104.972 52.2767 104.991 52.3046 105H53.3554C53.6343 104.945 53.9226 104.917 54.1923 104.844C54.7688 104.678 55.3361 104.466 55.9127 104.31C58.2096 103.665 60.4879 103.748 62.7662 104.411C63.4729 104.613 64.189 104.788 64.8957 104.972C64.9143 104.972 64.9329 104.991 64.9515 105H65.3235C65.6304 104.954 65.9465 104.917 66.2534 104.862C67.8157 104.604 69.1176 103.886 70.094 102.634C70.9588 101.521 71.9445 100.536 73.1255 99.7531C74.3716 98.9339 75.72 98.3816 77.18 98.0686C79.542 97.5623 81.4856 95.4912 81.8017 93.1255C81.8947 92.4536 81.9412 91.7724 82.0621 91.1096C82.4713 88.9464 83.4849 87.0686 84.9914 85.4669C85.4656 84.9607 85.9399 84.4544 86.2747 83.8377C86.6559 83.1289 86.8884 82.3833 86.9721 81.5824C86.9721 81.5548 86.9907 81.5272 87 81.4904V80.4226C86.9442 80.128 86.8977 79.8335 86.8326 79.5389H86.8233ZM69.6662 90.9715C66.8672 93.9264 63.0731 95.5464 58.9814 95.5464C54.8897 95.5464 51.0956 93.9172 48.2966 90.9715C45.5068 88.0259 44.1119 84.1782 44.3723 80.1556L45.0325 69.1004L45.2836 64.995C45.2836 64.8569 45.2929 64.369 45.6649 63.9732C45.9532 63.6695 46.3623 63.513 46.8924 63.513C46.9854 63.513 47.0877 63.513 47.19 63.5314C48.6964 63.6787 51.2165 63.7615 51.2351 63.7615C51.2816 63.7615 51.7931 63.7799 52.2116 64.2033C52.5742 64.5808 52.7416 65.1331 52.7044 65.851L52.4812 69.1372V69.4778L51.8024 80.6159C51.6722 82.595 52.3603 84.482 53.7273 85.9272C55.1036 87.3724 56.9635 88.1732 58.9721 88.1732C60.9807 88.1732 62.8499 87.3724 64.2169 85.9272C65.5839 84.482 66.272 82.595 66.1418 80.6159L65.5374 71.2728L65.4909 70.877L65.1189 64.8753C65.0817 64.3506 65.4909 63.8996 66.0209 63.8628L71.5633 63.513H71.6098C72.1119 63.513 72.5397 63.8996 72.5676 64.4059L72.8838 69.5423L72.921 69.9105L73.5812 80.1464C73.8416 84.1782 72.4467 88.0167 69.6569 90.9715H69.6662Z" fill="white"/>
<path d="M44.7722 68.3359L53.0764 68.8514" stroke="white" stroke-width="2" stroke-miterlimit="10"/>
<path d="M73.3115 68.3359L65.0073 68.8514" stroke="white" stroke-width="2" stroke-miterlimit="10"/>
<path d="M53.5294 97.9203L52.6935 97.881C52.6889 97.9719 52.6817 98.1836 52.6893 98.3039C52.6851 98.7269 52.6876 100.236 52.7756 100.654C53.1829 102.416 54.8477 102.841 55.6292 102.833L55.578 102.021C54.0639 101.897 53.5749 100.765 53.5196 100.215L53.5294 97.9203Z" fill="white"/>
<path d="M52.4377 96.8604L51.6007 96.8026C51.5973 96.912 51.5928 97.1669 51.6019 97.3118C51.6032 97.821 51.6251 99.6383 51.7185 100.142C52.1488 102.269 53.8204 102.801 54.6024 102.802L54.5407 101.824C53.0238 101.655 52.5199 100.287 52.4575 99.6236L52.4377 96.8604Z" fill="white"/>
<path d="M18.151 45.1415C12.0043 46.9958 5.94151 49.2721 0 51.9701C0 38.9212 0 25.8722 0 12.8233C5.94151 10.1252 12.0043 7.84896 18.151 5.99463V14.4029C14.6439 15.4625 11.1648 16.6496 7.72303 17.984C7.72303 20.3092 7.72303 22.6443 7.72303 24.9696C11.1648 23.6353 14.6439 22.4383 18.151 21.3885V29.7673C14.6439 30.8269 11.1648 32.0141 7.72303 33.3484C7.72303 35.6737 7.72303 38.0087 7.72303 40.334C11.1648 38.9997 14.6439 37.8027 18.151 36.7529V45.1317V45.1415Z" fill="white"/>
<path d="M44.1368 34.3099C42.3366 36.3702 40.5271 38.46 38.7363 40.5793C33.3451 41.3642 27.9725 42.4532 22.6653 43.866V4.71914C27.9725 3.30632 33.3357 2.21727 38.7363 1.43237C40.5364 3.04142 42.3366 4.6799 44.1368 6.34781V34.3001V34.3099ZM36.022 32.6223V10.2625C34.2312 10.5568 32.4496 10.8806 30.6775 11.2436V33.6035C32.459 33.2405 34.2405 32.9167 36.022 32.6223Z" fill="white"/>
<path d="M69.843 0.39245C67.1288 7.08372 64.4052 13.8437 61.6816 20.6919V39.1469C58.9673 39.0978 56.2531 39.1175 53.5482 39.2254V20.7704C50.8339 13.981 48.129 7.26033 45.4241 0.62792C48.129 0.363016 50.8339 0.186414 53.5482 0.07849C54.91 3.66941 56.2717 7.27014 57.6242 10.9003C58.9767 7.25051 60.3291 3.61054 61.6816 0C64.4052 0.0490563 67.1194 0.186414 69.843 0.39245Z" fill="white"/>
<path d="M92.6575 37.5868C90.8853 39.0193 89.1038 40.4811 87.313 41.9822C83.7406 41.2562 80.1496 40.6675 76.5493 40.2162C74.7491 38.1264 72.9396 36.0661 71.1394 34.0449V6.0927C72.9489 4.38554 74.7491 2.70781 76.5493 1.06934C80.1496 1.52065 83.7406 2.10933 87.313 2.83536C89.0945 5.06251 90.876 7.32891 92.6575 9.63456V37.5868ZM84.6174 33.0834V10.7236C82.8359 10.3998 81.045 10.1055 79.2542 9.84059V32.2004C81.045 32.4555 82.8265 32.7499 84.6174 33.0834Z" fill="white"/>
<path d="M118 46.3779C116.302 47.4669 114.595 48.5952 112.879 49.7628C109.447 48.3598 105.977 47.0941 102.47 45.9658C100.716 43.5326 98.9628 41.1387 97.2 38.784C97.2 27.5991 97.2 16.4143 97.2 5.22949C99.8489 5.97515 102.489 6.78948 105.11 7.69212V38.4602C106.844 39.0587 108.57 39.6866 110.286 40.3538V9.57588C112.879 10.5766 115.454 11.6657 118 12.8234V46.3779Z" fill="white"/>
</svg>
