<svg width="12" height="12" viewBox="0 0 12 12" fill="none" xmlns="http://www.w3.org/2000/svg">
<rect width="12" height="12" rx="4" fill="#4B4D53"/>
<path fill-rule="evenodd" clip-rule="evenodd" d="M9.7949 4.00014C9.92465 4.00014 10.049 4.05194 10.1403 4.14405C10.2402 4.23617 10.2969 4.36584 10.2969 4.5016C10.2969 4.61807 10.2552 4.72997 10.1805 4.81753L10.1403 4.85923L7.14346 7.85608C7.05207 7.94812 6.9277 8 6.79805 8C6.68989 8 6.58556 7.964 6.50093 7.89868L6.45263 7.85608L4.58437 5.98783C4.45658 5.86443 4.40438 5.68224 4.44738 5.50989C4.49038 5.33754 4.62208 5.2012 4.79279 5.15234C4.94225 5.1095 5.10171 5.13923 5.22479 5.23005L5.27521 5.27264L6.79803 6.80028L9.4494 4.14392C9.54078 4.0518 9.66516 4 9.79481 4L9.7949 4.00014ZM2.79223 5.23015L2.84257 5.27275L4.6705 7.12756C4.86442 7.32425 4.86711 7.63929 4.67661 7.83933C4.67327 7.84292 4.66985 7.84642 4.66634 7.84984C4.49205 8.02202 4.21935 8.03367 4.03169 7.88592L3.98665 7.84569L2.15172 5.98794C2.02401 5.86455 1.9718 5.68235 2.0148 5.51C2.05781 5.33765 2.18943 5.20131 2.36021 5.15246C2.50959 5.10962 2.66905 5.13935 2.79222 5.23016L2.79223 5.23015ZM7.36227 4.00014C7.49193 4.00014 7.61631 4.05194 7.70768 4.14405C7.80753 4.23617 7.8643 4.36584 7.8643 4.5016C7.8643 4.63745 7.80753 4.76711 7.70768 4.85923L7.23251 5.33439C7.0359 5.53101 6.71948 5.53834 6.5139 5.35101L6.49842 5.33618C6.31272 5.15097 6.31231 4.85018 6.49761 4.66448L7.01683 4.14403C7.10813 4.05191 7.23251 4.00011 7.36224 4.00011L7.36227 4.00014Z" fill="white"/>
</svg>
