<svg width="16" height="15" viewBox="0 0 16 15" fill="none" xmlns="http://www.w3.org/2000/svg">
<path d="M7.98706 0C3.86206 0 0.487061 3.375 0.487061 7.5C0.487061 11.625 3.86206 15 7.98706 15C12.1121 15 15.4871 11.625 15.4871 7.5C15.4871 3.375 12.1121 0 7.98706 0ZM7.98706 13.75C4.53706 13.75 1.73705 10.95 1.73705 7.5C1.73705 4.05 4.53706 1.25 7.98706 1.25C11.4371 1.25 14.2371 4.05 14.2371 7.5C14.2371 10.95 11.4371 13.75 7.98706 13.75ZM11.6121 8.55C11.8621 8.8 11.8621 9.2 11.6121 9.425C10.6121 10.425 9.31206 10.925 7.98706 10.925C6.66206 10.925 5.36207 10.425 4.36207 9.425C4.11207 9.175 4.11207 8.775 4.36207 8.55C4.61207 8.3 5.01206 8.3 5.23706 8.55C6.73706 10.05 9.21207 10.05 10.7121 8.55C10.9621 8.3 11.3621 8.3 11.6121 8.55ZM4.66206 6.075C4.66206 5.575 5.06207 5.175 5.56207 5.175C6.06207 5.175 6.46207 5.575 6.46207 6.075C6.46207 6.575 6.06207 6.975 5.56207 6.975C5.06207 6.975 4.66206 6.575 4.66206 6.075ZM9.51205 6.075C9.51205 5.575 9.91205 5.175 10.4121 5.175C10.9121 5.175 11.3121 5.575 11.3121 6.075C11.3121 6.575 10.9121 6.975 10.4121 6.975C9.91205 6.975 9.51205 6.575 9.51205 6.075Z" fill="#4B4D53"/>
</svg>
