<svg width="35" height="28" viewBox="0 0 35 28" fill="none" xmlns="http://www.w3.org/2000/svg">
<path fill-rule="evenodd" clip-rule="evenodd" d="M1.55556 0C0.696446 0 0 0.696446 0 1.55556C0 2.41467 0.696447 3.11111 1.55556 3.11111H32.6667C33.5258 3.11111 34.2222 2.41467 34.2222 1.55556C34.2222 0.696446 33.5258 0 32.6667 0H1.55556ZM15.0068 22.9091L18.3568 26.2342C18.7699 26.647 18.7699 27.312 18.357 27.7018C18.1503 27.8853 17.8979 28 17.6226 28C17.3472 28 17.0947 27.9082 16.8883 27.7018L13.5611 24.331C12.0926 25.5005 10.2569 26.1197 8.39831 26.1197C6.1496 26.1197 4.03861 25.2482 2.4553 23.6659C0.871988 22.0836 0 19.9738 0 17.7265C0 15.4792 0.871988 13.3695 2.4553 11.7871C4.03857 10.2048 6.14964 9.33333 8.39831 9.33333C10.647 9.33333 12.758 10.2048 14.3413 11.7871C17.3474 14.7912 17.6227 19.5612 15.0068 22.9091ZM12.8729 22.1982C14.0662 21.0057 14.7315 19.4235 14.7315 17.7265C14.7315 16.0294 14.066 14.4471 12.8729 13.2547C11.6797 12.0622 10.0965 11.3973 8.39847 11.3973C6.72341 11.3973 5.11724 12.0622 3.92401 13.2547C2.73077 14.4473 2.06542 16.0295 2.06542 17.7265C2.06542 19.4005 2.73073 21.0057 3.92401 22.1982C5.11728 23.3907 6.72341 24.0557 8.39847 24.0557C10.0735 24.0557 11.6797 23.3908 12.8729 22.1982ZM18.6667 14C18.6667 13.1409 19.3631 12.4444 20.2222 12.4444H32.6667C33.5258 12.4444 34.2222 13.1409 34.2222 14C34.2222 14.8591 33.5258 15.5556 32.6667 15.5556H20.2222C19.3631 15.5556 18.6667 14.8591 18.6667 14ZM23.3333 24.8889C22.4742 24.8889 21.7778 25.5853 21.7778 26.4444C21.7778 27.3036 22.4742 28 23.3333 28H32.6667C33.5258 28 34.2222 27.3036 34.2222 26.4444C34.2222 25.5853 33.5258 24.8889 32.6667 24.8889H23.3333Z" fill="#4B4D53"/>
</svg>
