<svg width="23" height="20" viewBox="0 0 23 20" fill="none" xmlns="http://www.w3.org/2000/svg">
<path d="M5.93325 19.1557C5.78686 19.1557 5.64021 19.1201 5.49382 19.0485C5.20079 18.9055 5.01761 18.5835 5.01761 18.2617V15.2577C4.75683 15.1814 4.51468 15.0687 4.27791 14.9586C4.18205 14.914 4.08708 14.8699 3.9921 14.8287C1.5382 13.5412 0 11.0379 0 8.31992C0 4.24301 3.40603 0.952881 7.54483 0.952881H14.6452C18.8205 0.952881 22.19 4.27865 22.19 8.31992C22.19 12.3968 18.784 15.687 14.6452 15.687H11.83L6.44607 19.0127C6.29943 19.12 6.11617 19.1557 5.93325 19.1557ZM6.88545 14.6139V16.6165L11.0972 14.0059C11.2436 13.8986 11.4268 13.863 11.5734 13.863H14.7182C17.868 13.863 20.4317 11.3597 20.4317 8.2841C20.4317 5.20855 17.868 2.70525 14.7182 2.70525L7.58121 2.705C4.43143 2.705 1.86771 5.2083 1.86771 8.28385C1.86771 10.3581 3.03986 12.2178 4.87113 13.2191C5.27402 13.4337 5.71345 13.6125 6.15315 13.7198C6.59231 13.827 6.88545 14.2205 6.88545 14.6139ZM11.5735 7.06801C10.8775 7.06801 10.3283 7.60434 10.3283 8.28387C10.3283 8.96339 10.8776 9.49972 11.5735 9.49972C12.2694 9.49972 12.8187 8.96339 12.8187 8.28387C12.8187 7.64027 12.2694 7.06801 11.5735 7.06801ZM16.5546 7.06801C15.8586 7.06801 15.3094 7.60434 15.3094 8.28387C15.3094 8.96339 15.8586 9.49972 16.5546 9.49972C17.2505 9.49972 17.7998 8.96339 17.7998 8.28387C17.8365 7.64027 17.2505 7.06801 16.5546 7.06801ZM6.59244 7.06801C5.89649 7.06801 5.34724 7.60434 5.34724 8.28387C5.34724 8.96339 5.89652 9.49972 6.59244 9.49972C7.28836 9.49972 7.83764 8.96339 7.83764 8.28387C7.83764 7.64027 7.25183 7.06801 6.59244 7.06801Z" fill="#ACACAC"/>
<path d="M5.93325 19.1557C5.78686 19.1557 5.64021 19.1201 5.49382 19.0485C5.20079 18.9055 5.01761 18.5835 5.01761 18.2617V15.2577C4.75683 15.1814 4.51468 15.0687 4.27791 14.9586C4.18205 14.914 4.08708 14.8699 3.9921 14.8287C1.5382 13.5412 0 11.0379 0 8.31992C0 4.24301 3.40603 0.952881 7.54483 0.952881H14.6452C18.8205 0.952881 22.19 4.27865 22.19 8.31992C22.19 12.3968 18.784 15.687 14.6452 15.687H11.83L6.44607 19.0127C6.29943 19.12 6.11617 19.1557 5.93325 19.1557ZM6.88545 14.6139V16.6165L11.0972 14.0059C11.2436 13.8986 11.4268 13.863 11.5734 13.863H14.7182C17.868 13.863 20.4317 11.3597 20.4317 8.2841C20.4317 5.20855 17.868 2.70525 14.7182 2.70525L7.58121 2.705C4.43143 2.705 1.86771 5.2083 1.86771 8.28385C1.86771 10.3581 3.03986 12.2178 4.87113 13.2191C5.27402 13.4337 5.71345 13.6125 6.15315 13.7198C6.59231 13.827 6.88545 14.2205 6.88545 14.6139ZM11.5735 7.06801C10.8775 7.06801 10.3283 7.60434 10.3283 8.28387C10.3283 8.96339 10.8776 9.49972 11.5735 9.49972C12.2694 9.49972 12.8187 8.96339 12.8187 8.28387C12.8187 7.64027 12.2694 7.06801 11.5735 7.06801ZM16.5546 7.06801C15.8586 7.06801 15.3094 7.60434 15.3094 8.28387C15.3094 8.96339 15.8586 9.49972 16.5546 9.49972C17.2505 9.49972 17.7998 8.96339 17.7998 8.28387C17.8365 7.64027 17.2505 7.06801 16.5546 7.06801ZM6.59244 7.06801C5.89649 7.06801 5.34724 7.60434 5.34724 8.28387C5.34724 8.96339 5.89652 9.49972 6.59244 9.49972C7.28836 9.49972 7.83764 8.96339 7.83764 8.28387C7.83764 7.64027 7.25183 7.06801 6.59244 7.06801Z" stroke="#ACACAC"/>
</svg>
