<svg width="26" height="25" viewBox="0 0 26 25" fill="none" xmlns="http://www.w3.org/2000/svg">
<g opacity="0.7">
<path fill-rule="evenodd" clip-rule="evenodd" d="M5.09628 0.0361328H20.68C23.3543 0.0361328 25.5303 2.21113 25.5303 4.88491V20.116C25.5303 22.7898 23.354 24.9648 20.68 24.9648H5.09628C2.42128 24.9648 0.245361 22.7901 0.245361 20.116V4.88491C0.245361 2.21144 2.42158 0.0361328 5.09628 0.0361328ZM1.7853 5.65473V19.3459H23.9909V5.65473H1.7853ZM5.09628 1.57577H20.68C22.2397 1.57577 23.5476 2.66113 23.8964 4.1154H1.87951C2.22798 2.66083 3.53621 1.57577 5.09628 1.57577ZM5.09628 23.4252H20.68C22.2397 23.4252 23.5476 22.3401 23.8964 20.8858H1.87951C2.22798 22.3401 3.53591 23.4252 5.09628 23.4252Z" fill="white"/>
<path fill-rule="evenodd" clip-rule="evenodd" d="M9.66971 7.67246L16.8761 11.8328C17.1139 11.9706 17.2612 12.2246 17.2612 12.5002C17.2612 12.7755 17.1139 13.0295 16.8761 13.167L9.66971 17.3276C9.55081 17.3962 9.41758 17.4307 9.28495 17.4307C9.15172 17.4307 9.0191 17.3962 8.89989 17.3276C8.66148 17.1898 8.51514 16.9359 8.51514 16.6609V8.33953C8.51514 8.06423 8.66148 7.80996 8.89989 7.67246C9.13831 7.53496 9.4313 7.53496 9.66971 7.67246ZM14.9517 12.4996L10.0548 9.67246V15.3267L14.9517 12.4996Z" fill="white"/>
</g>
</svg>
