<svg width="16" height="17" viewBox="0 0 16 17" fill="none" xmlns="http://www.w3.org/2000/svg">
<path d="M10.987 1H4.98708C3.79445 1.00262 2.65138 1.47763 1.80804 2.32097C0.964692 3.16432 0.489694 4.30739 0.487061 5.50002V11.5C0.489676 12.6926 0.964692 13.8357 1.80804 14.679C2.65138 15.5224 3.79445 15.9974 4.98708 16H8.98714C11.2871 16 15.4871 11.8101 15.4871 9.50004V5.49997V5.50015C15.4845 4.30752 15.0095 3.16445 14.1661 2.3211C13.3228 1.47776 12.1797 1.00276 10.9871 1.00013L10.987 1ZM1.4871 11.4999V5.49997C1.4871 4.57172 1.85592 3.6815 2.51232 3.02508C3.16871 2.36865 4.05896 1.99986 4.98721 1.99986H10.9872C11.9154 1.99986 12.8056 2.36868 13.4621 3.02508C14.1185 3.68147 14.4873 4.57172 14.4873 5.49997V8.99986H12.9773C11.7889 9.00771 10.6513 9.48325 9.81098 10.3236C8.97063 11.164 8.49505 12.3015 8.48724 13.4899V14.9999H4.98735C4.05909 14.9999 3.16887 14.6311 2.51245 13.9747C1.85603 13.3183 1.48723 12.4281 1.48723 11.4998L1.4871 11.4999ZM9.48705 14.9099L9.48723 13.49C9.49246 12.566 9.8618 11.6813 10.5152 11.0281C11.1685 10.3746 12.0531 10.0053 12.9772 10.0001H14.3972C13.4139 12.1806 11.6677 13.9267 9.4874 14.9099H9.48705Z" fill="#4B4D53" stroke="#4B4D53" stroke-width="0.2"/>
</svg>
