<svg width="20" height="20" viewBox="0 0 20 20" fill="none" xmlns="http://www.w3.org/2000/svg">
<path fill-rule="evenodd" clip-rule="evenodd" d="M5.1492 9.86188C5.3327 9.41855 5.60225 9.01599 5.94228 8.67747L14.6198 0L19.9986 5.37888L11.3242 14.0563C10.9853 14.3967 10.5823 14.6665 10.1384 14.85C9.69451 15.0335 9.21863 15.1271 8.73832 15.1254H4.8732V11.2603C4.87189 10.7805 4.9657 10.3052 5.1492 9.86188ZM8.73832 12.6888C9.06048 12.6882 9.3693 12.5601 9.59723 12.3324L13.505 8.42467L11.574 6.49364L7.6662 10.3983C7.55309 10.5116 7.46341 10.646 7.40226 10.7939C7.34112 10.9418 7.30971 11.1003 7.30984 11.2603V12.6888H8.73832ZM13.2979 4.76972L15.2289 6.70075L16.5508 5.37888L14.6198 3.44784L13.2979 4.76972ZM14.6198 20.0002H3.65496C2.6856 20.0002 1.75595 19.6151 1.07051 18.9297C0.385075 18.2442 0 17.3146 0 16.3452V5.38037C0 4.41101 0.385075 3.48136 1.07051 2.79593C1.75595 2.11049 2.6856 1.72541 3.65496 1.72541H7.30991V4.16205H3.65496C3.33184 4.16205 3.02195 4.29041 2.79347 4.51889C2.565 4.74737 2.43664 5.05725 2.43664 5.38037V16.3452C2.43664 16.6684 2.565 16.9782 2.79347 17.2067C3.02195 17.4352 3.33184 17.5636 3.65496 17.5636H14.6198C14.9429 17.5636 15.2528 17.4352 15.4813 17.2067C15.7098 16.9782 15.8381 16.6684 15.8381 16.3452V12.6903H18.2748V16.3452C18.2748 17.3146 17.8897 18.2442 17.2043 18.9297C16.5188 19.6151 15.5892 20.0002 14.6198 20.0002Z" fill="#53B36E"/>
</svg>
