<?xml version="1.0" encoding="UTF-8"?>
<svg width="17px" height="16px" viewBox="0 0 17 16" version="1.1" xmlns="http://www.w3.org/2000/svg" xmlns:xlink="http://www.w3.org/1999/xlink">
    <title>share icon</title>
    <g id="Page-1" stroke="none" stroke-width="1" fill="none" fill-rule="evenodd">
        <g id="Manage-screen" transform="translate(-22.000000, -464.000000)" fill="#4B4D53" fill-rule="nonzero">
            <g id="Group" transform="translate(20.000000, 460.000000)">
                <path d="M9.22580645,4 L9.22580645,5.5483871 L4.83870968,5.5483871 C4.12608419,5.5483871 3.5483871,6.12608419 3.5483871,6.83870968 L3.5483871,6.83870968 L3.5483871,17.1612903 C3.5483871,17.8739158 4.12608419,18.4516129 4.83870968,18.4516129 L4.83870968,18.4516129 L12.0645161,18.4516129 C12.7771416,18.4516129 13.3548387,17.8739158 13.3548387,17.1612903 L13.3548387,17.1612903 L13.3548387,15.0967742 L14.9032258,15.0967742 L14.9032258,17.1612903 C14.9032258,18.7290664 13.6322922,20 12.0645161,20 L12.0645161,20 L4.83870968,20 C3.27093361,20 2,18.7290664 2,17.1612903 L2,17.1612903 L2,6.83870968 C2,5.27093361 3.27093361,4 4.83870968,4 L4.83870968,4 L9.22580645,4 Z M13.5819355,4.22709677 C13.8841988,3.92520942 14.3738658,3.92520942 14.676129,4.22709677 L14.676129,4.22709677 L18.32,7.87096774 L17.2258065,8.96516129 L14.9032258,6.64258065 L14.9032258,9.93548387 C14.9032258,12.0733603 13.1701345,13.8064516 11.0322581,13.8064516 L11.0322581,13.8064516 L6.90322581,13.8064516 L6.90322581,12.2580645 L11.0322581,12.2580645 C12.3149839,12.2580645 13.3548387,11.2182097 13.3548387,9.93548387 L13.3548387,9.93548387 L13.3548387,6.64258065 L11.0322581,8.96516129 L9.93806452,7.87096774 Z" id="share-icon"></path>
            </g>
        </g>
    </g>
</svg>