<svg width="50" height="50" viewBox="0 0 50 50" fill="none" xmlns="http://www.w3.org/2000/svg">
<rect opacity="0.15" width="50" height="50" rx="25" fill="white"/>
<path d="M32.0151 17.9025C30.9659 17.0217 29.7458 16.3673 28.4317 15.9805C27.6268 15.7349 26.7955 15.5858 25.9554 15.5363C25.5447 15.5108 25.1329 15.5108 24.7222 15.5363C24.1835 15.5642 23.6468 15.6225 23.1146 15.7109C21.9868 15.9144 20.9016 16.3079 19.9054 16.8746C18.5653 17.6011 17.4373 18.6638 16.6322 19.9584C15.5802 21.612 15.2548 23.6257 15.7325 25.5266C16.1193 27.1057 16.9939 28.5228 18.232 29.5763C19.7811 30.9331 21.7068 31.7856 23.7526 32.02C23.9969 32.0333 24.2248 32.1471 24.382 32.3346C24.5393 32.522 24.6119 32.7662 24.5825 33.0091C24.5825 33.3272 24.5108 33.6433 24.472 33.9595C24.4121 34.1945 24.3989 34.439 24.4332 34.679C24.4365 34.7477 24.4683 34.8119 24.5209 34.8561C24.5736 34.9003 24.6423 34.9205 24.7105 34.9118C24.91 34.886 25.1055 34.8352 25.2923 34.7605C26.1199 34.3771 26.9051 33.9077 27.6347 33.3602C29.2542 32.2152 30.7835 30.9476 32.209 29.5685C32.7053 29.1127 33.1548 28.6086 33.5509 28.0635C34.4231 26.8288 34.8967 25.3568 34.9083 23.8451C34.9092 23.1743 34.8171 22.5066 34.6349 21.861C34.1815 20.3071 33.2681 18.927 32.0151 17.9025Z" stroke="white" stroke-width="2"/>
<path d="M21.2476 25.2185C21.9778 25.2185 22.5698 24.6264 22.5698 23.896C22.5698 23.1656 21.9778 22.5735 21.2476 22.5735C20.5175 22.5735 19.9255 23.1656 19.9255 23.896C19.9255 24.6264 20.5175 25.2185 21.2476 25.2185Z" fill="white"/>
<path d="M25.2144 25.2186C25.9446 25.2186 26.5366 24.6265 26.5366 23.8961C26.5366 23.1657 25.9446 22.5736 25.2144 22.5736C24.4843 22.5736 23.8923 23.1657 23.8923 23.8961C23.8923 24.6265 24.4843 25.2186 25.2144 25.2186Z" fill="white"/>
<path d="M29.1812 25.2186C29.9114 25.2186 30.5034 24.6265 30.5034 23.8961C30.5034 23.1657 29.9114 22.5736 29.1812 22.5736C28.4511 22.5736 27.8591 23.1657 27.8591 23.8961C27.8591 24.6265 28.4511 25.2186 29.1812 25.2186Z" fill="white"/>
</svg>
