<svg width="17" height="16" viewBox="0 0 17 16" fill="none" xmlns="http://www.w3.org/2000/svg">
<path d="M14.2077 0H2.40437C1.76846 0.0057036 1.16021 0.260852 0.710529 0.710529C0.260852 1.16021 0.0057036 1.76846 0 2.40437V13.5956C0.0057036 14.2315 0.260852 14.8398 0.710529 15.2895C1.16021 15.7392 1.76846 15.9943 2.40437 16H14.2077C14.8436 15.9943 15.4518 15.7392 15.9015 15.2895C16.3512 14.8398 16.6063 14.2315 16.612 13.5956V2.40437C16.6063 1.76846 16.3512 1.16021 15.9015 0.710529C15.4518 0.260852 14.8436 0.0057036 14.2077 0ZM15.3005 13.5956C15.295 13.8837 15.178 14.1585 14.9743 14.3622C14.7705 14.566 14.4958 14.6829 14.2077 14.6885H2.40437C2.11627 14.6829 1.84153 14.566 1.63777 14.3622C1.43401 14.1585 1.31707 13.8837 1.31148 13.5956V7.05282H15.3005V13.5956ZM1.31148 5.74135V2.40437C1.31707 2.11627 1.43401 1.84153 1.63777 1.63777C1.84153 1.43401 2.11627 1.31707 2.40437 1.31148H14.2077C14.4958 1.31707 14.7705 1.43401 14.9743 1.63777C15.178 1.84153 15.295 2.11627 15.3005 2.40437V5.74135H1.31148Z" fill="#4B4D53"/>
<path d="M12.3498 2.93359H4.26233C4.08842 2.93359 3.92163 3.00268 3.79865 3.12565C3.67568 3.24863 3.60659 3.41542 3.60659 3.58933C3.60354 3.67627 3.61841 3.7629 3.65028 3.84384C3.68216 3.92478 3.73035 3.99829 3.79186 4.0598C3.85337 4.12131 3.92688 4.1695 4.00782 4.20138C4.08876 4.23325 4.17539 4.24812 4.26233 4.24507H12.3498C12.4367 4.24812 12.5233 4.23325 12.6043 4.20138C12.6852 4.1695 12.7587 4.12131 12.8202 4.0598C12.8817 3.99829 12.9299 3.92478 12.9618 3.84384C12.9937 3.7629 13.0086 3.67627 13.0055 3.58933C13.0055 3.41542 12.9364 3.24863 12.8134 3.12565C12.6905 3.00268 12.5237 2.93359 12.3498 2.93359Z" fill="#4B4D53"/>
</svg>
