<svg width="11" height="13" viewBox="0 0 11 13" fill="none" xmlns="http://www.w3.org/2000/svg">
<path fill-rule="evenodd" clip-rule="evenodd" d="M9.05441 8.38817C9.35628 8.05813 9.60636 7.68318 9.79533 7.27602C10.047 6.73422 10.177 6.14394 10.1764 5.54656C10.179 5.47448 10.167 5.40262 10.1412 5.33528C10.1154 5.26793 10.0763 5.20647 10.0262 5.15457C9.97611 5.10266 9.91609 5.06139 9.84971 5.03319C9.78333 5.005 9.71194 4.99046 9.63982 4.99046C9.5677 4.99046 9.49632 5.005 9.42994 5.03319C9.36355 5.06139 9.30353 5.10266 9.25345 5.15457C9.20338 5.20647 9.16427 5.26793 9.13847 5.33528C9.11266 5.40262 9.10069 5.47448 9.10327 5.54656C9.10327 6.30069 8.82482 6.99717 8.35581 7.55595L9.05441 8.38817ZM8.09543 7.24577C8.28591 7.00307 8.44279 6.735 8.56125 6.44875C8.73171 6.03689 8.8193 5.59546 8.81903 5.14972V3.3937C8.81903 2.94803 8.73125 2.50673 8.5607 2.09499C8.39015 1.68324 8.14018 1.30913 7.82504 0.993991C7.50991 0.678857 7.13579 0.428879 6.72405 0.25833C6.3123 0.0877807 5.871 0 5.42533 0C4.97967 0 4.53837 0.0877807 4.12662 0.25833C3.71488 0.428879 3.34076 0.678857 3.02563 0.993991C2.99324 1.02638 2.96153 1.0594 2.93053 1.09301L3.62964 1.92583C3.67825 1.86643 3.72999 1.80923 3.78474 1.75448C4.21991 1.31931 4.80992 1.07452 5.42533 1.07379C6.04063 1.07415 6.63064 1.31864 7.06584 1.75359C7.50105 2.18854 7.74589 2.77841 7.74662 3.3937V5.15041C7.74662 5.59563 7.61871 6.02766 7.38325 6.39738L8.09543 7.24577ZM6.66488 7.11304L7.35885 7.93974C7.16075 8.07698 6.94811 8.19304 6.72437 8.28564C6.3125 8.45609 5.87108 8.54369 5.42533 8.54342C4.97959 8.54369 4.53817 8.45609 4.1263 8.28564C3.71444 8.11519 3.34021 7.86522 3.02502 7.55003C2.70984 7.23484 2.45987 6.86062 2.28941 6.44875C2.11896 6.03689 2.03137 5.59546 2.03164 5.14972V3.3937C2.03164 2.94803 2.11942 2.50673 2.28997 2.09499C2.3077 2.05217 2.32629 2.00977 2.34573 1.96779L3.15198 2.92824C3.12052 3.08072 3.10424 3.23706 3.10405 3.39507V5.15041C3.10405 5.76605 3.34862 6.35648 3.78394 6.7918C4.21927 7.22713 4.80969 7.47169 5.42533 7.47169C5.86758 7.47169 6.2968 7.34549 6.66488 7.11304ZM7.60124 8.22849L8.29358 9.05326C7.60412 9.53825 6.8009 9.83826 5.96154 9.92369V11.0327C5.96163 11.1032 5.94783 11.1729 5.92091 11.238C5.894 11.3031 5.8545 11.3623 5.80469 11.4121C5.75488 11.4619 5.69574 11.5014 5.63064 11.5283C5.56554 11.5552 5.49578 11.569 5.42533 11.5689C5.35489 11.569 5.28513 11.5552 5.22003 11.5283C5.15493 11.5014 5.09579 11.4619 5.04598 11.4121C4.99617 11.3623 4.95667 11.3031 4.92976 11.238C4.90284 11.1729 4.88904 11.1032 4.88913 11.0327V9.92389C3.84906 9.81845 2.86433 9.38374 2.08244 8.67593C1.64869 8.28314 1.29845 7.80704 1.05259 7.27602C0.802266 6.73389 0.673168 6.14369 0.674293 5.54656C0.671715 5.47448 0.683684 5.40262 0.709487 5.33528C0.73529 5.26793 0.774398 5.20647 0.824476 5.15457C0.874554 5.10266 0.934576 5.06139 1.00096 5.03319C1.06734 5.005 1.13872 4.99046 1.21085 4.99046C1.28297 4.99046 1.35435 5.005 1.42073 5.03319C1.48712 5.06139 1.54714 5.10266 1.59721 5.15457C1.64729 5.20647 1.6864 5.26793 1.7122 5.33528C1.73801 5.40262 1.74998 5.47448 1.7474 5.54656C1.7474 7.38175 3.39516 8.87435 5.42533 8.87435C6.23929 8.87435 6.99177 8.63431 7.60124 8.22849Z" fill="white"/>
<rect x="10.3009" y="11.3555" width="1.01034" height="14.8194" rx="0.505171" transform="rotate(139.988 10.3009 11.3555)" fill="white"/>
</svg>
