<?xml version="1.0" encoding="utf-8"?>
<svg viewBox="0 0 12 12" fill="none" xmlns="http://www.w3.org/2000/svg">
  <rect width="12" height="12" rx="4" fill="#4B4D53"/>
  <path fill-rule="evenodd" clip-rule="evenodd" d="M 8.795 4 C 8.925 4 9.049 4.052 9.14 4.144 C 9.24 4.236 9.297 4.366 9.297 4.502 C 9.297 4.618 9.255 4.73 9.181 4.818 L 9.14 4.859 L 6.143 7.856 C 6.052 7.948 5.928 8 5.798 8 C 5.69 8 5.586 7.964 5.501 7.899 L 5.453 7.856 L 3.584 5.988 C 3.457 5.864 3.404 5.682 3.447 5.51 C 3.49 5.338 3.622 5.201 3.793 5.152 C 3.942 5.11 4.102 5.139 4.225 5.23 L 4.275 5.273 L 5.798 6.8 L 8.449 4.144 C 8.541 4.052 8.665 4 8.795 4 Z M 14.955 5.623 L 15.684 5.308 L 15.397 5.419 C 15.59 5.615 14.642 5.732 14.452 5.932 C 14.448 5.936 14.475 5.258 14.471 5.262 C 14.297 5.434 16.104 5.459 15.917 5.311 L 15.042 5.547 L 15.263 6.231 C 15.135 6.108 13.071 6.211 13.114 6.039 C 13.157 5.867 13.953 6.515 14.124 6.466 C 14.274 6.424 14.832 5.532 14.955 5.623 Z M 15.372 5.603 C 15.502 5.603 14.588 5.657 14.68 5.749 C 14.779 5.841 15.336 5.249 15.336 5.385 C 15.336 5.52 14.557 5.548 14.457 5.64 L 13.687 5.778 C 13.49 5.975 14.745 6.024 14.54 5.837 L 14.264 5.61 C 14.079 5.425 14.783 6.01 14.969 5.824 L 15.069 5.068 C 15.16 4.976 15.243 5.603 15.372 5.603 Z" fill="white" style=""/>
</svg>