<svg width="50" height="50" viewBox="0 0 50 50" fill="none" xmlns="http://www.w3.org/2000/svg">
<rect width="50" height="50" rx="25" fill="#F3002A"/>
<path fill-rule="evenodd" clip-rule="evenodd" d="M20.3006 29.3296C20.1612 29.4141 20.0189 29.5004 19.9086 29.6107C19.3977 29.968 18.777 30.1352 18.1536 30.0836C17.5301 30.0319 16.9428 29.7647 16.4927 29.3278L14.5861 27.4211C14.0805 26.9155 13.7952 26.2309 13.793 25.518C13.7908 24.805 14.0719 24.1222 14.5745 23.6196C14.6502 23.5313 14.7325 23.4489 14.8208 23.3732C17.8003 21.0632 21.4702 19.8156 25.2515 19.8272C29.0328 19.8388 32.7103 21.1089 35.704 23.4373C36.0119 23.6727 36.2657 23.9715 36.4482 24.3132C36.6308 24.6549 36.7378 25.0315 36.7619 25.4173C36.7841 25.7956 36.7262 26.1738 36.5919 26.5272C36.4575 26.8805 36.2499 27.201 35.9825 27.4677L34.0876 29.3627C33.6427 29.8207 33.048 30.1039 32.4104 30.1612C31.7729 30.2185 31.1345 30.0461 30.6101 29.6751C30.445 29.5479 30.2799 29.4334 30.1022 29.3188C29.7557 29.0999 29.3953 28.904 29.0233 28.7326C28.6218 28.5443 28.3033 28.2147 28.1289 27.8071C27.9546 27.3996 27.9367 26.9428 28.0788 26.5248L28.1788 26.0689C27.2161 25.799 26.2231 25.6554 25.2249 25.6417C24.2241 25.6471 23.2294 25.7868 22.2674 26.0571L22.4144 26.4821C22.559 26.901 22.544 27.3576 22.3721 27.7642C22.2003 28.1707 21.8837 28.4983 21.4834 28.6841C21.1113 28.851 20.7519 29.0447 20.4081 29.2637C20.3729 29.2858 20.3369 29.3077 20.3006 29.3296ZM15.5738 25.7842C15.6204 25.9057 15.6928 26.0159 15.7859 26.107L17.7877 28.0709C17.9311 28.2214 18.1218 28.3178 18.3275 28.3439C18.5333 28.3699 18.7412 28.3239 18.916 28.2137C19.1119 28.0686 19.3206 27.9235 19.5229 27.7974C19.9384 27.5365 20.3692 27.3008 20.8133 27.0918L20.3215 25.8041C20.2383 25.5814 20.2467 25.3353 20.3447 25.1199C20.4349 24.9025 20.6074 24.73 20.8248 24.6398C23.6867 23.6073 26.8268 23.6169 29.6951 24.667C29.806 24.7079 29.9079 24.7702 29.995 24.8505C30.082 24.9307 30.1524 25.0273 30.2022 25.1346C30.252 25.2418 30.2801 25.3578 30.285 25.4757C30.29 25.5937 30.2715 25.7113 30.2308 25.8218L29.7596 27.1192C30.2009 27.3195 30.6273 27.5517 31.0353 27.8137C31.2426 27.9453 31.4458 28.0853 31.6448 28.2337C31.8201 28.3475 32.0293 28.3967 32.2362 28.3731C32.4431 28.3494 32.6349 28.2543 32.7785 28.1042L34.6735 26.2092C34.7611 26.1196 34.8287 26.0124 34.872 25.8947C34.9153 25.7769 34.9333 25.6512 34.9248 25.5257C34.9182 25.393 34.8822 25.2632 34.8194 25.1458C34.7566 25.0283 34.6685 24.9261 34.5616 24.8467C31.8772 22.7601 28.5834 21.6161 25.1935 21.593C21.8195 21.5883 18.5449 22.6962 15.8768 24.745C15.7724 24.8217 15.6861 24.9203 15.6239 25.0339C15.5616 25.1476 15.5249 25.2735 15.5163 25.4031C15.5076 25.5326 15.5273 25.6627 15.5738 25.7842Z" fill="white"/>
</svg>
