<svg width="18" height="10" viewBox="0 0 18 10" fill="none" xmlns="http://www.w3.org/2000/svg">
<path fill-rule="evenodd" clip-rule="evenodd" d="M18.7926 5.36759C18.7926 5.74038 18.4904 6.04259 18.1176 6.04259L16.8244 6.04259L16.8244 8.31985C16.8244 8.49887 16.7533 8.67056 16.6267 8.79715C16.5001 8.92374 16.3284 8.99485 16.1494 8.99485H12.7051C12.3323 8.99485 12.0301 8.69264 12.0301 8.31985L12.0301 6.04259L9.28851 6.04259C9.23598 6.40298 9.13979 6.7565 9.00148 7.09523C8.77701 7.64494 8.44602 8.14482 8.02756 8.56609C7.60911 8.98735 7.11146 9.32169 6.56326 9.54983C6.01506 9.77798 5.42715 9.89543 4.83338 9.89543C4.2396 9.89543 3.65169 9.77798 3.10349 9.54983C2.5553 9.32168 2.05764 8.98735 1.63919 8.56609C1.22074 8.14482 0.889746 7.64494 0.665277 7.09522C0.440808 6.54551 0.327296 5.95683 0.331274 5.36306L0.331322 5.35586C0.351837 4.17553 0.835162 3.05047 1.67713 2.22301C2.5191 1.39555 3.65238 0.931891 4.83289 0.931891C6.01339 0.931892 7.14667 1.39555 7.98864 2.22301C8.67109 2.89371 9.11789 3.75991 9.27362 4.69259L18.1176 4.69259C18.4904 4.69259 18.7926 4.99479 18.7926 5.36759ZM7.98556 5.40531C7.98508 5.39668 7.98477 5.38802 7.98461 5.37932C7.97025 4.55291 7.63188 3.76521 7.04238 3.18587C6.45288 2.60652 5.65941 2.28189 4.83289 2.28189C4.00636 2.28189 3.21289 2.60652 2.62339 3.18587C2.03475 3.76436 1.69651 4.55061 1.68122 5.37569C1.67892 5.7902 1.75838 6.2011 1.91509 6.58488C2.07226 6.96976 2.304 7.31975 2.59698 7.61469C2.88996 7.90964 3.23839 8.14373 3.6222 8.30346C4.00602 8.4632 4.41765 8.54543 4.83338 8.54543C5.24911 8.54543 5.66073 8.4632 6.04455 8.30346C6.42837 8.14373 6.7768 7.90964 7.06978 7.6147C7.36276 7.31975 7.5945 6.96976 7.75166 6.58488C7.90464 6.21024 7.98401 5.80976 7.98556 5.40531ZM15.4744 6.04259L13.3801 6.04259V7.64485L15.4744 7.64485L15.4744 6.04259Z" fill="#4B4D53"/>
</svg>
