<svg width="33" height="28" viewBox="0 0 33 28" fill="none" xmlns="http://www.w3.org/2000/svg">
<path fill-rule="evenodd" clip-rule="evenodd" d="M14.3276 0.877468C15.7873 -0.29252 17.8633 -0.292489 19.3229 0.877561L32.0241 11.1136C33.0023 11.8981 33.1628 13.3262 32.383 14.3079L32.3818 14.3095L31.4086 15.5556L31.4003 15.5658L31.3955 15.5715C31.0087 16.0189 30.4593 16.2934 29.8693 16.3339C29.293 16.3735 28.7245 16.1867 28.2843 15.8142C28.2214 15.7821 28.1464 15.7821 28.083 15.8151C28.015 15.8504 27.9704 15.9186 27.9649 15.9948V25.2441C27.9649 26.766 26.7315 28 25.2097 28H8.42119C6.89942 28 5.66599 26.766 5.66599 25.2441V15.99C5.66673 15.9046 5.61811 15.8265 5.5413 15.7896C5.46995 15.7552 5.38615 15.762 5.32157 15.8063C4.90876 16.2247 4.3359 16.4464 3.74799 16.4142C3.15024 16.3813 2.59671 16.0892 2.23226 15.6144L1.19104 14.31C0.409668 13.3281 0.569178 11.8985 1.54831 11.1136L14.3276 0.877468ZM14.586 12.9439C13.5538 12.9439 12.7171 13.7806 12.7171 14.8128C12.7171 15.845 13.5538 16.6817 14.586 16.6817H19.0538C20.086 16.6817 20.9228 15.845 20.9228 14.8128C20.9228 13.7806 20.086 12.9439 19.0538 12.9439H14.586Z" fill="#53B36E"/>
</svg>
