<svg width="17" height="16" viewBox="0 0 17 16" fill="none" xmlns="http://www.w3.org/2000/svg">
<path fill-rule="evenodd" clip-rule="evenodd" d="M15.3684 0.857422H2.10526C1.49484 0.857422 1 1.35226 1 1.96268C1 2.5731 1.49484 3.06795 2.10526 3.06795H15.3684C15.9788 3.06795 16.4737 2.5731 16.4737 1.96268C16.4737 1.35226 15.9788 0.857422 15.3684 0.857422ZM15.3681 4.78729H10.9471C10.3367 4.78729 9.84183 5.28213 9.84183 5.89255C9.84183 6.50297 10.3367 6.99781 10.9471 6.99781H15.3681C15.9786 6.99781 16.4734 6.50297 16.4734 5.89255C16.4734 5.28213 15.9786 4.78729 15.3681 4.78729ZM15.3681 8.71704H10.9471C10.3367 8.71704 9.84183 9.21188 9.84183 9.8223C9.84183 10.4327 10.3367 10.9276 10.9471 10.9276H15.3681C15.9786 10.9276 16.4734 10.4327 16.4734 9.8223C16.4734 9.21188 15.9786 8.71704 15.3681 8.71704ZM2.10526 12.6469H15.3684C15.9788 12.6469 16.4737 13.1418 16.4737 13.7522C16.4737 14.3626 15.9788 14.8574 15.3684 14.8574H2.10526C1.49484 14.8574 1 14.3626 1 13.7522C1 13.1418 1.49484 12.6469 2.10526 12.6469ZM1 7.6118C1 5.78054 2.48453 4.29601 4.31579 4.29601C6.14705 4.29601 7.63158 5.78054 7.63158 7.6118C7.63158 9.44306 6.14705 10.9276 4.31579 10.9276C2.48453 10.9276 1 9.44306 1 7.6118ZM4.31579 8.71706C4.92621 8.71706 5.42105 8.22222 5.42105 7.6118C5.42105 7.00138 4.92621 6.50654 4.31579 6.50654C3.70537 6.50654 3.21053 7.00138 3.21053 7.6118C3.21053 8.22222 3.70537 8.71706 4.31579 8.71706Z" fill="#53B36E"/>
<path d="M2.10526 1.15742H15.3684V0.557422H2.10526V1.15742ZM1.3 1.96268C1.3 1.51795 1.66053 1.15742 2.10526 1.15742V0.557422C1.32916 0.557422 0.7 1.18658 0.7 1.96268H1.3ZM2.10526 2.76795C1.66053 2.76795 1.3 2.40742 1.3 1.96268H0.7C0.7 2.73879 1.32916 3.36795 2.10526 3.36795V2.76795ZM15.3684 2.76795H2.10526V3.36795H15.3684V2.76795ZM16.1737 1.96268C16.1737 2.40742 15.8131 2.76795 15.3684 2.76795V3.36795C16.1445 3.36795 16.7737 2.73879 16.7737 1.96268H16.1737ZM15.3684 1.15742C15.8131 1.15742 16.1737 1.51795 16.1737 1.96268H16.7737C16.7737 1.18658 16.1445 0.557422 15.3684 0.557422V1.15742ZM10.9471 5.08729H15.3681V4.48729H10.9471V5.08729ZM10.1418 5.89255C10.1418 5.44782 10.5024 5.08729 10.9471 5.08729V4.48729C10.171 4.48729 9.54183 5.11645 9.54183 5.89255H10.1418ZM10.9471 6.69781C10.5024 6.69781 10.1418 6.33729 10.1418 5.89255H9.54183C9.54183 6.66866 10.171 7.29781 10.9471 7.29781V6.69781ZM15.3681 6.69781H10.9471V7.29781H15.3681V6.69781ZM16.1734 5.89255C16.1734 6.33729 15.8129 6.69781 15.3681 6.69781V7.29781C16.1442 7.29781 16.7734 6.66866 16.7734 5.89255H16.1734ZM15.3681 5.08729C15.8129 5.08729 16.1734 5.44782 16.1734 5.89255H16.7734C16.7734 5.11645 16.1442 4.48729 15.3681 4.48729V5.08729ZM10.9471 9.01704H15.3681V8.41704H10.9471V9.01704ZM10.1418 9.8223C10.1418 9.37757 10.5024 9.01704 10.9471 9.01704V8.41704C10.171 8.41704 9.54183 9.0462 9.54183 9.8223H10.1418ZM10.9471 10.6276C10.5024 10.6276 10.1418 10.267 10.1418 9.8223H9.54183C9.54183 10.5984 10.171 11.2276 10.9471 11.2276V10.6276ZM15.3681 10.6276H10.9471V11.2276H15.3681V10.6276ZM16.1734 9.8223C16.1734 10.267 15.8129 10.6276 15.3681 10.6276V11.2276C16.1442 11.2276 16.7734 10.5984 16.7734 9.8223H16.1734ZM15.3681 9.01704C15.8129 9.01704 16.1734 9.37757 16.1734 9.8223H16.7734C16.7734 9.0462 16.1442 8.41704 15.3681 8.41704V9.01704ZM15.3684 12.3469H2.10526V12.9469H15.3684V12.3469ZM16.7737 13.7522C16.7737 12.9761 16.1445 12.3469 15.3684 12.3469V12.9469C15.8131 12.9469 16.1737 13.3074 16.1737 13.7522H16.7737ZM15.3684 15.1574C16.1445 15.1574 16.7737 14.5283 16.7737 13.7522H16.1737C16.1737 14.1969 15.8131 14.5574 15.3684 14.5574V15.1574ZM2.10526 15.1574H15.3684V14.5574H2.10526V15.1574ZM0.7 13.7522C0.7 14.5283 1.32916 15.1574 2.10526 15.1574V14.5574C1.66053 14.5574 1.3 14.1969 1.3 13.7522H0.7ZM2.10526 12.3469C1.32916 12.3469 0.7 12.9761 0.7 13.7522H1.3C1.3 13.3074 1.66053 12.9469 2.10526 12.9469V12.3469ZM4.31579 3.99601C2.31884 3.99601 0.7 5.61486 0.7 7.6118H1.3C1.3 5.94623 2.65021 4.59601 4.31579 4.59601V3.99601ZM7.93158 7.6118C7.93158 5.61486 6.31273 3.99601 4.31579 3.99601V4.59601C5.98136 4.59601 7.33157 5.94623 7.33157 7.6118H7.93158ZM4.31579 11.2276C6.31273 11.2276 7.93158 9.60874 7.93158 7.6118H7.33157C7.33157 9.27737 5.98136 10.6276 4.31579 10.6276V11.2276ZM0.7 7.6118C0.7 9.60874 2.31884 11.2276 4.31579 11.2276V10.6276C2.65021 10.6276 1.3 9.27737 1.3 7.6118H0.7ZM5.12105 7.6118C5.12105 8.05653 4.76052 8.41706 4.31579 8.41706V9.01706C5.09189 9.01706 5.72105 8.38791 5.72105 7.6118H5.12105ZM4.31579 6.80654C4.76052 6.80654 5.12105 7.16707 5.12105 7.6118H5.72105C5.72105 6.8357 5.09189 6.20654 4.31579 6.20654V6.80654ZM3.51052 7.6118C3.51052 7.16707 3.87105 6.80654 4.31579 6.80654V6.20654C3.53968 6.20654 2.91053 6.8357 2.91053 7.6118H3.51052ZM4.31579 8.41706C3.87105 8.41706 3.51052 8.05653 3.51052 7.6118H2.91053C2.91053 8.38791 3.53968 9.01706 4.31579 9.01706V8.41706Z" fill="white"/>
</svg>
