<svg width="43" height="35" viewBox="0 0 43 35" fill="none" xmlns="http://www.w3.org/2000/svg">
<path d="M38.3212 14.4841C37.9735 14.2173 37.5512 14.0457 37.1026 13.9889C36.6539 13.9321 36.1969 13.9924 35.7837 14.1628L28.0953 17.3054L23.6281 9.90289C23.4146 9.55729 23.1053 9.26988 22.7316 9.06993C22.3579 8.86999 21.9333 8.76465 21.5009 8.76465C21.0685 8.76465 20.6439 8.86999 20.2702 9.06993C19.8965 9.26988 19.5872 9.55729 19.3737 9.90289L14.9065 17.3054L7.2181 14.1628C6.80406 13.9926 6.34648 13.9322 5.89707 13.9886C5.44767 14.0449 5.02437 14.2157 4.67503 14.4816C4.32569 14.7475 4.06423 15.0979 3.92023 15.4933C3.77622 15.8886 3.7554 16.3131 3.86012 16.7188L7.71952 31.845C7.79332 32.1379 7.93102 32.4139 8.12429 32.6564C8.31757 32.8988 8.56238 33.1027 8.84391 33.2557C9.22505 33.4654 9.66084 33.5764 10.105 33.5769C10.321 33.5765 10.5358 33.5483 10.7432 33.4931C17.778 31.7053 25.2086 31.7053 32.2434 33.4931C32.8857 33.6483 33.5688 33.5629 34.1427 33.2557C34.426 33.1047 34.6721 32.9014 34.8656 32.6586C35.0591 32.4158 35.1958 32.1388 35.2671 31.845L39.1417 16.7188C39.2452 16.313 39.2233 15.8887 39.0783 15.4938C38.9333 15.0989 38.671 14.7492 38.3212 14.4841V14.4841Z" fill="#FFAA00"/>
<ellipse cx="21.5007" cy="5.00805" rx="5.05878" ry="5.00781" fill="#FFAA00"/>
<ellipse cx="39.8385" cy="13.146" rx="3.16174" ry="3.12988" fill="#FFAA00"/>
<ellipse cx="3.16174" cy="13.146" rx="3.16174" ry="3.12988" fill="#FFAA00"/>
<ellipse cx="12.0152" cy="24.4141" rx="1.89704" ry="1.87793" fill="#BE9502"/>
<ellipse cx="30.9849" cy="24.4141" rx="1.89704" ry="1.87793" fill="#BE9502"/>
</svg>
