<svg width="29" height="28" viewBox="0 0 29 28" fill="none" xmlns="http://www.w3.org/2000/svg">
<path fill-rule="evenodd" clip-rule="evenodd" d="M16.7033 9.08907C15.1842 7.2787 15.4223 4.55674 17.2327 3.03766L19.6606 1.00038C21.471 -0.518697 24.193 -0.280556 25.712 1.52981L27.7493 3.95775C29.2684 5.76811 29.0303 8.49007 27.2199 10.0092L24.792 12.0464C22.9816 13.5655 20.2596 13.3274 18.7406 11.517L16.7033 9.08907ZM0.75 4.93853C0.75 2.57526 2.68207 0.643193 5.04534 0.643193H8.21478C10.578 0.643193 12.5101 2.57526 12.5101 4.93853V8.10797C12.5101 10.4712 10.578 12.4033 8.21478 12.4033H5.04534C2.68207 12.4033 0.75 10.4712 0.75 8.10797V4.93853ZM5.04534 16.2399C2.68207 16.2399 0.75 18.172 0.75 20.5352V23.7047C0.75 26.0679 2.68207 28 5.04534 28H8.21478C10.578 28 12.5101 26.0679 12.5101 23.7047V20.5352C12.5101 18.1722 10.5778 16.2399 8.21478 16.2399H5.04534ZM20.642 16.2399C18.2788 16.2399 16.3467 18.172 16.3467 20.5352V23.7047C16.3467 26.0679 18.2788 28 20.642 28H23.8115C26.1747 28 28.1068 26.0679 28.1068 23.7047V20.5352C28.1068 18.1723 26.1748 16.2399 23.8115 16.2399H20.642Z" fill="#53B36E"/>
</svg>
