<svg width="50" height="50" viewBox="0 0 50 50" fill="none" xmlns="http://www.w3.org/2000/svg">
<rect opacity="0.15" width="50" height="50" rx="25" fill="white"/>
<path fill-rule="evenodd" clip-rule="evenodd" d="M29.7725 29.9092C30.1737 29.4533 30.3968 28.8654 30.3968 28.2545V27.3946L34.4044 29.7094C34.6627 29.8585 34.9807 29.8585 35.239 29.7096C35.4973 29.5606 35.6565 29.2853 35.6568 28.9871V20.3395C35.657 20.1927 35.6185 20.0486 35.5453 19.9213C35.4719 19.7942 35.3665 19.6887 35.2394 19.6153C35.1124 19.5419 34.9684 19.5034 34.8218 19.5034C34.6753 19.5034 34.5313 19.5419 34.4044 19.6153L30.3968 21.93V21.0702C30.3968 20.4058 30.133 19.7687 29.6631 19.299C29.1934 18.8292 28.5563 18.5654 27.8921 18.5654H20.25L21.6516 20.2351H27.8922C28.1137 20.2351 28.326 20.3232 28.4826 20.4797C28.6391 20.6362 28.7271 20.8486 28.7271 21.0701V28.2544C28.7271 28.3686 28.7037 28.4804 28.6596 28.5834L29.7725 29.9092ZM19.6615 20.2351H18.1762C17.9549 20.2351 17.7425 20.3232 17.586 20.4797C17.4293 20.6362 17.3414 20.8486 17.3414 21.0701V28.2544C17.3414 28.4759 17.4293 28.6883 17.586 28.8448C17.7425 29.0013 17.9549 29.0894 18.1762 29.0894H27.0942L28.4442 30.6976C28.2644 30.7382 28.0793 30.7592 27.8921 30.7592H18.1761C17.5119 30.7592 16.8748 30.4954 16.4051 30.0257C15.9354 29.556 15.6714 28.9188 15.6714 28.2545V21.0702C15.6714 20.4058 15.9354 19.7687 16.4051 19.299C16.8748 18.8293 17.5119 18.5654 18.1761 18.5654H18.2599L19.6615 20.2351ZM30.3969 25.4679L33.987 27.5406V21.786L30.3969 23.8587V25.4679Z" fill="white"/>
<path d="M29.7725 29.9092L29.7342 29.9413L29.7716 29.9859L29.81 29.9422L29.7725 29.9092ZM30.3968 27.3946L30.4218 27.3513L30.3468 27.308V27.3946H30.3968ZM34.4044 29.7094L34.3794 29.7527L34.3794 29.7527L34.4044 29.7094ZM35.239 29.7096L35.2639 29.7529L35.2639 29.7529L35.239 29.7096ZM35.6568 28.9871L35.7068 28.9872V28.9871H35.6568ZM35.6568 20.3395L35.6068 20.3394V20.3395H35.6568ZM35.5453 19.9213L35.5886 19.8964L35.5886 19.8963L35.5453 19.9213ZM35.2394 19.6153L35.2144 19.6586L35.2144 19.6586L35.2394 19.6153ZM34.4044 19.6153L34.4294 19.6586L34.4294 19.6586L34.4044 19.6153ZM30.3968 21.93H30.3468V22.0167L30.4218 21.9733L30.3968 21.93ZM29.6631 19.299L29.6278 19.3343L29.6278 19.3343L29.6631 19.299ZM20.25 18.5654V18.5154H20.1427L20.2117 18.5976L20.25 18.5654ZM21.6516 20.2351L21.6133 20.2672L21.6283 20.2851H21.6516V20.2351ZM28.4826 20.4797L28.518 20.4443L28.518 20.4443L28.4826 20.4797ZM28.6596 28.5834L28.6136 28.5637L28.6015 28.592L28.6213 28.6156L28.6596 28.5834ZM19.6615 20.2351V20.2851H19.7688L19.6998 20.2029L19.6615 20.2351ZM17.586 20.4797L17.6213 20.5151L17.6213 20.515L17.586 20.4797ZM17.586 28.8448L17.6213 28.8095L17.6213 28.8094L17.586 28.8448ZM27.0942 29.0894L27.1325 29.0573L27.1175 29.0394H27.0942V29.0894ZM28.4442 30.6976L28.4552 30.7464L28.5353 30.7283L28.4825 30.6655L28.4442 30.6976ZM16.4051 30.0257L16.4404 29.9903L16.4404 29.9903L16.4051 30.0257ZM16.4051 19.299L16.3697 19.2636L16.3697 19.2636L16.4051 19.299ZM18.2599 18.5654L18.2982 18.5333L18.2832 18.5154H18.2599V18.5654ZM33.987 27.5406L33.962 27.5839L34.037 27.6272V27.5406H33.987ZM30.3969 25.4679H30.3469V25.4967L30.3719 25.5112L30.3969 25.4679ZM33.987 21.786H34.037V21.6994L33.962 21.7427L33.987 21.786ZM30.3969 23.8587L30.3719 23.8154L30.3469 23.8299V23.8587H30.3969ZM29.81 29.9422C30.2192 29.4773 30.4468 28.8776 30.4468 28.2545H30.3468C30.3468 28.8533 30.1282 29.4294 29.7349 29.8762L29.81 29.9422ZM30.4468 28.2545V27.3946H30.3468V28.2545H30.4468ZM30.3718 27.4379L34.3794 29.7527L34.4294 29.6661L30.4218 27.3513L30.3718 27.4379ZM34.3794 29.7527C34.6531 29.9107 34.9902 29.9107 35.2639 29.7529L35.214 29.6663C34.9711 29.8063 34.6722 29.8063 34.4294 29.6661L34.3794 29.7527ZM35.2639 29.7529C35.5377 29.595 35.7065 29.3032 35.7068 28.9872L35.6068 28.9871C35.6065 29.2674 35.4568 29.5262 35.214 29.6663L35.2639 29.7529ZM35.7068 28.9871V20.3395H35.6068V28.9871H35.7068ZM35.7068 20.3395C35.707 20.184 35.6662 20.0312 35.5886 19.8964L35.502 19.9462C35.5708 20.0659 35.607 20.2014 35.6068 20.3394L35.7068 20.3395ZM35.5886 19.8963C35.5108 19.7616 35.3991 19.6498 35.2644 19.572L35.2144 19.6586C35.3339 19.7276 35.433 19.8268 35.502 19.9463L35.5886 19.8963ZM35.2644 19.572C35.1298 19.4943 34.9772 19.4534 34.8218 19.4534V19.5534C34.9596 19.5534 35.095 19.5896 35.2144 19.6586L35.2644 19.572ZM34.8218 19.4534C34.6666 19.4534 34.5139 19.4943 34.3794 19.572L34.4294 19.6586C34.5488 19.5896 34.6841 19.5534 34.8218 19.5534V19.4534ZM34.3794 19.572L30.3718 21.8867L30.4218 21.9733L34.4294 19.6586L34.3794 19.572ZM30.4468 21.93V21.0702H30.3468V21.93H30.4468ZM30.4468 21.0702C30.4468 20.3926 30.1777 19.7427 29.6985 19.2636L29.6278 19.3343C30.0883 19.7946 30.3468 20.4191 30.3468 21.0702H30.4468ZM29.6985 19.2636C29.2194 18.7845 28.5696 18.5154 27.8921 18.5154V18.6154C28.5431 18.6154 29.1675 18.874 29.6278 19.3343L29.6985 19.2636ZM27.8921 18.5154H20.25V18.6154H27.8921V18.5154ZM20.2117 18.5976L21.6133 20.2672L21.6899 20.2029L20.2883 18.5333L20.2117 18.5976ZM21.6516 20.2851H27.8922V20.1851H21.6516V20.2851ZM27.8922 20.2851C28.1004 20.2851 28.3 20.3679 28.4473 20.5151L28.518 20.4443C28.352 20.2785 28.127 20.1851 27.8922 20.1851V20.2851ZM28.4473 20.515C28.5944 20.6622 28.6771 20.8619 28.6771 21.0701H28.7771C28.7771 20.8354 28.6839 20.6102 28.518 20.4443L28.4473 20.515ZM28.6771 21.0701V28.2544H28.7771V21.0701H28.6771ZM28.6771 28.2544C28.6771 28.3618 28.6551 28.4669 28.6136 28.5637L28.7055 28.6031C28.7523 28.494 28.7771 28.3755 28.7771 28.2544H28.6771ZM28.6213 28.6156L29.7342 29.9413L29.8108 29.877L28.6978 28.5513L28.6213 28.6156ZM18.1762 20.2851H19.6615V20.1851H18.1762V20.2851ZM17.6213 20.515C17.7685 20.3679 17.9682 20.2851 18.1762 20.2851V20.1851C17.9417 20.1851 17.7165 20.2784 17.5506 20.4443L17.6213 20.515ZM17.3914 21.0701C17.3914 20.8619 17.4741 20.6622 17.6213 20.5151L17.5507 20.4443C17.3846 20.6102 17.2914 20.8354 17.2914 21.0701H17.3914ZM17.3914 28.2544V21.0701H17.2914V28.2544H17.3914ZM17.6213 28.8094C17.4741 28.6623 17.3914 28.4626 17.3914 28.2544H17.2914C17.2914 28.4891 17.3846 28.7143 17.5507 28.8802L17.6213 28.8094ZM18.1762 29.0394C17.9682 29.0394 17.7685 28.9566 17.6213 28.8095L17.5506 28.8802C17.7165 29.046 17.9417 29.1394 18.1762 29.1394V29.0394ZM27.0942 29.0394H18.1762V29.1394H27.0942V29.0394ZM28.4825 30.6655L27.1325 29.0573L27.0559 29.1216L28.4059 30.7298L28.4825 30.6655ZM27.8921 30.8092C28.0831 30.8092 28.2719 30.7878 28.4552 30.7464L28.4332 30.6488C28.257 30.6887 28.0756 30.7092 27.8921 30.7092V30.8092ZM18.1761 30.8092H27.8921V30.7092H18.1761V30.8092ZM16.3697 30.061C16.8488 30.5401 17.4986 30.8092 18.1761 30.8092V30.7092C17.5251 30.7092 16.9008 30.4507 16.4404 29.9903L16.3697 30.061ZM15.6214 28.2545C15.6214 28.9321 15.8906 29.582 16.3697 30.061L16.4404 29.9903C15.9801 29.53 15.7214 28.9056 15.7214 28.2545H15.6214ZM15.6214 21.0702V28.2545H15.7214V21.0702H15.6214ZM16.3697 19.2636C15.8906 19.7427 15.6214 20.3925 15.6214 21.0702H15.7214C15.7214 20.419 15.9801 19.7946 16.4404 19.3343L16.3697 19.2636ZM18.1761 18.5154C17.4987 18.5154 16.8488 18.7845 16.3697 19.2636L16.4404 19.3343C16.9008 18.874 17.5252 18.6154 18.1761 18.6154V18.5154ZM18.2599 18.5154H18.1761V18.6154H18.2599V18.5154ZM19.6998 20.2029L18.2982 18.5333L18.2216 18.5976L19.6232 20.2672L19.6998 20.2029ZM34.012 27.4973L30.4219 25.4246L30.3719 25.5112L33.962 27.5839L34.012 27.4973ZM33.937 21.786V27.5406H34.037V21.786H33.937ZM30.4219 23.902L34.012 21.8293L33.962 21.7427L30.3719 23.8154L30.4219 23.902ZM30.4469 25.4679V23.8587H30.3469V25.4679H30.4469Z" fill="white"/>
</svg>
