<svg width="50" height="50" viewBox="0 0 50 50" fill="none" xmlns="http://www.w3.org/2000/svg">
<rect opacity="0.15" width="50" height="50" rx="25" fill="white"/>
<path fill-rule="evenodd" clip-rule="evenodd" d="M26.1029 17.1473V32.8552L26.1002 32.8524C26.1002 33.0359 26.0346 33.2131 25.9153 33.3524C25.7959 33.4916 25.6309 33.5836 25.4496 33.6116C25.2685 33.6397 25.0832 33.602 24.9273 33.5055L18.3132 29.3928H14.5615C14.3577 29.3928 14.1624 29.3119 14.0183 29.168C13.8741 29.0238 13.7932 28.8286 13.7932 28.6248V21.3778C13.7932 21.174 13.8741 20.9786 14.0183 20.8345C14.1624 20.6905 14.3577 20.6096 14.5615 20.6096H18.3132L24.93 16.4944C25.0858 16.3978 25.271 16.3603 25.4523 16.3883C25.6335 16.4164 25.7987 16.5084 25.918 16.6475C26.0372 16.7869 26.1029 16.9641 26.1029 17.1473ZM17.765 22.1458H15.3295V27.8563H17.765V22.1458ZM19.3091 28.2019L24.5665 31.472V18.5299L19.3091 21.8V28.2019ZM31.5963 30.0999L32.6334 31.2318L32.6335 31.2317C33.7892 30.1732 34.6277 28.8142 35.0555 27.3064C35.4831 25.7986 35.4831 24.2017 35.0555 22.6938C34.6277 21.1861 33.7893 19.8269 32.6335 18.7684L31.5964 19.9003H31.5963C33.0262 21.21 33.8403 23.0599 33.8403 24.999C33.8403 26.9379 33.0261 28.7877 31.5963 30.0976V30.0999ZM28.774 20.5836L27.7498 21.7359V21.736C28.6868 22.5623 29.2236 23.7514 29.2236 25.0009C29.2236 26.2504 28.6868 27.4395 27.7498 28.2658L28.774 29.4181V29.4182C30.0419 28.3001 30.7681 26.6912 30.7681 25.0008C30.7681 23.3105 30.0418 21.7017 28.774 20.5835V20.5836Z" fill="white"/>
<path d="M26.1029 32.8552L25.9957 32.9602L26.2529 33.223V32.8552H26.1029ZM26.1002 32.8524L26.2074 32.7475L25.9502 32.4847V32.8524H26.1002ZM25.9153 33.3524L26.0291 33.4501L26.0292 33.45L25.9153 33.3524ZM25.4496 33.6116L25.4267 33.4634L25.4266 33.4634L25.4496 33.6116ZM24.9273 33.5055L24.8481 33.6329L24.8484 33.6331L24.9273 33.5055ZM18.3132 29.3928L18.3924 29.2655L18.3561 29.2429H18.3132V29.3928ZM14.0183 29.168L13.9122 29.274L13.9123 29.2741L14.0183 29.168ZM14.0183 20.8345L13.9123 20.7283L13.9122 20.7284L14.0183 20.8345ZM18.3132 20.6096V20.7596H18.3561L18.3925 20.7369L18.3132 20.6096ZM24.93 16.4944L24.851 16.367L24.8508 16.3671L24.93 16.4944ZM25.4523 16.3883L25.4753 16.2401L25.4753 16.2401L25.4523 16.3883ZM25.918 16.6475L26.032 16.55L26.0319 16.5499L25.918 16.6475ZM15.3295 22.1458V21.9958H15.1795V22.1458H15.3295ZM17.765 22.1458H17.915V21.9958H17.765V22.1458ZM15.3295 27.8563H15.1795V28.0063H15.3295V27.8563ZM17.765 27.8563V28.0063H17.915V27.8563H17.765ZM24.5665 31.472L24.4872 31.5993L24.7165 31.7419V31.472H24.5665ZM19.3091 28.2019H19.1591V28.2852L19.2299 28.3293L19.3091 28.2019ZM24.5665 18.5299H24.7165V18.26L24.4872 18.4026L24.5665 18.5299ZM19.3091 21.8L19.2299 21.6727L19.1591 21.7167V21.8H19.3091ZM32.6334 31.2318L32.5228 31.3332L32.6283 31.4484L32.7391 31.3382L32.6334 31.2318ZM31.5963 30.0999H31.4463V30.1582L31.4857 30.2012L31.5963 30.0999ZM32.6335 31.2317L32.5321 31.121L32.5278 31.1253L32.6335 31.2317ZM35.0555 27.3064L35.1998 27.3473L35.1998 27.3473L35.0555 27.3064ZM35.0555 22.6938L35.1998 22.6529L35.1998 22.6529L35.0555 22.6938ZM32.6335 18.7684L32.7348 18.6578L32.6243 18.5565L32.5229 18.6671L32.6335 18.7684ZM31.5964 19.9003V20.0503H31.6624L31.707 20.0017L31.5964 19.9003ZM31.5963 19.9003V19.7503H31.2104L31.4949 20.011L31.5963 19.9003ZM31.5963 30.0976L31.4949 29.987L31.4463 30.0316V30.0976H31.5963ZM27.7498 21.7359L27.6377 21.6362L27.5998 21.6788V21.7359H27.7498ZM28.774 20.5836L28.8861 20.6832L28.924 20.6406V20.5836H28.774ZM27.7498 21.736H27.5998V21.8037L27.6506 21.8485L27.7498 21.736ZM27.7498 28.2658L27.6506 28.1533L27.5376 28.2529L27.6377 28.3654L27.7498 28.2658ZM28.774 29.4181H28.924V29.361L28.8861 29.3184L28.774 29.4181ZM28.774 29.4182H28.624V29.7505L28.8732 29.5307L28.774 29.4182ZM28.774 20.5835L28.8732 20.471L28.624 20.2512V20.5835H28.774ZM26.2529 32.8552V17.1473H25.9529V32.8552H26.2529ZM25.993 32.9573L25.9957 32.9602L26.2101 32.7503L26.2074 32.7475L25.993 32.9573ZM26.0292 33.45C26.1718 33.2835 26.2502 33.0717 26.2502 32.8524H25.9502C25.9502 33.0001 25.8974 33.1427 25.8014 33.2549L26.0292 33.45ZM25.4725 33.7598C25.6893 33.7263 25.8865 33.6163 26.0291 33.4501L25.8014 33.2548C25.7053 33.3668 25.5725 33.4408 25.4267 33.4634L25.4725 33.7598ZM24.8484 33.6331C25.0347 33.7483 25.256 33.7934 25.4725 33.7598L25.4266 33.4634C25.2809 33.4859 25.1318 33.4556 25.0062 33.3779L24.8484 33.6331ZM18.234 29.5202L24.8481 33.6329L25.0065 33.3781L18.3924 29.2655L18.234 29.5202ZM14.5615 29.5428H18.3132V29.2429H14.5615V29.5428ZM13.9123 29.2741C14.0845 29.4461 14.3179 29.5428 14.5615 29.5428V29.2429C14.3975 29.2429 14.2403 29.1777 14.1243 29.0618L13.9123 29.2741ZM13.6432 28.6248C13.6432 28.8684 13.74 29.1018 13.9122 29.274L14.1243 29.0619C14.0083 28.9458 13.9432 28.7888 13.9432 28.6248H13.6432ZM13.6432 21.3778V28.6248H13.9432V21.3778H13.6432ZM13.9122 20.7284C13.7399 20.9007 13.6432 21.1342 13.6432 21.3778H13.9432C13.9432 21.2138 14.0083 21.0565 14.1243 20.9405L13.9122 20.7284ZM14.5615 20.4596C14.3179 20.4596 14.0845 20.5563 13.9123 20.7283L14.1243 20.9406C14.2403 20.8247 14.3975 20.7596 14.5615 20.7596V20.4596ZM18.3132 20.4596H14.5615V20.7596H18.3132V20.4596ZM24.8508 16.3671L18.234 20.4822L18.3925 20.7369L25.0092 16.6218L24.8508 16.3671ZM25.4753 16.2401C25.2587 16.2066 25.0373 16.2514 24.851 16.367L25.0091 16.6219C25.1343 16.5442 25.2834 16.514 25.4294 16.5366L25.4753 16.2401ZM26.0319 16.5499C25.8893 16.3836 25.6918 16.2736 25.4753 16.2401L25.4294 16.5366C25.5751 16.5591 25.7081 16.6332 25.8042 16.7452L26.0319 16.5499ZM26.2529 17.1473C26.2529 16.9281 26.1743 16.7164 26.032 16.55L25.804 16.745C25.9 16.8573 25.9529 17 25.9529 17.1473H26.2529ZM15.3295 22.2958H17.765V21.9958H15.3295V22.2958ZM15.4795 27.8563V22.1458H15.1795V27.8563H15.4795ZM17.765 27.7063H15.3295V28.0063H17.765V27.7063ZM17.615 22.1458V27.8563H17.915V22.1458H17.615ZM24.6457 31.3446L19.3884 28.0745L19.2299 28.3293L24.4872 31.5993L24.6457 31.3446ZM24.4165 18.5299V31.472H24.7165V18.5299H24.4165ZM19.3884 21.9274L24.6457 18.6573L24.4872 18.4026L19.2299 21.6727L19.3884 21.9274ZM19.4591 28.2019V21.8H19.1591V28.2019H19.4591ZM32.744 31.1305L31.7068 29.9986L31.4857 30.2012L32.5228 31.3332L32.744 31.1305ZM32.5278 31.1253L32.5276 31.1255L32.7391 31.3382L32.7393 31.338L32.5278 31.1253ZM34.9112 27.2655C34.491 28.7465 33.6674 30.0813 32.5322 31.121L32.7348 31.3423C33.911 30.265 34.7644 28.8819 35.1998 27.3473L34.9112 27.2655ZM34.9112 22.7348C35.3312 24.2159 35.3312 25.7845 34.9112 27.2655L35.1998 27.3473C35.635 25.8128 35.635 24.1875 35.1998 22.6529L34.9112 22.7348ZM32.5322 18.879C33.6674 19.9188 34.491 21.2538 34.9112 22.7348L35.1998 22.6529C34.7644 21.1184 33.9111 19.7351 32.7348 18.6578L32.5322 18.879ZM31.707 20.0017L32.7441 18.8697L32.5229 18.6671L31.4858 19.799L31.707 20.0017ZM31.5963 20.0503H31.5964V19.7503H31.5963V20.0503ZM33.9903 24.999C33.9903 23.0178 33.1585 21.1278 31.6976 19.7897L31.4949 20.011C32.8938 21.2922 33.6903 23.1019 33.6903 24.999H33.9903ZM31.6976 30.2082C33.1584 28.8699 33.9903 26.98 33.9903 24.999H33.6903C33.6903 26.8959 32.8938 28.7056 31.4949 29.987L31.6976 30.2082ZM31.7463 30.0999V30.0976H31.4463V30.0999H31.7463ZM27.8619 21.8355L28.8861 20.6832L28.6619 20.4839L27.6377 21.6362L27.8619 21.8355ZM27.8998 21.736V21.7359H27.5998V21.736H27.8998ZM29.3736 25.0009C29.3736 23.7084 28.8183 22.4783 27.849 21.6235L27.6506 21.8485C28.5553 22.6464 29.0736 23.7945 29.0736 25.0009H29.3736ZM27.849 28.3783C28.8183 27.5235 29.3736 26.2934 29.3736 25.0009H29.0736C29.0736 26.2073 28.5553 27.3554 27.6506 28.1533L27.849 28.3783ZM28.8861 29.3184L27.8619 28.1661L27.6377 28.3654L28.6619 29.5177L28.8861 29.3184ZM28.924 29.4182V29.4181H28.624V29.4182H28.924ZM30.6181 25.0008C30.6181 26.6481 29.9104 28.216 28.6748 29.3057L28.8732 29.5307C30.1734 28.3841 30.9181 26.7342 30.9181 25.0008H30.6181ZM28.6748 20.696C29.9103 21.7857 30.6181 23.3536 30.6181 25.0008H30.9181C30.9181 23.2675 30.1733 21.6177 28.8732 20.471L28.6748 20.696ZM28.924 20.5836V20.5835H28.624V20.5836H28.924Z" fill="white"/>
</svg>
