<svg width="18" height="18" viewBox="0 0 18 18" fill="none" xmlns="http://www.w3.org/2000/svg">
<path d="M13.513 1H10.9813C10.6663 1 10.4113 1.25508 10.4113 1.57005C10.4113 1.88502 10.6663 2.1401 10.9813 2.1401H12.1365L10.7394 3.53714C9.92553 2.89395 8.89973 2.50768 7.78394 2.50768C5.14541 2.50768 3 4.65292 3 7.29162C3 9.73513 4.84335 11.7548 7.21366 12.0377V13.1385H6.06228C5.74729 13.1385 5.49223 13.3936 5.49223 13.7085C5.49223 14.0235 5.74731 14.2786 6.06228 14.2786H7.21366V15.43C7.21366 15.7449 7.46874 16 7.78371 16C8.09883 16.0003 8.35376 15.747 8.35376 15.432V14.2806H9.50514C9.82012 14.2806 10.0752 14.0256 10.0752 13.7106C10.0752 13.3956 9.82011 13.1406 9.50514 13.1406L8.35376 13.1404V12.0397C10.7222 11.7565 12.5674 9.73678 12.5674 7.29357C12.5674 6.18341 12.183 5.16139 11.5454 4.34933L12.9424 2.95229V4.10561C12.9424 4.4206 13.1975 4.67566 13.5125 4.67566C13.8275 4.67566 14.0825 4.42059 14.0825 4.10561V1.57394C14.0827 1.25516 13.8276 1.00007 13.5126 1.00007L13.513 1ZM7.78404 10.9332C5.7756 10.9332 4.14234 9.29984 4.14234 7.29152C4.14234 5.28308 5.77573 3.64982 7.78404 3.64982C9.79235 3.64982 11.4257 5.28321 11.4257 7.29152C11.4257 9.29997 9.79235 10.9332 7.78404 10.9332Z" fill="#4B4D53"/>
</svg>
