<svg width="15" height="20" viewBox="0 0 15 20" fill="none" xmlns="http://www.w3.org/2000/svg">
<path d="M7.05413 14.684C6.39235 14.6844 5.73699 14.5543 5.12552 14.3012C4.51405 14.0482 3.95846 13.6771 3.49051 13.2091C3.02257 12.7412 2.65146 12.1856 2.39839 11.5741C2.14533 10.9626 2.01528 10.3073 2.01568 9.64551V5.03844C2.01568 4.37679 2.14601 3.72161 2.39921 3.11031C2.65242 2.49902 3.02355 1.94359 3.49141 1.47573C3.95927 1.00786 4.51471 0.636734 5.126 0.383529C5.73729 0.130323 6.39247 0 7.05413 0C7.71578 0 8.37096 0.130323 8.98225 0.383529C9.59354 0.636734 10.149 1.00786 10.6168 1.47573C11.0847 1.94359 11.4558 2.49902 11.709 3.11031C11.9622 3.72161 12.0926 4.37679 12.0926 5.03844V9.64551C12.093 10.3073 11.9629 10.9626 11.7099 11.5741C11.4568 12.1856 11.0857 12.7412 10.6177 13.2091C10.1498 13.6771 9.5942 14.0482 8.98273 14.3012C8.37126 14.5543 7.7159 14.6844 7.05413 14.684ZM7.05413 1.5942C6.14045 1.59528 5.2645 1.95871 4.61843 2.60478C3.97236 3.25085 3.60892 4.1268 3.60784 5.04048V9.64653C3.60784 10.5605 3.97093 11.4371 4.61724 12.0834C5.26354 12.7297 6.14011 13.0928 7.05413 13.0928C7.96814 13.0928 8.84471 12.7297 9.49102 12.0834C10.1373 11.4371 10.5004 10.5605 10.5004 9.64653V5.03844C10.4993 4.12495 10.1358 3.24921 9.4897 2.60347C8.84357 1.95772 7.96762 1.59474 7.05413 1.5942ZM7.05413 16.7705C5.22133 16.7853 3.44991 16.1107 2.09111 14.8807C1.44714 14.2975 0.927155 13.5907 0.562149 12.8023C0.190504 11.9974 -0.00116146 11.1212 0.000509682 10.2347C-0.00331872 10.1277 0.0144517 10.021 0.05276 9.921C0.0910684 9.82101 0.14913 9.72976 0.223478 9.65271C0.297826 9.57565 0.386937 9.51437 0.485491 9.47251C0.584046 9.43065 0.690024 9.40908 0.7971 9.40908C0.904175 9.40908 1.01015 9.43065 1.10871 9.47251C1.20726 9.51437 1.29637 9.57565 1.37072 9.65271C1.44507 9.72976 1.50313 9.82101 1.54144 9.921C1.57975 10.021 1.59752 10.1277 1.59369 10.2347C1.59369 12.9593 4.04003 15.1753 7.05413 15.1753C10.0682 15.1753 12.5146 12.9583 12.5146 10.2347C12.5107 10.1277 12.5285 10.021 12.5668 9.921C12.6051 9.82101 12.6632 9.72976 12.7375 9.65271C12.8119 9.57565 12.901 9.51437 12.9995 9.47251C13.0981 9.43065 13.2041 9.40908 13.3111 9.40908C13.4182 9.40908 13.5242 9.43065 13.6228 9.47251C13.7213 9.51437 13.8104 9.57565 13.8848 9.65271C13.9591 9.72976 14.0172 9.82101 14.0555 9.921C14.0938 10.021 14.1116 10.1277 14.1077 10.2347C14.1087 11.1216 13.9156 11.9979 13.542 12.8023C13.1763 13.5903 12.6564 14.297 12.0131 14.8807C10.6555 16.1101 8.88559 16.7846 7.05413 16.7705ZM7.05413 20C6.94954 20.0001 6.84597 19.9796 6.74932 19.9397C6.65268 19.8997 6.56486 19.8411 6.49091 19.7671C6.41696 19.6932 6.35833 19.6054 6.31837 19.5087C6.27841 19.4121 6.25791 19.3085 6.25805 19.2039V15.9744C6.25805 15.7633 6.34192 15.5608 6.49121 15.4115C6.64051 15.2622 6.84299 15.1783 7.05413 15.1783C7.26526 15.1783 7.46775 15.2622 7.61704 15.4115C7.76633 15.5608 7.8502 15.7633 7.8502 15.9744V19.2039C7.85034 19.3085 7.82984 19.4121 7.78988 19.5087C7.74992 19.6054 7.69129 19.6932 7.61734 19.7671C7.54339 19.8411 7.45558 19.8997 7.35893 19.9397C7.26229 19.9796 7.15871 20.0001 7.05413 20Z" fill="#53B36E"/>
</svg>
