<svg width="40" height="40" viewBox="0 0 40 40" fill="none" xmlns="http://www.w3.org/2000/svg">
<rect width="40" height="40" rx="20" fill="#53B36E"/>
<path fill-rule="evenodd" clip-rule="evenodd" d="M25.4898 20.3674C25.6164 20.3984 25.7457 20.4301 25.8705 20.4301C26.3617 20.5171 26.8074 20.7735 27.1308 21.1554C27.4543 21.5373 27.6354 22.0208 27.6428 22.5225L27.6428 24.6796C27.6428 25.2517 27.4169 25.8003 27.0149 26.2049C26.6128 26.6094 26.0675 26.8367 25.4989 26.8367C25.4061 26.8438 25.313 26.8438 25.2202 26.8367C22.228 26.4579 19.4463 25.0877 17.3138 22.9421C15.1813 20.7965 13.8195 17.9977 13.4431 14.9871C13.4022 14.6798 13.4276 14.3672 13.5176 14.0706C13.6076 13.7741 13.7601 13.5005 13.9647 13.2686C14.1662 13.0421 14.4129 12.8609 14.6888 12.737C14.9646 12.6131 15.2634 12.5492 15.5655 12.5496L17.7094 12.5496C18.2202 12.5421 18.7168 12.7184 19.1098 13.0466C19.5029 13.3749 19.7665 13.8335 19.8533 14.34C19.8747 14.5054 19.9033 14.6635 19.9391 14.8289C20.0112 15.1487 20.1043 15.4634 20.2178 15.7708C20.3384 16.1044 20.3321 16.4711 20.2002 16.8003C20.0683 17.1295 19.82 17.3979 19.5031 17.554L19.1887 17.7554C19.5806 18.4526 20.061 19.0956 20.618 19.668C21.1872 20.2311 21.8289 20.7147 22.526 21.106L22.6832 20.7825C22.8384 20.4637 23.1052 20.2139 23.4324 20.0811C23.7596 19.9484 24.124 19.9421 24.4555 20.0634C24.7604 20.1795 25.0733 20.2733 25.3917 20.3438C25.4241 20.3513 25.4569 20.3593 25.4898 20.3674ZM26.1581 25.0468C26.2005 24.9518 26.2218 24.8485 26.2207 24.7443L26.1992 22.5009C26.2033 22.3347 26.1499 22.1722 26.0483 22.0411C25.9467 21.91 25.803 21.8184 25.6418 21.7819C25.4489 21.7531 25.2488 21.7172 25.063 21.674C24.6803 21.5867 24.3033 21.4762 23.9339 21.3433L23.4836 22.3499C23.4047 22.523 23.2608 22.6574 23.0834 22.7238C22.9095 22.7957 22.7143 22.7957 22.5403 22.7238C20.3373 21.689 18.5664 19.9072 17.5379 17.6906C17.4983 17.6048 17.4759 17.5118 17.472 17.4172C17.4682 17.3226 17.483 17.2281 17.5155 17.1393C17.5481 17.0504 17.5977 16.9689 17.6616 16.8994C17.7256 16.8299 17.8025 16.7738 17.8881 16.7343L18.8886 16.267C18.7522 15.904 18.6424 15.5315 18.5598 15.1525C18.5169 14.9607 18.4812 14.7666 18.4526 14.5701C18.4178 14.4065 18.3273 14.2604 18.1969 14.1567C18.0665 14.053 17.9042 13.9983 17.738 14.002L15.5941 14.002C15.4938 14.0032 15.3949 14.0255 15.3038 14.0677C15.2127 14.1098 15.1314 14.1707 15.0653 14.2465C14.9939 14.3253 14.9409 14.4191 14.91 14.5211C14.8791 14.623 14.8711 14.7307 14.8866 14.8361C15.2248 17.5349 16.4409 20.0453 18.3454 21.976C20.2514 23.8873 22.7305 25.113 25.3988 25.4633C25.5013 25.479 25.6058 25.472 25.7053 25.4429C25.8048 25.4139 25.8968 25.3634 25.975 25.295C26.0532 25.2266 26.1156 25.1419 26.1581 25.0468Z" fill="white"/>
</svg>
