<svg width="14" height="14" viewBox="0 0 14 14" fill="none" xmlns="http://www.w3.org/2000/svg">
<path d="M7.00008 2.14372C7.59205 2.14372 8.07194 1.66383 8.07194 1.07186C8.07194 0.479888 7.59205 0 7.00008 0C6.40811 0 5.92822 0.479888 5.92822 1.07186C5.92822 1.66383 6.40811 2.14372 7.00008 2.14372Z" fill="#53B36E"/>
<path d="M7.00008 14.0002C7.59205 14.0002 8.07194 13.5203 8.07194 12.9283C8.07194 12.3363 7.59205 11.8564 7.00008 11.8564C6.40811 11.8564 5.92822 12.3363 5.92822 12.9283C5.92822 13.5203 6.40811 14.0002 7.00008 14.0002Z" fill="#53B36E"/>
<path d="M12.9278 8.04997C13.5198 8.04997 13.9997 7.57008 13.9997 6.97811C13.9997 6.38614 13.5198 5.90625 12.9278 5.90625C12.3358 5.90625 11.856 6.38614 11.856 6.97811C11.856 7.57008 12.3358 8.04997 12.9278 8.04997Z" fill="#53B36E"/>
<path d="M1.07186 8.04997C1.66383 8.04997 2.14372 7.57008 2.14372 6.97811C2.14372 6.38614 1.66383 5.90625 1.07186 5.90625C0.479888 5.90625 0 6.38614 0 6.97811C0 7.57008 0.479888 8.04997 1.07186 8.04997Z" fill="#53B36E"/>
<path d="M9.71239 11.2214C9.69052 10.3682 10.3686 9.66825 11.2217 9.66825C11.2436 9.66825 11.2436 9.66825 11.2655 9.66825C11.2436 8.92451 10.7405 8.55264 10.6968 8.48702C10.7624 8.46515 11.3967 8.57452 11.9217 8.04953C11.2874 7.45891 11.2874 6.47455 11.9217 5.86206C11.3967 5.35894 10.7624 5.44644 10.7186 5.42456C10.7405 5.38081 11.2436 5.00894 11.2655 4.2652C11.2436 4.2652 11.2436 4.2652 11.2217 4.2652C10.3905 4.2652 9.71239 3.60896 9.71239 2.75585C9.71239 2.73398 9.71239 2.73398 9.71239 2.7121C9.31865 2.7121 8.94678 2.86522 8.66241 3.14959L8.53116 3.32459V3.14959C8.53116 2.73398 8.35616 2.36211 8.09367 2.09961C7.50305 2.73398 6.49681 2.73398 5.9062 2.09961C5.40308 2.60273 5.49058 3.25897 5.4687 3.30272C5.42495 3.25897 5.05308 2.75585 4.30934 2.75585C4.33122 3.58709 3.67498 4.30895 2.82186 4.30895C2.79999 4.30895 2.79999 4.30895 2.77812 4.30895C2.77812 5.03082 3.30311 5.44644 3.32498 5.46831C3.25936 5.49019 2.62499 5.38081 2.07812 5.90581C2.71249 6.49642 2.71249 7.48078 2.07812 8.09328C2.62499 8.61827 3.23748 8.50889 3.32498 8.53077C3.28123 8.59639 2.75624 8.96826 2.73437 9.73388C2.75624 9.73388 2.75624 9.73388 2.77812 9.73388C3.60935 9.73388 4.28747 10.412 4.28747 11.2432C4.28747 11.2651 4.28747 11.2651 4.28747 11.287C5.03121 11.287 5.42495 10.762 5.4687 10.7182C5.49058 10.7839 5.3812 11.4182 5.9062 11.9432C6.19057 11.6589 6.56244 11.462 6.99993 11.462C7.43743 11.462 7.8093 11.637 8.09367 11.9432C8.61866 11.3964 8.50929 10.762 8.53116 10.6745C8.57491 10.6964 8.94678 11.2214 9.71239 11.2214ZM8.31241 8.0714C8.18116 8.0714 8.09367 8.1589 8.09367 8.29015V9.60263L7.17493 8.68389C7.08743 8.59639 6.95618 8.59639 6.86868 8.68389L5.9062 9.6245V8.29015C5.9062 8.1589 5.8187 8.0714 5.68745 8.0714H4.39684L5.31558 7.15266C5.40308 7.06517 5.40308 6.93392 5.31558 6.84642L4.37497 5.90581H5.68745C5.8187 5.90581 5.9062 5.81831 5.9062 5.68706V4.37458L6.84681 5.31519C6.93431 5.40269 7.06556 5.40269 7.15305 5.31519L8.09367 4.37458V5.66518C8.09367 5.79643 8.18116 5.88393 8.31241 5.88393H9.64677L8.70616 6.82454C8.61866 6.91204 8.61866 7.04329 8.70616 7.13079L9.62489 8.04953H8.31241V8.0714Z" fill="#53B36E"/>
<path d="M11.1998 3.87224C11.7918 3.87224 12.2716 3.39235 12.2716 2.80038C12.2716 2.2084 11.7918 1.72852 11.1998 1.72852C10.6078 1.72852 10.1279 2.2084 10.1279 2.80038C10.1279 3.39235 10.6078 3.87224 11.1998 3.87224Z" fill="#53B36E"/>
<path d="M2.79989 12.2716C3.39186 12.2716 3.87175 11.7918 3.87175 11.1998C3.87175 10.6078 3.39186 10.1279 2.79989 10.1279C2.20792 10.1279 1.72803 10.6078 1.72803 11.1998C1.72803 11.7918 2.20792 12.2716 2.79989 12.2716Z" fill="#53B36E"/>
<path d="M11.2218 12.2502C11.8137 12.2502 12.2936 11.7703 12.2936 11.1783C12.2936 10.5863 11.8137 10.1064 11.2218 10.1064C10.6298 10.1064 10.1499 10.5863 10.1499 11.1783C10.1499 11.7703 10.6298 12.2502 11.2218 12.2502Z" fill="#53B36E"/>
<path d="M2.82186 3.84977C3.41383 3.84977 3.89372 3.36989 3.89372 2.77791C3.89372 2.18594 3.41383 1.70605 2.82186 1.70605C2.22989 1.70605 1.75 2.18594 1.75 2.77791C1.75 3.36989 2.22989 3.84977 2.82186 3.84977Z" fill="#53B36E"/>
</svg>
