<svg width="20" height="18" viewBox="0 0 20 18" fill="none" xmlns="http://www.w3.org/2000/svg">
<path d="M15.8571 4.42849V1H13.5713V4.42849H11.2856V1H9.00003V4.42849H6.71428V1H4.42854V4.42849C3.51916 4.42849 2.64723 4.78981 2.00428 5.43276C1.36117 6.07572 1 6.9478 1 7.85723V17H19.2855V7.85723C19.2855 6.94785 18.9244 6.07572 18.2813 5.43276C17.6383 4.78981 16.7664 4.42849 15.857 4.42849H15.8571ZM16.9998 14.7141H3.28564V11.2856C3.67925 11.2751 4.06268 11.4104 4.36262 11.6655C5.04042 12.1733 5.8675 12.4415 6.71413 12.4284C7.55876 12.4403 8.38365 12.1721 9.05987 11.6655C9.3652 11.4177 9.74645 11.2826 10.1399 11.2826C10.5331 11.2826 10.9143 11.4177 11.2199 11.6655C11.9027 12.1609 12.7247 12.4276 13.5683 12.4276C14.412 12.4276 15.234 12.161 15.9168 11.6655C16.2186 11.4098 16.6042 11.2745 16.9996 11.2856L16.9998 14.7141ZM16.9998 8.99987C16.1544 8.98792 15.3285 9.25617 14.6513 9.76277C14.3442 10.0089 13.9621 10.143 13.5685 10.143C13.1747 10.143 12.7928 10.0089 12.4857 9.76277C11.8027 9.26733 10.9806 9.00064 10.137 9.00064C9.29339 9.00064 8.47146 9.2673 7.78851 9.76277C7.48338 10.0097 7.10254 10.1446 6.70989 10.1446C6.31728 10.1446 5.93664 10.0097 5.63128 9.76277C4.95527 9.25616 4.13038 8.98788 3.28574 8.99987V7.85713C3.28574 7.554 3.40612 7.26321 3.62036 7.04897C3.8348 6.83453 4.12538 6.71415 4.42852 6.71415H15.857C16.1601 6.71415 16.4507 6.83453 16.6651 7.04897C16.8794 7.26322 16.9998 7.55399 16.9998 7.85713L16.9998 8.99987Z" fill="#4B4D53" stroke="white" stroke-width="0.7"/>
</svg>
