<svg width="17" height="13" viewBox="0 0 17 13" fill="none" xmlns="http://www.w3.org/2000/svg">
<path fill-rule="evenodd" clip-rule="evenodd" d="M4.77776 0H5.80554C7.02776 0 8.02776 0.972222 8.02776 2.22222V3.25C8.02776 4.47222 7.02776 5.47222 5.80554 5.47222H4.77776C3.55554 5.47222 2.55554 4.47222 2.55554 3.25V2.22222C2.55554 1 3.55554 0 4.77776 0ZM5.80554 4.36111C6.41665 4.36111 6.91665 3.86111 6.91665 3.25V2.22222C6.91665 1.61111 6.41665 1.11111 5.80554 1.11111H4.77776C4.16665 1.11111 3.66665 1.61111 3.66665 2.22222V3.25C3.66665 3.86111 4.16665 4.36111 4.77776 4.36111H5.80554Z" fill="#4B4D53"/>
<path d="M5.80554 -0.15H4.77776V0.15H5.80554V-0.15ZM8.17776 2.22222C8.17776 0.888158 7.10938 -0.15 5.80554 -0.15V0.15C6.94615 0.15 7.87776 1.05629 7.87776 2.22222H8.17776ZM8.17776 3.25V2.22222H7.87776V3.25H8.17776ZM5.80554 5.62222C7.11061 5.62222 8.17776 4.55507 8.17776 3.25H7.87776C7.87776 4.38938 6.94492 5.32222 5.80554 5.32222V5.62222ZM4.77776 5.62222H5.80554V5.32222H4.77776V5.62222ZM2.40554 3.25C2.40554 4.55507 3.4727 5.62222 4.77776 5.62222V5.32222C3.63838 5.32222 2.70554 4.38938 2.70554 3.25H2.40554ZM2.40554 2.22222V3.25H2.70554V2.22222H2.40554ZM4.77776 -0.15C3.4727 -0.15 2.40554 0.917157 2.40554 2.22222H2.70554C2.70554 1.08284 3.63838 0.15 4.77776 0.15V-0.15ZM6.76665 3.25C6.76665 3.77827 6.33381 4.21111 5.80554 4.21111V4.51111C6.4995 4.51111 7.06665 3.94395 7.06665 3.25H6.76665ZM6.76665 2.22222V3.25H7.06665V2.22222H6.76665ZM5.80554 1.26111C6.33381 1.26111 6.76665 1.69395 6.76665 2.22222H7.06665C7.06665 1.52827 6.4995 0.961111 5.80554 0.961111V1.26111ZM4.77776 1.26111H5.80554V0.961111H4.77776V1.26111ZM3.81665 2.22222C3.81665 1.69395 4.2495 1.26111 4.77776 1.26111V0.961111C4.08381 0.961111 3.51665 1.52827 3.51665 2.22222H3.81665ZM3.81665 3.25V2.22222H3.51665V3.25H3.81665ZM4.77776 4.21111C4.2495 4.21111 3.81665 3.77827 3.81665 3.25H3.51665C3.51665 3.94395 4.08381 4.51111 4.77776 4.51111V4.21111ZM5.80554 4.21111H4.77776V4.51111H5.80554V4.21111Z" fill="#4B4D53"/>
<path d="M0.555556 3.27762H1.27778C1.58333 3.27762 1.83333 3.02762 1.83333 2.72206C1.83333 2.4165 1.58333 2.1665 1.27778 2.1665H0.555556C0.25 2.1665 0 2.4165 0 2.72206C0 3.02762 0.25 3.27762 0.555556 3.27762Z" fill="#4B4D53" stroke="#4B4D53" stroke-width="0.3"/>
<path d="M9.27778 3.27762H15.8333C16.1389 3.27762 16.3889 3.02762 16.3889 2.72206C16.3889 2.4165 16.1389 2.1665 15.8333 2.1665H9.27778C8.97223 2.1665 8.72223 2.4165 8.72223 2.72206C8.72223 3.02762 8.97223 3.27762 9.27778 3.27762Z" fill="#4B4D53" stroke="#4B4D53" stroke-width="0.3"/>
<path fill-rule="evenodd" clip-rule="evenodd" d="M10.5833 6.52783H11.6111C12.8333 6.52783 13.8333 7.52783 13.8333 8.75005V9.77783C13.8333 11.0001 12.8333 12.0001 11.6111 12.0001H10.5833C9.36108 12.0001 8.36108 11.0001 8.36108 9.77783V8.75005C8.36108 7.52783 9.36108 6.52783 10.5833 6.52783ZM11.6111 10.8889C12.2222 10.8889 12.7222 10.3889 12.7222 9.77783V8.75005C12.7222 8.13894 12.2222 7.63894 11.6111 7.63894H10.5833C9.9722 7.63894 9.4722 8.13894 9.4722 8.75005V9.77783C9.4722 10.3889 9.9722 10.8889 10.5833 10.8889H11.6111Z" fill="#4B4D53"/>
<path d="M11.6111 6.37783H10.5833V6.67783H11.6111V6.37783ZM13.9833 8.75005C13.9833 7.44499 12.9161 6.37783 11.6111 6.37783V6.67783C12.7505 6.67783 13.6833 7.61067 13.6833 8.75005H13.9833ZM13.9833 9.77783V8.75005H13.6833V9.77783H13.9833ZM11.6111 12.1501C12.9161 12.1501 13.9833 11.0829 13.9833 9.77783H13.6833C13.6833 10.9172 12.7505 11.8501 11.6111 11.8501V12.1501ZM10.5833 12.1501H11.6111V11.8501H10.5833V12.1501ZM8.21108 9.77783C8.21108 11.0829 9.27824 12.1501 10.5833 12.1501V11.8501C9.44393 11.8501 8.51108 10.9172 8.51108 9.77783H8.21108ZM8.21108 8.75005V9.77783H8.51108V8.75005H8.21108ZM10.5833 6.37783C9.27824 6.37783 8.21108 7.44499 8.21108 8.75005H8.51108C8.51108 7.61067 9.44393 6.67783 10.5833 6.67783V6.37783ZM12.5722 9.77783C12.5722 10.3061 12.1394 10.7389 11.6111 10.7389V11.0389C12.305 11.0389 12.8722 10.4718 12.8722 9.77783H12.5722ZM12.5722 8.75005V9.77783H12.8722V8.75005H12.5722ZM11.6111 7.78894C12.1394 7.78894 12.5722 8.22179 12.5722 8.75005H12.8722C12.8722 8.0561 12.305 7.48894 11.6111 7.48894V7.78894ZM10.5833 7.78894H11.6111V7.48894H10.5833V7.78894ZM9.6222 8.75005C9.6222 8.22179 10.055 7.78894 10.5833 7.78894V7.48894C9.88935 7.48894 9.3222 8.0561 9.3222 8.75005H9.6222ZM9.6222 9.77783V8.75005H9.3222V9.77783H9.6222ZM10.5833 10.7389C10.055 10.7389 9.6222 10.3061 9.6222 9.77783H9.3222C9.3222 10.4718 9.88935 11.0389 10.5833 11.0389V10.7389ZM11.6111 10.7389H10.5833V11.0389H11.6111V10.7389Z" fill="#4B4D53"/>
<path d="M15.8333 8.72217H15.1111C14.8055 8.72217 14.5555 8.97217 14.5555 9.27772C14.5555 9.58328 14.8055 9.83328 15.1111 9.83328H15.8333C16.1389 9.83328 16.3889 9.58328 16.3889 9.27772C16.3889 8.97217 16.1389 8.72217 15.8333 8.72217Z" fill="#4B4D53" stroke="#4B4D53" stroke-width="0.3"/>
<path d="M7.11111 8.72217H0.555556C0.25 8.72217 0 8.97217 0 9.27772C0 9.58328 0.25 9.83328 0.555556 9.83328H7.11111C7.41667 9.83328 7.66667 9.58328 7.66667 9.27772C7.66667 8.97217 7.41667 8.72217 7.11111 8.72217Z" fill="#4B4D53" stroke="#4B4D53" stroke-width="0.3"/>
</svg>
