<svg width="20" height="16" viewBox="0 0 20 16" fill="none" xmlns="http://www.w3.org/2000/svg">
<path fill-rule="evenodd" clip-rule="evenodd" d="M2.14535 8.58956C1.99577 8.35796 1.87503 8.15739 1.78395 8C1.87503 7.84261 1.99577 7.64204 2.14535 7.41044C2.52953 6.81557 3.09847 6.0245 3.83711 5.23662C5.3296 3.64463 7.41626 2.16667 10 2.16667C12.5837 2.16667 14.6704 3.64463 16.1629 5.23662C16.9015 6.0245 17.4705 6.81557 17.8547 7.41044C18.0042 7.64204 18.125 7.84261 18.216 8C18.125 8.15739 18.0042 8.35796 17.8547 8.58956C17.4705 9.18443 16.9015 9.9755 16.1629 10.7634C14.6704 12.3554 12.5837 13.8333 10 13.8333C7.41626 13.8333 5.3296 12.3554 3.83711 10.7634C3.09847 9.9755 2.52953 9.18443 2.14535 8.58956ZM19.1667 8C19.912 7.62732 19.9119 7.62704 19.9117 7.62673L19.1667 8ZM19.9117 7.62673C20.029 7.86134 20.0293 8.13807 19.912 8.37268L19.1667 8C19.912 8.37268 19.9115 8.3737 19.9114 8.374L19.9104 8.37594L19.9075 8.38163L19.8981 8.40015C19.8901 8.41561 19.8789 8.43724 19.8644 8.46463C19.8354 8.51942 19.7933 8.59731 19.7384 8.69501C19.6285 8.8903 19.4668 9.1654 19.2547 9.49377C18.8316 10.1489 18.2026 11.0245 17.3788 11.9033C15.7463 13.6446 13.2496 15.5 10 15.5C6.75041 15.5 4.25373 13.6446 2.62122 11.9033C1.79736 11.0245 1.16839 10.1489 0.74528 9.49377C0.533208 9.1654 0.371493 8.8903 0.261643 8.69501C0.206686 8.59731 0.164617 8.51942 0.135628 8.46463C0.121131 8.43724 0.109896 8.41561 0.101948 8.40015L0.0924917 8.38163L0.0896158 8.37594L0.0879773 8.37268L0.832834 8.00025C0.0931059 8.37011 0.0878616 8.37236 0.0879745 8.37267L0.0879773 8.37268C-0.0293258 8.13807 -0.0293258 7.86193 0.0879773 7.62732L0.832498 7.99958C0.0879778 7.62732 0.0884887 7.6263 0.0886417 7.626L0.0896158 7.62406L0.0924917 7.61837L0.101948 7.59985C0.109896 7.58439 0.121131 7.56276 0.135628 7.53537C0.164617 7.48058 0.206686 7.40269 0.261643 7.30499C0.371493 7.1097 0.533208 6.8346 0.74528 6.50623C1.16839 5.85109 1.79736 4.9755 2.62122 4.09672C4.25373 2.35537 6.75041 0.5 10 0.5C13.2496 0.5 15.7463 2.35537 17.3788 4.09672C18.2026 4.9755 18.8316 5.85109 19.2547 6.50623C19.4668 6.8346 19.6285 7.1097 19.7384 7.30499C19.7933 7.40269 19.8354 7.48058 19.8644 7.53537C19.8789 7.56276 19.8901 7.58439 19.8981 7.59985L19.9075 7.61837L19.9104 7.62406L19.9117 7.62673ZM8.33333 8C8.33333 7.07952 9.07952 6.33333 10 6.33333C10.9205 6.33333 11.6667 7.07952 11.6667 8C11.6667 8.92047 10.9205 9.66667 10 9.66667C9.07952 9.66667 8.33333 8.92047 8.33333 8ZM10 4.66667C8.15905 4.66667 6.66667 6.15905 6.66667 8C6.66667 9.84095 8.15905 11.3333 10 11.3333C11.8409 11.3333 13.3333 9.84095 13.3333 8C13.3333 6.15905 11.8409 4.66667 10 4.66667Z" fill="#4B4D53"/>
</svg>
