<svg width="22" height="22" viewBox="0 0 22 22" fill="none" xmlns="http://www.w3.org/2000/svg">
<path d="M19.1036 4.11606C18.6354 3.65982 18.0795 3.29789 17.4677 3.05096C16.8558 2.80404 16.2001 2.67694 15.5378 2.67694C14.8755 2.67694 14.2197 2.80404 13.6079 3.05096C12.996 3.29789 12.4401 3.65982 11.9719 4.11606L11.0003 5.06248L10.0286 4.11606C9.08289 3.19491 7.80022 2.67742 6.46277 2.67742C5.12532 2.67742 3.84266 3.19491 2.89694 4.11606C1.95122 5.03721 1.41992 6.28655 1.41992 7.58925C1.41992 8.89195 1.95122 10.1413 2.89694 11.0624L3.8686 12.0089L11.0003 18.9552L18.1319 12.0089L19.1036 11.0624C19.572 10.6064 19.9436 10.065 20.1971 9.46902C20.4506 8.87308 20.5811 8.23432 20.5811 7.58925C20.5811 6.94418 20.4506 6.30542 20.1971 5.70948C19.9436 5.11354 19.572 4.57209 19.1036 4.11606V4.11606Z" stroke="#ACACAC" stroke-width="2" stroke-linecap="round" stroke-linejoin="round"/>
</svg>
